<?xml version="1.0" encoding="UTF-8" standalone="no"?>
<!-- Generator: Adobe Illustrator 27.8.1, SVG Export Plug-In . SVG Version: 6.00 Build 0)  -->

<svg
   version="1.1"
   id="svg5"
   inkscape:export-filename="/Users/chriswright/desktop/bitmap.png"
   inkscape:export-xdpi="96"
   inkscape:export-ydpi="96"
   inkscape:version="1.1 (c4e8f9e, 2021-05-24)"
   sodipodi:docname="BridgesOfKonigsbergChallenge.svg"
   x="0px"
   y="0px"
   viewBox="0 0 360.83629 155.98065"
   xml:space="preserve"
   width="360.8363"
   height="155.98065"
   xmlns:inkscape="http://www.inkscape.org/namespaces/inkscape"
   xmlns:sodipodi="http://sodipodi.sourceforge.net/DTD/sodipodi-0.dtd"
   xmlns="http://www.w3.org/2000/svg"
   xmlns:svg="http://www.w3.org/2000/svg"><defs
   id="defs860" />
<style
   type="text/css"
   id="style824">
	.st0{fill:none;stroke:#000000;stroke-width:0.75;stroke-miterlimit:11.3386;}
	.st1{fill:none;stroke:#000000;stroke-width:7.5;stroke-miterlimit:11.3386;stroke-dasharray:0.75,0.75;}
	.st2{fill:#00CCFF;}
</style>
<sodipodi:namedview
   bordercolor="#666666"
   borderopacity="1.0"
   fit-margin-bottom="0.2"
   fit-margin-left="0.2"
   fit-margin-right="0.2"
   fit-margin-top="0.2"
   id="namedview7"
   inkscape:current-layer="layer1"
   inkscape:cx="230.322"
   inkscape:cy="223.47032"
   inkscape:document-units="mm"
   inkscape:pagecheckerboard="0"
   inkscape:pageopacity="1"
   inkscape:pageshadow="2"
   inkscape:snap-global="false"
   inkscape:window-height="998"
   inkscape:window-maximized="0"
   inkscape:window-width="1312"
   inkscape:window-x="0"
   inkscape:window-y="25"
   inkscape:zoom="0.94867184"
   pagecolor="#ffffff"
   showgrid="true">
	<inkscape:grid
   id="grid824"
   originx="0.21216831"
   originy="-3.1698739"
   type="xygrid" />
</sodipodi:namedview>
<g
   id="layer1"
   transform="translate(-33.411467,-87.459677)"
   inkscape:groupmode="layer"
   inkscape:label="Layer 1">
	<g
   id="g4976">
		<path
   id="path859"
   sodipodi:nodetypes="ccccccccc"
   class="st0"
   d="M 248.6,150 C 233.1,137.8 218,139.6 199,137.4 c -17.6,-1.2 -35.9,-1.9 -52.8,4.1 -12.4,6.6 -20.2,21.9 -16.3,35.7 3.7,8.9 14,11.7 22.6,12.7 25,3.9 53,5.5 77.5,0.2 8.7,-1.7 9.9,-3 19.1,-10.3 4.4,-6.1 10.8,-11.3 5,-24.5 z" />
		<path
   id="path1451"
   class="st0"
   d="m 36.6,142.3 c 9.6,-0.2 19.9,0.5 29.3,-2.4 11.2,-3.4 21.3,-9.9 32.4,-13.4 25.7,-8.1 52.9,-12.7 79.8,-13.4 22,-0.6 59.7,1.9 79.8,7.9 13.3,4 25.7,12.1 40.3,9.5 24.3,-4.3 44,-17.6 66.4,-26.1 10.4,-4 23.9,-5.2 28.5,-16.6" />
		<path
   id="path1451-6"
   class="st0"
   d="m 37.2,188.6 c 9.6,0.2 19.9,-0.5 29.3,2.4 11.2,3.4 21.3,9.9 32.4,13.4 25.7,8.1 52.9,12.7 79.8,13.4 22,0.6 59.7,-1.9 79.8,-7.9 13.3,-4 25.7,-12.1 40.3,-9.5 24.3,4.3 44,17.6 66.4,26.1 10.4,4 23.9,5.2 28.5,16.6" />
		<path
   id="path1594"
   class="st0"
   d="m 390,122.8 c -24.7,9.4 -50.6,17.8 -71.8,34.1 -3.3,3.3 -10.6,6.2 -8.1,12.1 3.4,7.7 10.9,12.7 18.7,14.9 8.6,2.4 17,5.3 25,9.3 11.1,5.3 22.7,11.2 35.4,11" />
		<path
   id="path4821"
   class="st1"
   d="m 149.2,99 14.2,52.2" />
		<path
   id="path4823"
   class="st1"
   d="m 244.9,97.4 -25.3,53" />
		<path
   id="path4825"
   class="st1"
   d="m 242.5,165.4 83,0.8" />
		<path
   id="path4827"
   class="st1"
   d="m 358.3,185 -26.9,41.9" />
		<path
   id="path4829"
   class="st1"
   d="m 342.1,101.3 22.1,44.3" />
		<path
   id="path4831"
   class="st1"
   d="m 164.2,178.8 -20.6,49" />
		<path
   id="path4833"
   class="st1"
   d="m 221.1,178.9 14.2,50.6" />
	</g>
</g>
<path
   class="st2"
   d="m 121.205,49.455952 c -0.3,-0.7 -0.5,-1.4 -0.8,-2.2 l 0.1,-0.1 c 0.2,-0.4 -0.1,-0.9 -0.4,-1.1 -0.4,-1.5 -0.6,-3.1 -0.9,-4.6 -0.4,-1.5 -0.9,-3 -1.5,-4.4 -0.2,-1.6 -0.5,-3.1 -1.2,-4.4 0,0 0,-0.1 0,-0.1 0.1,-1 0,-2 -0.3,-2.9 -0.1,-0.3 -0.4,-0.6 -0.7,-0.7 -0.3,-0.1 -0.8,0 -1,0.3 0,0.1 -0.1,0.1 -0.1,0.2 -0.2,-0.1 -0.5,-0.1 -0.7,-0.1 -0.1,0 -0.2,0.1 -0.4,0.1 0,0 -0.1,0 -0.1,-0.1 -0.3,-0.1 -0.7,-0.2 -1.1,-0.1 -0.3,0.1 -0.6,0.3 -0.8,0.5 -0.4,0 -0.8,0.1 -1.2,0.1 0,0 0,0 -0.4,0 -0.2,0 -0.5,0.1 -0.7,0.1 0,0 -0.1,0 -0.1,0 -0.9,0.1 -1.7,0.3 -2.5,0.6 -1.5,0.1 -3,0.3 -4.5,0.8 -0.4,0.1 -0.8,0.2 -1.2,0.3 -1.4,0.1 -2.7,0.2 -4.1,0.5 -0.3,0.1 -0.4,0.2 -0.5,0.4 -0.2,0 -0.4,0 -0.6,0 -0.4,0 -0.7,0.1 -1.1,0.1 -0.7,0 -1.3,0.1 -1.9,0.4 -0.1,0 -0.2,0.1 -0.3,0.1 -0.1,0 -0.3,0 -0.4,0 -0.8,0 -1.7,0.2 -2.5,0.5 -0.5,0 -1,0 -1.6,0.2 -5.4,1.4 -10.9,2.5 -16,4.8 -0.3,0 -0.7,0.1 -1.1,0.2 -4.5,1.2 -8.9,2.4 -13.2,4.2 -4.1,1.7 -7.9,3.8 -12,5.7 -0.3,0.1 -0.5,0.2 -0.7,0.4 -1.1,0.3 -2.2,0.8 -3.4,1.5 -2,1.2 -4,1.8 -6.3,2.3 -0.5,0.1 -1,0.3 -1.4,0.5 -7,1.3 -14.1,2 -21.2,2.1 -0.5,0 -1,0.1 -1.5,0.2 -1.3,-0.6 -3,-0.5 -4.5,0.1 -2.5,-0.1 -5,1.7 -5.3,4.9 -0.30000001,3.2 -0.40000001,6.4 -0.50000001,9.6 0,0.5 0,1 0.2,1.4 0,6.2 0,12.5 -0.2,18.7 0,0.6 0.1,1.2 0.2,1.7 -1.1,2.1 -0.7,5 1.20000001,6.5 0.8,0.9 2,1.599998 3.6,1.599998 10,-0.1 19.6,-0.499998 29.1,3 0.1,0 0.1,0 0.2,0.1 0.4,0.2 0.8,0.4 1.3,0.5 3.8,1 7.4,2.8 10.9,4.6 0.5,0.3 1.1,0.4 1.7,0.5 3.3,1.2 6.6,2.8 9.9,4.1 3.6,1.5 7.3,2.2 10.9,3.7 0.8,0.3 1.5,0.5 2.3,0.8 0.2,0.2 0.5,0.3 0.9,0.2 0,0 0,0 0.1,0 0.3,0.1 0.6,0.1 0.8,0.2 0.2,0.1 0.3,0.2 0.5,0.3 0.5,0.3 1,0.5 1.6,0.7 1.1,0.4 2.3,0.8 3.4,1.1 1.7,0.5 3.4,0.8 5.1,1 0.1,0 0.3,0.1 0.4,0.1 2,0.7 3.9,0.6 6,1 0.4,0.2 0.8,0.4 1.3,0.6 2.6,0.8 4.7,1 7.4,1.4 3,0.4 5.8,1.6 8.9,1.7 0.2,0 0.4,0 0.5,0 0,0 0,0 0,0 0.6,0.3 1.2,0.4 1.9,0.2 0.2,0 0.3,-0.1 0.4,-0.3 0.1,0 0.2,0 0.2,-0.1 0.1,0 0.2,-0.1 0.3,-0.2 0.2,-0.2 0.3,-0.4 0.3,-0.7 0,-0.2 0,-0.5 0,-0.7 0.5,-0.6 0.9,-1.2 1.1,-2 0.6,-2.2 1.4,-4.1 2.4,-6.2 0.8,-1.8 1.2,-3.8 2.2,-5.4 0.5,-0.8 0.8,-1.5 0.8,-2.2 0.6,-0.7 1,-1.4 1.2,-2.3 0.4,-0.2 0.6,-0.6 0.6,-1 0,-0.5 -0.3,-1 -0.7,-1.3 -0.4,-0.3 -0.9,-0.3 -1.4,-0.2 -0.4,0 -0.8,0 -1.1,0 -0.3,-0.4 -0.8,-0.6 -1.3,-0.7 -0.6,-0.1 -1.1,0 -1.6,0.2 0,0 -0.1,0 -0.1,0 -4.6,-1.3 -9.4,-2.4 -13.2,-5.399998 -0.2,-0.2 -0.4,-0.3 -0.6,-0.4 -0.2,-0.4 -0.5,-0.8 -0.9,-1.2 -0.6,-0.6 -1.2,-0.9 -1.8,-1.3 -0.2,-0.4 -0.5,-0.8 -0.5,-0.8 -0.3,-0.6 -0.6,-1.2 -0.9,-1.8 -0.5,-1.1 -1.2,-2.4 -1.6,-3.4 0,-0.2 -0.1,-0.4 -0.2,-0.6 0,-0.1 -0.1,-0.2 -0.1,-0.4 0.1,-0.5 0.2,-1 0.2,-1.4 0,-0.2 0,-0.4 -0.1,-0.7 0,-0.5 -0.2,-0.9 -0.3,-1.4 0,-0.3 0,-0.7 0,-1 0,-0.1 0,-0.1 0,-0.2 0,-0.6 0,-1.1 -0.1,-1.6 0.4,-2.2 0.8,-4.4 1.2,-6.6 0.1,-0.5 0.1,-1 0.1,-1.5 0.2,-0.2 0.3,-0.4 0.4,-0.7 1.8,-4.1 4,-9.3 7.5,-12.3 0.4,-0.4 0.8,-0.8 1,-1.3 0,0 0,0 0,0 1,-0.4 1.7,-1.1 2.1,-1.8 1.5,-0.9 3,-1.8 4.5,-2.8 0.1,-0.1 0.5,-0.4 0.9,-0.8 0,0 0.1,0 0.1,0 1,-0.1 2.1,-0.7 3,-1.2 0.2,-0.1 0.4,-0.2 0.6,-0.3 0.8,0 1.5,-0.2 2.1,-0.6 0.9,-0.2 1.9,-0.4 2.8,-0.4 0.4,0 0.7,-0.2 0.9,-0.5 0.3,-0.4 0.2,-0.8 0.1,-1.1 z"
   id="path841" />
<path
   class="st2"
   d="m 196.405,30.055952 c -0.1,-0.1 -0.1,-0.2 -0.3,-0.3 -0.1,-0.1 -0.2,-0.1 -0.3,-0.2 -0.1,0 -0.2,0 -0.3,0 -0.1,0 -0.3,0 -0.4,0.1 -1.2,-0.3 -2.5,-0.5 -3.7,-0.4 0,0 0,0 0,0 -0.5,-0.2 -1,-0.2 -1.6,-0.3 -0.4,0 -0.8,0 -1.1,0 -1.7,-0.2 -3.3,-0.3 -4.9,-0.2 -1.6,-0.4 -3.2,-0.8 -4.9,-0.9 -4.3,-0.1 -8.6,-0.2 -12.9,-0.3 -0.8,-0.2 -1.7,-0.6 -2.6,-0.6 -1.3,0 -2.4,0.1 -3.8,0.1 -1.2,0 -2.4,0 -3.5,0.1 -0.8,0 -1.6,-0.1 -2.3,-0.1 -0.3,0 -0.6,0 -0.9,0 -2.4,-0.1 -4.7,-0.1 -7.1,-0.2 -2.1,0 -4.2,-0.2 -6.2,-0.1 -0.8,0 -1.5,0.2 -2.2,0.3 -0.3,-0.3 -0.7,-0.4 -1.2,-0.2 -0.3,0.2 -0.9,0 -1.3,0 -0.6,0 -1.1,-0.1 -1.7,0 -0.9,0 -1.8,0.2 -2.7,0.4 -0.5,-0.2 -1,-0.3 -1.5,-0.2 -0.4,0.1 -0.7,0.3 -1.1,0.4 0,0 0,0 0,0 -0.4,0 -0.7,0 -1.1,0 0,0 -0.1,0 -0.1,0 -0.5,0 -0.9,0.1 -1.1,0.6 -0.2,0.4 -0.1,0.9 0.3,1.1 -0.1,0.2 -0.2,0.5 -0.1,0.8 0.8,3.9 1.8,7.8 2.8,11.6 0.4,1.7 0.7,3.6 1.5,5.2 0.1,0.2 0.3,0.5 0.5,0.7 0,0.1 0,0.2 0,0.4 0.1,0.7 0.6,1.1 1.3,1 0,0 0.1,0 0.1,0 0.2,0.1 0.5,0.2 0.8,0.1 1.1,-0.2 2.3,-0.3 3.4,-0.5 0.2,0.1 0.5,0.2 0.8,0.1 1.2,-0.3 2.5,-0.1 3.7,-0.1 1.3,0 2.6,-0.1 3.8,-0.2 2.6,-0.2 5.1,-0.4 7.6,0.3 0.4,0.1 0.7,0 0.9,-0.3 0.9,0.1 1.7,0.1 2.6,0.2 1.9,0.1 3.7,0.2 5.6,0.3 1.9,0.1 3.8,0.3 5.7,0.1 0.1,0 0.1,0 0.1,0 1,0.2 1.9,0.3 2.9,0.3 0.5,0.3 1.2,0.4 1.8,0.5 0.3,0 0.6,0 0.9,0 0.7,0.4 1.6,0.4 2.3,0.5 1.1,0.1 2.2,0.2 3.3,0.3 2.2,0.1 4.4,0.2 6.6,0.2 0.2,0 0.4,-0.1 0.5,-0.1 0.1,0 0.3,0 0.5,0 1.1,-0.2 1.5,-1.4 2,-2.3 1.3,-2.5 2.7,-4.9 4,-7.4 1.2,-2.3 2.5,-4.7 3.5,-7.1 0.2,-0.4 0.4,-0.9 0.5,-1.4 0,0 0.1,-0.1 0.1,-0.1 0.1,-0.1 0.2,-0.2 0.3,-0.4 0,-0.1 0.1,-0.1 0.1,-0.2 0.1,-0.1 0.1,-0.3 0.2,-0.4 0,-0.1 0,-0.2 0.1,-0.2 0,-0.1 0,-0.3 0,-0.4 -0.1,-0.4 -0.2,-0.5 -0.2,-0.6 z"
   id="path843" />
<path
   class="st2"
   d="m 320.105,46.755952 c -0.1,-0.3 -0.2,-0.6 -0.4,-0.9 -0.1,-0.3 -0.2,-0.6 -0.4,-0.8 -0.2,-0.6 -0.5,-1.1 -0.7,-1.7 -0.1,-0.3 -0.5,-0.5 -0.9,-0.5 0,0 0,0 0,0 0.1,-0.4 -0.1,-0.9 -0.5,-1.1 0,0 -0.1,-0.1 -0.1,-0.1 -0.6,-1.7 -1.6,-3.3 -2.6,-4.9 -0.1,-0.4 -0.2,-0.8 -0.5,-1.2 -0.3,-0.5 -0.7,-0.9 -1,-1.3 -0.1,-0.1 -0.2,-0.3 -0.4,-0.4 -0.1,-0.9 -0.4,-1.7 -0.9,-2.3 0,-0.4 -0.2,-0.9 -0.4,-1.2 -0.2,-0.3 -0.5,-0.6 -0.8,-0.9 -0.1,-0.8 -1.1,-1 -1.6,-0.6 -0.5,0 -1,0.1 -1.5,0.3 -0.1,0 -0.2,0.1 -0.4,0.1 -0.7,0.1 -1.4,0.3 -1.9,0.8 0,0 -0.1,0 -0.1,0 -1.3,0.1 -2.4,0.6 -3.3,1.4 -0.8,0.2 -1.6,0.5 -2.2,0.9 0,0 0,0 0,0 -1.3,0.3 -2.5,0.6 -3.6,1.5 -0.2,0.2 -0.4,0.3 -0.5,0.5 -0.7,0.1 -1.5,0.3 -2.3,0.8 -0.9,0.6 -1.8,1.1 -2.7,1.7 -0.2,0 -0.3,0.1 -0.5,0.1 -0.1,0 -0.2,0 -0.3,0.1 -0.2,0.1 -0.4,0.2 -0.6,0.3 -0.4,0.1 -0.8,0.2 -1.2,0.4 -0.5,0 -1,0.1 -1.6,0.4 -3.2,1.2 -6.4,2.5 -9.5,3.7 -0.4,0 -0.9,0.1 -1.3,0.3 -2.2,0.9 -5.1,0.8 -7.5,1.5 -2.6,0.7 -5.2,1.2 -7.9,1.6 -0.5,-0.2 -1,-0.3 -1.5,-0.4 -1.4,-0.1 -2.9,-0.3 -4.3,-0.4 -0.4,0 -0.8,0 -1.2,0.1 -5.7,-1.3 -11.5,-2.8 -17,-5 -0.5,-0.2 -0.9,-0.3 -1.3,-0.3 -2.1,-1.4 -4.3,-1.9 -6.7,-2.4 -0.2,-0.2 -0.4,-0.3 -0.7,-0.5 -2.1,-1.2 -4.4,-1.6 -6.6,-2.1 -2,-0.9 -4,-1.8 -6.4,-1.9 -0.1,0 -0.1,0 -0.2,0 -0.7,-0.2 -1.3,-0.5 -2,-0.7 -1.1,-0.4 -2.2,-0.4 -3,-0.1 0,0 0,-0.1 -0.1,-0.1 0,0 -0.1,-0.1 -0.1,-0.1 0,0 -0.1,-0.1 -0.1,-0.1 -0.1,0 -0.1,-0.1 -0.2,-0.1 -0.1,0 -0.1,-0.1 -0.2,-0.1 -0.1,0 -0.2,0 -0.3,0 0,0 -0.1,0 -0.1,0 -0.1,0 -0.1,0 -0.2,0 -0.1,0 -0.2,0 -0.2,0 0,0 -0.1,0 -0.1,0 -0.1,0 -0.2,0.1 -0.3,0.1 -0.1,0.1 -0.3,0.2 -0.4,0.3 -0.1,0.1 -0.2,0.2 -0.2,0.3 0,0 -0.1,0.1 -0.1,0.1 -1.7,2.6 -2.9,5.5 -4.3,8.3 -0.6,1.2 -1.1,2.4 -1.7,3.5 -0.2,0.3 -0.3,0.6 -0.5,1 -0.2,0.4 -0.4,0.9 -0.6,1.3 -0.4,0.9 -0.9,1.9 -1.3,2.8 -0.1,0.3 -0.1,0.6 0,0.8 -0.1,0.1 -0.2,0.3 -0.3,0.4 0,0.1 -0.1,0.2 -0.1,0.2 -0.6,0.3 -0.8,1.3 -0.1,1.8 0.4,0.3 0.9,0.4 1.4,0.6 0.5,0.2 1,0.4 1.4,0.6 1.7,0.7 3.5,1.1 5.2,1.7 1.8,0.7 3.5,1.7 5.3,2.6 0.9,0.5 1.9,1 2.8,1.5 0,0.1 0.1,0.2 0.1,0.2 0.5,0.8 1.2,1.4 1.9,1.9 0.4,0.3 0.8,0.6 1.3,0.9 0.6,0.6 1.1,1.3 1.8,1.9 0.3,0.3 0.7,0.5 1.1,0.8 0.3,0.2 0.6,0.5 0.9,0.8 0.3,0.3 0.6,0.6 0.9,1 0.1,0.1 0.3,0.3 0.3,0.4 0.1,0.1 0.1,0.2 0.2,0.4 0.2,0.6 0.5,1.2 0.8,1.7 0.3,1.4 0.6,3 1.7,3.9 1.4,1.1 3.6,0.8 5.3,0.8 4.3,0.1 8.5,-0.1 12.8,-0.4 0.1,0 0.3,-0.1 0.4,-0.1 1.1,0.1 2.3,0.2 3.4,0.3 0.9,0.1 1.6,0 2.3,-0.3 0.1,0 0.2,0 0.4,0 0.3,0.1 0.6,0.1 0.9,0.1 0.1,0 0.1,0 0.2,0 1,0.4 2,0.3 3.1,0.1 0.1,0.2 0.2,0.3 0.4,0.4 0.4,0.2 1.1,0.1 1.3,-0.3 0,0 0,0 0,0 0,0 0,0 0,0 0.1,0 0.3,0 0.4,0 0.5,0 0.9,0 1.4,0.1 0.5,0 0.7,0.1 1.3,0.2 0.5,0.1 1,0.2 1.5,0.3 0.4,0.1 0.8,0 1,-0.3 0.6,0.1 1.1,0.2 1.8,-0.1 0,0 0.1,-0.1 0.1,-0.1 0.3,0.2 0.7,0.3 1,0.3 0.4,0 0.8,-0.1 1.1,-0.2 0,0 0,0 0,0 0.4,0.1 0.8,0.2 1.2,0.2 0.1,0 0.2,0 0.2,0 1.7,0.3 3.5,0.1 5.1,0.1 0.5,0 0.9,-0.1 1.3,-0.2 0.7,0.1 1.4,0 2.1,-0.1 0.2,0 0.3,-0.1 0.5,-0.1 0.1,0 0.2,0.1 0.3,0.1 0.1,0 0.1,0 0.2,0 0.3,0.1 0.6,0.1 0.9,0.1 0.2,0 0.5,0 0.7,-0.1 0.1,0 0.3,-0.1 0.4,-0.2 0.1,-0.1 0.3,-0.1 0.4,-0.2 0.2,-0.1 0.4,-0.3 0.5,-0.4 0,0 0.1,-0.1 0.1,-0.1 0,0 0,0 0,0 h 0.3 c 0.2,0 0.3,-0.1 0.4,-0.3 0,0 0,0 0,-0.1 0.1,-0.1 0.1,-0.2 0.2,-0.2 0,-0.1 0.1,-0.1 0.1,-0.2 0.1,0 0.2,-0.1 0.2,-0.1 0.1,-0.1 0.2,-0.2 0.3,-0.3 0.1,-0.1 0.1,-0.2 0.1,-0.4 0,0 0,-0.1 0,-0.1 4.5,-2.8 8.5,-6.6 13,-9.5 4.2,-2.7 8.5,-5.3 13.2,-6.9 2.6,-0.9 6,-2.3 8.5,-4.4 0.5,0 1.1,-0.1 1.5,-0.2 0.5,-0.2 1,-0.4 1.4,-0.7 0.2,-0.1 0.4,-0.3 0.6,-0.5 0.1,0 0.1,0 0.2,0 0.4,0 0.8,-0.2 1.1,-0.4 0.3,-0.2 0.4,-1 0.3,-1.7 z"
   id="path845" />
<g
   id="g851"
   transform="translate(0.30499999,-2.6440484)">
	<path
   class="st2"
   d="m 128,111.8 c 0.1,-0.1 0.1,-0.2 0,0 z"
   id="path847" />
	<path
   class="st2"
   d="m 191.7,127.4 c -0.1,-0.7 -0.4,-1.3 -0.6,-2 0,-0.6 0,-1.1 -0.1,-1.6 -0.1,-0.5 -0.3,-0.9 -0.6,-1.3 -0.6,-3.1 -1.5,-6.2 -2.5,-9.2 0,-0.1 0,-0.1 -0.1,-0.2 0,-0.4 -0.2,-0.8 -0.3,-1.2 0,0 0,-0.1 0,-0.1 0,-0.2 0,-0.3 -0.1,-0.5 -0.3,-0.6 -0.6,-1.2 -0.9,-1.9 0,-0.1 -0.1,-0.2 -0.1,-0.3 -0.1,-0.5 -0.7,-0.9 -1.2,-0.7 -0.1,0 -0.1,0.1 -0.2,0.1 -0.2,0 -0.4,0 -0.5,0.1 0,0 -0.3,0 -0.4,-0.1 -0.1,0 -0.2,0 -0.3,0 -0.3,0 -0.6,-0.1 -0.9,0 -5.2,0.6 -10.5,1.1 -15.7,1.6 -0.4,-0.1 -0.7,-0.1 -1.2,-0.2 -10.9,-0.3 -21.6,-0.8 -32.4,-1.8 0,0 -0.1,-0.1 -0.1,-0.1 -0.2,-0.1 -0.3,-0.1 -0.5,-0.1 -0.2,0 -0.5,0 -0.7,0 -0.1,0 -0.3,0 -0.4,-0.1 -0.1,0 -0.2,0 -0.3,0 -0.3,-0.3 -0.8,-0.4 -1.2,-0.2 -1,0.6 -1.4,1.6 -1.8,2.6 -0.1,0.4 -0.3,0.9 -0.4,1.3 0,0.1 0,0.1 -0.1,0.2 0,0 0,0 0,-0.1 0,0 0,0 0,0 0,0.1 -0.1,0.2 -0.2,0.3 -0.1,0.1 -0.1,0.2 -0.2,0.3 0,0 0,0 0,0 0.1,-0.1 0,0 -0.1,0.1 -0.3,0.3 -0.4,0.8 -0.1,1.2 -1.2,3.3 -2.6,6.6 -4.2,9.8 -0.2,0.4 -0.3,0.8 -0.4,1.2 -0.5,0.4 -0.8,1 -1.2,1.4 -0.4,0.6 -0.7,1.4 -0.7,2.2 -0.1,0.1 -0.3,0.2 -0.4,0.4 -0.2,0.4 -0.2,0.8 -0.1,1.2 0.1,0.3 0.3,0.6 0.7,0.7 0.3,0.1 0.6,0 0.8,-0.1 0.1,0 0.2,0 0.3,-0.1 0,0 0,0 0,0 0,0 0,0 0.1,0 0.4,0.2 0.7,0.4 1.2,0.4 0.9,0.1 1.8,0.1 2.6,0.1 0.1,0 0.3,0 0.4,-0.1 0.3,0.1 0.6,0.1 0.9,0.1 3.8,0.6 7.6,0.2 11.5,0.6 2,0.2 3.9,0.2 5.9,0.1 0.4,0.1 0.8,0.2 1.3,0.2 0.1,0 0.2,0 0.3,0 1.1,0.2 2.1,0.2 3.2,0.1 0.1,0 0.3,0 0.5,0 0.3,0.1 0.6,0.1 0.9,0.2 6.2,0.6 12.6,0 18.9,-0.3 0.7,0.1 1.4,0.1 2.2,-0.1 0.3,-0.1 0.7,-0.2 1,-0.3 0.1,0 0.2,0 0.2,0 3.8,-0.1 7.6,-0.5 11.3,-0.9 0.4,0 0.8,0 1.1,0 0.5,0 0.9,0 1.3,-0.1 0.1,0 0.2,0 0.3,0.1 0.7,0 1.4,0 2,0 0.4,0 0.7,0 1.1,0 0.5,-0.1 0.9,-0.4 1.1,-0.8 0.4,-0.6 0.2,-1.4 0.1,-2.1 z"
   id="path849" />
</g>
<path
   class="st2"
   d="m 313.305,104.25595 c 0,0 0,0 0,0 -0.3,-0.2 -0.6,-0.4 -1,-0.5 -0.3,-0.1 -0.6,-0.2 -0.8,-0.3 -0.4,-0.1 -0.7,-0.4 -1,-0.5 -1.1,-0.5 -2.2,-0.8 -3.3,-1 -0.2,-0.1 -0.4,-0.2 -0.6,-0.3 -2.3,-0.9 -4.6,-1.699998 -7,-2.499998 -0.4,-0.1 -0.8,-0.2 -1.2,-0.2 -0.5,-0.4 -1.2,-0.7 -1.9,-1 -0.6,-0.2 -1.2,-0.1 -1.9,-0.2 -0.5,-0.3 -1,-0.6 -1.5,-0.8 -0.6,-0.2 -1.1,-0.3 -1.7,-0.3 -0.5,-0.3 -1,-0.6 -1.5,-0.8 -0.1,0 -0.2,-0.1 -0.4,-0.1 -0.2,-0.1 -0.3,-0.2 -0.5,-0.2 0,0 -0.1,0 -0.1,0 -0.9,-0.7 -1.8,-1.2 -2.8,-1.5 -2,-1.4 -4.1,-2.7 -6,-4.2 0,0 0,0 -0.1,0 -0.4,-1 -1,-1.8 -1.7,-2.6 0,0 0,0 -0.1,-0.1 -0.4,-1.7 -1.7,-3.3 -3.5,-3.7 -1,-0.2 -2,-0.2 -3,0.1 -0.1,0 -0.3,0 -0.4,-0.1 -1,-0.4 -2.2,-0.6 -3.2,-0.2 -0.1,0 -0.2,0.1 -0.3,0.1 -0.3,-0.1 -0.6,-0.1 -0.9,0 -0.2,0 -0.3,0 -0.4,0.1 -1,-0.2 -1.9,-0.3 -3,-0.3 -0.8,-0.1 -1.6,-0.1 -2.4,0 -0.9,0.1 -1.8,0.2 -2.7,0.3 -0.9,-0.4 -2,-0.5 -3,-0.2 -0.4,-0.1 -0.9,-0.1 -1.3,-0.2 -0.6,0 -1.2,0 -1.7,0 -0.3,0 -0.6,0.1 -0.9,0.1 -1.3,-0.4 -2.5,-0.4 -3.8,-0.1 -0.7,-0.4 -1.5,-0.6 -2.3,-0.5 -5.3,0.6 -10.4,0 -15.7,0 -1.4,0 -2.7,0.1 -3.8,0.5 -0.2,-0.1 -0.3,-0.1 -0.5,-0.1 0,0 0,0 0,0 -0.3,-0.2 -0.6,-0.4 -0.9,-0.4 -0.6,0 -1.1,0.4 -1.4,0.9 -0.5,0.7 -0.7,1.5 -1,2.3 0,0 0,0.1 0,0.1 0,0 0,0 0,0.1 0,0.1 -0.1,0.2 -0.1,0.3 -0.1,0.2 -0.2,0.3 -0.3,0.5 -0.2,0.3 -0.4,0.6 -0.6,0.9 -0.1,0.2 -0.3,0.4 -0.4,0.6 -0.1,0.1 -0.2,0.2 -0.2,0.3 -3.1,4 -6.9,7.6 -11,10.6 -0.4,0.3 -0.7,0.6 -1,0.999998 -0.2,0 -0.5,0.1 -0.7,0.2 -1,0.4 -2,0.7 -3,1.1 -0.6,0.2 -1.1,0.5 -1.6,0.8 0,0 0,0 -0.1,0 -0.8,0 -1.5,0.3 -2.1,0.7 -0.6,0.1 -1.1,0.2 -1.7,0.4 -0.3,0.1 -0.6,0.3 -0.9,0.5 0,0 0,0 0,0 -0.3,-0.1 -0.6,-0.1 -0.8,0 -0.1,0 -0.2,0.1 -0.3,0.2 -0.5,0.1 -0.9,0.5 -0.9,1 0.1,0.7 0.1,1.4 0.3,2 0.1,0.5 0.3,0.9 0.6,1.3 0,0.3 0.1,0.7 0.2,1.1 1.3,4.1 2.4,8.3 3.3,12.5 0.2,0.8 0.5,1.5 1,2 -0.2,0.8 0.2,1.8 1.2,2.1 0.3,0.1 0.7,0 1,-0.3 0.3,-0.3 0.8,-0.4 1.2,-0.4 0.1,0 0.2,0 0.3,0 0.3,0 0.6,0.1 0.9,0.1 0.8,0 1.6,-0.2 2.4,-0.6 0.3,0 0.6,0 0.9,-0.1 4.6,-0.8 9.1,-1.9 13.6,-3.2 4.2,-1.2 8.5,-3.6 12.8,-4.1 1.2,-0.2 2.2,-0.6 2.9,-1.3 0.4,-0.1 0.9,-0.2 1.3,-0.4 0.4,-0.2 0.7,-0.3 1.1,-0.5 0.3,0 0.6,0 0.8,-0.1 0.8,-0.1 1.5,-0.3 2.3,-0.6 1.3,-0.4 2.9,-1 4,-1.7 0.4,-0.2 0.9,-0.4 1.3,-0.5 0.6,0 1.3,0 2,-0.3 1.6,-0.1 3.3,-0.3 5,-0.6 1.3,0 2.6,0 4,-0.2 0.1,0 0.2,0 0.3,0 1,0.4 2,0.4 3.1,0.2 0.1,0 0.2,0 0.2,-0.1 7.4,1.8 14.9,2.7 21.9,5.9 0.2,0.1 0.4,0.2 0.6,0.2 0.6,0.4 1.2,0.6 2,0.7 0.6,0.5 1.3,1 2,1.3 2,0.8 3.9,1.6 5.9,2.1 0.2,0.2 0.3,0.3 0.6,0.5 0.9,0.9 2,1.3 3,1.4 0,0 0,0 0,0 0.2,0.2 0.3,0.4 0.5,0.5 0.4,0.2 0.8,0.3 1.2,0.2 0.2,-0.1 0.4,-0.2 0.5,-0.4 0.1,0 0.2,-0.1 0.4,-0.2 0.1,-0.1 0.2,-0.2 0.4,-0.3 0.1,-0.1 0.2,-0.2 0.2,-0.3 0.1,-0.1 0.1,-0.2 0.1,-0.4 0,0 0,-0.1 0,-0.1 0.9,-0.6 1.6,-1.5 2.1,-2.7 1,-2.6 2.8,-4.3 3.6,-6.6 1,-1.2 1.7,-2.2 2,-3.7 0,0 0,0 0,0 0.1,-0.1 0.1,-0.2 0.1,-0.2 0.1,-0.2 0.3,-0.3 0.4,-0.5 0.2,-0.3 0.4,-0.6 0.7,-0.8 0.1,0 0.1,-0.1 0.2,-0.1 0.2,-0.2 0.3,-0.3 0.4,-0.6 0.1,-0.2 0.1,-0.5 0.1,-0.7 0.2,-0.1 0.4,-0.3 0.5,-0.5 0.1,0 0.1,-0.1 0.2,-0.1 0.2,-0.2 0.3,-0.5 0.3,-0.7 0,-0.5 -0.4,-1.1 -1,-1 z"
   id="path853" />
<path
   class="st2"
   d="m 358.505,142.85595 c 0.1,-0.9 0.1,-1.8 -0.1,-2.7 0,-0.1 -0.1,-0.3 -0.2,-0.4 0,-0.1 0,-0.2 0,-0.3 -0.1,-2.2 -0.2,-4.4 -0.4,-6.5 0,-0.5 -0.2,-1.1 -0.3,-1.6 0,-0.1 0.1,-0.2 0.1,-0.4 0.8,-2.9 0.3,-6 -1.4,-8.4 -0.2,-0.7 -0.3,-1.4 -0.4,-2.1 0,-0.5 0,-1 -0.3,-1.4 -0.2,-0.3 -0.6,-0.5 -0.9,-0.7 -1.5,-0.8 -3.3,-0.4 -4.9,-0.5 -3.9,-0.3 -7.5,-2.4 -11.5,-2.8 -0.1,0 -0.2,0 -0.3,0 l -0.5,-0.2 c 0.3,-0.1 0.2,-0.2 -0.3,-0.4 -0.5,-0.2 -1,-0.4 -1.5,-0.6 -0.7,-0.2 -1.4,-0.4 -2,-0.5 -0.2,-0.1 -0.4,-0.3 -0.6,-0.4 -0.8,-0.4 -1.6,-0.8 -2.5,-0.9 -0.3,-0.1 -0.5,-0.1 -0.8,-0.1 -0.7,-0.9 -1.8,-1.5 -3.3,-1.6 -0.1,-0.1 -0.2,-0.2 -0.2,-0.3 -0.2,-0.3 -0.4,-0.6 -0.8,-0.7 0,0 -0.3,0 -0.3,0 0,0 0,0 0,0 -0.1,0 -0.1,-0.1 -0.2,-0.1 -0.3,-0.2 -0.6,-0.4 -0.9,-0.5 -0.5,-0.1 -1.1,0 -1.5,0.4 -0.3,0.3 -0.4,0.7 -0.5,1.1 -0.4,0.4 -0.8,1 -1.2,1.5 -0.7,1 -1.2,2.1 -1.7,3.2 -0.1,0.1 -0.3,0.3 -0.4,0.5 -0.1,0.3 -0.3,0.7 -0.4,1 -1.4,1.8 -2.9,3.6 -4.2,5.5 -0.7,1 -1.2,2.1 -1.7,3.2 -0.2,0.5 -0.5,0.9 -0.7,1.4 -0.2,0.2 -0.4,0.4 -0.6,0.7 -0.3,0.5 -0.1,1.1 0.3,1.3 0.1,0.7 0.9,1.1 1.4,0.8 0.5,0.6 1.3,0.9 2,1.2 0.8,0.3 1.7,0.7 2.5,1 0.3,0.2 0.6,0.5 0.9,0.8 0.6,0.4 1.2,0.7 1.9,0.7 0.4,0.1 0.8,0.3 1.2,0.4 0.1,0.1 0.2,0.2 0.3,0.3 3,1.5 6.1,2.7 9.4,3.6 0.3,0.5 0.7,0.8 1.2,0.9 0.2,0 0.5,0.1 0.7,0.1 0.4,0.5 1.1,0.8 1.7,1 0.7,0.2 1.4,0.4 2.1,0.6 0.8,0.2 1.5,0.4 2.3,0.5 0,0 0,0 0,0 0.4,0.2 0.8,0.4 1.3,0.5 0.7,0.1 1.2,0 1.8,0.3 0.5,0.3 1,0.5 1.6,0.7 0.2,0.1 0.4,0.1 0.6,0.2 0.1,0.4 0.3,0.7 0.7,0.7 1,0.2 1.9,0.4 2.9,0.6 0.5,0.1 0.9,0.3 1.4,0.4 0,0 0,0 0,0 0,0.1 0.1,0.2 0.1,0.2 0.1,0.2 0.3,0.4 0.6,0.5 0.4,0.2 0.9,0.2 1.2,0.3 0.1,0 0.2,0.1 0.3,0.1 0.1,0 0.1,0.1 0.2,0.1 0.1,0.1 0.2,0.2 0.3,0.3 0.5,0.4 1,0.6 1.5,0.8 0.1,0 0.2,0.1 0.3,0.1 0,0 0.2,0.1 0.2,0.1 0,0 0.1,0 0.1,0.1 0,0 0,0 0,0 0,0 0,0 0,0 0,0 0,0.1 0.1,0.1 0.4,0.6 1,1.1 1.8,0.9 0.1,0 0.1,-0.1 0.2,-0.1 0,0.1 0,0.2 0,0.3 0.1,0.5 0.7,0.8 1.2,0.7 0.6,-0.2 0.8,-0.7 0.7,-1.2 -0.1,-0.4 -0.1,-0.9 0,-1.4 0.1,-0.2 0.1,-0.4 0,-0.7 0,-0.1 -0.1,-0.2 -0.1,-0.2 0,-0.2 0.1,-0.4 0.1,-0.6 0.3,-0.5 0.4,-1 0.4,-1.4 z"
   id="path855" />
<path
   class="st2"
   d="m 357.705,16.655952 c 0,-0.4 -0.1,-0.7 -0.1,-1 0.1,-1.1 0.1,-2.1 0,-3.2 0,-0.3 -0.1,-0.6 -0.2,-0.9 -0.1,-0.8 -0.2,-1.5 -0.2,-2.3000004 0,-0.2 -0.1,-0.3 -0.1,-0.4 0,0 0,-0.1 0,-0.1 -0.1,-1.1 -1.5,-1.3 -1.9,-0.3 -0.4,0 -0.8,0.3 -0.9,0.7 -0.1,0.1 -0.2,0.2 -0.2,0.3 0,0 0,0.1 -0.1,0.1 -0.5,0.1 -1,0.4 -1.4,0.8000004 -0.1,0.1 -0.1,0.1 -0.2,0.2 -0.1,0.1 -0.2,0.1 -0.2,0.2 -0.6,0.5 -1.4,0.8 -2.2,1.1 l -2.8,1.2 c -0.1,0.1 -0.2,0.1 -0.3,0.2 -0.2,0.1 -0.4,0.1 -0.7,0.2 -0.9,0.3 -1.8,0.6 -2.7,1 -1.8,0 -3.9,1.1 -5.6,1.7 -1.1,0.4 -2.1,0.8 -2.9,1.5 -0.6,-0.1 -1.3,-0.1 -2,0.2 -3.4,1.6 -6.9,3.5 -10.6,4.4 -0.1,0 -0.2,0 -0.3,0 -0.6,0 -1.1,0.2 -1.4,0.6 -0.3,0 -0.6,0 -0.8,0.3 -1.1,1.1 -0.1,2.4 0.5,3.4 0.2,0.4 0.5,0.7 0.7,1.1 -0.1,0.3 -0.2,0.6 0,0.9 0.3,0.4 0.5,0.9 0.8,1.3 0,0.1 0,0.2 0.1,0.3 0.1,0.6 0.4,1 0.8,1.4 0,0.1 0.1,0.2 0.1,0.3 0.2,0.5 0.2,1 0.5,1.5 0.2,0.4 0.4,0.6 0.7,0.8 0,0.1 0,0.2 0,0.2 0,0.2 0.1,0.4 0.1,0.5 0.1,0.4 0.3,0.7 0.5,1 0.4,0.6 0.8,1.3 1.2,1.9 0.4,0.8 0.7,1.9 1.5,2.5 0.2,0.5 0.5,0.9 0.9,1.3 0.1,0.1 0.1,0.3 0.2,0.4 0,0.1 0,0.2 0,0.3 0,0.1 0.1,0.2 0.2,0.3 0,0 0,0 0,0 0.1,0.3 0.2,0.5 0.4,0.7 0.2,0.2 0.5,0.4 0.9,0.4 0.6,0.1 1.1,0 1.7,-0.2 0.1,0 0.3,-0.1 0.4,-0.2 0.7,-0.1 1.4,-0.3 2.1,-0.7 0.2,-0.1 0.3,-0.2 0.5,-0.4 0.3,-0.1 0.6,-0.1 1,-0.2 1.2,-0.3 1.9,-0.9 2.5,-1.3 0,0 0.1,0 0.1,0 0.8,-0.3 1.5,-0.6 2.2,-1 0.1,0 0.1,0 0.2,0 1.5,-0.2 3.2,-0.8 4.6,-1.6 0.2,-0.1 0.5,-0.2 0.7,-0.3 0,0 0.1,0 0.1,0 1.4,-0.1 2.8,-0.5 4.1,-1.2 0.1,-0.1 0.3,-0.2 0.3,-0.3 0.3,-0.1 0.5,-0.2 0.8,-0.3 0.9,-0.5 1.9,-1 2.8,-1.6 0.6,-0.2 1.1,-0.6 1.6,-1 0.3,-0.2 0.6,-0.4 0.9,-0.6 0.5,-0.3 0.5,-0.9 0.4,-1.3 0.2,-0.6 0.4,-1.2 0.5,-1.8 0.2,-4.1 0.4,-8.5 0.2,-13 z"
   id="path857" />
</svg>
