<?xml version="1.0" encoding="UTF-8" standalone="no"?>
<!-- Created with Inkscape (http://www.inkscape.org/) -->

<svg
   width="134.95312mm"
   height="66.558327mm"
   viewBox="0 0 134.95313 66.558326"
   version="1.1"
   id="svg5"
   inkscape:version="1.1 (c4e8f9e, 2021-05-24)"
   sodipodi:docname="MagicSquares6Challenge.svg"
   inkscape:export-filename="/Users/chriswright/desktop/MagicSquares3.png"
   inkscape:export-xdpi="96"
   inkscape:export-ydpi="96"
   xmlns:inkscape="http://www.inkscape.org/namespaces/inkscape"
   xmlns:sodipodi="http://sodipodi.sourceforge.net/DTD/sodipodi-0.dtd"
   xmlns="http://www.w3.org/2000/svg"
   xmlns:svg="http://www.w3.org/2000/svg">
  <sodipodi:namedview
     id="namedview7"
     pagecolor="#ffffff"
     bordercolor="#666666"
     borderopacity="1.0"
     inkscape:pageshadow="2"
     inkscape:pageopacity="1"
     inkscape:pagecheckerboard="0"
     inkscape:document-units="mm"
     showgrid="true"
     inkscape:zoom="1.3416246"
     inkscape:cx="268.33139"
     inkscape:cy="209.44756"
     inkscape:window-width="1727"
     inkscape:window-height="998"
     inkscape:window-x="0"
     inkscape:window-y="25"
     inkscape:window-maximized="0"
     inkscape:current-layer="layer1"
     fit-margin-left="1"
     fit-margin-top="1"
     fit-margin-right="1"
     fit-margin-bottom="1">
    <inkscape:grid
       type="xygrid"
       id="grid857"
       originx="30.236459"
       originy="-61.970831" />
  </sodipodi:namedview>
  <defs
     id="defs2">
    <marker
       style="overflow:visible"
       id="Arrow1Send"
       refX="0"
       refY="0"
       orient="auto"
       inkscape:stockid="Arrow1Send"
       inkscape:isstock="true">
      <path
         transform="matrix(-0.2,0,0,-0.2,-1.2,0)"
         style="fill:context-stroke;fill-rule:evenodd;stroke:context-stroke;stroke-width:1pt"
         d="M 0,0 5,-5 -12.5,0 5,5 Z"
         id="path1850" />
    </marker>
    <marker
       style="overflow:visible"
       id="Arrow1Send-1"
       refX="0"
       refY="0"
       orient="auto"
       inkscape:stockid="Arrow1Send"
       inkscape:isstock="true">
      <path
         transform="matrix(-0.2,0,0,-0.2,-1.2,0)"
         style="fill:context-stroke;fill-rule:evenodd;stroke:context-stroke;stroke-width:1pt"
         d="M 0,0 5,-5 -12.5,0 5,5 Z"
         id="path1850-6" />
    </marker>
    <marker
       style="overflow:visible"
       id="Arrow1Send-8"
       refX="0"
       refY="0"
       orient="auto"
       inkscape:stockid="Arrow1Send"
       inkscape:isstock="true">
      <path
         transform="matrix(-0.2,0,0,-0.2,-1.2,0)"
         style="fill:context-stroke;fill-rule:evenodd;stroke:context-stroke;stroke-width:1pt"
         d="M 0,0 5,-5 -12.5,0 5,5 Z"
         id="path1850-3" />
    </marker>
    <marker
       style="overflow:visible"
       id="Arrow1Send-7"
       refX="0"
       refY="0"
       orient="auto"
       inkscape:stockid="Arrow1Send"
       inkscape:isstock="true">
      <path
         transform="matrix(-0.2,0,0,-0.2,-1.2,0)"
         style="fill:context-stroke;fill-rule:evenodd;stroke:context-stroke;stroke-width:1pt"
         d="M 0,0 5,-5 -12.5,0 5,5 Z"
         id="path1850-1" />
    </marker>
    <marker
       style="overflow:visible"
       id="Arrow1Send-7-9"
       refX="0"
       refY="0"
       orient="auto"
       inkscape:stockid="Arrow1Send"
       inkscape:isstock="true">
      <path
         transform="matrix(-0.2,0,0,-0.2,-1.2,0)"
         style="fill:context-stroke;fill-rule:evenodd;stroke:context-stroke;stroke-width:1pt"
         d="M 0,0 5,-5 -12.5,0 5,5 Z"
         id="path1850-1-8" />
    </marker>
    <marker
       style="overflow:visible"
       id="Arrow1Send-7-3"
       refX="0"
       refY="0"
       orient="auto"
       inkscape:stockid="Arrow1Send"
       inkscape:isstock="true">
      <path
         transform="matrix(-0.2,0,0,-0.2,-1.2,0)"
         style="fill:context-stroke;fill-rule:evenodd;stroke:context-stroke;stroke-width:1pt"
         d="M 0,0 5,-5 -12.5,0 5,5 Z"
         id="path1850-1-4" />
    </marker>
    <marker
       style="overflow:visible"
       id="Arrow1Send-7-93"
       refX="0"
       refY="0"
       orient="auto"
       inkscape:stockid="Arrow1Send"
       inkscape:isstock="true">
      <path
         transform="matrix(-0.2,0,0,-0.2,-1.2,0)"
         style="fill:context-stroke;fill-rule:evenodd;stroke:context-stroke;stroke-width:1pt"
         d="M 0,0 5,-5 -12.5,0 5,5 Z"
         id="path1850-1-43" />
    </marker>
    <marker
       style="overflow:visible"
       id="Arrow1Send-7-8"
       refX="0"
       refY="0"
       orient="auto"
       inkscape:stockid="Arrow1Send"
       inkscape:isstock="true">
      <path
         transform="matrix(-0.2,0,0,-0.2,-1.2,0)"
         style="fill:context-stroke;fill-rule:evenodd;stroke:context-stroke;stroke-width:1pt"
         d="M 0,0 5,-5 -12.5,0 5,5 Z"
         id="path1850-1-5" />
    </marker>
    <marker
       style="overflow:visible"
       id="Arrow1Send-5"
       refX="0"
       refY="0"
       orient="auto"
       inkscape:stockid="Arrow1Send"
       inkscape:isstock="true">
      <path
         transform="matrix(-0.2,0,0,-0.2,-1.2,0)"
         style="fill:context-stroke;fill-rule:evenodd;stroke:context-stroke;stroke-width:1pt"
         d="M 0,0 5,-5 -12.5,0 5,5 Z"
         id="path1850-18" />
    </marker>
    <marker
       style="overflow:visible"
       id="Arrow1Send-1-1"
       refX="0"
       refY="0"
       orient="auto"
       inkscape:stockid="Arrow1Send"
       inkscape:isstock="true">
      <path
         transform="matrix(-0.2,0,0,-0.2,-1.2,0)"
         style="fill:context-stroke;fill-rule:evenodd;stroke:context-stroke;stroke-width:1pt"
         d="M 0,0 5,-5 -12.5,0 5,5 Z"
         id="path1850-6-0" />
    </marker>
    <marker
       style="overflow:visible"
       id="Arrow1Send-8-3"
       refX="0"
       refY="0"
       orient="auto"
       inkscape:stockid="Arrow1Send"
       inkscape:isstock="true">
      <path
         transform="matrix(-0.2,0,0,-0.2,-1.2,0)"
         style="fill:context-stroke;fill-rule:evenodd;stroke:context-stroke;stroke-width:1pt"
         d="M 0,0 5,-5 -12.5,0 5,5 Z"
         id="path1850-3-4" />
    </marker>
    <marker
       style="overflow:visible"
       id="Arrow1Send-7-38"
       refX="0"
       refY="0"
       orient="auto"
       inkscape:stockid="Arrow1Send"
       inkscape:isstock="true">
      <path
         transform="matrix(-0.2,0,0,-0.2,-1.2,0)"
         style="fill:context-stroke;fill-rule:evenodd;stroke:context-stroke;stroke-width:1pt"
         d="M 0,0 5,-5 -12.5,0 5,5 Z"
         id="path1850-1-54" />
    </marker>
    <marker
       style="overflow:visible"
       id="Arrow1Send-7-9-2"
       refX="0"
       refY="0"
       orient="auto"
       inkscape:stockid="Arrow1Send"
       inkscape:isstock="true">
      <path
         transform="matrix(-0.2,0,0,-0.2,-1.2,0)"
         style="fill:context-stroke;fill-rule:evenodd;stroke:context-stroke;stroke-width:1pt"
         d="M 0,0 5,-5 -12.5,0 5,5 Z"
         id="path1850-1-8-9" />
    </marker>
    <marker
       style="overflow:visible"
       id="Arrow1Send-7-3-2"
       refX="0"
       refY="0"
       orient="auto"
       inkscape:stockid="Arrow1Send"
       inkscape:isstock="true">
      <path
         transform="matrix(-0.2,0,0,-0.2,-1.2,0)"
         style="fill:context-stroke;fill-rule:evenodd;stroke:context-stroke;stroke-width:1pt"
         d="M 0,0 5,-5 -12.5,0 5,5 Z"
         id="path1850-1-4-5" />
    </marker>
    <marker
       style="overflow:visible"
       id="Arrow1Send-7-93-1"
       refX="0"
       refY="0"
       orient="auto"
       inkscape:stockid="Arrow1Send"
       inkscape:isstock="true">
      <path
         transform="matrix(-0.2,0,0,-0.2,-1.2,0)"
         style="fill:context-stroke;fill-rule:evenodd;stroke:context-stroke;stroke-width:1pt"
         d="M 0,0 5,-5 -12.5,0 5,5 Z"
         id="path1850-1-43-0" />
    </marker>
    <marker
       style="overflow:visible"
       id="Arrow1Send-7-8-6"
       refX="0"
       refY="0"
       orient="auto"
       inkscape:stockid="Arrow1Send"
       inkscape:isstock="true">
      <path
         transform="matrix(-0.2,0,0,-0.2,-1.2,0)"
         style="fill:context-stroke;fill-rule:evenodd;stroke:context-stroke;stroke-width:1pt"
         d="M 0,0 5,-5 -12.5,0 5,5 Z"
         id="path1850-1-5-4" />
    </marker>
  </defs>
  <g
     inkscape:label="Layer 1"
     inkscape:groupmode="layer"
     id="layer1"
     transform="translate(30.236461,-61.970842)">
    <g
       id="g1439"
       transform="matrix(1.9999998,0,0,1.9999998,-39.687489,-126.99997)">
      <g
         id="g1049">
        <g
           id="g954-5-8"
           style="stroke:#010000;stroke-width:0.529167;stroke-miterlimit:4;stroke-dasharray:none;stroke-opacity:1"
           transform="translate(13.229167)">
          <path
             style="fill:none;stroke:#010000;stroke-width:0.529167;stroke-linecap:butt;stroke-linejoin:miter;stroke-miterlimit:4;stroke-dasharray:none;stroke-opacity:1"
             d="m 26.458333,95.249999 h 31.75 V 127 h -31.75 z"
             id="path859-7-8" />
          <path
             style="fill:none;stroke:#010000;stroke-width:0.529167;stroke-linecap:butt;stroke-linejoin:miter;stroke-miterlimit:4;stroke-dasharray:none;stroke-opacity:1"
             d="M 37.041666,95.249999 V 127"
             id="path861-3-9" />
          <path
             style="fill:none;stroke:#010000;stroke-width:0.529167;stroke-linecap:butt;stroke-linejoin:miter;stroke-miterlimit:4;stroke-dasharray:none;stroke-opacity:1"
             d="M 47.624999,95.249999 V 127"
             id="path863-5-6" />
          <path
             style="fill:none;stroke:#010000;stroke-width:0.529167;stroke-linecap:butt;stroke-linejoin:miter;stroke-miterlimit:4;stroke-dasharray:none;stroke-opacity:1"
             d="m 26.458333,105.83333 h 31.75"
             id="path865-2-6" />
          <path
             style="fill:none;stroke:#010000;stroke-width:0.529167;stroke-linecap:butt;stroke-linejoin:miter;stroke-miterlimit:4;stroke-dasharray:none;stroke-opacity:1"
             d="m 26.458333,116.41667 h 31.75"
             id="path867-1-0" />
        </g>
      </g>
    </g>
    <g
       id="g2582"
       transform="translate(-68.791666,-66.145834)">
      <path
         style="fill:none;stroke:#000000;stroke-width:0.264583px;stroke-linecap:butt;stroke-linejoin:miter;stroke-opacity:1"
         d="m 39.687496,142.87501 h 13.229166 v -7.9375 h -5.291666 v 2.64583 h -2.645833 v 2.64583 h -5.291667 z"
         id="path1208" />
      <path
         style="opacity:0.563107;fill:#a0a0a0;stroke:none;stroke-width:0.527053"
         d="m 5.2705264,179.72495 v -4.74347 H 15.284526 25.298527 v -5.00701 -5.007 h 5.007 5.007 v -5.007 -5.007 h 9.486947 9.486947 v 14.75748 14.75747 H 29.778474 5.2705264 Z"
         id="path1374"
         transform="matrix(0.26458333,0,0,0.26458333,38.422917,93.985416)" />
      <path
         style="fill:none;stroke:#000000;stroke-width:0.264583px;stroke-linecap:butt;stroke-linejoin:miter;stroke-opacity:1"
         d="m 50.270829,134.93751 v 7.9375"
         id="path2448" />
      <path
         style="fill:none;stroke:#000000;stroke-width:0.264583px;stroke-linecap:butt;stroke-linejoin:miter;stroke-opacity:1"
         d="m 47.624996,137.58334 v 5.29167"
         id="path2450" />
      <path
         style="fill:none;stroke:#000000;stroke-width:0.264583px;stroke-linecap:butt;stroke-linejoin:miter;stroke-opacity:1"
         d="m 44.979163,140.22917 v 2.64584"
         id="path2452" />
      <path
         style="fill:none;stroke:#000000;stroke-width:0.264583px;stroke-linecap:butt;stroke-linejoin:miter;stroke-opacity:1"
         d="m 42.333329,140.22917 v 2.64584"
         id="path2454" />
      <path
         style="fill:none;stroke:#000000;stroke-width:0.264583px;stroke-linecap:butt;stroke-linejoin:miter;stroke-opacity:1"
         d="m 44.979163,140.22917 h 7.937499"
         id="path2456" />
      <path
         style="fill:none;stroke:#000000;stroke-width:0.264583px;stroke-linecap:butt;stroke-linejoin:miter;stroke-opacity:1"
         d="m 47.624996,137.58334 h 5.291666"
         id="path2458" />
    </g>
    <g
       id="g2594"
       transform="translate(-71.437499,-68.791664)">
      <path
         style="fill:none;stroke:#000000;stroke-width:0.264583px;stroke-linecap:butt;stroke-linejoin:miter;stroke-opacity:1"
         d="m 66.145829,150.81251 v -15.875 h 10.583333 v 5.29166 h -2.645833 v -2.64583 h -5.291667 v 13.22917 z"
         id="path1214" />
      <path
         style="opacity:0.502913;fill:#008000;stroke:none;stroke-width:0.527053"
         d="m 105.41053,184.73195 v -29.77848 h 19.50094 19.50095 v 9.771 9.77099 l -4.61171,-0.15228 -4.61171,-0.15228 -0.15154,-4.87524 -0.15154,-4.87524 h -10.25775 -10.25775 v 25.035 25.035 h -4.47995 -4.47994 z"
         id="path1565"
         transform="matrix(0.26458333,0,0,0.26458333,38.422917,93.985416)" />
      <path
         style="fill:none;stroke:#000000;stroke-width:0.264583px;stroke-linecap:butt;stroke-linejoin:miter;stroke-opacity:1"
         d="M 66.145829,137.58334 H 76.729162"
         id="path2460" />
      <path
         style="fill:none;stroke:#000000;stroke-width:0.264583px;stroke-linecap:butt;stroke-linejoin:miter;stroke-opacity:1"
         d="m 74.083329,134.93751 v 2.64583"
         id="path2462" />
      <path
         style="fill:none;stroke:#000000;stroke-width:0.264583px;stroke-linecap:butt;stroke-linejoin:miter;stroke-opacity:1"
         d="m 71.437495,134.93751 v 2.64583"
         id="path2464" />
      <path
         style="fill:none;stroke:#000000;stroke-width:0.264583px;stroke-linecap:butt;stroke-linejoin:miter;stroke-opacity:1"
         d="m 68.791662,134.93751 v 2.64583"
         id="path2466" />
      <path
         style="fill:none;stroke:#000000;stroke-width:0.264583px;stroke-linecap:butt;stroke-linejoin:miter;stroke-opacity:1"
         d="m 66.145829,140.22917 h 2.645833"
         id="path2468" />
      <path
         style="fill:none;stroke:#000000;stroke-width:0.264583px;stroke-linecap:butt;stroke-linejoin:miter;stroke-opacity:1"
         d="m 66.145829,142.87501 h 2.645833"
         id="path2470" />
      <path
         style="fill:none;stroke:#000000;stroke-width:0.264583px;stroke-linecap:butt;stroke-linejoin:miter;stroke-opacity:1"
         d="m 66.145829,145.52084 h 2.645833"
         id="path2472" />
      <path
         style="fill:none;stroke:#000000;stroke-width:0.264583px;stroke-linecap:butt;stroke-linejoin:miter;stroke-opacity:1"
         d="m 66.145829,148.16667 h 2.645833"
         id="path2474" />
    </g>
    <g
       id="g2607"
       transform="translate(-71.437499,-68.791668)">
      <path
         style="fill:none;stroke:#000000;stroke-width:0.264583px;stroke-linecap:butt;stroke-linejoin:miter;stroke-opacity:1"
         d="m 87.312495,150.81251 v -15.875 h 13.229165 v 2.64583 H 89.958328 v 13.22917 z"
         id="path1218" />
      <path
         style="opacity:0.528155;fill:#0000ff;stroke:none;stroke-width:0.527053"
         d="M 185.12285,184.86371 185.259,155.217 h 24.50795 24.50795 l 0.15228,4.61171 0.15228,4.61171 h -20.04852 -20.04852 v 25.035 25.035 h -4.74786 -4.74786 z"
         id="path1793"
         transform="matrix(0.26458333,0,0,0.26458333,38.422917,93.985416)" />
      <path
         style="fill:none;stroke:#000000;stroke-width:0.264583px;stroke-linecap:butt;stroke-linejoin:miter;stroke-opacity:1"
         d="m 97.895828,134.93751 v 2.64583"
         id="path2476" />
      <path
         style="fill:none;stroke:#000000;stroke-width:0.264583px;stroke-linecap:butt;stroke-linejoin:miter;stroke-opacity:1"
         d="m 95.249995,134.93751 v 2.64583"
         id="path2478" />
      <path
         style="fill:none;stroke:#000000;stroke-width:0.264583px;stroke-linecap:butt;stroke-linejoin:miter;stroke-opacity:1"
         d="m 92.604162,134.93751 v 2.64583"
         id="path2480" />
      <path
         style="fill:none;stroke:#000000;stroke-width:0.264583px;stroke-linecap:butt;stroke-linejoin:miter;stroke-opacity:1"
         d="m 89.958328,134.93751 v 2.64583"
         id="path2482" />
      <path
         style="fill:none;stroke:#000000;stroke-width:0.264583px;stroke-linecap:butt;stroke-linejoin:miter;stroke-opacity:1"
         d="m 87.312495,137.58334 h 2.645833"
         id="path2484" />
      <path
         style="fill:none;stroke:#000000;stroke-width:0.264583px;stroke-linecap:butt;stroke-linejoin:miter;stroke-opacity:1"
         d="m 87.312495,140.22917 h 2.645833"
         id="path2486" />
      <path
         style="fill:none;stroke:#000000;stroke-width:0.264583px;stroke-linecap:butt;stroke-linejoin:miter;stroke-opacity:1"
         d="m 87.312495,142.87501 h 2.645833"
         id="path2488" />
      <path
         style="fill:none;stroke:#000000;stroke-width:0.264583px;stroke-linecap:butt;stroke-linejoin:miter;stroke-opacity:1"
         d="m 87.312495,145.52084 h 2.645833"
         id="path2490" />
      <path
         style="fill:none;stroke:#000000;stroke-width:0.264583px;stroke-linecap:butt;stroke-linejoin:miter;stroke-opacity:1"
         d="m 87.312495,148.16667 h 2.645833"
         id="path2492" />
    </g>
    <g
       id="g1253"
       transform="translate(-68.646386,-58.140826)">
      <path
         style="fill:none;stroke:#000000;stroke-width:0.264583px;stroke-linecap:butt;stroke-linejoin:miter;stroke-opacity:1"
         d="m 39.687496,161.39584 v -13.22917 h 7.9375 v 5.29167 h -5.291667 v 5.29167 h 2.645834 v 2.64583 z"
         id="path1210" />
      <path
         style="opacity:0.58835;fill:#ff0000;stroke:none;stroke-width:0.527053"
         d="M 5.2705264,229.79495 V 205.02348 H 19.764474 34.258421 v 9.75047 9.75047 h -10.014 -10.014 v 10.27753 10.27753 h 5.007 5.007 v 4.74347 4.74347 H 14.757474 5.2705264 Z"
         id="path1413"
         transform="matrix(0.26458333,0,0,0.26458333,38.422917,93.985416)" />
      <path
         style="fill:none;stroke:#000000;stroke-width:0.264583px;stroke-linecap:butt;stroke-linejoin:miter;stroke-opacity:1"
         d="m 44.979163,148.16667 v 5.29167"
         id="path2730" />
      <path
         style="fill:none;stroke:#000000;stroke-width:0.264583px;stroke-linecap:butt;stroke-linejoin:miter;stroke-opacity:1"
         d="m 42.333329,148.16667 v 5.29167"
         id="path2732" />
      <path
         style="fill:none;stroke:#000000;stroke-width:0.264583px;stroke-linecap:butt;stroke-linejoin:miter;stroke-opacity:1"
         d="m 39.687496,150.81251 h 7.9375"
         id="path2734" />
      <path
         style="fill:none;stroke:#000000;stroke-width:0.264583px;stroke-linecap:butt;stroke-linejoin:miter;stroke-opacity:1"
         d="m 39.687496,153.45834 h 2.645833"
         id="path2736" />
      <path
         style="fill:none;stroke:#000000;stroke-width:0.264583px;stroke-linecap:butt;stroke-linejoin:miter;stroke-opacity:1"
         d="m 39.687496,156.10417 h 2.645833"
         id="path2738" />
      <path
         style="fill:none;stroke:#000000;stroke-width:0.264583px;stroke-linecap:butt;stroke-linejoin:miter;stroke-opacity:1"
         d="m 39.687496,158.75001 h 2.645833 v 2.64583"
         id="path2740" />
    </g>
    <g
       id="g1263"
       transform="translate(-71.4375,-44.979164)">
      <path
         style="fill:none;stroke:#000000;stroke-width:0.264583px;stroke-linecap:butt;stroke-linejoin:miter;stroke-opacity:1"
         d="m 66.145829,169.33334 v -13.22917 h 5.291666 v 2.64584 h 2.645834 v 5.29166 h -5.291667 v 5.29167 z"
         id="path1216" />
      <path
         style="opacity:0.572816;fill:#ff00ff;stroke:none;stroke-width:0.527053"
         d="m 105.41053,259.83695 v -24.77147 h 9.48694 9.48695 v 5.007 5.007 h 5.007 5.007 v 9.75047 9.75047 h -10.014 -10.014 v 10.014 10.014 h -4.47995 -4.47994 z"
         id="path1641"
         transform="matrix(0.26458333,0,0,0.26458333,38.422917,93.985416)" />
      <path
         style="fill:none;stroke:#000000;stroke-width:0.264583px;stroke-linecap:butt;stroke-linejoin:miter;stroke-opacity:1"
         d="m 68.791662,156.10417 v 7.9375"
         id="path2742" />
      <path
         style="fill:none;stroke:#000000;stroke-width:0.264583px;stroke-linecap:butt;stroke-linejoin:miter;stroke-opacity:1"
         d="m 71.437495,158.75001 v 5.29166"
         id="path2744" />
      <path
         style="fill:none;stroke:#000000;stroke-width:0.264583px;stroke-linecap:butt;stroke-linejoin:miter;stroke-opacity:1"
         d="m 66.145829,158.75001 h 5.291666"
         id="path2746" />
      <path
         style="fill:none;stroke:#000000;stroke-width:0.264583px;stroke-linecap:butt;stroke-linejoin:miter;stroke-opacity:1"
         d="m 66.145829,161.39584 h 7.9375"
         id="path2748" />
      <path
         style="fill:none;stroke:#000000;stroke-width:0.264583px;stroke-linecap:butt;stroke-linejoin:miter;stroke-opacity:1"
         d="m 66.145829,164.04167 h 2.645833"
         id="path2750" />
      <path
         style="fill:none;stroke:#000000;stroke-width:0.264583px;stroke-linecap:butt;stroke-linejoin:miter;stroke-opacity:1"
         d="m 66.145829,166.68751 h 2.645833"
         id="path2752" />
    </g>
    <g
       id="g1283"
       transform="translate(-68.791666,-52.916668)">
      <path
         style="fill:none;stroke:#000000;stroke-width:0.264583px;stroke-linecap:butt;stroke-linejoin:miter;stroke-opacity:1"
         d="m 39.687496,177.27084 v -5.29167 h 5.291667 v -5.29166 h 5.291666 v 7.9375 h -5.291666 v 2.64583 z"
         id="path1212" />
      <path
         style="fill:#00ffff;stroke:none;stroke-width:0.527053"
         d="m 5.2705264,304.89995 v -9.75047 H 15.284526 25.298527 v -10.014 -10.014 h 9.486947 9.486947 v 14.75747 14.75747 h -10.014 -10.014 v 5.007 5.007 H 14.757474 5.2705264 Z"
         id="path1489"
         transform="matrix(0.26458333,0,0,0.26458333,38.422917,93.985416)" />
      <path
         style="fill:none;stroke:#000000;stroke-width:0.264583px;stroke-linecap:butt;stroke-linejoin:miter;stroke-opacity:1"
         d="m 44.979163,169.33334 h 5.291666"
         id="path2766" />
      <path
         style="fill:none;stroke:#000000;stroke-width:0.264583px;stroke-linecap:butt;stroke-linejoin:miter;stroke-opacity:1"
         d="m 44.979163,171.97917 h 5.291666"
         id="path2768" />
      <path
         style="fill:none;stroke:#000000;stroke-width:0.264583px;stroke-linecap:butt;stroke-linejoin:miter;stroke-opacity:1"
         d="m 39.687496,174.62501 h 5.291667"
         id="path2770" />
      <path
         style="fill:none;stroke:#000000;stroke-width:0.264583px;stroke-linecap:butt;stroke-linejoin:miter;stroke-opacity:1"
         d="m 42.333329,171.97917 v 5.29167"
         id="path2772" />
      <path
         style="fill:none;stroke:#000000;stroke-width:0.264583px;stroke-linecap:butt;stroke-linejoin:miter;stroke-opacity:1"
         d="m 44.979163,171.97917 v 2.64584"
         id="path2774" />
      <path
         style="fill:none;stroke:#000000;stroke-width:0.264583px;stroke-linecap:butt;stroke-linejoin:miter;stroke-opacity:1"
         d="m 47.624996,166.68751 v 7.9375"
         id="path2776" />
    </g>
    <g
       id="g1294"
       transform="translate(-71.437499,-84.666668)">
      <path
         style="fill:none;stroke:#000000;stroke-width:0.264583px;stroke-linecap:butt;stroke-linejoin:miter;stroke-opacity:1"
         d="m 66.145829,187.85417 h 5.291666 v -5.29166 h -2.645833 v -5.29167 h 7.9375 v -2.64583 H 66.145829 Z"
         id="path1222" />
      <path
         style="fill:#00ff00;stroke:none;stroke-width:0.527053"
         d="m 105.41053,329.67142 v -24.50794 h 19.52146 19.52147 l -0.15228,4.61171 -0.15228,4.61171 -14.88924,0.13997 -14.88924,0.13997 v 10.26932 10.26932 h 5.007 5.007 v 9.48694 9.48695 h -9.48695 -9.48694 z"
         id="path1717"
         transform="matrix(0.26458333,0,0,0.26458333,38.422917,93.985416)" />
      <path
         style="fill:none;stroke:#000000;stroke-width:0.264583px;stroke-linecap:butt;stroke-linejoin:miter;stroke-opacity:1"
         d="m 68.791662,174.62501 v 13.22916"
         id="path2778" />
      <path
         style="fill:none;stroke:#000000;stroke-width:0.264583px;stroke-linecap:butt;stroke-linejoin:miter;stroke-opacity:1"
         d="m 71.437495,174.62501 v 2.64583"
         id="path2780" />
      <path
         style="fill:none;stroke:#000000;stroke-width:0.264583px;stroke-linecap:butt;stroke-linejoin:miter;stroke-opacity:1"
         d="m 74.083329,174.62501 v 2.64583"
         id="path2782" />
      <path
         style="fill:none;stroke:#000000;stroke-width:0.264583px;stroke-linecap:butt;stroke-linejoin:miter;stroke-opacity:1"
         d="m 66.145829,177.27084 h 2.645833"
         id="path2784" />
      <path
         style="fill:none;stroke:#000000;stroke-width:0.264583px;stroke-linecap:butt;stroke-linejoin:miter;stroke-opacity:1"
         d="m 66.145829,179.91667 h 2.645833"
         id="path1149" />
      <path
         style="fill:none;stroke:#000000;stroke-width:0.264583px;stroke-linecap:butt;stroke-linejoin:miter;stroke-opacity:1"
         d="m 66.145829,182.56251 h 2.645833"
         id="path1151" />
      <path
         style="fill:none;stroke:#000000;stroke-width:0.264583px;stroke-linecap:butt;stroke-linejoin:miter;stroke-opacity:1"
         d="m 66.145829,185.20834 h 5.291666"
         id="path1153" />
    </g>
    <g
       id="g1303"
       transform="translate(-71.502049,-60.762915)">
      <path
         style="fill:none;stroke:#000000;stroke-width:0.264583px;stroke-linecap:butt;stroke-linejoin:miter;stroke-opacity:1"
         d="m 89.958328,174.62501 h 7.9375 v 10.58333 h -5.291666 v -5.29167 h -2.645834 z"
         id="path1224" />
      <path
         style="opacity:0.532039;fill:#782121;stroke:none;stroke-width:0.527053"
         d="m 205.02348,334.43468 v -9.7307 l -4.87524,-0.15154 -4.87524,-0.15154 -0.14365,-9.61871 -0.14365,-9.61871 h 14.76936 14.76936 v 19.50094 19.50095 h -9.75047 -9.75047 z"
         id="path1869"
         transform="matrix(0.26458333,0,0,0.26458333,38.422917,93.985416)" />
      <path
         style="fill:none;stroke:#000000;stroke-width:0.264583px;stroke-linecap:butt;stroke-linejoin:miter;stroke-opacity:1"
         d="m 92.604162,174.62501 v 5.29166"
         id="path1155" />
      <path
         style="fill:none;stroke:#000000;stroke-width:0.264583px;stroke-linecap:butt;stroke-linejoin:miter;stroke-opacity:1"
         d="m 95.249995,174.62501 v 10.58333"
         id="path1157" />
      <path
         style="fill:none;stroke:#000000;stroke-width:0.264583px;stroke-linecap:butt;stroke-linejoin:miter;stroke-opacity:1"
         d="m 89.958328,177.27084 h 7.9375"
         id="path1159" />
      <path
         style="fill:none;stroke:#000000;stroke-width:0.264583px;stroke-linecap:butt;stroke-linejoin:miter;stroke-opacity:1"
         d="m 92.604162,179.91667 h 5.291666"
         id="path1161" />
      <path
         style="fill:none;stroke:#000000;stroke-width:0.264583px;stroke-linecap:butt;stroke-linejoin:miter;stroke-opacity:1"
         d="m 92.604162,182.56251 h 5.291666"
         id="path1163" />
    </g>
    <g
       id="g1430"
       transform="translate(-71.4375,-58.20833)">
      <g
         id="g1273"
         transform="translate(2.6458343,-7.9374977)">
        <path
           style="fill:none;stroke:#000000;stroke-width:0.264583px;stroke-linecap:butt;stroke-linejoin:miter;stroke-opacity:1"
           d="m 87.312495,169.33334 h 7.9375 v -15.875 h -2.645833 v 10.58333 h -5.291667 z"
           id="path1220" />
        <path
           style="opacity:0.594175;fill:#ffb380;stroke:none;stroke-width:0.527053"
           d="m 185.35514,284.26535 c -0.19782,-0.19781 -0.35966,-4.58926 -0.35966,-9.75877 v -9.3991 h 10.014 10.014 v -20.028 -20.028 h 4.74786 4.74786 l -0.13615,29.64671 -0.13615,29.64671 -14.26605,0.14006 c -7.84633,0.077 -14.4279,-0.0218 -14.62571,-0.21961 z"
           id="path1945"
           transform="matrix(0.26458333,0,0,0.26458333,38.422917,93.985416)" />
        <path
           style="fill:none;stroke:#000000;stroke-width:0.264583px;stroke-linecap:butt;stroke-linejoin:miter;stroke-opacity:1"
           d="m 92.604162,156.10417 h 2.645833"
           id="path2754" />
        <path
           style="fill:none;stroke:#000000;stroke-width:0.264583px;stroke-linecap:butt;stroke-linejoin:miter;stroke-opacity:1"
           d="m 92.604162,158.75001 h 2.645833"
           id="path2756" />
        <path
           style="fill:none;stroke:#000000;stroke-width:0.264583px;stroke-linecap:butt;stroke-linejoin:miter;stroke-opacity:1"
           d="m 92.604162,161.39584 h 2.645833"
           id="path2758" />
        <path
           style="fill:none;stroke:#000000;stroke-width:0.264583px;stroke-linecap:butt;stroke-linejoin:miter;stroke-opacity:1"
           d="m 92.604162,164.04167 h 2.645833"
           id="path2760" />
        <path
           style="fill:none;stroke:#000000;stroke-width:0.264583px;stroke-linecap:butt;stroke-linejoin:miter;stroke-opacity:1"
           d="m 89.958328,164.04167 v 5.29167"
           id="path2762" />
        <path
           style="fill:none;stroke:#000000;stroke-width:0.264583px;stroke-linecap:butt;stroke-linejoin:miter;stroke-opacity:1"
           d="m 92.604162,164.04167 v 5.29167"
           id="path2764" />
      </g>
      <path
         style="fill:none;stroke:#000000;stroke-width:0.264583px;stroke-linecap:butt;stroke-linejoin:miter;stroke-opacity:1"
         d="m 89.958328,158.75001 h 7.9375"
         id="path1338" />
    </g>
  </g>
</svg>
