<?xml version="1.0" encoding="UTF-8" standalone="no"?>
<!-- Created with Inkscape (http://www.inkscape.org/) -->

<svg
   width="146.04874mm"
   height="102.47896mm"
   viewBox="0 0 146.04874 102.47896"
   version="1.1"
   id="svg5"
   inkscape:version="1.1 (c4e8f9e, 2021-05-24)"
   sodipodi:docname="A.svg"
   xmlns:inkscape="http://www.inkscape.org/namespaces/inkscape"
   xmlns:sodipodi="http://sodipodi.sourceforge.net/DTD/sodipodi-0.dtd"
   xmlns="http://www.w3.org/2000/svg"
   xmlns:svg="http://www.w3.org/2000/svg">
  <sodipodi:namedview
     id="namedview7"
     pagecolor="#ffffff"
     bordercolor="#666666"
     borderopacity="1.0"
     inkscape:pageshadow="2"
     inkscape:pageopacity="1"
     inkscape:pagecheckerboard="0"
     inkscape:document-units="mm"
     showgrid="false"
     inkscape:zoom="0.67081229"
     inkscape:cx="243.73435"
     inkscape:cy="343.61326"
     inkscape:window-width="1312"
     inkscape:window-height="997"
     inkscape:window-x="0"
     inkscape:window-y="25"
     inkscape:window-maximized="0"
     inkscape:current-layer="layer1"
     fit-margin-left="1"
     fit-margin-top="1"
     fit-margin-right="1"
     fit-margin-bottom="1" />
  <defs
     id="defs2" />
  <g
     inkscape:label="Layer 1"
     inkscape:groupmode="layer"
     id="layer1"
     transform="translate(-40.733037,-57.699188)">
    <path
       style="fill:none;stroke:#000000;stroke-width:1.165;stroke-linecap:butt;stroke-linejoin:miter;stroke-miterlimit:4;stroke-dasharray:none;stroke-opacity:1"
       d="m 79.278884,78.884462 c -12.878398,3.50974 1.934895,12.134053 4.338645,18.143426 1.178603,2.946508 1.334027,7.458982 1.972112,10.649402 0.325665,1.62832 0.412834,9.90756 -2.366534,10.25498 -3.174606,0.39682 -1.311767,-10.76006 -1.577689,-12.62151 -0.340858,-2.386 -2.805145,-4.28573 -3.944223,-6.310761 -0.951691,-1.691896 -1.96436,-3.357277 -2.760957,-5.12749 -0.444902,-0.988671 0.239684,-2.812536 -0.788844,-3.155378 -2.420583,-0.80686 -0.09279,2.030134 -2.760956,-1.972112 -1.670807,-2.506207 -0.722821,-6.485673 -2.366534,-8.677291 -0.600766,-0.80102 -1.798204,-0.908195 -2.760956,-1.183266 -3.715912,-1.061689 -8.573514,0.755642 -11.438247,2.760956 -13.289987,9.30299 -10.084493,26.245662 -11.832669,40.231072 -0.290635,2.32507 -1.739075,9.52707 0.788844,11.04383 1.705248,1.02314 3.294303,-10.41626 3.549801,-11.43825 2.92427,-11.69708 1.378844,-26.227449 10.25498,-35.103585 7.710532,-7.710535 10.756077,7.874408 12.621514,12.227092 1.538928,3.590833 3.359295,7.265953 4.733067,11.043823 1.160336,3.19092 -0.887679,10.59998 3.155379,12.62152 1.893112,0.94655 7.693967,-3.10813 9.860558,-4.73307 3.377303,-2.53298 6.864056,-5.74767 7.888446,-10.25498 0.769302,-3.38494 0.862769,-9.269002 -0.394423,-12.621516 -0.790654,-2.108409 -2.809893,-2.709093 -3.155378,-5.12749 -0.426003,-2.982016 -0.322831,-5.773156 -1.577689,-8.282869 -1.102352,-2.204701 2.960748,-5.32212 4.733067,-3.5498 1.216367,1.216366 -0.03993,5.112554 0.394423,6.705179 1.032981,3.787603 1.984753,7.557235 2.760956,11.438247 0.854361,4.271799 0.652566,9.810749 0.394422,14.199199 -0.0815,1.38545 -8.746289,12.69052 -9.860557,13.80478 -1.640391,1.64039 -9.38234,2.60565 -11.438247,1.57769 -11.609197,-5.80459 -9.42399,-33.702031 -14.593626,-36.286848 -4.226496,-2.113249 -7.212219,12.414668 -7.888446,14.593628 -2.847718,9.17598 -1.761429,15.1179 -3.549801,24.05976 -1.675363,8.3768 -10.324353,6.10264 -6.705179,16.96016 0.124727,0.37418 1.006875,-0.35279 1.183267,0 1.006443,2.01288 -0.142409,4.65642 0.788845,6.70518 2.758008,6.06762 20.206144,6.49954 25.63745,5.52191 6.968696,5.08224 7.028928,-3.32511 10.649402,-4.73307 11.296914,-4.39324 0.172244,0.18382 14.199203,-2.36653 4.25492,-0.77363 7.98192,-3.5132 12.22709,-4.33865 4.59152,-0.8928 12.27387,-1.02316 16.96016,-0.78884 3.97416,0.1987 7.86365,1.86119 11.83267,1.57769 0.39342,-0.0281 -0.39442,-1.18327 0,-1.18327 3.63387,0 14.59436,5.31716 18.14343,5.52191 21.11612,1.21824 30.15406,-28.02324 28.3984,-44.1753 -0.93913,-8.64 -2.50484,-8.54633 -3.94422,-16.565734 -1.08462,-6.042866 0.11677,-8.46043 -2.76096,-13.804781 -2.49449,-4.632637 -4.59162,-4.309983 -7.88844,-7.099601 -9.33456,-7.898471 -16.8766,-7.120327 -28.39841,-7.888446 -3.60956,-0.240639 -7.27059,-2.655758 -11.04382,-1.57769 -5.77438,1.64982 -12.6201,2.918159 -18.14343,5.12749 -3.91075,1.564299 -13.182716,6.641627 -9.86056,12.621514 1.43098,2.575764 7.97726,9.695344 11.43825,7.099602 3.96816,-2.976118 -7.32479,-10.375866 -4.73307,-12.227092 2.84123,-2.029449 5.81796,-1.360773 9.07171,-1.577689 3.03781,-0.20252 5.40272,-1.566489 8.28287,-2.366534 9.85361,-2.737114 34.94564,-1.910474 40.23108,8.282869 3.34087,6.443114 2.84494,15.491986 3.94422,22.087649 0.71509,4.290513 2.94887,8.679263 3.15538,13.015933 0.47642,10.00494 -2.13446,21.2936 -10.25498,27.60956 -2.19473,1.70701 -5.77397,1.02646 -8.28287,1.18327 -2.11583,0.13224 -4.34243,1.57618 -6.31076,0.78885 -1.20843,-0.48338 -1.59683,-2.1789 -2.76095,-2.76096 -2.09589,-1.04795 -4.91862,1.29853 -6.70518,1.18327 -6.51231,-0.42015 -9.47937,-4.36413 -15.38247,-4.73307 -7.27221,-0.45452 -18.84474,7.70431 -24.45418,4.33864 -0.906138,-0.54367 -0.788849,-1.54954 -0.788849,-2.36653 0,-5.79776 8.117219,-7.69502 13.015939,-8.28287 8.46012,-1.01521 20.64945,0.10449 28.79283,2.36654 6.60542,1.83484 -0.99274,1.2256 2.36653,1.97211 5.66023,1.25783 12.78334,2.40936 17.749,-1.97211 7.58176,-6.68979 6.74685,-41.870789 1.57769,-50.486059 -3.48723,-5.812049 -15.1568,-12.30398 -22.08765,-11.043825 -3.01852,0.548823 -5.55894,1.950754 -8.67729,2.366534 -3.83866,0.511821 -8.15986,-0.09226 -11.43824,2.366534 -4.01374,3.010302 -3.23492,9.388231 -5.91634,13.410358 -2.491,3.736496 -11.73596,-3.557391 -9.07171,7.099602 0.87119,3.484771 1.95299,1.715537 3.5498,1.183267 0.14233,-0.04744 3.77924,2.54984 7.49402,-1.57769 2.91562,-3.239568 2.89143,-8.791453 5.91634,-11.438246 3.52108,-3.080946 10.96483,-5.329841 15.38247,-5.521913 2.74267,-0.119247 5.19649,1.828144 7.88844,2.366534 7.2905,1.4581 7.15091,-0.279448 12.2271,5.521912 2.1596,2.468116 1.58504,30.684032 1.18326,35.103582 -0.005,0.0516 -2.50161,1.91269 -2.76095,2.36654 -1.77632,3.10854 0.35424,0.82902 -3.94423,5.12749 -0.005,0.005 -4.73413,-1.73578 -5.52191,-1.97211 -6.86171,-2.05852 -14.67969,-5.52192 -22.87649,-5.52192 -4.89629,0 -11.4776,1.2675 -16.17132,2.76096 -19.043473,6.05929 -10.547967,7.74417 -16.171312,20.11554 -0.350528,0.77115 -17.337117,4.58973 -20.115538,5.12749 -1.468247,0.28417 -13.425866,3.36968 -15.38247,1.97211 -14.668944,-10.47782 -3.901112,-8.7251 1.577689,-17.749 1.90073,-3.13062 3.10538,-6.6899 3.944223,-10.25498 0.562893,-2.3923 -1.254635,-15.1045 2.366534,-14.19921 1.70171,0.42543 0.553588,3.49032 1.183267,5.12749 0.532614,1.3848 3.981064,12.19025 3.549801,12.62152 -2.587117,2.58711 -3.733477,5.19225 -5.12749,8.67729 -0.497533,1.24383 -6.726592,4.51801 -3.155379,7.49402 0.965177,0.80431 25.605917,-3.51039 25.63745,-3.5498 4.518687,-5.64836 -13.726458,-1.50218 -14.593625,-6.70518 -0.304043,-1.82426 2.280793,-0.35077 2.760956,-0.39442 3.387487,-0.30796 4.68888,-1.91897 7.888446,-2.76096 1.872671,-0.49281 10.50404,-1.92366 13.015936,-2.76095 1.637276,-0.54576 12.336452,-7.81817 13.410362,-8.67729 0.94651,-0.75722 1.29389,-2.19642 2.36653,-2.76096 5.07928,-2.67331 23.50683,-2.74857 28.39841,-1.18327 1.2396,0.39668 1.69085,2.02011 2.76095,2.76096 5.93277,4.1073 8.93408,-0.18797 12.22709,-5.12749 1.4604,-2.1906 0.19994,-5.26287 0.39443,-7.88845 1.06896,-14.430963 -2.19274,-20.024172 -18.93227,-19.326691 -2.79276,0.116364 -3.44919,4.435435 -5.52192,6.310757 -3.67296,3.323159 -8.09478,3.198897 -11.43824,7.099602 -3.69892,4.315402 -9.94203,4.442962 -6.70518,5.521912 9.50652,3.16884 22.54084,-9.466135 32.73705,-9.466135 3.44206,0 1.10613,11.358535 -1.57769,12.621515 -4.60962,2.16923 -8.1773,0.23834 -13.01594,0.39442 -5.88113,0.18971 -11.4737,3.20666 -17.35458,2.36653 -2.38364,-0.34052 -8.77483,-2.44456 -10.6494,-3.94422 -1.36895,-1.09516 -0.6636,-22.231576 -1.97211,-24.848604 -1.012316,-2.024629 -3.128713,-3.980439 -4.338647,-5.916334 -1.097095,-1.755352 -2.716408,-4.558131 -5.521912,-3.155379 -1.317607,0.658802 -3.046198,2.706365 -4.733068,3.549801 -2.8008,1.4004 -4.796811,2.347608 -6.705179,4.733068 z"
       id="path857" />
    <text
       xml:space="preserve"
       style="font-size:11.2889px;line-height:1.25;font-family:Chalkboard;-inkscape-font-specification:Chalkboard;letter-spacing:0.264583px;word-spacing:0.264583px;fill:#ff0000;stroke-width:0.264583"
       x="130.30389"
       y="120.45315"
       id="text6417"><tspan
         sodipodi:role="line"
         id="tspan6415"
         style="fill:#ff0000;stroke-width:0.264583"
         x="130.30389"
         y="120.45315">A</tspan></text>
    <text
       xml:space="preserve"
       style="font-size:11.2889px;line-height:1.25;font-family:Chalkboard;-inkscape-font-specification:Chalkboard;letter-spacing:0.264583px;word-spacing:0.264583px;fill:#ff0000;stroke-width:0.264583"
       x="101.2318"
       y="116.48933"
       id="text6927"><tspan
         sodipodi:role="line"
         id="tspan6925"
         style="fill:#ff0000;stroke-width:0.264583"
         x="101.2318"
         y="116.48933">B</tspan></text>
  </g>
</svg>
