<svg width="207.512" height="184.512" viewBox="0 0 54.904 48.819" xmlns="http://www.w3.org/2000/svg"><g transform="translate(-47.028 -94.653)" stroke="#000000"><path d="M47.625 111.125h31.75v31.75h-31.75zm0 0L68.792 95.25h31.75l-21.167 15.875m0 31.75L100.542 127V95.25M63.5 111.125v31.75" fill="none" stroke-width="0.79375"/><path d="M47.625 127h31.75l21.167-15.875m-37.042 0L84.667 95.25" fill="none" stroke-width="0.79375"/><path d="M58.208 103.188h31.75v31.75" fill="none" stroke-width="0.79375"/><path d="M63.5 111.125h15.875V127H63.5z" fill="#ff0000" stroke-width="0.79375"/><path d="M47.625 111.125H63.5V127H47.625z" fill="#55d400" fill-opacity="0.991131" stroke-width="0.79375"/><path d="M47.625 127H63.5v15.875H47.625z" fill="#55ddff" stroke-width="0.79375"/><path d="M63.5 111.125l10.583-7.938h15.875l-10.583 7.938h-13.23z" fill="#ff0000" stroke-width="0.79375"/><path d="M79.375 111.125l10.583-7.938v15.876L79.375 127z" fill="#ff0000" stroke-width="0.264583px"/><path d="M47.625 111.125H63.5l10.583-7.938H58.208z" fill="#55d400" fill-opacity="0.992157" stroke-width="0.264583px"/><path d="M84.667 95.25h15.875l-10.584 7.938H74.083z" fill="#55ddff" stroke-width="0.264583px"/><path d="M89.958 119.063l10.584-7.938V127l-10.584 7.938z" fill="#55d400" fill-opacity="0.992157" stroke-width="0.264583px"/><path d="M89.958 103.188l10.584-7.938v15.875l-10.584 7.938z" fill="#55ddff" stroke-width="0.264583px"/></g></svg>