<?xml version="1.0" encoding="UTF-8" standalone="no"?>
<!-- Created with Inkscape (http://www.inkscape.org/) -->

<svg
   width="133.34753mm"
   height="87.988968mm"
   viewBox="0 0 133.34753 87.988968"
   version="1.1"
   id="svg5"
   inkscape:version="1.1 (c4e8f9e, 2021-05-24)"
   sodipodi:docname="MapColoring4ColorsIntro.svg"
   inkscape:export-filename="/Users/chriswright/desktop/bitmap.png"
   inkscape:export-xdpi="96"
   inkscape:export-ydpi="96"
   xmlns:inkscape="http://www.inkscape.org/namespaces/inkscape"
   xmlns:sodipodi="http://sodipodi.sourceforge.net/DTD/sodipodi-0.dtd"
   xmlns="http://www.w3.org/2000/svg"
   xmlns:svg="http://www.w3.org/2000/svg">
  <sodipodi:namedview
     id="namedview7"
     pagecolor="#ffffff"
     bordercolor="#666666"
     borderopacity="1.0"
     inkscape:pageshadow="2"
     inkscape:pageopacity="1"
     inkscape:pagecheckerboard="0"
     inkscape:document-units="mm"
     showgrid="true"
     inkscape:snap-global="false"
     inkscape:zoom="1.3416246"
     inkscape:cx="240.38021"
     inkscape:cy="246.71581"
     inkscape:window-width="1736"
     inkscape:window-height="998"
     inkscape:window-x="0"
     inkscape:window-y="25"
     inkscape:window-maximized="0"
     inkscape:current-layer="layer1"
     fit-margin-left="1"
     fit-margin-top="1"
     fit-margin-right="1"
     fit-margin-bottom="1">
    <inkscape:grid
       type="xygrid"
       id="grid824"
       originx="-41.200726"
       originy="-83.009496" />
  </sodipodi:namedview>
  <defs
     id="defs2">
    <inkscape:path-effect
       effect="skeletal"
       id="path-effect1179"
       is_visible="true"
       lpeversion="1"
       pattern="M 0,4.9921382 C 0,2.2364779 2.2364779,0 4.9921382,0 c 2.7556604,0 4.9921383,2.2364779 4.9921383,4.9921382 0,2.7556604 -2.2364779,4.9921383 -4.9921383,4.9921383 C 2.2364779,9.9842765 0,7.7477986 0,4.9921382 Z"
       copytype="single_stretched"
       prop_scale="1"
       scale_y_rel="false"
       spacing="0"
       normal_offset="0"
       tang_offset="0"
       prop_units="false"
       vertical_pattern="false"
       hide_knot="false"
       fuse_tolerance="0" />
    <inkscape:path-effect
       effect="skeletal"
       id="path-effect1175"
       is_visible="true"
       lpeversion="1"
       pattern="M 0,4.9921382 C 0,2.2364779 2.2364779,0 4.9921382,0 c 2.7556604,0 4.9921383,2.2364779 4.9921383,4.9921382 0,2.7556604 -2.2364779,4.9921383 -4.9921383,4.9921383 C 2.2364779,9.9842765 0,7.7477986 0,4.9921382 Z"
       copytype="single_stretched"
       prop_scale="1"
       scale_y_rel="false"
       spacing="0"
       normal_offset="0"
       tang_offset="0"
       prop_units="false"
       vertical_pattern="false"
       hide_knot="false"
       fuse_tolerance="0" />
    <inkscape:path-effect
       effect="simplify"
       id="path-effect1173"
       is_visible="true"
       lpeversion="1"
       steps="1"
       threshold="0.0363636"
       smooth_angles="360"
       helper_size="0"
       simplify_individual_paths="false"
       simplify_just_coalesce="false" />
  </defs>
  <g
     inkscape:label="Layer 1"
     inkscape:groupmode="layer"
     id="layer1"
     transform="translate(-41.200728,-83.009497)">
    <ellipse
       style="fill:none;fill-rule:evenodd;stroke:#000000;stroke-width:0.79375;stroke-miterlimit:4;stroke-dasharray:none;stroke-opacity:1"
       id="path1722"
       cx="107.8745"
       cy="127.00398"
       rx="65.276894"
       ry="42.59761" />
    <path
       style="fill:none;stroke:#000000;stroke-width:0.79375;stroke-linecap:butt;stroke-linejoin:miter;stroke-miterlimit:4;stroke-dasharray:none;stroke-opacity:1"
       d="M 140.22916,89.958332 84.666666,166.6875"
       id="path1903" />
    <path
       style="fill:none;stroke:#000000;stroke-width:0.79375;stroke-linecap:butt;stroke-linejoin:miter;stroke-miterlimit:4;stroke-dasharray:none;stroke-opacity:1"
       d="M 74.083332,89.958332 171.97916,134.9375"
       id="path1905" />
    <path
       style="fill:none;stroke:#000000;stroke-width:0.79375;stroke-linecap:butt;stroke-linejoin:miter;stroke-miterlimit:4;stroke-dasharray:none;stroke-opacity:1"
       d="M 47.624999,142.875 171.97916,119.0625"
       id="path1907" />
    <ellipse
       style="fill:none;fill-rule:evenodd;stroke-width:0.79393723;stroke:#000000;stroke-opacity:1;stroke-miterlimit:4;stroke-dasharray:none"
       id="path1262"
       cx="124.51365"
       cy="74.842758"
       rx="18.06938"
       ry="30.082087"
       transform="matrix(0.91594672,0.4012999,-0.37298352,0.92783797,0,0)" />
    <path
       style="fill:none;stroke:#000000;stroke-width:0.79375;stroke-linecap:butt;stroke-linejoin:miter;stroke-miterlimit:4;stroke-dasharray:none;stroke-opacity:1"
       d="m 110.33616,130.91119 21.95551,35.77631"
       id="path1679"
       sodipodi:nodetypes="cc" />
    <path
       style="fill:none;stroke:#000000;stroke-width:0.79375;stroke-linecap:butt;stroke-linejoin:miter;stroke-opacity:1;stroke-miterlimit:4;stroke-dasharray:none"
       d="m 148.16667,124.35417 -15.875,42.33333"
       id="path1681" />
    <path
       style="fill:none;stroke:#000000;stroke-width:0.79375;stroke-linecap:butt;stroke-linejoin:miter;stroke-opacity:1;stroke-miterlimit:4;stroke-dasharray:none"
       d="M 105.68877,104.70272 67.824232,139.01746"
       id="path1683" />
    <path
       style="fill:#0000ff;stroke:none;stroke-width:0.745365"
       d="M 23.296135,224.18535 C 21.598744,222.08351 14.940574,207.93208 12.813273,201.90484 8.311683,189.15058 7.0915265,181.49739 7.1234223,166.21639 7.1471294,154.85857 7.4424769,151.08809 8.798415,144.83306 18.843297,98.49533 58.291733,58.018659 118.34217,32.43402 l 8.40082,-3.579194 13.58744,6.195966 c 7.47309,3.40778 13.84371,6.41237 14.15692,6.676865 0.31321,0.264495 -1.59371,2.235985 -4.2376,4.38109 -26.04328,21.130074 -47.93449,61.340103 -54.838596,100.728153 -2.012604,11.48195 -2.789267,31.78259 -1.601305,41.85548 0.459533,3.89644 1.673546,10.38806 2.697812,14.42583 1.024265,4.03777 1.780923,7.42277 1.681469,7.52222 -0.09946,0.0995 -16.2791,3.24517 -35.954752,6.99047 -19.675656,3.7453 -36.313541,6.96564 -36.973077,7.15631 -0.659536,0.19067 -1.54386,-0.0802 -1.965166,-0.60186 z"
       id="path1987"
       transform="matrix(0.26458333,0,0,0.26458333,41.200728,83.009497)" />
    <path
       style="fill:#0000ff;stroke:none;stroke-width:0.745365"
       d="m 108.45061,206.54502 c 1.6398,-1.614 32.4857,-29.6506 68.54643,-62.30355 53.85245,-48.76332 65.66034,-59.127129 66.09876,-58.015042 0.83249,2.111667 0.72756,26.018092 -0.14507,33.051522 -2.47847,19.97652 -9.06833,41.22029 -18.60027,59.96187 l -4.1596,8.17856 -54.75208,10.49751 c -30.11364,5.77363 -55.92603,10.73741 -57.36086,11.0306 l -2.60877,0.53309 z"
       id="path2063"
       transform="matrix(0.26458333,0,0,0.26458333,41.200728,83.009497)" />
    <path
       style="fill:#0000ff;stroke:none;stroke-width:0.745365"
       d="M 201.7949,60.39144 C 179.75308,50.2561 161.56103,41.805723 161.36813,41.612825 c -0.51533,-0.515331 8.60233,-5.445707 14.24603,-7.703542 5.6123,-2.245272 14.49873,-4.100557 19.5507,-4.081741 21.32002,0.07941 38.6015,16.320702 45.52707,42.786784 0.84975,3.247287 1.46264,5.97185 1.362,6.054583 -0.10064,0.08273 -18.21721,-8.142127 -40.25903,-18.277469 z"
       id="path2139"
       transform="matrix(0.26458333,0,0,0.26458333,41.200728,83.009497)" />
    <path
       style="fill:#ff0000;stroke:none;stroke-width:0.745365"
       d="M 153.17251,312.34948 C 119.03428,302.39364 90.504589,288.59257 65.68711,270.02895 54.742001,261.84194 38.4529,245.68347 31.007833,235.62777 c -3.149328,-4.25365 -5.605498,-7.85446 -5.458156,-8.0018 0.147341,-0.14735 16.177013,-3.31243 35.621492,-7.03351 19.444479,-3.72109 36.054025,-6.93517 36.910103,-7.14239 1.289023,-0.31202 1.779763,0.20783 2.855658,3.02503 2.00948,5.26175 8.37988,14.50897 13.18315,19.13658 4.2122,4.05814 11.72414,8.57221 17.06416,10.25417 26.78284,8.43589 60.22018,-10.21111 85.04263,-47.42571 l 5.76949,-8.6498 18.47862,-3.55621 c 10.16324,-1.95592 18.53576,-3.48665 18.60558,-3.40162 0.18048,0.21975 -94.13964,130.33137 -95.27784,131.43276 -0.74305,0.71902 -2.97447,0.31688 -10.63021,-1.91579 z"
       id="path2215"
       transform="matrix(0.26458333,0,0,0.26458333,41.200728,83.009497)" />
    <path
       style="fill:#ff0000;stroke:none;stroke-width:0.745365"
       d="M 285.84748,99.104557 C 272.72905,93.02255 258.13853,86.245632 253.4241,84.044741 l -8.5717,-4.001627 -1.21678,-5.921108 C 239.09082,52.00599 225.60825,34.865547 208.47738,29.425219 194.9453,25.127775 176.60477,28.327902 162.31332,37.480103 l -4.27576,2.738184 -13.42666,-6.111085 c -7.38466,-3.361097 -13.42666,-6.315047 -13.42666,-6.564335 0,-0.658262 22.70688,-7.738263 33.16874,-10.342007 63.37116,-15.771787 135.05425,-13.705933 194.9817,5.61923 9.55418,3.080994 12.49983,4.315409 12.06273,5.055057 -0.31808,0.538241 -13.82719,19.295692 -30.02024,41.683224 -17.08155,23.615906 -29.9113,40.683569 -30.55997,40.654489 -0.61492,-0.0276 -11.8513,-5.0263 -24.96972,-11.108303 z"
       id="path2291"
       transform="matrix(0.26458333,0,0,0.26458333,41.200728,83.009497)" />
    <path
       style="fill:#ff0000;stroke:none;stroke-width:0.745365"
       d="m 266.0953,178.41264 c 0,-0.2355 10.40823,-14.79969 23.12939,-32.36487 l 23.12938,-31.93669 6.87156,3.18114 c 3.77936,1.74962 22.89907,10.53461 42.48826,19.5222 28.25375,12.96292 35.26473,16.4508 33.91411,16.87188 -0.93643,0.29195 -30.0451,5.9269 -64.68594,12.52211 -34.64084,6.59521 -63.40261,12.13554 -63.91505,12.31184 -0.51244,0.17631 -0.93171,0.12788 -0.93171,-0.10761 z"
       id="path2367"
       transform="matrix(0.26458333,0,0,0.26458333,41.200728,83.009497)" />
    <path
       style="fill:#0000ff;stroke:none;stroke-width:0.745365"
       d="m 223.23682,324.91275 c -17.48073,-1.47815 -34.65772,-4.05369 -50.10454,-7.51276 l -6.87337,-1.53918 2.77386,-3.8533 c 39.54197,-54.92965 92.25774,-127.14184 92.70274,-126.98795 0.65949,0.22805 79.64166,128.763 79.64166,129.60819 0,1.45044 -29.86102,6.95274 -50.68482,9.33938 -12.01186,1.37668 -55.19813,1.98209 -67.45553,0.94562 z"
       id="path2443"
       transform="matrix(0.26458333,0,0,0.26458333,41.200728,83.009497)" />
    <path
       style="fill:#0000ff;stroke:none;stroke-width:0.745365"
       d="m 347.34009,312.48881 c 0,-1.07105 57.43774,-154.02528 58.09565,-154.70622 0.47229,-0.48882 85.80644,38.0466 87.08668,39.32684 1.11388,1.11388 -7.01804,19.2229 -12.88101,28.68481 -8.73125,14.09085 -24.39476,31.15812 -39.1307,42.63758 -20.66816,16.10073 -51.27703,31.86267 -79.14766,40.75683 -10.94457,3.49267 -14.02296,4.21714 -14.02296,3.30016 z"
       id="path2519"
       transform="matrix(0.26458333,0,0,0.26458333,41.200728,83.009497)" />
    <path
       style="fill:#ff0000;stroke:none;stroke-width:0.745365"
       d="m 450.05936,174.49776 c -23.64976,-10.89044 -42.90187,-19.8985 -42.78246,-20.01791 0.69921,-0.69921 85.81197,-16.48287 86.29242,-16.00242 0.32169,0.3217 1.29861,4.76594 2.17093,9.87609 1.32571,7.76615 1.52442,11.24864 1.21067,21.21702 -0.33943,10.78387 -2.06359,23.07645 -3.40689,24.28984 -0.2668,0.24099 -19.8349,-8.47219 -43.48467,-19.36262 z"
       id="path2595"
       transform="matrix(0.26458333,0,0,0.26458333,41.200728,83.009497)" />
  </g>
</svg>
