<?xml version="1.0" encoding="UTF-8" standalone="no"?>
<!-- Created with Inkscape (http://www.inkscape.org/) -->

<svg
   width="141.49962mm"
   height="108.62708mm"
   viewBox="0 0 141.49962 108.62708"
   version="1.1"
   id="svg5"
   inkscape:version="1.1 (c4e8f9e, 2021-05-24)"
   sodipodi:docname="FindingthePieces3Challenge.svg"
   inkscape:export-filename="/Users/chriswright/desktop/bitmap.png"
   inkscape:export-xdpi="96"
   inkscape:export-ydpi="96"
   xmlns:inkscape="http://www.inkscape.org/namespaces/inkscape"
   xmlns:sodipodi="http://sodipodi.sourceforge.net/DTD/sodipodi-0.dtd"
   xmlns="http://www.w3.org/2000/svg"
   xmlns:svg="http://www.w3.org/2000/svg">
  <sodipodi:namedview
     id="namedview7"
     pagecolor="#ffffff"
     bordercolor="#666666"
     borderopacity="1.0"
     inkscape:pageshadow="2"
     inkscape:pageopacity="1"
     inkscape:pagecheckerboard="0"
     inkscape:document-units="mm"
     showgrid="true"
     inkscape:zoom="0.67081229"
     inkscape:cx="348.08545"
     inkscape:cy="205.72074"
     inkscape:window-width="1312"
     inkscape:window-height="998"
     inkscape:window-x="0"
     inkscape:window-y="25"
     inkscape:window-maximized="0"
     inkscape:current-layer="layer1"
     fit-margin-left="1"
     fit-margin-top="1"
     fit-margin-right="1"
     fit-margin-bottom="1">
    <inkscape:grid
       type="xygrid"
       id="grid824"
       originx="-13.916859"
       originy="-93.853123" />
  </sodipodi:namedview>
  <defs
     id="defs2" />
  <g
     inkscape:label="Layer 1"
     inkscape:groupmode="layer"
     id="layer1"
     transform="translate(-13.916859,-93.853125)">
    <path
       style="fill:none;stroke:#000000;stroke-width:0.79375;stroke-linecap:butt;stroke-linejoin:miter;stroke-miterlimit:4;stroke-dasharray:none;stroke-opacity:1"
       d="M 79.374999,127 V 95.25 H 47.625 V 127"
       id="path1216"
       sodipodi:nodetypes="cccc" />
    <path
       style="fill:none;stroke:#000000;stroke-width:0.79375;stroke-linecap:butt;stroke-linejoin:miter;stroke-miterlimit:4;stroke-dasharray:none;stroke-opacity:1"
       d="M 31.75,158.75 H 15.875 L 47.625,127"
       id="path1218" />
    <path
       style="fill:none;stroke:#000000;stroke-width:0.79375;stroke-linecap:butt;stroke-linejoin:miter;stroke-miterlimit:4;stroke-dasharray:none;stroke-opacity:1"
       d="m 137.58333,158.75 c 7.05556,0 -8.34904,0 15.875,0 l -31.75,-31.75"
       id="path1354"
       sodipodi:nodetypes="ccc" />
    <path
       style="fill:none;stroke:#000000;stroke-width:0.79375;stroke-linecap:butt;stroke-linejoin:miter;stroke-miterlimit:4;stroke-dasharray:none;stroke-opacity:1"
       d="M 79.374999,127 100.54167,105.83333"
       id="path1356" />
    <path
       style="fill:none;stroke:#000000;stroke-width:0.79375;stroke-linecap:butt;stroke-linejoin:miter;stroke-miterlimit:4;stroke-dasharray:none;stroke-opacity:1"
       d="M 100.54167,105.83333 121.70833,127"
       id="path1358"
       sodipodi:nodetypes="cc" />
    <path
       style="fill:none;stroke:#000000;stroke-width:0.79375;stroke-linecap:butt;stroke-linejoin:miter;stroke-miterlimit:4;stroke-dasharray:none;stroke-opacity:1"
       d="m 31.75,158.75 v 42.33333 H 137.58333 V 158.75"
       id="path1747"
       sodipodi:nodetypes="cccc" />
    <path
       style="fill:#aa4400;stroke:none;stroke-width:1.49073;opacity:0.67184466"
       d="m 68.822035,402.994 c -0.546601,-0.54659 -0.99382,-36.43591 -0.99382,-79.75405 V 244.47972 H 39.156751 10.485288 L 69.716716,185.17987 128.94814,125.88002 V 65.904167 5.9283133 l 58.51116,0.3899858 58.51115,0.3899859 0.38978,59.256517 c 0.2144,32.591085 0.89006,59.256518 1.50149,59.256518 0.61143,0 18.54476,-17.44275 39.85185,-38.761668 21.3071,-21.318918 39.25021,-38.591655 39.8736,-38.38386 0.62338,0.207794 45.074,44.315978 98.77915,98.018188 l 97.64574,97.64037 -28.70679,0.74537 -28.70678,0.74536 -0.38574,79.38138 -0.38576,79.38137 H 267.82142 c -108.90306,0 -198.452785,-0.44722 -198.999385,-0.99383 z"
       id="path2132"
       transform="matrix(0.26458333,0,0,0.26458333,13.916859,93.853125)" />
  </g>
</svg>
