<?xml version="1.0" encoding="UTF-8" standalone="no"?>
<!-- Created with Inkscape (http://www.inkscape.org/) -->

<svg
   width="201.47958mm"
   height="120.05889mm"
   viewBox="0 0 201.47958 120.05889"
   version="1.1"
   id="svg5"
   inkscape:version="1.1 (c4e8f9e, 2021-05-24)"
   sodipodi:docname="FibonacciSteps.svg"
   inkscape:export-filename="/Users/chriswright/desktop/bitmap.png"
   inkscape:export-xdpi="96"
   inkscape:export-ydpi="96"
   xmlns:inkscape="http://www.inkscape.org/namespaces/inkscape"
   xmlns:sodipodi="http://sodipodi.sourceforge.net/DTD/sodipodi-0.dtd"
   xmlns="http://www.w3.org/2000/svg"
   xmlns:svg="http://www.w3.org/2000/svg">
  <sodipodi:namedview
     id="namedview7"
     pagecolor="#ffffff"
     bordercolor="#666666"
     borderopacity="1.0"
     inkscape:pageshadow="2"
     inkscape:pageopacity="1"
     inkscape:pagecheckerboard="0"
     inkscape:document-units="mm"
     showgrid="true"
     inkscape:zoom="0.67081229"
     inkscape:cx="394.29808"
     inkscape:cy="321.99768"
     inkscape:window-width="1312"
     inkscape:window-height="998"
     inkscape:window-x="0"
     inkscape:window-y="25"
     inkscape:window-maximized="0"
     inkscape:current-layer="layer1"
     inkscape:snap-global="false"
     fit-margin-left="1"
     fit-margin-top="1"
     fit-margin-right="1"
     fit-margin-bottom="1">
    <inkscape:grid
       type="xygrid"
       id="grid824"
       originx="-14.875"
       originy="-45.37964" />
  </sodipodi:namedview>
  <defs
     id="defs2">
    <marker
       style="overflow:visible"
       id="marker1481"
       refX="0"
       refY="0"
       orient="auto"
       inkscape:stockid="Arrow2Mend"
       inkscape:isstock="true">
      <path
         transform="scale(-0.6)"
         d="M 8.7185878,4.0337352 -2.2072895,0.01601326 8.7185884,-4.0017078 c -1.7454984,2.3720609 -1.7354408,5.6174519 -6e-7,8.035443 z"
         style="fill:context-stroke;fill-rule:evenodd;stroke-width:0.625;stroke-linejoin:round"
         id="path1479" />
    </marker>
    <marker
       style="overflow:visible"
       id="Arrow2Lend"
       refX="0"
       refY="0"
       orient="auto"
       inkscape:stockid="Arrow2Lend"
       inkscape:isstock="true">
      <path
         transform="matrix(-1.1,0,0,-1.1,-1.1,0)"
         d="M 8.7185878,4.0337352 -2.2072895,0.01601326 8.7185884,-4.0017078 c -1.7454984,2.3720609 -1.7354408,5.6174519 -6e-7,8.035443 z"
         style="fill:context-stroke;fill-rule:evenodd;stroke-width:0.625;stroke-linejoin:round"
         id="path1205" />
    </marker>
    <marker
       style="overflow:visible"
       id="Arrow2Mend"
       refX="0"
       refY="0"
       orient="auto"
       inkscape:stockid="Arrow2Mend"
       inkscape:isstock="true">
      <path
         transform="scale(-0.6)"
         d="M 8.7185878,4.0337352 -2.2072895,0.01601326 8.7185884,-4.0017078 c -1.7454984,2.3720609 -1.7354408,5.6174519 -6e-7,8.035443 z"
         style="fill:context-stroke;fill-rule:evenodd;stroke-width:0.625;stroke-linejoin:round"
         id="path1211" />
    </marker>
    <marker
       style="overflow:visible"
       id="marker1481-0"
       refX="0"
       refY="0"
       orient="auto"
       inkscape:stockid="Arrow2Mend"
       inkscape:isstock="true">
      <path
         transform="scale(-0.6)"
         d="M 8.7185878,4.0337352 -2.2072895,0.01601326 8.7185884,-4.0017078 c -1.7454984,2.3720609 -1.7354408,5.6174519 -6e-7,8.035443 z"
         style="fill:context-stroke;fill-rule:evenodd;stroke-width:0.625;stroke-linejoin:round"
         id="path1479-3" />
    </marker>
    <marker
       style="overflow:visible"
       id="marker1481-0-2"
       refX="0"
       refY="0"
       orient="auto"
       inkscape:stockid="Arrow2Mend"
       inkscape:isstock="true">
      <path
         transform="scale(-0.6)"
         d="M 8.7185878,4.0337352 -2.2072895,0.01601326 8.7185884,-4.0017078 c -1.7454984,2.3720609 -1.7354408,5.6174519 -6e-7,8.035443 z"
         style="fill:context-stroke;fill-rule:evenodd;stroke-width:0.625;stroke-linejoin:round"
         id="path1479-3-5" />
    </marker>
    <marker
       style="overflow:visible"
       id="marker1481-0-6"
       refX="0"
       refY="0"
       orient="auto"
       inkscape:stockid="Arrow2Mend"
       inkscape:isstock="true">
      <path
         transform="scale(-0.6)"
         d="M 8.7185878,4.0337352 -2.2072895,0.01601326 8.7185884,-4.0017078 c -1.7454984,2.3720609 -1.7354408,5.6174519 -6e-7,8.035443 z"
         style="fill:context-stroke;fill-rule:evenodd;stroke-width:0.625;stroke-linejoin:round"
         id="path1479-3-1" />
    </marker>
    <marker
       style="overflow:visible"
       id="marker1481-0-2-1"
       refX="0"
       refY="0"
       orient="auto"
       inkscape:stockid="Arrow2Mend"
       inkscape:isstock="true">
      <path
         transform="scale(-0.6)"
         d="M 8.7185878,4.0337352 -2.2072895,0.01601326 8.7185884,-4.0017078 c -1.7454984,2.3720609 -1.7354408,5.6174519 -6e-7,8.035443 z"
         style="fill:context-stroke;fill-rule:evenodd;stroke-width:0.625;stroke-linejoin:round"
         id="path1479-3-5-4" />
    </marker>
    <marker
       style="overflow:visible"
       id="marker1481-0-2-8"
       refX="0"
       refY="0"
       orient="auto"
       inkscape:stockid="Arrow2Mend"
       inkscape:isstock="true">
      <path
         transform="scale(-0.6)"
         d="M 8.7185878,4.0337352 -2.2072895,0.01601326 8.7185884,-4.0017078 c -1.7454984,2.3720609 -1.7354408,5.6174519 -6e-7,8.035443 z"
         style="fill:context-stroke;fill-rule:evenodd;stroke-width:0.625;stroke-linejoin:round"
         id="path1479-3-5-3" />
    </marker>
    <marker
       style="overflow:visible"
       id="marker1481-0-25"
       refX="0"
       refY="0"
       orient="auto"
       inkscape:stockid="Arrow2Mend"
       inkscape:isstock="true">
      <path
         transform="scale(-0.6)"
         d="M 8.7185878,4.0337352 -2.2072895,0.01601326 8.7185884,-4.0017078 c -1.7454984,2.3720609 -1.7354408,5.6174519 -6e-7,8.035443 z"
         style="fill:context-stroke;fill-rule:evenodd;stroke-width:0.625;stroke-linejoin:round"
         id="path1479-3-6" />
    </marker>
    <marker
       style="overflow:visible"
       id="marker1481-0-2-8-6"
       refX="0"
       refY="0"
       orient="auto"
       inkscape:stockid="Arrow2Mend"
       inkscape:isstock="true">
      <path
         transform="scale(-0.6)"
         d="M 8.7185878,4.0337352 -2.2072895,0.01601326 8.7185884,-4.0017078 c -1.7454984,2.3720609 -1.7354408,5.6174519 -6e-7,8.035443 z"
         style="fill:context-stroke;fill-rule:evenodd;stroke-width:0.625;stroke-linejoin:round"
         id="path1479-3-5-3-7" />
    </marker>
  </defs>
  <g
     inkscape:label="Layer 1"
     inkscape:groupmode="layer"
     id="layer1"
     transform="translate(-14.875,-45.379642)">
    <g
       id="g945"
       style="stroke:#000000;stroke-width:0.79375;stroke-miterlimit:4;stroke-dasharray:none;stroke-opacity:1">
      <path
         style="fill:none;stroke:#000000;stroke-width:0.79375;stroke-linecap:butt;stroke-linejoin:miter;stroke-miterlimit:4;stroke-dasharray:none;stroke-opacity:1"
         d="m 15.875,164.04166 h 31.749999 v -10.58333 h 15.875 V 142.875 h 15.875 v -10.58334 h 15.875 v -10.58333"
         id="path859" />
      <path
         style="fill:none;stroke:#000000;stroke-width:0.79375;stroke-linecap:butt;stroke-linejoin:miter;stroke-miterlimit:4;stroke-dasharray:none;stroke-opacity:1"
         d="M 95.249999,121.70833 H 111.125 V 111.125 H 127 v -10.58333 h 15.875 V 89.958332 H 158.75 V 79.375 h 15.875 V 68.791667 H 190.5 V 58.208333 h 24.85458"
         id="path861" />
    </g>
    <path
       style="fill:none;stroke:#d30000;stroke-width:0.79375;stroke-linecap:butt;stroke-linejoin:miter;stroke-miterlimit:4;stroke-dasharray:none;stroke-opacity:1;marker-end:url(#marker1481-0)"
       d="m 89.838191,128.3533 c -0.162208,-6.95165 -1.19199,-12.92155 3.411065,-20.99656 5.130492,-9.000279 8.795204,-8.378773 12.896634,-7.81219 4.84586,0.66942 6.10566,1.77835 9.93288,7.91181"
       id="path1048-3"
       sodipodi:nodetypes="cssc" />
    <path
       style="fill:none;stroke:#d30000;stroke-width:0.79375;stroke-linecap:butt;stroke-linejoin:miter;stroke-miterlimit:4;stroke-dasharray:none;stroke-opacity:1;marker-end:url(#marker1481-0-2)"
       d="m 74.299968,139.61375 c -0.07054,-3.99655 -0.518395,-7.42868 1.483469,-12.07106 2.231246,-5.17431 3.825025,-4.81702 5.608734,-4.49128 2.107459,0.38485 2.655345,1.02239 4.319799,4.54856"
       id="path1048-3-8"
       sodipodi:nodetypes="cssc" />
    <path
       style="fill:none;stroke:#d30000;stroke-width:0.79375;stroke-linecap:butt;stroke-linejoin:miter;stroke-miterlimit:4;stroke-dasharray:none;stroke-opacity:1;marker-end:url(#marker1481-0-6)"
       d="m 41.429487,161.05482 c -0.162208,-6.95165 -1.19199,-12.92155 3.411065,-20.99656 5.130492,-9.00028 8.795204,-8.37877 12.896634,-7.81219 4.84586,0.66942 6.10566,1.77835 9.93288,7.91181"
       id="path1048-3-1"
       sodipodi:nodetypes="cssc" />
    <path
       style="fill:none;stroke:#d30000;stroke-width:0.79375;stroke-linecap:butt;stroke-linejoin:miter;stroke-miterlimit:4;stroke-dasharray:none;stroke-opacity:1;marker-end:url(#marker1481-0-2-1)"
       d="m 120.58664,107.18681 c -0.0705,-3.99655 -0.51839,-7.428677 1.48347,-12.071039 2.23125,-5.174314 3.82503,-4.817024 5.60874,-4.491284 2.10746,0.38485 2.65534,1.022394 4.3198,4.548564"
       id="path1048-3-8-4"
       sodipodi:nodetypes="cssc" />
    <path
       style="fill:none;stroke:#d30000;stroke-width:0.79375;stroke-linecap:butt;stroke-linejoin:miter;stroke-miterlimit:4;stroke-dasharray:none;stroke-opacity:1;marker-end:url(#marker1481-0-2-8)"
       d="m 136.49127,96.409486 c -0.0705,-3.99655 -0.51839,-7.42868 1.48347,-12.07106 2.23125,-5.17431 3.82503,-4.81702 5.60874,-4.49128 2.10746,0.38485 2.65534,1.02239 4.3198,4.54856"
       id="path1048-3-8-5"
       sodipodi:nodetypes="cssc" />
    <path
       style="fill:none;stroke:#d30000;stroke-width:0.79375;stroke-linecap:butt;stroke-linejoin:miter;stroke-miterlimit:4;stroke-dasharray:none;stroke-opacity:1;marker-end:url(#marker1481-0-25)"
       d="m 153.11734,84.52209 c -0.1622,-6.95165 -1.19199,-12.92155 3.41107,-20.99656 5.13049,-9.000279 8.7952,-8.378773 12.89663,-7.81219 4.84586,0.66942 6.10566,1.77835 9.93288,7.91181"
       id="path1048-3-5"
       sodipodi:nodetypes="cssc" />
    <path
       style="fill:none;stroke:#d30000;stroke-width:0.79375;stroke-linecap:butt;stroke-linejoin:miter;stroke-miterlimit:4;stroke-dasharray:none;stroke-opacity:1;marker-end:url(#marker1481-0-2-8-6)"
       d="m 183.90404,63.499443 c -0.0705,-3.99655 -0.51839,-7.42868 1.48347,-12.07106 2.23125,-5.17431 3.82503,-4.81702 5.60874,-4.49128 2.10746,0.38485 2.65534,1.02239 4.3198,4.54856"
       id="path1048-3-8-5-3"
       sodipodi:nodetypes="cssc" />
  </g>
</svg>
