<?xml version="1.0" encoding="UTF-8" standalone="no"?>
<!-- Created with Inkscape (http://www.inkscape.org/) -->

<svg
   width="271.875mm"
   height="315.68777mm"
   viewBox="0 0 271.875 315.68777"
   version="1.1"
   id="svg5"
   sodipodi:docname="EggDrop.svg"
   inkscape:version="1.1 (c4e8f9e, 2021-05-24)"
   inkscape:export-filename="/Users/chriswright/desktop/bitmap.png"
   inkscape:export-xdpi="96"
   inkscape:export-ydpi="96"
   xmlns:inkscape="http://www.inkscape.org/namespaces/inkscape"
   xmlns:sodipodi="http://sodipodi.sourceforge.net/DTD/sodipodi-0.dtd"
   xmlns="http://www.w3.org/2000/svg"
   xmlns:svg="http://www.w3.org/2000/svg">
  <sodipodi:namedview
     id="namedview7"
     pagecolor="#ffffff"
     bordercolor="#666666"
     borderopacity="1.0"
     inkscape:pageshadow="2"
     inkscape:pageopacity="1"
     inkscape:pagecheckerboard="0"
     inkscape:document-units="mm"
     showgrid="true"
     inkscape:zoom="0.47433591"
     inkscape:cx="372.09917"
     inkscape:cy="550.24297"
     inkscape:window-width="1312"
     inkscape:window-height="998"
     inkscape:window-x="0"
     inkscape:window-y="25"
     inkscape:window-maximized="0"
     inkscape:current-layer="layer1"
     inkscape:snap-global="true"
     fit-margin-left="1"
     fit-margin-top="1"
     fit-margin-right="1"
     fit-margin-bottom="1">
    <inkscape:grid
       type="xygrid"
       id="grid1512"
       originx="6.2916662"
       originy="33.146877" />
  </sodipodi:namedview>
  <defs
     id="defs2">
    <marker
       style="overflow:visible"
       id="Arrow2Send"
       refX="0"
       refY="0"
       orient="auto"
       inkscape:stockid="Arrow2Send"
       inkscape:isstock="true">
      <path
         transform="matrix(-0.3,0,0,-0.3,0.69,0)"
         d="M 8.7185878,4.0337352 -2.2072895,0.01601326 8.7185884,-4.0017078 c -1.7454984,2.3720609 -1.7354408,5.6174519 -6e-7,8.035443 z"
         style="fill:context-stroke;fill-rule:evenodd;stroke-width:0.625;stroke-linejoin:round"
         id="path3102" />
    </marker>
    <marker
       style="overflow:visible"
       id="Arrow2Mend"
       refX="0"
       refY="0"
       orient="auto"
       inkscape:stockid="Arrow2Mend"
       inkscape:isstock="true">
      <path
         transform="scale(-0.6)"
         d="M 8.7185878,4.0337352 -2.2072895,0.01601326 8.7185884,-4.0017078 c -1.7454984,2.3720609 -1.7354408,5.6174519 -6e-7,8.035443 z"
         style="fill:context-stroke;fill-rule:evenodd;stroke-width:0.625;stroke-linejoin:round"
         id="path3096" />
    </marker>
    <marker
       style="overflow:visible"
       id="Arrow2Lend"
       refX="0"
       refY="0"
       orient="auto"
       inkscape:stockid="Arrow2Lend"
       inkscape:isstock="true">
      <path
         transform="matrix(-1.1,0,0,-1.1,-1.1,0)"
         d="M 8.7185878,4.0337352 -2.2072895,0.01601326 8.7185884,-4.0017078 c -1.7454984,2.3720609 -1.7354408,5.6174519 -6e-7,8.035443 z"
         style="fill:context-stroke;fill-rule:evenodd;stroke-width:0.625;stroke-linejoin:round"
         id="path3090" />
    </marker>
    <marker
       style="overflow:visible"
       id="Arrow2Send-2"
       refX="0"
       refY="0"
       orient="auto"
       inkscape:stockid="Arrow2Send"
       inkscape:isstock="true">
      <path
         transform="matrix(-0.3,0,0,-0.3,0.69,0)"
         d="M 8.7185878,4.0337352 -2.2072895,0.01601326 8.7185884,-4.0017078 c -1.7454984,2.3720609 -1.7354408,5.6174519 -6e-7,8.035443 z"
         style="fill:context-stroke;fill-rule:evenodd;stroke-width:0.625;stroke-linejoin:round"
         id="path3102-5" />
    </marker>
  </defs>
  <g
     inkscape:label="Layer 1"
     inkscape:groupmode="layer"
     id="layer1"
     transform="translate(6.2916666,33.146877)">
    <path
       style="fill:#ff8800;fill-opacity:1;stroke:none;stroke-width:0.2789"
       d="m 231.02512,279.4197 c 0,-3.53556 0.96768,-6.36023 3.41569,-9.97045 1.32116,-1.9484 3.46487,-3.15283 5.07421,-2.85092 2.00097,0.37539 4.46319,2.94181 5.86636,6.11464 0.7751,1.75263 1.76784,6.18395 1.45539,6.4964 -0.11312,0.11312 -1.36381,0.29503 -2.77931,0.40425 -6.18195,0.47698 -11.1267,1.1004 -11.90006,1.50032 -0.45412,0.23483 -0.89466,0.42697 -0.97898,0.42697 -0.0843,0 -0.1533,-0.95454 -0.1533,-2.12121 z"
       id="path7311" />
    <path
       style="fill:#999999;stroke:#010000;stroke-width:0.529167;stroke-miterlimit:4;stroke-dasharray:none;stroke-opacity:1"
       d="m 103.36113,280.78269 c -4.671227,-0.5758 -8.040107,-5.67 -7.020577,-10.20731 0.4519,-4.35523 2.55727,-8.76325 6.357147,-11.1373 2.64315,-1.13454 5.82417,0.36076 7.16278,2.78279 2.79839,3.71813 4.17423,8.73555 2.81896,13.28058 -1.33642,3.64759 -5.51219,5.95547 -9.31831,5.28124 z m 3.15026,-0.58791 c 4.43284,-0.88265 7.27799,-5.97206 6.05899,-10.25155 -0.64035,-3.97717 -2.6302,-7.98265 -6.17287,-10.11451 -2.368,-0.9188 -5.11156,0.47203 -6.28555,2.60752 -2.731387,3.57769 -4.220477,8.43546 -2.839657,12.84752 1.02719,2.83624 3.880877,4.84938 6.856657,5.11467 0.79799,0.0673 1.60809,0.003 2.38243,-0.20365 z"
       id="path966" />
    <path
       style="opacity:0.460194;fill:#008080;fill-opacity:1;stroke:#010000;stroke-width:0.79375;stroke-linecap:butt;stroke-linejoin:miter;stroke-miterlimit:4;stroke-dasharray:none;stroke-opacity:1"
       d="M 15.875,63.499999 H 68.791666 V 89.958332 H 15.875 Z"
       id="path1634" />
    <path
       style="opacity:0.460194;fill:#008080;fill-opacity:1;stroke:#010000;stroke-width:0.79375;stroke-linecap:butt;stroke-linejoin:miter;stroke-miterlimit:4;stroke-dasharray:none;stroke-opacity:1"
       d="M 15.875,31.749998 H 68.791666 V 58.208331 H 15.875 Z"
       id="path1634-2" />
    <path
       style="opacity:0.460194;fill:#00ffff;fill-opacity:1;stroke:#010000;stroke-width:0.79375;stroke-linecap:butt;stroke-linejoin:miter;stroke-miterlimit:4;stroke-dasharray:none;stroke-opacity:1"
       d="M 15.875,95.249998 H 68.791666 V 121.70833 H 15.875 Z"
       id="path1634-8" />
    <path
       style="opacity:0.460194;fill:#008080;fill-opacity:1;stroke:#010000;stroke-width:0.79375;stroke-linecap:butt;stroke-linejoin:miter;stroke-miterlimit:4;stroke-dasharray:none;stroke-opacity:1"
       d="m 15.875,127 h 52.916666 v 26.45833 H 15.875 Z"
       id="path1634-4" />
    <path
       style="opacity:0.460194;fill:#008080;fill-opacity:1;stroke:#010000;stroke-width:0.79375;stroke-linecap:butt;stroke-linejoin:miter;stroke-miterlimit:4;stroke-dasharray:none;stroke-opacity:1"
       d="m 15.875,158.75 h 52.916666 v 26.45833 H 15.875 Z"
       id="path1634-9" />
    <path
       style="opacity:0.460194;fill:#008080;fill-opacity:1;stroke:#010000;stroke-width:0.79375;stroke-linecap:butt;stroke-linejoin:miter;stroke-miterlimit:4;stroke-dasharray:none;stroke-opacity:1"
       d="m 15.875,190.5 h 52.916666 v 26.45833 H 15.875 Z"
       id="path1634-0" />
    <path
       style="opacity:0.460194;fill:#008080;fill-opacity:1;stroke:#010000;stroke-width:0.79375;stroke-linecap:butt;stroke-linejoin:miter;stroke-miterlimit:4;stroke-dasharray:none;stroke-opacity:1"
       d="m 15.875,222.25 h 52.916666 v 26.45833 H 15.875 Z"
       id="path1634-1" />
    <path
       style="opacity:0.460194;fill:#008080;fill-opacity:1;stroke:#010000;stroke-width:0.79375;stroke-linecap:butt;stroke-linejoin:miter;stroke-miterlimit:4;stroke-dasharray:none;stroke-opacity:1"
       d="m 15.875,254 h 52.916666 v 26.45833 H 15.875 Z"
       id="path1634-3" />
    <path
       style="opacity:0.460194;fill:#008080;fill-opacity:1;stroke:#010000;stroke-width:0.79375;stroke-linecap:butt;stroke-linejoin:miter;stroke-miterlimit:4;stroke-dasharray:none;stroke-opacity:1"
       d="M 15.875,-2.3333333e-6 H 68.791666 V 26.458331 H 15.875 Z"
       id="path1634-2-5" />
    <path
       style="opacity:0.460194;fill:#00ffff;fill-opacity:1;stroke:#010000;stroke-width:0.79375;stroke-linecap:butt;stroke-linejoin:miter;stroke-miterlimit:4;stroke-dasharray:none;stroke-opacity:1"
       d="m 137.58334,63.499999 h 52.91667 v 26.458333 h -52.91667 z"
       id="path1634-23" />
    <path
       style="opacity:0.460194;fill:#008080;fill-opacity:1;stroke:#010000;stroke-width:0.79375;stroke-linecap:butt;stroke-linejoin:miter;stroke-miterlimit:4;stroke-dasharray:none;stroke-opacity:1"
       d="m 137.58334,31.749998 h 52.91667 v 26.458333 h -52.91667 z"
       id="path1634-2-7" />
    <path
       style="opacity:0.460194;fill:#008080;fill-opacity:1;stroke:#010000;stroke-width:0.79375;stroke-linecap:butt;stroke-linejoin:miter;stroke-miterlimit:4;stroke-dasharray:none;stroke-opacity:1"
       d="m 137.58334,95.249998 h 52.91667 v 26.458332 h -52.91667 z"
       id="path1634-8-7" />
    <path
       style="opacity:0.460194;fill:#008080;fill-opacity:1;stroke:#010000;stroke-width:0.79375;stroke-linecap:butt;stroke-linejoin:miter;stroke-miterlimit:4;stroke-dasharray:none;stroke-opacity:1"
       d="m 137.58334,127 h 52.91667 v 26.45833 h -52.91667 z"
       id="path1634-4-7" />
    <path
       style="opacity:0.460194;fill:#008080;fill-opacity:1;stroke:#010000;stroke-width:0.79375;stroke-linecap:butt;stroke-linejoin:miter;stroke-miterlimit:4;stroke-dasharray:none;stroke-opacity:1"
       d="m 137.58334,158.75 h 52.91667 v 26.45833 h -52.91667 z"
       id="path1634-9-9" />
    <path
       style="opacity:0.460194;fill:#008080;fill-opacity:1;stroke:#010000;stroke-width:0.79375;stroke-linecap:butt;stroke-linejoin:miter;stroke-miterlimit:4;stroke-dasharray:none;stroke-opacity:1"
       d="m 137.58334,190.5 h 52.91667 v 26.45833 h -52.91667 z"
       id="path1634-0-3" />
    <path
       style="opacity:0.460194;fill:#008080;fill-opacity:1;stroke:#010000;stroke-width:0.79375;stroke-linecap:butt;stroke-linejoin:miter;stroke-miterlimit:4;stroke-dasharray:none;stroke-opacity:1"
       d="m 137.58334,222.25 h 52.91667 v 26.45833 h -52.91667 z"
       id="path1634-1-2" />
    <path
       style="opacity:0.460194;fill:#008080;fill-opacity:1;stroke:#010000;stroke-width:0.79375;stroke-linecap:butt;stroke-linejoin:miter;stroke-miterlimit:4;stroke-dasharray:none;stroke-opacity:1"
       d="m 137.58334,254 h 52.91667 v 26.45833 h -52.91667 z"
       id="path1634-3-3" />
    <path
       style="opacity:0.460194;fill:#008080;fill-opacity:1;stroke:#010000;stroke-width:0.79375;stroke-linecap:butt;stroke-linejoin:miter;stroke-miterlimit:4;stroke-dasharray:none;stroke-opacity:1"
       d="m 137.58334,-2.3333333e-6 h 52.91667 V 26.458331 h -52.91667 z"
       id="path1634-2-5-0" />
    <path
       style="opacity:0.623301;fill:none;stroke:#000000;stroke-width:2.64583;stroke-linecap:butt;stroke-linejoin:miter;stroke-miterlimit:4;stroke-dasharray:none;stroke-opacity:1;marker-end:url(#Arrow2Send)"
       d="m 68.791666,111.125 c 5.291667,0 12.766581,0.86668 17.376176,4.50325 5.110104,5.53593 4.831387,4.08224 10.265425,17.45226 3.850393,11.19989 6.206103,24.41407 6.474933,36.25282 2.09575,21.27116 2.92513,29.7779 3.56909,62.87473 -0.15654,6.40547 0.47692,8.26663 -0.24954,21.0031"
       id="path2515"
       sodipodi:nodetypes="cccccc" />
    <path
       style="opacity:0.623301;fill:none;stroke:#000000;stroke-width:2.64583;stroke-linecap:butt;stroke-linejoin:miter;stroke-miterlimit:4;stroke-dasharray:none;stroke-opacity:1;marker-end:url(#Arrow2Send-2)"
       d="m 190.16012,77.318989 c 6.87273,0 16.58104,1.125631 22.5679,5.848752 6.63693,7.189977 6.27493,5.301947 13.33258,22.666719 5.00083,14.54624 8.06039,31.70862 8.40954,47.0846 2.72193,27.62665 3.79911,38.67508 4.63548,81.66073 -0.20331,8.31932 0.61941,10.73657 -0.3241,27.2785"
       id="path2515-5"
       sodipodi:nodetypes="cccccc" />
    <path
       style="fill:none;stroke:#000000;stroke-width:1.5875;stroke-linecap:butt;stroke-linejoin:miter;stroke-miterlimit:4;stroke-dasharray:none;stroke-opacity:1"
       d="M -5.2916666,280.45833 H 264.58333"
       id="path3728" />
    <path
       style="fill:none;stroke:#000000;stroke-width:1.32292;stroke-linecap:butt;stroke-linejoin:miter;stroke-miterlimit:4;stroke-dasharray:none;stroke-opacity:1"
       d="m 37.041666,111.125 c 5.291666,5.29167 5.291666,5.29167 5.291666,5.29167 l 10.583334,-15.875"
       id="path6825" />
    <path
       style="fill:none;stroke:#de0000;stroke-width:1.32292;stroke-linecap:butt;stroke-linejoin:miter;stroke-miterlimit:4;stroke-dasharray:none;stroke-opacity:1"
       d="m 158.75,68.791666 15.875,15.875"
       id="path6940" />
    <path
       style="fill:none;stroke:#de0000;stroke-width:1.32292;stroke-linecap:butt;stroke-linejoin:miter;stroke-miterlimit:4;stroke-dasharray:none;stroke-opacity:1"
       d="m 174.625,68.791666 -15.875,15.875"
       id="path6942" />
    <path
       style="fill:#ffffff;stroke:none;stroke-width:0.529167;stroke-miterlimit:4;stroke-dasharray:none;stroke-opacity:1"
       d="m 247.09952,63.24031 c -4.65917,-0.586136 -8.05618,-5.669346 -7.02058,-10.20731 0.43521,-4.362387 2.57136,-8.75017 6.35715,-11.1373 2.63811,-1.10652 5.84327,0.340141 7.16278,2.78279 2.87388,3.802973 4.25334,9.002454 2.68609,13.616374 -1.47513,3.4637 -5.48966,5.592918 -9.18544,4.945446 z m 4.25465,-7.67781 c 4.41788,-0.895286 6.19321,1.118619 4.9546,-3.16165 -0.62392,-3.98497 -2.64413,-7.969106 -6.17287,-10.11451 -2.36246,-0.892797 -5.12965,0.453089 -6.28555,2.60752 -2.75282,3.570694 -4.43634,8.901758 -3.07952,13.314473 0,-2.645833 6.86123,-1.671103 10.58334,-2.645833 z"
       id="path966-7-6"
       sodipodi:nodetypes="cccccccccccc" />
    <path
       style="fill:none;stroke:#000000;stroke-width:0.529167;stroke-linecap:butt;stroke-linejoin:miter;stroke-miterlimit:4;stroke-dasharray:none;stroke-opacity:1"
       d="m 233.49801,271.36254 c 4.02242,3.84807 5.79765,-0.6115 9.54782,-2.11156"
       id="path7772"
       sodipodi:nodetypes="cc" />
    <path
       style="fill:none;stroke:#000000;stroke-width:0.529167;stroke-linecap:butt;stroke-linejoin:miter;stroke-miterlimit:4;stroke-dasharray:none;stroke-opacity:1"
       d="m 231.92032,274.91235 c 5.6863,3.64857 5.06013,-0.72271 9.26892,-1.77491 1.75822,-0.43955 3.35427,0.98605 4.73307,0.98605"
       id="path7774" />
    <path
       style="opacity:0.460194;fill:#008080;fill-opacity:1;stroke:#010000;stroke-width:0.79375;stroke-linecap:butt;stroke-linejoin:miter;stroke-miterlimit:4;stroke-dasharray:none;stroke-opacity:1"
       d="M 15.875,-31.750002 H 68.791666 V -5.2916687 H 15.875 Z"
       id="path1634-2-5-4" />
    <path
       style="opacity:0.460194;fill:#008080;fill-opacity:1;stroke:#010000;stroke-width:0.79375;stroke-linecap:butt;stroke-linejoin:miter;stroke-miterlimit:4;stroke-dasharray:none;stroke-opacity:1"
       d="M 137.58333,-31.750001 H 190.5 v 26.4583327 h -52.91667 z"
       id="path1634-2-5-8" />
  </g>
</svg>
