<svg width="375.024" height="125.024" viewBox="0 0 99.225 33.079" xmlns="http://www.w3.org/2000/svg"><defs><marker id="a" orient="auto" overflow="visible"><path d="M-1.2 0l-1 1 3.5-1-3.5-1z" fill="context-stroke" fill-rule="evenodd" stroke="context-stroke" stroke-width=".2pt"/></marker><path id="b" d="M373.063 23.813H388.46799999999996V53.081H373.063z"/><path id="c" d="M373.063 23.813H388.46799999999996V53.081H373.063z"/><path id="d" d="M373.063 23.813H388.46799999999996V53.081H373.063z"/><path id="e" d="M373.063 23.813H388.46799999999996V53.081H373.063z"/><path id="f" d="M373.063 23.813H388.46799999999996V53.081H373.063z"/><path id="g" d="M373.063 23.813H388.46799999999996V53.081H373.063z"/><path id="h" d="M373.063 23.813H388.46799999999996V53.081H373.063z"/><path id="i" d="M373.063 23.813H388.46799999999996V53.081H373.063z"/><path id="j" d="M373.063 23.813H388.46799999999996V53.081H373.063z"/><path id="k" d="M373.063 23.813H388.46799999999996V53.081H373.063z"/><path id="l" d="M373.063 23.813H388.46799999999996V53.081H373.063z"/><path id="m" d="M373.063 23.813H388.46799999999996V53.081H373.063z"/><path id="n" d="M373.063 23.813H388.46799999999996V53.081H373.063z"/><path id="o" d="M373.063 23.813H388.46799999999996V53.081H373.063z"/><path id="p" d="M373.063 23.813H388.46799999999996V53.081H373.063z"/><path id="q" d="M373.063 23.813H388.46799999999996V53.081H373.063z"/><path id="r" d="M373.063 23.813H388.46799999999996V53.081H373.063z"/><path id="s" d="M373.063 23.813H388.46799999999996V53.081H373.063z"/></defs><g transform="translate(-46.96 -70.773)"><circle cx="118.887" cy="76.718" r="3.969" opacity="0.4" fill="#00ff00" paint-order="fill markers stroke"/><path d="M84.667 87.313h23.812" fill="none" stroke="#e60000" stroke-width="1.32292" stroke-dasharray="1.32292, 1.32292" marker-end="url(#a)"/><g transform="translate(-190.5)"><g transform="translate(47.625 -124.354)" stroke-width="0.529167" fill="none" stroke="#000000"><g transform="translate(0 31.75)"><path paint-order="fill markers stroke" d="M211.667 164.042H222.25V174.625H211.667z"/><path paint-order="fill markers stroke" d="M211.667 174.625H222.25V185.208H211.667z"/><path paint-order="fill markers stroke" d="M211.667 174.625H222.25V185.208H211.667z"/><path paint-order="fill markers stroke" d="M201.083 164.042H211.666V174.625H201.083z"/><path paint-order="fill markers stroke" d="M201.083 174.625H211.666V185.208H201.083z"/><path paint-order="fill markers stroke" d="M190.5 164.042H201.083V174.625H190.5z"/><path paint-order="fill markers stroke" d="M190.5 174.625H201.083V185.208H190.5z"/></g><path paint-order="fill markers stroke" d="M211.667 216.958H222.25V227.541H211.667z"/><path paint-order="fill markers stroke" d="M211.667 216.958H222.25V227.541H211.667z"/><path paint-order="fill markers stroke" d="M201.083 216.958H211.666V227.541H201.083z"/><path paint-order="fill markers stroke" d="M190.5 216.958H201.083V227.541H190.5z"/></g><text style="line-height:1.25;-inkscape-font-specification:Chalkboard;shape-inside:url(#b)" transform="translate(121.514 64.52) scale(.32085)" font-size="25.4px" font-family="Chalkboard" white-space="pre" stroke-width="1.64926"><tspan x="373.063" y="46.699">7</tspan></text><text style="line-height:1.25;-inkscape-font-specification:Chalkboard;shape-inside:url(#c)" transform="translate(131.895 64.52) scale(.32085)" font-size="25.4px" font-family="Chalkboard" white-space="pre" stroke-width="1.64926"><tspan x="373.063" y="46.699">4</tspan></text><text style="line-height:1.25;-inkscape-font-specification:Chalkboard;shape-inside:url(#d)" transform="translate(120.985 75.103) scale(.32085)" font-size="25.4px" font-family="Chalkboard" white-space="pre" stroke-width="1.64926"><tspan x="373.063" y="46.699">2</tspan></text><text style="line-height:1.25;-inkscape-font-specification:Chalkboard;shape-inside:url(#e)" transform="translate(131.895 75.103) scale(.32085)" font-size="25.4px" font-family="Chalkboard" white-space="pre" stroke-width="1.64926"><tspan x="373.063" y="46.699">6</tspan></text><text style="line-height:1.25;-inkscape-font-specification:Chalkboard;shape-inside:url(#f)" transform="translate(142.479 75.103) scale(.32085)" font-size="25.4px" font-family="Chalkboard" white-space="pre" stroke-width="1.64926"><tspan x="373.063" y="46.699">2</tspan></text><text style="line-height:1.25;-inkscape-font-specification:Chalkboard;shape-inside:url(#g)" transform="translate(122.168 85.687) scale(.32085)" font-size="25.4px" font-family="Chalkboard" white-space="pre" stroke-width="1.64926"><tspan x="373.063" y="46.699">1</tspan></text><text style="line-height:1.25;-inkscape-font-specification:Chalkboard;shape-inside:url(#h)" transform="translate(131.895 85.687) scale(.32085)" font-size="25.4px" font-family="Chalkboard" white-space="pre" stroke-width="1.64926"><tspan x="373.063" y="46.699">8</tspan></text><text style="line-height:1.25;-inkscape-font-specification:Chalkboard;shape-inside:url(#i)" transform="translate(143.412 85.687) scale(.32085)" font-size="25.4px" font-family="Chalkboard" white-space="pre" stroke-width="1.64926"><tspan x="373.063" y="46.699">1</tspan></text><text style="line-height:1.25;-inkscape-font-specification:Chalkboard;shape-inside:url(#j)" transform="translate(142.479 64.52) scale(.32085)" font-size="25.4px" font-family="Chalkboard" white-space="pre" stroke-width="1.64926"><tspan x="373.063" y="46.699">5</tspan></text></g><g transform="translate(-76.73 -124.354)" stroke-width="0.529167" fill="none" stroke="#000000"><g transform="translate(0 31.75)"><path paint-order="fill markers stroke" d="M211.667 164.042H222.25V174.625H211.667z"/><path paint-order="fill markers stroke" d="M211.667 174.625H222.25V185.208H211.667z"/><path paint-order="fill markers stroke" d="M211.667 174.625H222.25V185.208H211.667z"/><path paint-order="fill markers stroke" d="M201.083 164.042H211.666V174.625H201.083z"/><path paint-order="fill markers stroke" d="M201.083 174.625H211.666V185.208H201.083z"/><path paint-order="fill markers stroke" d="M190.5 164.042H201.083V174.625H190.5z"/><path paint-order="fill markers stroke" d="M190.5 174.625H201.083V185.208H190.5z"/></g><path paint-order="fill markers stroke" d="M211.667 216.958H222.25V227.541H211.667z"/><path paint-order="fill markers stroke" d="M211.667 216.958H222.25V227.541H211.667z"/><path paint-order="fill markers stroke" d="M201.083 216.958H211.666V227.541H201.083z"/><path paint-order="fill markers stroke" d="M190.5 216.958H201.083V227.541H190.5z"/></g><text style="line-height:1.25;-inkscape-font-specification:Chalkboard;shape-inside:url(#k)" transform="translate(-3.042 64.318) scale(.32085)" font-size="25.4px" font-family="Chalkboard" white-space="pre" stroke-width="1.64926"><tspan x="373.063" y="46.699">7</tspan></text><text style="line-height:1.25;-inkscape-font-specification:Chalkboard;shape-inside:url(#l)" transform="translate(7.541 64.52) scale(.32085)" font-size="25.4px" font-family="Chalkboard" white-space="pre" stroke-width="1.64926"><tspan x="373.063" y="46.699">4</tspan></text><text style="line-height:1.25;-inkscape-font-specification:Chalkboard;shape-inside:url(#m)" transform="translate(-3.37 75.103) scale(.32085)" font-size="25.4px" font-family="Chalkboard" white-space="pre" stroke-width="1.64926"><tspan x="373.063" y="46.699">2</tspan></text><text style="line-height:1.25;-inkscape-font-specification:Chalkboard;shape-inside:url(#n)" transform="translate(7.541 75.103) scale(.32085)" font-size="25.4px" font-family="Chalkboard" white-space="pre" stroke-width="1.64926"><tspan x="373.063" y="46.699">6</tspan></text><text style="line-height:1.25;-inkscape-font-specification:Chalkboard;shape-inside:url(#o)" transform="translate(18.124 75.103) scale(.32085)" font-size="25.4px" font-family="Chalkboard" white-space="pre" stroke-width="1.64926"><tspan x="373.063" y="46.699">2</tspan></text><text style="line-height:1.25;-inkscape-font-specification:Chalkboard;shape-inside:url(#p)" transform="translate(-2.186 85.687) scale(.32085)" font-size="25.4px" font-family="Chalkboard" white-space="pre" stroke-width="1.64926"><tspan x="373.063" y="46.699">1</tspan></text><text style="line-height:1.25;-inkscape-font-specification:Chalkboard;shape-inside:url(#q)" transform="translate(7.541 85.687) scale(.32085)" font-size="25.4px" font-family="Chalkboard" white-space="pre" stroke-width="1.64926"><tspan x="373.063" y="46.699">8</tspan></text><text style="line-height:1.25;-inkscape-font-specification:Chalkboard;shape-inside:url(#r)" transform="translate(19.058 85.687) scale(.32085)" font-size="25.4px" font-family="Chalkboard" white-space="pre" stroke-width="1.64926"><tspan x="373.063" y="46.699">1</tspan></text><text style="line-height:1.25;-inkscape-font-specification:Chalkboard;shape-inside:url(#s)" transform="translate(18.124 64.52) scale(.32085)" font-size="25.4px" font-family="Chalkboard" white-space="pre" stroke-width="1.64926"><tspan x="373.063" y="46.699">5</tspan></text><circle cx="140.233" cy="97.944" r="3.969" opacity="0.4" fill="#f90000" paint-order="fill markers stroke"/><circle cx="140.233" cy="87.361" r="3.969" opacity="0.4" fill="#f90000" paint-order="fill markers stroke"/><circle cx="129.852" cy="87.361" r="3.969" opacity="0.4" fill="#f90000" paint-order="fill markers stroke"/><circle cx="140.185" cy="76.636" r="3.969" opacity="0.4" fill="#0000ff" paint-order="fill markers stroke"/><circle cx="129.602" cy="76.838" r="3.969" opacity="0.4" fill="#0000ff" paint-order="fill markers stroke"/><circle cx="129.804" cy="98.005" r="3.969" opacity="0.4" fill="#0000ff" paint-order="fill markers stroke"/><circle cx="119.019" cy="98.005" r="3.969" opacity="0.4" fill="#0000ff" paint-order="fill markers stroke"/><circle cx="118.887" cy="87.302" r="3.969" opacity="0.4" fill="#00ff00" paint-order="fill markers stroke"/></g></svg>