<?xml version="1.0" encoding="UTF-8" standalone="no"?>
<!-- Created with Inkscape (http://www.inkscape.org/) -->

<svg
   width="147.39749mm"
   height="106.40263mm"
   viewBox="0 0 147.39748 106.40263"
   version="1.1"
   id="svg5"
   inkscape:version="1.1 (c4e8f9e, 2021-05-24)"
   sodipodi:docname="PathChallengeIntroRevised.svg"
   inkscape:export-filename="/Users/chriswright/desktop/bitmap.png"
   inkscape:export-xdpi="96"
   inkscape:export-ydpi="96"
   xmlns:inkscape="http://www.inkscape.org/namespaces/inkscape"
   xmlns:sodipodi="http://sodipodi.sourceforge.net/DTD/sodipodi-0.dtd"
   xmlns="http://www.w3.org/2000/svg"
   xmlns:svg="http://www.w3.org/2000/svg">
  <sodipodi:namedview
     id="namedview7"
     pagecolor="#ffffff"
     bordercolor="#666666"
     borderopacity="1.0"
     inkscape:pageshadow="2"
     inkscape:pageopacity="1"
     inkscape:pagecheckerboard="0"
     inkscape:document-units="mm"
     showgrid="true"
     inkscape:zoom="1.3416246"
     inkscape:cx="329.07864"
     inkscape:cy="193.7949"
     inkscape:window-width="1312"
     inkscape:window-height="998"
     inkscape:window-x="0"
     inkscape:window-y="25"
     inkscape:window-maximized="0"
     inkscape:current-layer="layer1"
     fit-margin-left="0.3"
     fit-margin-top="0.3"
     fit-margin-right="0.3"
     fit-margin-bottom="0.3"
     inkscape:snap-global="false">
    <inkscape:grid
       type="xygrid"
       id="grid857"
       originx="-19.613702"
       originy="-94.932316" />
  </sodipodi:namedview>
  <defs
     id="defs2" />
  <g
     inkscape:label="Layer 1"
     inkscape:groupmode="layer"
     id="layer1"
     transform="translate(-19.61371,-94.932315)">
    <g
       id="g972"
       style="stroke:#020000;stroke-width:1.5875;stroke-miterlimit:4;stroke-dasharray:none;stroke-opacity:1">
      <path
         style="fill:none;stroke:#020000;stroke-width:1.5875;stroke-linecap:butt;stroke-linejoin:miter;stroke-miterlimit:4;stroke-dasharray:none;stroke-opacity:1"
         d="m 31.75,105.83333 h 127 V 190.5 h -127 z"
         id="path859" />
      <path
         style="fill:none;stroke:#020000;stroke-width:1.5875;stroke-linecap:butt;stroke-linejoin:miter;stroke-miterlimit:4;stroke-dasharray:none;stroke-opacity:1"
         d="m 31.75,148.16666 h 127"
         id="path861" />
      <path
         style="fill:none;stroke:#020000;stroke-width:1.5875;stroke-linecap:butt;stroke-linejoin:miter;stroke-miterlimit:4;stroke-dasharray:none;stroke-opacity:1"
         d="m 95.249999,105.83333 v 42.33333"
         id="path863" />
      <path
         style="fill:none;stroke:#020000;stroke-width:1.5875;stroke-linecap:butt;stroke-linejoin:miter;stroke-miterlimit:4;stroke-dasharray:none;stroke-opacity:1"
         d="M 74.083332,148.16666 V 190.5"
         id="path865" />
      <path
         style="fill:none;stroke:#020000;stroke-width:1.5875;stroke-linecap:butt;stroke-linejoin:miter;stroke-miterlimit:4;stroke-dasharray:none;stroke-opacity:1"
         d="M 116.41667,148.16666 V 190.5"
         id="path867" />
    </g>
    <path
       style="fill:none;stroke:#d90000;stroke-width:1.85208;stroke-linecap:butt;stroke-linejoin:miter;stroke-miterlimit:4;stroke-dasharray:none;stroke-opacity:1"
       d="m 68.791669,95.249998 c -0.198214,10.378352 2.049678,11.428002 -4.050356,20.594442 -7.31148,6.94393 -17.770752,8.96037 -27.264879,11.19195 -8.686961,1.06266 -17.113615,8.17276 -16.615784,17.46734 -0.103177,9.21813 7.69598,18.81887 17.412732,18.06983 10.022323,-4.63221 14.385062,-16.01403 23.948358,-21.3375 6.870057,-5.22629 18.348584,-2.79063 21.298358,5.69986 4.088618,8.73765 17.980312,6.78252 20.651552,-2.12577 4.31784,-9.57132 8.40974,-19.28448 14.38278,-27.987 4.07523,-6.17098 8.44557,-10.98982 19.02891,-16.28149 26.45833,-10.583329 37.04166,0 19.80162,21.88747 -10.19162,7.27571 -17.45127,18.29186 -21.29956,30.11439 -0.77859,8.04293 7.67397,11.9415 13.94424,14.40697 27.42205,10.21479 9.55945,44.89689 -7.15464,28.84117 -2.76096,-3.51676 -3.91118,-5.68608 -10.58333,-15.875 -2.40163,-6.98881 -16.23681,-10.86197 -24.74683,-7.94106 -10.237081,4.39601 -10.244131,17.76297 -18.566314,24.18356 -6.587361,7.57256 -16.867829,2.57816 -24.148891,-0.93916 -8.7337,-2.84993 -12.743843,-13.61375 -6.414861,-20.80327 3.671319,-7.22202 10.574106,-11.64042 18.314395,-13.0209 7.9375,0 13.229166,2.64583 13.229166,2.64583"
       id="path950"
       sodipodi:nodetypes="ccccccccccccccccccccc" />
  </g>
</svg>
