<?xml version="1.0" encoding="UTF-8" standalone="no"?>
<!-- Created with Inkscape (http://www.inkscape.org/) -->

<svg
   width="128.42467mm"
   height="96.347435mm"
   viewBox="0 0 128.42467 96.347435"
   version="1.1"
   id="svg5"
   inkscape:version="1.1 (c4e8f9e, 2021-05-24)"
   sodipodi:docname="Handshake.svg"
   inkscape:export-filename="/Users/chriswright/desktop/bitmap.png"
   inkscape:export-xdpi="96"
   inkscape:export-ydpi="96"
   xmlns:inkscape="http://www.inkscape.org/namespaces/inkscape"
   xmlns:sodipodi="http://sodipodi.sourceforge.net/DTD/sodipodi-0.dtd"
   xmlns="http://www.w3.org/2000/svg"
   xmlns:svg="http://www.w3.org/2000/svg">
  <sodipodi:namedview
     id="namedview7"
     pagecolor="#ffffff"
     bordercolor="#666666"
     borderopacity="1.0"
     inkscape:pageshadow="2"
     inkscape:pageopacity="1"
     inkscape:pagecheckerboard="0"
     inkscape:document-units="mm"
     showgrid="false"
     fit-margin-left="1"
     fit-margin-top="1"
     fit-margin-right="1"
     fit-margin-bottom="1"
     inkscape:zoom="0.67081229"
     inkscape:cx="258.64165"
     inkscape:cy="158.01738"
     inkscape:window-width="1312"
     inkscape:window-height="998"
     inkscape:window-x="0"
     inkscape:window-y="25"
     inkscape:window-maximized="0"
     inkscape:current-layer="layer1" />
  <defs
     id="defs2" />
  <g
     inkscape:label="Layer 1"
     inkscape:groupmode="layer"
     id="layer1"
     transform="translate(-37.610819,-45.145393)">
    <path
       style="fill:#000000;stroke:#030000;stroke-width:0.264583;stroke-miterlimit:4;stroke-dasharray:none;stroke-opacity:1"
       d="m 93.393588,140.07532 c -4.03969,-0.86533 -0.428366,-9.32728 -4.83814,-4.73061 -4.571648,1.08577 -5.197365,-5.90659 -5.259363,-7.75078 -5.051858,4.73321 -8.722947,-4.66148 -6.126924,-8.52 -5.249543,2.33168 -8.435553,-7.39669 -4.754333,-11.41254 -3.923399,-5.90043 -11.40332,-7.4678 -17.257632,-10.781877 -3.406119,-1.80878 -8.135921,-3.511211 -10.758372,-5.477037 8.407573,4.258853 17.467035,7.388986 25.437038,12.452844 2.077768,2.46036 3.188187,3.67064 6.291435,3.01516 3.783286,1.39465 2.637331,8.65827 3.079352,9.28907 3.83227,-6.73704 11.297243,-0.46789 8.394972,5.36889 4.191845,-4.33721 8.783244,1.97431 6.790543,6.52869 5.183599,-2.27543 3.769167,6.54168 8.303746,7.76966 2.56315,4.63252 10.72599,4.91574 8.76983,-1.82632 -0.8443,-3.47519 -7.34588,-7.51545 -7.42688,-8.95411 4.75181,2.2055 6.88839,9.83215 12.64169,9.47824 6.13621,-4.88869 -0.48166,-10.98995 -4.14927,-14.87071 -2.86534,-1.23939 -2.94361,-5.73711 -0.68723,-1.60863 3.54178,3.29722 5.9847,8.73485 10.90499,9.99415 5.35637,-1.92133 3.9819,-9.83183 -0.3277,-12.38826 -1.72551,-1.9386 -8.57827,-7.91336 -7.20146,-7.95824 4.13278,3.41791 7.66761,7.75981 12.15482,10.62032 6.94225,-0.76272 4.11583,-11.01236 -0.67322,-13.47315 -4.95077,-5.011197 -10.26013,-9.658548 -14.36902,-15.42252 -3.18086,-3.478253 -6.49605,-7.429889 -10.81309,-9.396851 -2.148646,0.221946 -4.698393,-0.272307 -6.60292,0.385532 -1.757071,3.361508 -6.45944,7.363945 -10.134219,4.566483 -3.205394,-5.583941 4.963221,-9.84928 6.424986,-15.035057 -0.36747,-4.347278 11.906803,-3.641184 5.302951,-4.132272 -5.329098,-0.398683 -9.1806,3.972512 -13.657625,6.133873 C 77.503858,74.8347 72.245037,68.904332 67.494321,66.789301 59.252322,61.692118 51.79419,55.45201 44.045766,49.67759 c 2.317568,1.089886 4.687094,3.448639 7.066755,4.980696 8.948019,6.605514 17.912922,13.750037 28.463902,17.565452 5.789449,-0.640845 9.684203,-6.868388 15.687137,-7.063299 5.692,1.231835 11.91444,-1.588133 17.14471,1.553525 5.13276,2.503384 9.75874,9.282659 15.38549,3.848986 11.40277,-5.739959 21.22642,-13.98461 31.56649,-21.34687 -11.4155,9.143449 -23.17626,18.192375 -36.36146,24.565505 -4.41787,-1.235488 -8.54271,-6.248282 -13.48803,-7.75906 -5.30129,-0.573189 -10.65446,0.817362 -15.844833,1.655776 -1.311292,1.16781 1.939116,2.05261 -0.954934,0.973687 -2.249761,3.768301 -6.028204,7.301672 -3.768568,11.473414 -0.201178,2.621226 -5.645607,6.278383 -1.370855,2.048311 2.910521,-2.696284 -0.383676,-7.605171 -2.270334,-2.677544 -2.668036,1.837924 0.916746,5.117876 -0.462602,4.65922 4.548135,5.012614 10.658478,-5.773518 10.578926,-5.719264 0.827579,2.613858 7.14394,0.179567 9.75841,0.15821 1.2747,-0.420092 3.22247,1.535456 0.85415,0.588007 2.17732,3.526769 -2.79603,-1.71133 -2.88682,0.90816 6.26229,4.132604 10.54159,10.428786 15.41162,15.963381 3.47111,0.631901 6.84645,-9.463767 6.97465,-8.308634 0.16813,4.66996 -9.1157,8.162937 -3.55842,11.556546 2.73624,2.023675 6.15122,7.422885 8.43739,7.853775 0.93676,-2.54692 1.04641,-7.792294 0.83288,-2.08038 3.08829,-1.64593 9.63629,-5.970421 14.44127,-7.691317 4.52273,-2.109936 9.08298,-4.155318 13.57534,-6.313937 -3.48445,2.361939 -8.99303,4.446325 -13.239,6.670018 -5.23446,2.917036 -11.79234,4.630496 -15.21989,9.894056 2.85765,4.08117 0.4718,13.72235 -5.02084,10.89431 2.92991,4.03775 -0.91707,13.51444 -6.32554,8.85564 2.21502,5.88523 -4.83238,9.58365 -7.41551,7.07769 1.39316,7.02524 -6.86607,6.51566 -9.65792,1.83492 -2.483467,-1.87446 -5.527183,5.59674 -8.985742,3.77875 z m 1.974771,-0.70042 c 3.888587,-2.12095 3.850607,-12.30714 0.142979,-10.73591 -1.116146,0.25581 -5.848339,5.34653 -3.769478,8.79462 0.67183,1.31675 2.015294,2.78774 3.626499,1.94129 z m 0.149473,-4.29265 c -2.094309,-0.91658 -2.450134,-5.45413 -0.953645,-1.0551 3.385262,3.02228 3.507651,-7.50087 2.8313,-0.58106 -0.361905,0.43064 -1.088334,2.25951 -1.877655,1.63616 z m -1.797437,-3.77369 c 0.193937,-1.16082 0.285449,0.90662 0,0 z m 0.218412,-0.60185 c 0.311602,-1.33845 0.826055,-0.84568 0,0 z m 4.0166,7.09729 c 2.594793,-1.03318 3.974383,-4.26052 0.776025,-4.47995 0.582412,0.92251 -2.66696,6.01211 -0.776025,4.47995 z m -9.5651,-3.08147 c 4.526663,-2.47224 8.591142,-10.17076 3.569265,-14.02751 -4.887472,0.17709 -9.587392,6.86975 -7.415214,11.56309 0.611207,1.3914 2.145139,3.19312 3.845949,2.46442 z m 1.908196,-5.37667 c -3.389596,-1.62909 -1.734504,-8.09939 0.293605,-8.02118 -5.175437,2.33568 0.691947,11.9803 3.01933,4.90393 0.231232,1.49905 -1.740406,3.42618 -3.312935,3.11725 z m 3.258457,-4.44714 c -0.513421,-2.25393 -3.62628,-5.82834 -0.533979,-1.96189 0.191211,0.0347 0.994664,2.74836 0.533979,1.96189 z m -11.860017,3.14261 c 4.265136,-2.79571 8.491248,-9.52119 3.914818,-13.91218 0.479399,1.28377 2.677783,6.42639 0.376637,1.37911 -4.448308,-5.20429 -6.020261,9.35439 -0.487241,6.50427 1.910814,-0.60619 2.07549,-5.71196 1.6831,-1.62216 -3.513756,7.25901 -8.830272,-4.41455 -3.184877,-6.42158 -4.63681,0.64497 -8.999861,7.27708 -6.400721,12.01996 0.604111,1.72535 2.311439,2.96157 4.098284,2.05258 z m -5.971925,-9.2244 c 5.621224,-1.74467 2.870315,-14.54108 -2.817179,-10.48294 -2.962359,2.67515 -1.727475,10.70823 2.817179,10.48294 z m -2.151739,-1.33901 c -3.067014,-1.55384 -1.56777,-10.58508 0.351283,-4.08762 1.444054,2.75947 2.011142,4.09617 0.03857,0.55484 -2.668501,-7.77759 -2.593089,6.04971 1.779264,3.17564 -0.135564,1.14676 -1.589782,1.1014 -2.169119,0.35714 z m 34.962351,19.9715 c 2.0709,-0.71565 2.42641,-6.86411 1.82696,-1.7694 -0.13183,0.59462 -1.0915,2.27159 -1.82696,1.7694 z m 6.75401,-5.65197 c 2.06103,-1.02091 2.85842,-7.74126 1.94207,-2.22365 -0.22634,0.63115 -1.1483,2.55548 -1.94207,2.22365 z m 6.37273,-5.65197 c 2.3085,-0.70683 3.43697,-7.73107 2.24672,-2.14543 -0.38704,0.69507 -1.35027,2.52922 -2.24672,2.14543 z m 3.59488,-11.63641 c 1.85729,-0.93379 2.73359,-6.95953 1.83726,-1.82037 -0.0289,0.3139 -1.51528,2.57141 -1.83726,1.82037 z m 2.09123,-5.71733 c -0.0532,-1.30749 0.30002,0.82926 0,0 z M 114.80792,95.362183 c -1.64349,-3.247388 1.8411,2.541695 0,0 z m -71.3613,-4.125937 c 0.537814,-0.628485 0.886629,0.606181 0,0 z m -0.653613,-0.33247 c 0.421382,-0.622515 0.69248,0.596954 0,0 z m 116.887883,0 c 0.69244,-0.596976 0.42145,0.622504 0,0 z M 42.139393,90.571306 c 0.421383,-0.622516 0.692483,0.596955 0,0 z m 118.195117,0 c 0.88659,-0.606204 0.53787,0.62848 0,0 z M 41.376844,90.238836 c 0.553771,-0.614551 0.720914,0.602963 0,0 z m 119.720216,0 c 0.69242,-0.596975 0.42144,0.622502 0,0 z M 40.723231,89.906366 c 0.41875,-0.608251 0.558002,0.594974 0,0 z m 121.081909,0 c 0.558,-0.594973 0.41874,0.608251 0,0 z M 40.069617,89.573896 c 0.274706,-0.6001 0.405259,0.587342 0,0 z m 122.443603,0 c 0.52827,-0.59765 0.28171,0.620846 0,0 z M 39.470471,89.241429 c 0.26966,-0.583471 0.269701,0.583452 0,0 z m 123.696359,0 c 0.55798,-0.595001 0.41879,0.608261 0,0 z M 38.76239,88.908959 c 0.274701,-0.600073 0.405265,0.587309 0,0 z m 125.16699,0 c 0.41716,-0.604097 0.10592,0.616891 0,0 z m 0.76255,-0.33247 c 0.41717,-0.604096 0.10589,0.616909 0,0 z m -38.94447,-2.30766 c 0.15351,-1.436918 0.32791,0.925379 0,0 z m 0.22121,-1.10014 c 0.3029,-2.391057 0.16476,1.301328 0,0 z M 43.610024,49.34516 c 0.274723,-0.600084 0.405244,0.587339 0,0 z m -0.435743,-0.33247 c 0.274725,-0.600083 0.405243,0.587339 0,0 z m 116.343209,0 c 0.40528,-0.587313 0.27469,0.600094 0,0 z M 42.738539,48.68022 c 0.274723,-0.600084 0.405244,0.587339 0,0 z m 117.214691,0 c 0.40528,-0.587313 0.27469,0.600094 0,0 z M 42.302797,48.34776 c 0.274677,-0.600095 0.405286,0.587314 0,0 z m 118.086173,0 c 0.40524,-0.587334 0.27472,0.600075 0,0 z M 41.921522,48.01529 c 0.110809,-0.587943 0.280209,0.582551 0,0 z m 118.957668,0 c 0.41716,-0.604111 0.10589,0.616899 0,0 z M 41.431312,47.68282 c 0.269658,-0.58347 0.269699,0.583451 0,0 z M 40.99557,47.35035 c 0.269658,-0.583472 0.2697,0.583452 0,0 z m 120.80957,0.0332 c 0.61133,-1.052507 1.04895,-0.01982 0,0 z M 40.559827,47.008073 c 0.366283,-0.298844 0.181099,0.537084 0,0 z m -0.435742,-0.33247 c 0.366285,-0.298844 0.181093,0.537091 0,0 z m -0.435742,-0.33247 c 0.366286,-0.298844 0.181093,0.537092 0,0 z"
       id="path854"
       sodipodi:nodetypes="cccccccccccccccccccccccccccccccccccccccccccccccccccccccccccccccccccccccccccccccccccccccccccccccccccccscccsscccccccccccccccccccccccccccccccccccccccccccccccccccccccccccccccccccccccccccccccccc" />
  </g>
</svg>
