<?xml version="1.0" encoding="UTF-8" standalone="no"?>
<!-- Created with Inkscape (http://www.inkscape.org/) -->

<svg
   width="207.5034mm"
   height="152.05316mm"
   viewBox="0 0 207.5034 152.05316"
   version="1.1"
   id="svg5"
   inkscape:version="1.1 (c4e8f9e, 2021-05-24)"
   sodipodi:docname="PathChallengeAnswer1.svg"
   inkscape:export-filename="/Users/chriswright/desktop/bitmap.png"
   inkscape:export-xdpi="96"
   inkscape:export-ydpi="96"
   xmlns:inkscape="http://www.inkscape.org/namespaces/inkscape"
   xmlns:sodipodi="http://sodipodi.sourceforge.net/DTD/sodipodi-0.dtd"
   xmlns="http://www.w3.org/2000/svg"
   xmlns:svg="http://www.w3.org/2000/svg">
  <sodipodi:namedview
     id="namedview7"
     pagecolor="#ffffff"
     bordercolor="#666666"
     borderopacity="1.0"
     inkscape:pageshadow="2"
     inkscape:pageopacity="1"
     inkscape:pagecheckerboard="0"
     inkscape:document-units="mm"
     showgrid="true"
     inkscape:zoom="0.67081228"
     inkscape:cx="391.31663"
     inkscape:cy="375.66396"
     inkscape:window-width="1312"
     inkscape:window-height="998"
     inkscape:window-x="0"
     inkscape:window-y="25"
     inkscape:window-maximized="0"
     inkscape:current-layer="layer1"
     fit-margin-left="1"
     fit-margin-top="1"
     fit-margin-right="1"
     fit-margin-bottom="1"
     inkscape:snap-global="false">
    <inkscape:grid
       type="xygrid"
       id="grid857"
       originx="3.7563353"
       originy="-63.590764" />
  </sodipodi:namedview>
  <defs
     id="defs2" />
  <g
     inkscape:label="Layer 1"
     inkscape:groupmode="layer"
     id="layer1"
     transform="translate(3.7563354,-63.590761)">
    <g
       id="g972">
      <path
         style="fill:none;stroke:#000000;stroke-width:1.05833;stroke-linecap:butt;stroke-linejoin:miter;stroke-miterlimit:4;stroke-dasharray:none;stroke-opacity:1"
         d="m 31.75,105.83333 c 42.333333,0 84.66667,0 127,0 0,28.22222 0,56.44445 0,84.66667 -42.33333,0 -84.666667,0 -127,0 0,-28.22222 0,-56.44445 0,-84.66667 z"
         id="path859" />
      <path
         style="fill:none;stroke:#000000;stroke-width:0.79375;stroke-linecap:butt;stroke-linejoin:miter;stroke-miterlimit:4;stroke-dasharray:none;stroke-opacity:1"
         d="m 31.75,148.16666 c 42.333333,0 84.66667,0 127,0"
         id="path861" />
      <path
         style="fill:none;stroke:#000000;stroke-width:0.79375;stroke-linecap:butt;stroke-linejoin:miter;stroke-miterlimit:4;stroke-dasharray:none;stroke-opacity:1"
         d="m 95.249999,105.83333 c 0,14.11111 0,28.22222 0,42.33333"
         id="path863" />
      <path
         style="fill:none;stroke:#000000;stroke-width:0.79375;stroke-linecap:butt;stroke-linejoin:miter;stroke-miterlimit:4;stroke-dasharray:none;stroke-opacity:1"
         d="m 74.083332,148.16666 c 0,14.11111 0,28.22223 0,42.33334"
         id="path865" />
      <path
         style="fill:none;stroke:#000000;stroke-width:0.79375;stroke-linecap:butt;stroke-linejoin:miter;stroke-miterlimit:4;stroke-dasharray:none;stroke-opacity:1"
         d="m 116.41667,148.16666 c 0,14.11111 0,28.22223 0,42.33334"
         id="path867" />
    </g>
    <circle
       style="fill:#000000;fill-rule:evenodd;stroke-width:0.166969"
       id="path937"
       cx="95.204231"
       cy="85.61795"
       r="1.6696879" />
    <circle
       style="fill:#000000;fill-rule:evenodd;stroke-width:0.166969"
       id="path937-6"
       cx="63.495667"
       cy="127.45275"
       r="1.6696879" />
    <circle
       style="fill:#000000;fill-rule:evenodd;stroke-width:0.166969"
       id="path937-4"
       cx="126.45988"
       cy="127.18066"
       r="1.6696879" />
    <circle
       style="fill:#000000;fill-rule:evenodd;stroke-width:0.166969"
       id="path937-0"
       cx="94.117249"
       cy="168.98943"
       r="1.6696879" />
    <circle
       style="fill:#000000;fill-rule:evenodd;stroke-width:0.166969"
       id="path937-7"
       cx="138.29254"
       cy="169.77826"
       r="1.6696879" />
    <circle
       style="fill:#000000;fill-rule:evenodd;stroke-width:0.166969"
       id="path937-04"
       cx="51.519638"
       cy="169.77826"
       r="1.6696879" />
    <path
       style="fill:none;stroke:#af0000;stroke-width:0.79375;stroke-linecap:butt;stroke-linejoin:miter;stroke-miterlimit:4;stroke-dasharray:none;stroke-opacity:1"
       d="M 95.694936,86.160734 C 74.067066,87.25597 66.138041,111.75814 63.352307,129.54719"
       id="path1216" />
    <path
       style="fill:none;stroke:#bd0000;stroke-width:0.79375;stroke-linecap:butt;stroke-linejoin:miter;stroke-miterlimit:4;stroke-dasharray:none;stroke-opacity:1"
       d="m 95.300514,85.371889 c 16.718506,-1.247194 29.893826,15.330421 29.469726,31.174031 3.00024,16.47326 12.63135,31.1778 13.41374,48.17129 l 0.25733,1.93814 0.24566,1.93965"
       id="path1218" />
    <path
       style="fill:none;stroke:#b80000;stroke-width:0.79375;stroke-linecap:butt;stroke-linejoin:miter;stroke-miterlimit:4;stroke-dasharray:none;stroke-opacity:1"
       d="m 125.67103,127.18065 c -12.28608,12.63617 -20.47335,28.4426 -30.764939,42.59761"
       id="path1220" />
    <path
       style="fill:none;stroke:#af0000;stroke-width:0.79375;stroke-linecap:butt;stroke-linejoin:miter;stroke-miterlimit:4;stroke-dasharray:none;stroke-opacity:1"
       d="m 93.722825,170.17269 c -3.769399,-16.51351 -16.284448,-34.14463 -30.876473,-42.97551 -4.88042,2.3584 -4.973097,10.11947 -5.6413,15.25982 -0.944434,5.92887 -0.654785,12.10509 -2.83421,17.79318 -1.046182,3.51188 -2.003766,7.06751 -2.456782,10.71135"
       id="path1222"
       sodipodi:nodetypes="ccccc" />
    <path
       style="fill:none;stroke:#af0000;stroke-width:0.79375;stroke-linecap:butt;stroke-linejoin:miter;stroke-miterlimit:4;stroke-dasharray:none;stroke-opacity:1"
       d="m 139.08139,170.17269 c 11.00424,-7.65719 22.98087,-14.30325 32.03496,-24.3876 6.80641,-15.04433 7.75693,-32.97993 1.22637,-48.286988 -10.31993,-10.526206 -26.00895,-11.386639 -39.68171,-13.921685 -12.39968,-1.486871 -24.93987,0.06314 -37.139585,1.870046 l -0.523825,-0.06349 -0.09151,-0.01109"
       id="path1226" />
    <path
       style="fill:none;stroke:#af0000;stroke-width:0.79375;stroke-linecap:butt;stroke-linejoin:miter;stroke-miterlimit:4;stroke-dasharray:none;stroke-opacity:1"
       d="M 51.125216,169.38384 C 37.715678,170.27407 24.639656,161.5474 20.093279,148.94992 11.117221,133.68722 4.9883888,112.7855 16.129379,96.989629 27.095231,81.612417 47.282272,78.422013 64.871324,77.909322 c 10.378895,-0.538539 21.50553,1.321425 29.640345,8.251412"
       id="path1228" />
    <path
       style="fill:none;stroke:#af0000;stroke-width:0.79375;stroke-linecap:butt;stroke-linejoin:miter;stroke-miterlimit:4;stroke-dasharray:none;stroke-opacity:1"
       d="m 137.89812,169.38384 c 3.04101,8.818 0.10959,19.50198 6.59792,27.09073 7.59152,5.49595 17.67767,2.37044 25.14779,-1.71707 8.35022,-3.78078 17.89465,-9.79111 18.70891,-19.87052 0.9531,-10.96959 -0.18998,-21.0306 0.14244,-32.91527 1.51175,-16.6614 -0.8517,-33.83988 -11.02873,-47.076911 -8.33175,-8.732705 -20.44111,-11.969245 -31.57815,-15.517408 -15.33102,-3.946061 -32.30199,-4.587337 -47.019527,1.911371 -1.524556,0.980985 -2.90789,2.207318 -3.962682,3.688745"
       id="path1232"
       sodipodi:nodetypes="ccccccccc" />
    <path
       style="fill:none;stroke:#af0000;stroke-width:0.79375;stroke-linecap:butt;stroke-linejoin:miter;stroke-miterlimit:4;stroke-dasharray:none;stroke-opacity:1"
       d="m 51.519638,170.96153 c 1.081858,10.53765 -0.883835,23.47156 -10.925289,29.20416 -8.524805,4.58329 -18.937549,-1.6335 -22.541756,-9.77351 C 13.24682,181.3463 8.7238531,172.11231 4.8069407,162.65016 -0.23180216,149.29579 -2.9579006,134.87913 -1.6976555,120.5908 -4.6331765,104.91042 2.3108101,86.81146 17.184048,79.715718 31.036579,71.131653 48.796529,67.811829 64.321578,73.689861 74.600251,76.5395 85.201719,79.257204 94.117247,85.371889"
       id="path1234" />
    <path
       style="fill:none;stroke:#af0000;stroke-width:0.79375;stroke-linecap:butt;stroke-linejoin:miter;stroke-miterlimit:4;stroke-dasharray:none;stroke-opacity:1"
       d="m 92.93398,168.98942 c 0.65521,15.99616 6.711278,34.32021 22.28442,41.47773 17.97639,6.89734 42.61192,2.88896 62.43535,-0.61749 15.35108,-2.42032 19.8415,-9.58135 22.92188,-26.0049 2.6137,-16.90139 1.78678,-22.08753 0.99845,-38.8289 C 199.2693,128.77694 198.5304,111.57666 190.67824,96.845812 180.45787,82.661576 164.00458,75.183011 148.6576,67.941199 131.27373,62.022998 111.25842,65.28643 96.011647,75.205367 c -2.411425,2.338487 -3.639431,6.660405 -1.105556,9.377677"
       id="path1236"
       sodipodi:nodetypes="ccccccccc" />
    <path
       style="fill:none;stroke:#b80000;stroke-width:0.79375;stroke-linecap:butt;stroke-linejoin:miter;stroke-miterlimit:4;stroke-dasharray:none;stroke-opacity:1"
       d="m 51.519638,169.77826 c 28.791331,-0.34549 57.585222,-0.46575 86.378482,-0.39442"
       id="path1271" />
    <path
       style="fill:none;stroke:#bd0000;stroke-width:0.79375;stroke-linecap:butt;stroke-linejoin:miter;stroke-miterlimit:4;stroke-dasharray:none;stroke-opacity:1"
       d="m 125.27661,126.39181 c -21.03586,0.13147 -42.071713,0.26295 -63.10757,0.39442"
       id="path1273" />
    <path
       style="fill:none;stroke:#cb0000;stroke-width:0.79375;stroke-linecap:butt;stroke-linejoin:miter;stroke-miterlimit:4;stroke-dasharray:none;stroke-opacity:1"
       d="m 63.746729,127.18065 c -11.544359,-0.18993 -23.366054,-0.40767 -34.408463,-4.14606 -3.331321,-1.30468 -5.911583,-4.37199 -6.201908,-7.99325 -0.708907,-4.51344 -0.63825,-9.21604 0.314469,-13.67649 2.014401,-5.957776 8.089219,-9.148277 13.778063,-10.76481 9.038503,-2.997765 18.446745,-5.119686 27.972647,-5.596691 7.308245,0.168196 14.509558,2.350171 21.851206,1.492096 2.486658,-0.103809 4.970993,-0.261519 7.458926,-0.334711"
       id="path2215" />
    <path
       style="fill:none;stroke:#cb0000;stroke-width:0.79375;stroke-linecap:butt;stroke-linejoin:miter;stroke-miterlimit:4;stroke-dasharray:none;stroke-opacity:1"
       d="m 127.64314,128.36392 c 11.31532,-1.26324 23.03114,-1.11633 33.81353,-5.21406 4.48861,-2.17342 7.16239,-7.09394 7.1522,-11.99811 0.61128,-3.54271 0.52413,-8.06539 -2.93269,-10.16183 -4.80101,-3.367536 -10.94695,-3.472109 -16.15163,-5.956754 -9.34889,-3.665977 -18.80933,-7.993939 -29.04978,-8.051381 -8.52289,-0.502647 -17.14378,0.04163 -25.568679,-1.609896"
       id="path2217" />
  </g>
</svg>
