<?xml version="1.0" encoding="UTF-8" standalone="no"?>
<!-- Created with Inkscape (http://www.inkscape.org/) -->

<svg
   width="134.95312mm"
   height="34.411461mm"
   viewBox="0 0 134.95312 34.411461"
   version="1.1"
   id="svg5"
   inkscape:version="1.1 (c4e8f9e, 2021-05-24)"
   sodipodi:docname="Parity - Paths in Checkerboards.svg"
   inkscape:export-filename="/Users/chriswright/desktop/bitmap.png"
   inkscape:export-xdpi="96"
   inkscape:export-ydpi="96"
   xmlns:inkscape="http://www.inkscape.org/namespaces/inkscape"
   xmlns:sodipodi="http://sodipodi.sourceforge.net/DTD/sodipodi-0.dtd"
   xmlns="http://www.w3.org/2000/svg"
   xmlns:svg="http://www.w3.org/2000/svg">
  <sodipodi:namedview
     id="namedview7"
     pagecolor="#ffffff"
     bordercolor="#666666"
     borderopacity="1.0"
     inkscape:pageshadow="2"
     inkscape:pageopacity="1"
     inkscape:pagecheckerboard="0"
     inkscape:document-units="mm"
     showgrid="true"
     inkscape:zoom="0.67081229"
     inkscape:cx="301.87282"
     inkscape:cy="205.72074"
     inkscape:window-width="1312"
     inkscape:window-height="998"
     inkscape:window-x="0"
     inkscape:window-y="25"
     inkscape:window-maximized="0"
     inkscape:current-layer="layer1"
     fit-margin-left="1"
     fit-margin-top="1"
     fit-margin-right="1"
     fit-margin-bottom="1">
    <inkscape:grid
       type="xygrid"
       id="grid824"
       originx="-25.127603"
       originy="-93.919269" />
  </sodipodi:namedview>
  <defs
     id="defs2" />
  <g
     inkscape:label="Layer 1"
     inkscape:groupmode="layer"
     id="layer1"
     transform="translate(-25.127604,-93.91927)">
    <g
       id="g1000"
       style="stroke:#010000;stroke-width:0.661458;stroke-miterlimit:4;stroke-dasharray:none;stroke-opacity:1">
      <path
         style="fill:none;stroke:#010000;stroke-width:0.661458;stroke-linecap:butt;stroke-linejoin:miter;stroke-miterlimit:4;stroke-dasharray:none;stroke-opacity:1"
         d="M 26.458333,95.249999 H 68.791666 V 127 H 26.458333 Z"
         id="path881" />
      <path
         style="fill:none;stroke:#010000;stroke-width:0.661458;stroke-linecap:butt;stroke-linejoin:miter;stroke-miterlimit:4;stroke-dasharray:none;stroke-opacity:1"
         d="M 37.041666,95.249999 V 127"
         id="path883" />
      <path
         style="fill:none;stroke:#010000;stroke-width:0.661458;stroke-linecap:butt;stroke-linejoin:miter;stroke-miterlimit:4;stroke-dasharray:none;stroke-opacity:1"
         d="M 47.624999,95.249999 V 127"
         id="path885" />
      <path
         style="fill:none;stroke:#010000;stroke-width:0.661458;stroke-linecap:butt;stroke-linejoin:miter;stroke-miterlimit:4;stroke-dasharray:none;stroke-opacity:1"
         d="M 58.208333,95.249999 V 127"
         id="path887" />
      <path
         style="fill:none;stroke:#010000;stroke-width:0.661458;stroke-linecap:butt;stroke-linejoin:miter;stroke-miterlimit:4;stroke-dasharray:none;stroke-opacity:1"
         d="M 26.458333,105.83333 H 68.791666"
         id="path889" />
      <path
         style="fill:none;stroke:#010000;stroke-width:0.661458;stroke-linecap:butt;stroke-linejoin:miter;stroke-miterlimit:4;stroke-dasharray:none;stroke-opacity:1"
         d="M 26.458333,116.41667 H 68.791666"
         id="path891" />
      <path
         style="fill:none;stroke:#010000;stroke-width:0.661458;stroke-linecap:butt;stroke-linejoin:miter;stroke-miterlimit:4;stroke-dasharray:none;stroke-opacity:1"
         d="M 105.83333,95.249999 H 158.75 V 127 h -52.91667 z"
         id="path893" />
      <path
         style="fill:none;stroke:#010000;stroke-width:0.661458;stroke-linecap:butt;stroke-linejoin:miter;stroke-miterlimit:4;stroke-dasharray:none;stroke-opacity:1"
         d="M 116.41667,95.249999 V 127"
         id="path895" />
      <path
         style="fill:none;stroke:#010000;stroke-width:0.661458;stroke-linecap:butt;stroke-linejoin:miter;stroke-miterlimit:4;stroke-dasharray:none;stroke-opacity:1"
         d="M 127,95.249999 V 127"
         id="path897" />
      <path
         style="fill:none;stroke:#010000;stroke-width:0.661458;stroke-linecap:butt;stroke-linejoin:miter;stroke-miterlimit:4;stroke-dasharray:none;stroke-opacity:1"
         d="M 137.58333,95.249999 V 127"
         id="path899" />
      <path
         style="fill:none;stroke:#010000;stroke-width:0.661458;stroke-linecap:butt;stroke-linejoin:miter;stroke-miterlimit:4;stroke-dasharray:none;stroke-opacity:1"
         d="M 148.16666,95.249999 V 127"
         id="path901" />
      <path
         style="fill:none;stroke:#010000;stroke-width:0.661458;stroke-linecap:butt;stroke-linejoin:miter;stroke-miterlimit:4;stroke-dasharray:none;stroke-opacity:1"
         d="M 105.83333,105.83333 H 158.75"
         id="path903" />
      <path
         style="fill:none;stroke:#010000;stroke-width:0.661458;stroke-linecap:butt;stroke-linejoin:miter;stroke-miterlimit:4;stroke-dasharray:none;stroke-opacity:1"
         d="M 105.83333,116.41667 H 158.75"
         id="path905" />
    </g>
    <g
       id="g1693"
       style="opacity:0.697087">
      <path
         style="fill:#a0a0a0;stroke:none;stroke-width:1.49073"
         d="m 140.87398,380.18069 v -19.42403 h 19.42403 19.42403 l -0.41722,19.00681 -0.41722,19.0068 -19.00681,0.41722 -19.00681,0.41723 z"
         id="path1093"
         transform="scale(0.26458333)" />
      <path
         style="fill:#a0a0a0;stroke:none;stroke-width:1.49073"
         d="m 221.3734,380.13615 v -19.37949 h 18.63413 18.63412 v 19.37949 19.37949 H 240.00753 221.3734 Z"
         id="path1132"
         transform="scale(0.26458333)" />
      <path
         style="fill:#a0a0a0;stroke:none;stroke-width:1.49073"
         d="m 101.66163,438.81507 c -0.57054,-0.57055 -1.03736,-9.31091 -1.03736,-19.42303 v -18.38567 h 19.42403 19.42403 l -0.41722,19.00681 -0.41722,19.0068 -17.96945,0.41623 c -9.8832,0.22892 -18.43626,-0.0506 -19.00681,-0.62114 z"
         id="path1171"
         transform="scale(0.26458333)" />
      <path
         style="fill:#a0a0a0;stroke:none;stroke-width:1.49073"
         d="m 181.12369,420.38586 v -19.37949 h 18.63413 18.63412 v 19.37949 19.37949 h -18.63412 -18.63413 z"
         id="path1210"
         transform="scale(0.26458333)" />
      <path
         style="fill:#a0a0a0;stroke:none;stroke-width:1.49073"
         d="m 140.87398,459.8902 v -18.63412 h 19.37949 19.37949 v 18.63412 18.63413 h -19.37949 -19.37949 z"
         id="path1249"
         transform="scale(0.26458333)" />
      <path
         style="fill:#a0a0a0;stroke:none;stroke-width:1.49073"
         d="m 221.3734,459.8902 v -18.63412 h 18.63413 18.63412 v 18.63412 18.63413 H 240.00753 221.3734 Z"
         id="path1288"
         transform="scale(0.26458333)" />
      <path
         style="fill:#a0a0a0;stroke:none;stroke-width:1.49073"
         d="m 441.50453,398.52182 c -0.5466,-0.5466 -0.99382,-9.26737 -0.99382,-19.37949 v -18.38567 h 19.37949 19.37949 v 19.37949 19.37949 h -18.38567 c -10.11212,0 -18.83289,-0.44722 -19.37949,-0.99382 z"
         id="path1327"
         transform="scale(0.26458333)" />
      <path
         style="fill:#a0a0a0;stroke:none;stroke-width:1.49073"
         d="m 521.01013,380.13615 v -19.46857 l 19.00681,0.41722 19.00681,0.41722 v 18.63413 18.63412 l -19.00681,0.41722 -19.00681,0.41723 z"
         id="path1366"
         transform="scale(0.26458333)" />
      <path
         style="fill:#a0a0a0;stroke:none;stroke-width:1.49073"
         d="m 401.25482,438.77153 c -0.5466,-0.5466 -0.99382,-9.26737 -0.99382,-19.37949 v -18.38567 h 19.37949 19.37949 v 19.37949 19.37949 h -18.38567 c -10.11212,0 -18.83289,-0.44722 -19.37949,-0.99382 z"
         id="path1405"
         transform="scale(0.26458333)" />
      <path
         style="fill:#a0a0a0;stroke:none;stroke-width:1.49073"
         d="m 481.79778,438.81507 c -0.57055,-0.57055 -1.03736,-9.31091 -1.03736,-19.42303 v -18.38567 h 19.42403 19.42403 l -0.41722,19.00681 -0.41722,19.0068 -17.96945,0.41623 c -9.8832,0.22892 -18.43626,-0.0506 -19.00681,-0.62114 z"
         id="path1444"
         transform="scale(0.26458333)" />
      <path
         style="fill:#a0a0a0;stroke:none;stroke-width:1.49073"
         d="m 561.25984,420.38586 v -19.37949 h 18.63413 18.63412 v 19.37949 19.37949 h -18.63412 -18.63413 z"
         id="path1483"
         transform="scale(0.26458333)" />
      <path
         style="fill:#a0a0a0;stroke:none;stroke-width:1.49073"
         d="m 440.51071,459.8902 v -18.63412 h 19.37949 19.37949 v 18.63412 18.63413 H 459.8902 440.51071 Z"
         id="path1522"
         transform="scale(0.26458333)" />
      <path
         style="fill:#a0a0a0;stroke:none;stroke-width:1.49073"
         d="m 521.01013,459.8902 v -18.63412 h 19.37949 19.37949 v 18.63412 18.63413 h -19.37949 -19.37949 z"
         id="path1561"
         transform="scale(0.26458333)" />
    </g>
    <circle
       style="fill:#000000;fill-rule:evenodd;stroke-width:0.264583"
       id="path1771-0"
       cx="42.333332"
       cy="100.54168"
       r="2.6458333" />
    <circle
       style="fill:#000000;fill-rule:evenodd;stroke-width:0.264583"
       id="path1771-5"
       cx="121.17915"
       cy="100.54166"
       r="2.6458333" />
    <g
       id="g2180"
       style="stroke:#dd0000;stroke-width:0.79375;stroke-miterlimit:4;stroke-dasharray:none;stroke-opacity:1">
      <path
         style="fill:none;stroke:#dd0000;stroke-width:0.79375;stroke-linecap:butt;stroke-linejoin:miter;stroke-miterlimit:4;stroke-dasharray:none;stroke-opacity:1"
         d="M 42.333333,100.54167 H 31.75 v 21.16666 H 42.333333 V 111.125 h 10.583333 v 10.58333 H 63.499999 V 100.54167 H 52.916666"
         id="path2094" />
      <path
         style="fill:none;stroke:#dd0000;stroke-width:0.79375;stroke-linecap:butt;stroke-linejoin:miter;stroke-miterlimit:4;stroke-dasharray:none;stroke-opacity:1"
         d="M 121.70833,100.54167 H 111.125 v 21.16666 h 10.58333 V 111.125 h 10.58333 v -10.58333 h 21.16667 V 111.125 H 142.875 v 10.58333 h 10.58333"
         id="path2096" />
    </g>
  </g>
</svg>
