<?xml version="1.0" encoding="UTF-8" standalone="no"?>
<!-- Created with Inkscape (http://www.inkscape.org/) -->

<svg
   width="128.12302mm"
   height="75.333939mm"
   viewBox="0 0 128.12302 75.333939"
   version="1.1"
   id="svg5"
   inkscape:version="1.1 (c4e8f9e, 2021-05-24)"
   sodipodi:docname="BridgesOfKonigsbergAnswer.svg"
   inkscape:export-filename="/Users/chriswright/desktop/bitmap.png"
   inkscape:export-xdpi="96"
   inkscape:export-ydpi="96"
   xmlns:inkscape="http://www.inkscape.org/namespaces/inkscape"
   xmlns:sodipodi="http://sodipodi.sourceforge.net/DTD/sodipodi-0.dtd"
   xmlns="http://www.w3.org/2000/svg"
   xmlns:svg="http://www.w3.org/2000/svg">
  <sodipodi:namedview
     id="namedview7"
     pagecolor="#ffffff"
     bordercolor="#666666"
     borderopacity="1.0"
     inkscape:pageshadow="2"
     inkscape:pageopacity="1"
     inkscape:pagecheckerboard="0"
     inkscape:document-units="mm"
     showgrid="true"
     inkscape:snap-global="false"
     inkscape:zoom="0.94867184"
     inkscape:cx="305.16348"
     inkscape:cy="286.71664"
     inkscape:window-width="1312"
     inkscape:window-height="998"
     inkscape:window-x="0"
     inkscape:window-y="25"
     inkscape:window-maximized="0"
     inkscape:current-layer="layer1"
     fit-margin-left="1"
     fit-margin-top="1"
     fit-margin-right="1"
     fit-margin-bottom="1">
    <inkscape:grid
       type="xygrid"
       id="grid824"
       originx="-33.716474"
       originy="-72.110093" />
  </sodipodi:namedview>
  <defs
     id="defs2" />
  <g
     inkscape:label="Layer 1"
     inkscape:groupmode="layer"
     id="layer1"
     transform="translate(-33.716467,-72.110095)">
    <g
       id="g4976">
      <path
         style="fill:none;stroke:#000000;stroke-width:0.264583px;stroke-linecap:butt;stroke-linejoin:miter;stroke-opacity:1"
         d="m 109.51406,107.81674 c -5.46728,-4.29587 -10.803138,-3.66572 -17.492691,-4.43358 -6.206788,-0.42384 -12.664771,-0.68677 -18.612776,1.42963 -4.37083,2.31666 -7.133708,7.72844 -5.738977,12.59229 1.288962,3.12388 4.921312,4.12067 7.977704,4.47108 8.825038,1.36039 18.681438,1.95018 27.35487,0.0638 3.07819,-0.59482 3.50692,-1.04323 6.73055,-3.62648 1.56146,-2.15733 3.81189,-3.98209 1.76429,-8.62741 z"
         id="path859"
         sodipodi:nodetypes="ccccccccc" />
      <path
         style="fill:none;stroke:#000000;stroke-width:0.264583px;stroke-linecap:butt;stroke-linejoin:miter;stroke-opacity:1"
         d="m 34.719185,105.1088 c 3.392172,-0.0697 7.02384,0.16191 10.319249,-0.8367 3.948949,-1.19666 7.498406,-3.50413 11.434847,-4.741303 9.069158,-2.850309 18.644542,-4.490641 28.168767,-4.741278 7.74769,-0.203888 21.066142,0.658193 28.168782,2.788986 4.70066,1.410195 9.05568,4.258825 14.22383,3.346785 8.57173,-1.512659 15.52215,-6.192098 23.42749,-9.203657 3.6722,-1.398931 8.42712,-1.823786 10.04036,-5.856872"
         id="path1451" />
      <path
         style="fill:none;stroke:#000000;stroke-width:0.264583px;stroke-linecap:butt;stroke-linejoin:miter;stroke-opacity:1"
         d="m 34.933311,121.42343 c 3.392173,0.0697 7.023841,-0.16191 10.31925,0.8367 3.948949,1.19666 7.498406,3.50413 11.434847,4.7413 9.069158,2.85031 18.644542,4.49064 28.168767,4.74128 7.74769,0.20389 21.066135,-0.6582 28.168785,-2.78899 4.70066,-1.41019 9.05568,-4.25882 14.22384,-3.34678 8.57173,1.51266 15.52215,6.19209 23.42749,9.20365 3.6722,1.39893 8.42712,1.82379 10.04036,5.85687"
         id="path1451-6" />
      <path
         style="fill:none;stroke:#000000;stroke-width:0.264583px;stroke-linecap:butt;stroke-linejoin:miter;stroke-opacity:1"
         d="m 159.39429,98.229598 c -8.73017,3.327432 -17.84155,6.267462 -25.34517,12.027262 -1.1759,1.17046 -3.72574,2.20281 -2.85535,4.26958 1.19827,2.69937 3.82821,4.48473 6.60765,5.27242 3.02969,0.84226 6.01354,1.86026 8.82279,3.28773 3.93217,1.88346 8.01846,3.93484 12.49118,3.86953"
         id="path1594" />
      <path
         style="fill:none;stroke:#000000;stroke-width:2.64583;stroke-linecap:butt;stroke-linejoin:miter;stroke-miterlimit:4;stroke-dasharray:0.264583, 0.264583;stroke-dashoffset:0;stroke-opacity:1"
         d="m 74.465949,89.805377 5.020178,18.407313"
         id="path4821" />
      <path
         style="fill:none;stroke:#000000;stroke-width:2.64583;stroke-linecap:butt;stroke-linejoin:miter;stroke-miterlimit:4;stroke-dasharray:0.264583, 0.264583;stroke-dashoffset:0;stroke-opacity:1"
         d="M 108.21269,89.247579 99.287932,107.93379"
         id="path4823" />
      <path
         style="fill:none;stroke:#000000;stroke-width:2.64583;stroke-linecap:butt;stroke-linejoin:miter;stroke-miterlimit:4;stroke-dasharray:0.264583, 0.264583;stroke-dashoffset:0;stroke-opacity:1"
         d="m 107.376,113.23287 29.28436,0.2789"
         id="path4825" />
      <path
         style="fill:none;stroke:#000000;stroke-width:2.64583;stroke-linecap:butt;stroke-linejoin:miter;stroke-miterlimit:4;stroke-dasharray:0.264583, 0.264583;stroke-dashoffset:0;stroke-opacity:1"
         d="m 148.23096,120.14808 -9.48255,14.78163"
         id="path4827" />
      <path
         style="fill:none;stroke:#000000;stroke-width:2.64583;stroke-linecap:butt;stroke-linejoin:miter;stroke-miterlimit:4;stroke-dasharray:0.264583, 0.264583;stroke-dashoffset:0;stroke-opacity:1"
         d="m 142.51723,90.642074 7.80916,15.618326"
         id="path4829" />
      <path
         style="fill:none;stroke:#000000;stroke-width:2.64583;stroke-linecap:butt;stroke-linejoin:miter;stroke-miterlimit:4;stroke-dasharray:0.264583, 0.264583;stroke-dashoffset:0;stroke-opacity:1"
         d="m 79.765024,117.97415 -7.251367,17.29171"
         id="path4831" />
      <path
         style="fill:none;stroke:#000000;stroke-width:2.64583;stroke-linecap:butt;stroke-linejoin:miter;stroke-miterlimit:4;stroke-dasharray:0.264583, 0.264583;stroke-dashoffset:0;stroke-opacity:1"
         d="m 99.838324,118.00277 5.020206,17.84952"
         id="path4833" />
    </g>
    <ellipse
       style="fill:#000000;fill-rule:evenodd;stroke-width:0.0930852"
       id="path943"
       cx="120.18668"
       cy="74.775276"
       rx="1.7345639"
       ry="1.6651814" />
    <ellipse
       style="fill:#000000;fill-rule:evenodd;stroke-width:0.0930852"
       id="path943-4"
       cx="89.496208"
       cy="113.2633"
       rx="1.7345639"
       ry="1.6651814" />
    <ellipse
       style="fill:#000000;fill-rule:evenodd;stroke-width:0.0930852"
       id="path943-2"
       cx="120.45396"
       cy="144.77885"
       rx="1.7345639"
       ry="1.6651814" />
    <ellipse
       style="fill:#000000;fill-rule:evenodd;stroke-width:0.0930852"
       id="path943-20"
       cx="154.2007"
       cy="113.54219"
       rx="1.7345639"
       ry="1.6651814" />
    <path
       style="fill:none;stroke:#ca0000;stroke-width:0.79375;stroke-linecap:butt;stroke-linejoin:miter;stroke-miterlimit:4;stroke-dasharray:none;stroke-opacity:1"
       d="m 119.89616,73.93858 c -5.54708,0.0045 -11.50857,0.600412 -17.0298,1.339069 -7.427196,1.847088 -14.366166,2.081528 -21.281428,5.389629 -2.310055,1.086596 -4.748322,0.798332 -6.648721,6.230802 0.268758,5.483121 0.69217,10.396225 2.83371,15.77543 1.670404,4.51674 2.391069,7.79743 8.951933,9.82216 0.914829,0.46233 1.843614,0.89627 2.774351,1.32542"
       id="path1114"
       sodipodi:nodetypes="ccccccc" />
    <path
       style="fill:none;stroke:#ca0000;stroke-width:0.79375;stroke-linecap:butt;stroke-linejoin:miter;stroke-miterlimit:4;stroke-dasharray:none;stroke-opacity:1"
       d="m 120.17506,75.611972 c -3.05269,6.975052 -9.33914,11.219729 -13.38714,17.291719 -5.18307,7.774599 -9.062602,16.523949 -16.733918,20.359609"
       id="path1116" />
    <path
       style="fill:none;stroke:#ca0000;stroke-width:0.79375;stroke-linecap:butt;stroke-linejoin:miter;stroke-miterlimit:4;stroke-dasharray:none;stroke-opacity:1"
       d="m 121.01175,75.333074 c 5.66315,0.640778 10.14018,4.557018 14.23846,8.183003 2.09683,1.957546 4.49469,3.648064 6.162,6.012134 1.17137,1.326755 2.27187,2.888297 2.55603,4.656132 1.22811,3.062159 3.30588,5.456117 4.61605,8.483457 1.64286,3.32222 3.10635,6.73025 4.77971,10.0377"
       id="path1118"
       sodipodi:nodetypes="cccccc" />
    <path
       style="fill:none;stroke:#ca0000;stroke-width:0.79375;stroke-linecap:butt;stroke-linejoin:miter;stroke-miterlimit:4;stroke-dasharray:none;stroke-opacity:1"
       d="m 120.73286,145.05774 c 4.57782,-2.21486 11.04898,-3.13249 15.06053,-6.41466 4.1378,-3.38548 9.78423,-13.70703 12.55044,-18.68622 1.31759,-2.37167 5.34729,-4.88593 5.85687,-6.41467"
       id="path1120" />
    <path
       style="fill:none;stroke:#ca0000;stroke-width:0.79375;stroke-linecap:butt;stroke-linejoin:miter;stroke-miterlimit:4;stroke-dasharray:none;stroke-opacity:1"
       d="m 90.890697,114.09999 c 12.378953,0.0821 10.086053,12.61349 13.387143,21.1963 0.41368,1.07559 0.44428,2.4916 1.39449,3.34679 4.08948,3.68053 9.77182,2.51527 14.22383,4.74127 0.74373,0.37187 0.52763,1.64322 1.11559,2.23119"
       id="path1122" />
    <path
       style="fill:none;stroke:#ca0000;stroke-width:0.79375;stroke-linecap:butt;stroke-linejoin:miter;stroke-miterlimit:4;stroke-dasharray:none;stroke-opacity:1"
       d="m 120.17506,144.49995 c -7.41704,1.86195 -15.13462,0.94671 -22.691922,1.00603 -5.864859,-0.24872 -12.009637,-0.006 -17.540302,-2.25135 -3.001364,-1.37795 -6.1395,-3.5556 -7.112239,-6.85748 1.048925,-6.29818 2.708318,-10.8775 5.446692,-15.63734 1.947651,-2.97832 4.078615,-6.38579 7.54769,-7.67941 4.118399,-0.87179 8.316593,0.30183 12.472226,-0.14047 8.186265,-0.20891 15.688905,0.86467 24.005605,0.25064 3.02204,0.23791 6.70666,0.6085 9.65316,0.10596 4.37912,-0.0118 8.40942,-0.0869 12.80018,-0.12356 3.23384,0.2646 6.47936,0.36654 9.72345,0.36922"
       id="path1128"
       sodipodi:nodetypes="ccccccccccc" />
  </g>
</svg>
