<?xml version="1.0" encoding="UTF-8" standalone="no"?>
<!-- Created with Inkscape (http://www.inkscape.org/) -->

<svg
   width="128.12302mm"
   height="56.900963mm"
   viewBox="0 0 128.12302 56.900963"
   version="1.1"
   id="svg5"
   inkscape:version="1.1 (c4e8f9e, 2021-05-24)"
   sodipodi:docname="BridgesOfKonigsbergChallenge.svg"
   inkscape:export-filename="/Users/chriswright/desktop/bitmap.png"
   inkscape:export-xdpi="96"
   inkscape:export-ydpi="96"
   xmlns:inkscape="http://www.inkscape.org/namespaces/inkscape"
   xmlns:sodipodi="http://sodipodi.sourceforge.net/DTD/sodipodi-0.dtd"
   xmlns="http://www.w3.org/2000/svg"
   xmlns:svg="http://www.w3.org/2000/svg">
  <sodipodi:namedview
     id="namedview7"
     pagecolor="#ffffff"
     bordercolor="#666666"
     borderopacity="1.0"
     inkscape:pageshadow="2"
     inkscape:pageopacity="1"
     inkscape:pagecheckerboard="0"
     inkscape:document-units="mm"
     showgrid="true"
     inkscape:snap-global="false"
     inkscape:zoom="0.94867184"
     inkscape:cx="230.32201"
     inkscape:cy="226.63264"
     inkscape:window-width="1312"
     inkscape:window-height="998"
     inkscape:window-x="0"
     inkscape:window-y="25"
     inkscape:window-maximized="0"
     inkscape:current-layer="layer1"
     fit-margin-left="1"
     fit-margin-top="1"
     fit-margin-right="1"
     fit-margin-bottom="1">
    <inkscape:grid
       type="xygrid"
       id="grid824"
       originx="-33.716468"
       originy="-84.815628" />
  </sodipodi:namedview>
  <defs
     id="defs2" />
  <g
     inkscape:label="Layer 1"
     inkscape:groupmode="layer"
     id="layer1"
     transform="translate(-33.716467,-84.815629)">
    <g
       id="g4976">
      <path
         style="fill:none;stroke:#000000;stroke-width:0.264583px;stroke-linecap:butt;stroke-linejoin:miter;stroke-opacity:1"
         d="m 109.51406,107.81674 c -5.46728,-4.29587 -10.803138,-3.66572 -17.492691,-4.43358 -6.206788,-0.42384 -12.664771,-0.68677 -18.612776,1.42963 -4.37083,2.31666 -7.133708,7.72844 -5.738977,12.59229 1.288962,3.12388 4.921312,4.12067 7.977704,4.47108 8.825038,1.36039 18.681438,1.95018 27.35487,0.0638 3.07819,-0.59482 3.50692,-1.04323 6.73055,-3.62648 1.56146,-2.15733 3.81189,-3.98209 1.76429,-8.62741 z"
         id="path859"
         sodipodi:nodetypes="ccccccccc" />
      <path
         style="fill:none;stroke:#000000;stroke-width:0.264583px;stroke-linecap:butt;stroke-linejoin:miter;stroke-opacity:1"
         d="m 34.719185,105.1088 c 3.392172,-0.0697 7.02384,0.16191 10.319249,-0.8367 3.948949,-1.19666 7.498406,-3.50413 11.434847,-4.741303 9.069158,-2.850309 18.644542,-4.490641 28.168767,-4.741278 7.74769,-0.203888 21.066142,0.658193 28.168782,2.788986 4.70066,1.410195 9.05568,4.258825 14.22383,3.346785 8.57173,-1.512659 15.52215,-6.192098 23.42749,-9.203657 3.6722,-1.398931 8.42712,-1.823786 10.04036,-5.856872"
         id="path1451" />
      <path
         style="fill:none;stroke:#000000;stroke-width:0.264583px;stroke-linecap:butt;stroke-linejoin:miter;stroke-opacity:1"
         d="m 34.933311,121.42343 c 3.392173,0.0697 7.023841,-0.16191 10.31925,0.8367 3.948949,1.19666 7.498406,3.50413 11.434847,4.7413 9.069158,2.85031 18.644542,4.49064 28.168767,4.74128 7.74769,0.20389 21.066135,-0.6582 28.168785,-2.78899 4.70066,-1.41019 9.05568,-4.25882 14.22384,-3.34678 8.57173,1.51266 15.52215,6.19209 23.42749,9.20365 3.6722,1.39893 8.42712,1.82379 10.04036,5.85687"
         id="path1451-6" />
      <path
         style="fill:none;stroke:#000000;stroke-width:0.264583px;stroke-linecap:butt;stroke-linejoin:miter;stroke-opacity:1"
         d="m 159.39429,98.229598 c -8.73017,3.327432 -17.84155,6.267462 -25.34517,12.027262 -1.1759,1.17046 -3.72574,2.20281 -2.85535,4.26958 1.19827,2.69937 3.82821,4.48473 6.60765,5.27242 3.02969,0.84226 6.01354,1.86026 8.82279,3.28773 3.93217,1.88346 8.01846,3.93484 12.49118,3.86953"
         id="path1594" />
      <path
         style="fill:none;stroke:#000000;stroke-width:2.64583;stroke-linecap:butt;stroke-linejoin:miter;stroke-miterlimit:4;stroke-dasharray:0.264583, 0.264583;stroke-dashoffset:0;stroke-opacity:1"
         d="m 74.465949,89.805377 5.020178,18.407313"
         id="path4821" />
      <path
         style="fill:none;stroke:#000000;stroke-width:2.64583;stroke-linecap:butt;stroke-linejoin:miter;stroke-miterlimit:4;stroke-dasharray:0.264583, 0.264583;stroke-dashoffset:0;stroke-opacity:1"
         d="M 108.21269,89.247579 99.287932,107.93379"
         id="path4823" />
      <path
         style="fill:none;stroke:#000000;stroke-width:2.64583;stroke-linecap:butt;stroke-linejoin:miter;stroke-miterlimit:4;stroke-dasharray:0.264583, 0.264583;stroke-dashoffset:0;stroke-opacity:1"
         d="m 107.376,113.23287 29.28436,0.2789"
         id="path4825" />
      <path
         style="fill:none;stroke:#000000;stroke-width:2.64583;stroke-linecap:butt;stroke-linejoin:miter;stroke-miterlimit:4;stroke-dasharray:0.264583, 0.264583;stroke-dashoffset:0;stroke-opacity:1"
         d="m 148.23096,120.14808 -9.48255,14.78163"
         id="path4827" />
      <path
         style="fill:none;stroke:#000000;stroke-width:2.64583;stroke-linecap:butt;stroke-linejoin:miter;stroke-miterlimit:4;stroke-dasharray:0.264583, 0.264583;stroke-dashoffset:0;stroke-opacity:1"
         d="m 142.51723,90.642074 7.80916,15.618326"
         id="path4829" />
      <path
         style="fill:none;stroke:#000000;stroke-width:2.64583;stroke-linecap:butt;stroke-linejoin:miter;stroke-miterlimit:4;stroke-dasharray:0.264583, 0.264583;stroke-dashoffset:0;stroke-opacity:1"
         d="m 79.765024,117.97415 -7.251367,17.29171"
         id="path4831" />
      <path
         style="fill:none;stroke:#000000;stroke-width:2.64583;stroke-linecap:butt;stroke-linejoin:miter;stroke-miterlimit:4;stroke-dasharray:0.264583, 0.264583;stroke-dashoffset:0;stroke-opacity:1"
         d="m 99.838324,118.00277 5.020206,17.84952"
         id="path4833" />
    </g>
  </g>
</svg>
