<?xml version="1.0" encoding="UTF-8" standalone="no"?>
<!-- Created with Inkscape (http://www.inkscape.org/) -->

<svg
   width="69.225822mm"
   height="68.550529mm"
   viewBox="0 0 69.225822 68.550529"
   version="1.1"
   id="svg5"
   inkscape:version="1.1 (c4e8f9e, 2021-05-24)"
   sodipodi:docname="BoxOfBlocks.svg"
   inkscape:export-filename="/Users/chriswright/desktop/bitmap.png"
   inkscape:export-xdpi="96"
   inkscape:export-ydpi="96"
   xmlns:inkscape="http://www.inkscape.org/namespaces/inkscape"
   xmlns:sodipodi="http://sodipodi.sourceforge.net/DTD/sodipodi-0.dtd"
   xmlns="http://www.w3.org/2000/svg"
   xmlns:svg="http://www.w3.org/2000/svg">
  <sodipodi:namedview
     id="namedview7"
     pagecolor="#ffffff"
     bordercolor="#666666"
     borderopacity="1.0"
     inkscape:pageshadow="2"
     inkscape:pageopacity="1"
     inkscape:pagecheckerboard="0"
     inkscape:document-units="mm"
     showgrid="true"
     inkscape:snap-global="false"
     inkscape:zoom="2.6832492"
     inkscape:cx="139.94228"
     inkscape:cy="104.3511"
     inkscape:window-width="1616"
     inkscape:window-height="998"
     inkscape:window-x="0"
     inkscape:window-y="25"
     inkscape:window-maximized="0"
     inkscape:current-layer="layer1"
     fit-margin-left="1"
     fit-margin-top="1"
     fit-margin-right="1"
     fit-margin-bottom="1">
    <inkscape:grid
       type="xygrid"
       id="grid1660"
       originx="-25.458139"
       originy="-115.71135" />
  </sodipodi:namedview>
  <defs
     id="defs2" />
  <g
     inkscape:label="Layer 1"
     inkscape:groupmode="layer"
     id="layer1"
     transform="translate(-25.458139,-115.71135)">
    <path
       style="fill:#803300;stroke:#6d0000;stroke-width:0.529167;stroke-miterlimit:4;stroke-dasharray:none;stroke-opacity:1"
       d="m 43.292652,181.3439 c -5.53936,-5.69904 -11.035518,-11.43982 -16.548276,-17.16454 0.08326,-15.29016 -0.208013,-30.58386 0.213466,-45.87102 6.215226,-2.71546 13.049269,-0.28533 19.524489,-1.19029 9.027785,-0.006 18.055572,1.8e-4 27.083358,-0.002 2.80106,3.25931 5.924411,6.18752 9.266244,8.88268 3.585845,3.171 7.089841,6.43296 10.587445,9.70055 0,15.76601 0,31.53201 0,47.29802 -16.166231,0 -32.332461,0 -48.498692,0 -0.542658,-0.55121 -1.085636,-1.10269 -1.628034,-1.65367 z m 48.739126,-22.85522 c 0.02254,-7.59636 0.04507,-15.19271 0.06761,-22.78907 -14.701966,-0.66123 -29.419938,-0.1334 -44.129046,-0.28636 -3.423706,0.79012 -2.835717,4.91263 -2.397576,7.52609 0.4228,2.9731 -0.265152,5.93076 -0.03469,8.92426 -0.01737,9.79068 -0.02291,19.58233 0.170028,29.37156 15.417657,0.25931 30.837442,0.0418 46.256029,0.0422 0.02255,-7.59623 0.0451,-15.19246 0.06765,-22.78868 z m -47.295735,-1.01473 c 0,-7.53773 0,-15.07546 0,-22.61319 -5.373457,-5.07868 -10.722677,-10.18573 -16.249431,-15.09863 -0.266844,14.56659 -0.1144,29.13604 -0.154736,43.70399 5.376492,5.55692 10.604914,11.26123 16.181727,16.62101 0.283441,-7.53434 0.179855,-15.0755 0.22244,-22.61318 z M 89.97378,133.67862 c -5.738976,-5.20902 -11.544141,-10.35701 -17.667825,-15.11339 -14.171761,0.24096 -28.345944,0.10966 -42.518871,0.14827 5.466597,5.24643 11.015183,10.40634 16.530766,15.601 14.770459,0 29.540918,0 44.311377,0 -0.218482,-0.21196 -0.436965,-0.42392 -0.655447,-0.63588 z"
       id="path854"
       sodipodi:nodetypes="ccccccccccsccccccscccccccccccc" />
    <path
       style="fill:none;stroke:#000000;stroke-width:0.264583px;stroke-linecap:butt;stroke-linejoin:miter;stroke-opacity:1"
       d="m 52.719455,118.86529 15.184761,15.28337"
       id="path1695"
       sodipodi:nodetypes="cc" />
    <path
       style="fill:none;stroke:#000000;stroke-width:0.264583px;stroke-linecap:butt;stroke-linejoin:miter;stroke-opacity:1"
       d="m 63.006971,118.86529 15.875,15.48058"
       id="path1697"
       sodipodi:nodetypes="cc" />
    <path
       style="fill:none;stroke:#000000;stroke-width:0.264583px;stroke-linecap:butt;stroke-linejoin:miter;stroke-opacity:1"
       d="m 41.248672,118.86529 15.497094,15.38197"
       id="path1699"
       sodipodi:nodetypes="cc" />
    <path
       style="fill:none;stroke:#000000;stroke-width:0.264583px;stroke-linecap:butt;stroke-linejoin:miter;stroke-opacity:1"
       d="m 37.041666,127 45.669405,-0.29582"
       id="path1701"
       sodipodi:nodetypes="cc" />
    <path
       style="fill:none;stroke:#000000;stroke-width:0.264583px;stroke-linecap:butt;stroke-linejoin:miter;stroke-opacity:1"
       d="m 34.100016,122.69439 43.319389,-0.39443"
       id="path1703"
       sodipodi:nodetypes="cc" />
    <path
       style="fill:none;stroke:#000000;stroke-width:0.264583px;stroke-linecap:butt;stroke-linejoin:miter;stroke-opacity:1"
       d="m 42.924966,131.00979 43.894505,-0.39442"
       id="path1705"
       sodipodi:nodetypes="cc" />
    <path
       style="fill:#d38d5f;stroke:none;stroke-width:0.372683"
       d="m 185.35657,684.36924 -11.60613,-0.13468 -0.27588,-6.98254 c -0.31395,-7.946 -0.46088,-112.6242 -0.1772,-126.24095 0.1612,-7.73755 0.0882,-9.52264 -0.54132,-13.23022 -0.97352,-5.73396 -1.01079,-13.48357 -0.0795,-16.5355 1.17151,-3.83923 3.1902,-6.30933 6.26888,-7.67069 1.72859,-0.76435 1.98719,-0.76747 71.18236,-0.85851 52.42317,-0.069 72.78208,0.0308 83.05038,0.40688 7.48161,0.27403 13.70991,0.60945 13.84068,0.74536 0.27993,0.29095 -0.20074,169.90486 -0.4823,170.18641 -0.22765,0.22765 -144.41793,0.50894 -161.17996,0.31444 z"
       id="path2109"
       transform="scale(0.26458333)" />
    <path
       style="fill:#c87137;stroke:none;stroke-width:0.372683"
       d="m 157.07357,668.39339 c -5.52768,-5.5413 -17.09185,-17.44851 -25.69817,-26.46045 -8.60631,-9.01195 -17.36901,-18.16098 -19.47266,-20.33118 l -3.82482,-3.94582 0.0497,-72.82678 c 0.0273,-40.05472 0.15313,-76.73446 0.27951,-81.51052 l 0.22978,-8.68375 7.08097,6.41235 c 9.7213,8.80337 19.70828,18.08979 37.38937,34.76665 l 15.02843,14.17485 -0.17193,82.74914 c -0.097,46.69871 -0.31743,83.3986 -0.50591,84.23988 l -0.33399,1.49073 z"
       id="path2185"
       transform="scale(0.26458333)" />
    <path
       style="fill:#0000ff;stroke:none;stroke-width:0.372683"
       d="m 277.17381,486.72501 -7.10143,-6.89629 8.91243,-0.22901 c 4.90183,-0.12595 13.80041,-0.25173 19.77462,-0.27951 l 10.8622,-0.0505 6.09485,5.35644 c 8.96687,7.88049 9.46638,8.34123 9.26266,8.54373 -0.10249,0.10188 -9.30279,0.24513 -20.44512,0.31834 l -20.25878,0.1331 z"
       id="path2549"
       transform="scale(0.26458333)" />
    <path
       style="fill:#ff0000;stroke:none;stroke-width:0.372683"
       d="m 237.67826,487.21398 c -3.84328,-3.86086 -6.98779,-7.14392 -6.98779,-7.29568 0,-0.15176 8.58613,-0.27592 19.08028,-0.27592 h 19.08029 l 7.10066,7.07832 7.10066,7.07833 -17.32974,0.006 c -9.53135,0.003 -18.16827,0.10104 -19.19315,0.21735 l -1.86341,0.21148 z"
       id="path2625"
       transform="scale(0.26458333)" />
    <path
       style="fill:#ffff00;stroke:none;stroke-width:0.372683"
       d="m 291.58381,500.79211 -6.20739,-6.05609 6.10528,-0.22796 c 3.3579,-0.12537 12.61748,-0.25115 20.57685,-0.27951 l 14.47158,-0.0516 6.67816,6.03125 c 3.67298,3.31719 6.67815,6.16821 6.67815,6.3356 0,0.1674 -9.47143,0.30436 -21.04762,0.30436 H 297.7912 Z"
       id="path2701"
       transform="scale(0.26458333)" />
    <path
       style="fill:#ff00ff;stroke:none;stroke-width:0.372683"
       d="m 251.16248,500.97845 -5.75105,-5.86975 4.47219,-0.22898 c 2.4597,-0.12594 11.18238,-0.25172 19.38372,-0.27951 l 14.91154,-0.0505 6.14079,6.14926 6.14079,6.14926 H 276.687 256.91354 Z"
       id="path2777"
       transform="scale(0.26458333)" />
    <path
       style="fill:#00ffff;stroke:none;stroke-width:0.372683"
       d="m 261.00604,470.94581 -8.06101,-7.88781 18.22147,-0.18634 c 10.0218,-0.10248 18.496,-0.10248 18.83154,0 0.56028,0.17113 18.66378,15.34726 18.4783,15.49033 -0.0449,0.0346 -8.93031,0.15487 -19.74543,0.26727 l -19.66386,0.20435 z"
       id="path2853"
       transform="scale(0.26458333)" />
    <path
       style="fill:#ffff00;stroke:none;stroke-width:0.372683"
       d="m 221.55975,471.07068 -7.81968,-7.82633 h 14.93917 c 8.21654,0 16.70244,-0.10789 18.85756,-0.23975 l 3.9184,-0.23975 8.15859,8.05309 8.15859,8.0531 -19.19648,0.013 -19.19648,0.013 z"
       id="path2929"
       transform="scale(0.26458333)" />
    <path
       style="fill:#ff0000;stroke:none;stroke-width:0.372683"
       d="m 245.52383,455.88387 -6.31279,-6.24244 6.82702,-0.23193 c 3.75486,-0.12757 11.39373,-0.25335 16.97527,-0.27951 l 10.14826,-0.0476 7.80691,6.24243 7.80691,6.24243 -3.60689,0.23574 c -1.98379,0.12966 -10.29502,0.25544 -18.46939,0.27951 l -14.86251,0.0438 z"
       id="path3005"
       transform="scale(0.26458333)" />
    <path
       style="fill:#008000;stroke:none;stroke-width:0.372683"
       d="m 206.7415,456.25255 c -3.43107,-3.43553 -6.23832,-6.37041 -6.23832,-6.52194 0,-0.15153 8.41654,-0.27552 18.70343,-0.27552 h 18.70342 l 6.282,6.24244 6.282,6.24243 -5.14008,0.23404 c -2.82704,0.12872 -11.26324,0.2545 -18.7471,0.27951 l -13.60702,0.0455 z"
       id="path3081"
       transform="scale(0.26458333)" />
    <path
       style="fill:#00ffff;stroke:none;stroke-width:0.372683"
       d="m 194.91653,487.31749 -7.26372,-7.30243 20.86663,10e-4 20.86664,0.001 6.83002,7.0797 6.83003,7.0797 h -16.55497 c -9.10523,0 -18.30005,0.0997 -20.43293,0.22147 l -3.87797,0.22146 z"
       id="path3157"
       transform="scale(0.26458333)" />
    <path
       style="fill:#ff0000;stroke:none;stroke-width:0.372683"
       d="m 138.62701,472.21874 c -4.40098,-4.14731 -8.0577,-7.69547 -8.12602,-7.8848 -0.0748,-0.20725 6.53917,-0.34423 16.62131,-0.34423 9.21005,0 18.03711,-0.10918 19.6157,-0.24262 l 2.87015,-0.24261 7.9007,7.8802 7.90069,7.8802 -7.67238,0.002 c -4.21981,10e-4 -12.94548,0.11258 -19.39037,0.24722 l -11.71798,0.2448 z"
       id="path3233"
       transform="scale(0.26458333)" />
    <path
       style="fill:#008000;stroke:none;stroke-width:0.372683"
       d="m 169.54904,501.29923 -5.79808,-5.52208 5.23905,-0.23969 c 2.88148,-0.13183 11.44625,-0.24031 19.03282,-0.24106 l 13.79376,-0.001 5.76756,5.77658 5.76756,5.77658 -19.0023,-0.0134 -19.00229,-0.0134 z"
       id="path3309"
       transform="scale(0.26458333)" />
    <path
       style="fill:#ffff00;stroke:none;stroke-width:0.372683"
       d="m 122.23986,456.68938 c -3.79204,-3.59807 -6.95053,-6.69772 -7.01885,-6.88812 -0.0755,-0.21038 7.82016,-0.34617 20.12873,-0.34617 h 20.25297 l 6.64041,6.64811 6.64042,6.64811 -7.91561,0.24652 c -4.35358,0.13558 -13.29712,0.24359 -19.87452,0.24001 l -11.95892,-0.007 z"
       id="path3385"
       transform="scale(0.26458333)" />
    <path
       style="fill:#0000ff;stroke:none;stroke-width:0.372683"
       d="m 163.42128,456.16338 -6.70052,-6.70829 h 21.05667 21.05667 l 6.45354,6.46145 6.45354,6.46146 -9.59262,0.24683 c -5.27594,0.13576 -14.6403,0.24683 -20.80969,0.24683 H 170.1218 Z"
       id="path3461"
       transform="scale(0.26458333)" />
    <path
       style="fill:#ff00ff;stroke:none;stroke-width:0.372683"
       d="m 179.07394,471.67424 c -4.30448,-4.17735 -7.74248,-7.68294 -7.63999,-7.79021 0.10249,-0.10727 9.45261,-0.25117 20.77806,-0.31977 l 20.59172,-0.12474 7.64531,7.63558 7.64531,7.63557 -3.63998,0.23574 c -2.002,0.12965 -11.27066,0.25537 -20.59704,0.27937 l -16.95706,0.0436 z"
       id="path3537"
       transform="scale(0.26458333)" />
    <path
       style="fill:#ffff00;stroke:none;stroke-width:0.372683"
       d="m 208.76226,501.13178 -5.7075,-5.71643 7.91503,-0.24649 c 4.35326,-0.13558 13.55006,-0.2465 20.43733,-0.2465 h 12.52231 l 5.95419,5.96292 5.95418,5.96292 h -20.68402 -20.68402 z"
       id="path3613"
       transform="scale(0.26458333)" />
    <path
       style="fill:#800000;stroke:none;stroke-width:0.372683"
       d="m 157.86992,490.26383 c -2.64329,-2.45971 -6.08129,-5.68022 -7.63999,-7.15669 l -2.834,-2.68449 9.34968,-0.0175 c 5.14233,-0.01 13.8631,-0.11696 19.37949,-0.23857 l 10.02981,-0.22113 7.26731,7.07157 c 3.99702,3.88937 7.1769,7.16789 7.0664,7.2856 -0.1105,0.11772 -8.66356,0.26338 -19.00681,0.32369 l -18.8059,0.10967 z"
       id="path3689"
       transform="scale(0.26458333)" />
  </g>
</svg>
