<?xml version="1.0" encoding="UTF-8" standalone="no"?>
<!-- Created with Inkscape (http://www.inkscape.org/) -->

<svg
   width="133.34753mm"
   height="87.988968mm"
   viewBox="0 0 133.34753 87.988968"
   version="1.1"
   id="svg5"
   inkscape:version="1.1 (c4e8f9e, 2021-05-24)"
   sodipodi:docname="MapColoringStraightLinesIntro.svg"
   inkscape:export-filename="/Users/chriswright/desktop/bitmap.png"
   inkscape:export-xdpi="96"
   inkscape:export-ydpi="96"
   xmlns:inkscape="http://www.inkscape.org/namespaces/inkscape"
   xmlns:sodipodi="http://sodipodi.sourceforge.net/DTD/sodipodi-0.dtd"
   xmlns="http://www.w3.org/2000/svg"
   xmlns:svg="http://www.w3.org/2000/svg">
  <sodipodi:namedview
     id="namedview7"
     pagecolor="#ffffff"
     bordercolor="#666666"
     borderopacity="1.0"
     inkscape:pageshadow="2"
     inkscape:pageopacity="1"
     inkscape:pagecheckerboard="0"
     inkscape:document-units="mm"
     showgrid="true"
     inkscape:snap-global="true"
     inkscape:zoom="0.94867184"
     inkscape:cx="240.86306"
     inkscape:cy="246.66064"
     inkscape:window-width="1312"
     inkscape:window-height="998"
     inkscape:window-x="0"
     inkscape:window-y="25"
     inkscape:window-maximized="0"
     inkscape:current-layer="layer1"
     fit-margin-left="1"
     fit-margin-top="1"
     fit-margin-right="1"
     fit-margin-bottom="1">
    <inkscape:grid
       type="xygrid"
       id="grid824"
       originx="-41.200726"
       originy="-83.009496" />
  </sodipodi:namedview>
  <defs
     id="defs2">
    <inkscape:path-effect
       effect="skeletal"
       id="path-effect1179"
       is_visible="true"
       lpeversion="1"
       pattern="M 0,4.9921382 C 0,2.2364779 2.2364779,0 4.9921382,0 c 2.7556604,0 4.9921383,2.2364779 4.9921383,4.9921382 0,2.7556604 -2.2364779,4.9921383 -4.9921383,4.9921383 C 2.2364779,9.9842765 0,7.7477986 0,4.9921382 Z"
       copytype="single_stretched"
       prop_scale="1"
       scale_y_rel="false"
       spacing="0"
       normal_offset="0"
       tang_offset="0"
       prop_units="false"
       vertical_pattern="false"
       hide_knot="false"
       fuse_tolerance="0" />
    <inkscape:path-effect
       effect="skeletal"
       id="path-effect1175"
       is_visible="true"
       lpeversion="1"
       pattern="M 0,4.9921382 C 0,2.2364779 2.2364779,0 4.9921382,0 c 2.7556604,0 4.9921383,2.2364779 4.9921383,4.9921382 0,2.7556604 -2.2364779,4.9921383 -4.9921383,4.9921383 C 2.2364779,9.9842765 0,7.7477986 0,4.9921382 Z"
       copytype="single_stretched"
       prop_scale="1"
       scale_y_rel="false"
       spacing="0"
       normal_offset="0"
       tang_offset="0"
       prop_units="false"
       vertical_pattern="false"
       hide_knot="false"
       fuse_tolerance="0" />
    <inkscape:path-effect
       effect="simplify"
       id="path-effect1173"
       is_visible="true"
       lpeversion="1"
       steps="1"
       threshold="0.0363636"
       smooth_angles="360"
       helper_size="0"
       simplify_individual_paths="false"
       simplify_just_coalesce="false" />
  </defs>
  <g
     inkscape:label="Layer 1"
     inkscape:groupmode="layer"
     id="layer1"
     transform="translate(-41.200728,-83.009497)">
    <ellipse
       style="fill:none;fill-rule:evenodd;stroke:#000000;stroke-width:0.79375;stroke-miterlimit:4;stroke-dasharray:none;stroke-opacity:1"
       id="path1722"
       cx="107.8745"
       cy="127.00398"
       rx="65.276894"
       ry="42.59761" />
    <path
       style="fill:none;stroke:#000000;stroke-width:0.79375;stroke-linecap:butt;stroke-linejoin:miter;stroke-miterlimit:4;stroke-dasharray:none;stroke-opacity:1"
       d="M 140.22916,89.958332 84.666666,166.6875"
       id="path1903" />
    <path
       style="fill:none;stroke:#000000;stroke-width:0.79375;stroke-linecap:butt;stroke-linejoin:miter;stroke-miterlimit:4;stroke-dasharray:none;stroke-opacity:1"
       d="M 74.083332,89.958332 171.97916,134.9375"
       id="path1905" />
    <path
       style="fill:none;stroke:#000000;stroke-width:0.79375;stroke-linecap:butt;stroke-linejoin:miter;stroke-miterlimit:4;stroke-dasharray:none;stroke-opacity:1"
       d="M 47.624999,142.875 171.97916,119.0625"
       id="path1907" />
    <path
       style="fill:#b3b3b3;stroke:none;stroke-width:1.05411"
       d="m 377.1335,383.30296 c -49.40933,-22.68519 -89.84744,-41.5626 -89.86248,-41.94981 -0.0315,-0.81256 12.05753,-4.87901 25.79825,-8.67785 45.99786,-12.71685 101.40181,-15.60948 151.97207,-7.93444 25.12065,3.81256 63.42526,14.43271 61.82835,17.14224 -0.99789,1.69316 -58.42101,81.17993 -59.24084,82.00292 -0.36312,0.3645 -41.08602,-17.89787 -90.49535,-40.58306 z"
       id="path2044"
       transform="scale(0.26458333)" />
    <path
       style="fill:#b3b3b3;stroke:none;stroke-width:1.05411"
       d="m 422.16917,491.78546 c 0,-0.61286 43.20733,-60.78297 45.29774,-63.08118 0.77648,-0.85367 84.35721,37.01617 84.35721,38.22166 0,0.35883 -28.10508,6.01011 -62.45574,12.55839 -34.35066,6.54827 -63.52302,12.15468 -64.82748,12.45867 -1.30445,0.30399 -2.37173,0.2331 -2.37173,-0.15754 z"
       id="path2083"
       transform="scale(0.26458333)" />
    <path
       style="fill:#b3b3b3;stroke:none;stroke-width:1.05411"
       d="m 303.26332,624.48996 c -32.54863,-9.99956 -63.96321,-26.11385 -86.72268,-44.48491 -9.87005,-7.96695 -25.32766,-24.07507 -31.21292,-32.52649 l -4.41123,-6.33467 116.59118,-22.32457 c 64.12515,-12.27852 116.72592,-22.18983 116.8906,-22.02515 0.16468,0.16468 -21.06906,29.80888 -47.18609,65.876 -37.9122,52.35602 -47.94409,65.56685 -49.76011,65.52831 -1.25102,-0.0266 -7.63596,-1.69538 -14.18875,-3.70852 z"
       id="path2122"
       transform="scale(0.26458333)" />
    <path
       style="fill:#b3b3b3;stroke:none;stroke-width:1.05411"
       d="m 605.82637,488.34877 c -23.3466,-10.7701 -42.20909,-19.82129 -41.91663,-20.11375 0.29246,-0.29246 19.55386,-4.1776 42.80309,-8.63364 48.76609,-9.34669 42.98537,-10.04018 45.2694,5.43078 0.82637,5.59742 1.11212,13.34882 0.73833,20.028 -0.61646,11.0154 -2.61505,23.0806 -3.80075,22.9446 -0.35478,-0.0407 -19.74683,-8.88589 -43.09344,-19.65599 z"
       id="path2161"
       transform="scale(0.26458333)" />
  </g>
</svg>
