<?xml version="1.0" encoding="UTF-8" standalone="no"?>
<!-- Created with Inkscape (http://www.inkscape.org/) -->

<svg
   width="43.2845mm"
   height="45.268887mm"
   viewBox="0 0 43.2845 45.268887"
   version="1.1"
   id="svg5"
   inkscape:version="1.1 (c4e8f9e, 2021-05-24)"
   sodipodi:docname="MapColoringSimple4.svg"
   inkscape:export-filename="/Users/chriswright/desktop/bitmap.png"
   inkscape:export-xdpi="96"
   inkscape:export-ydpi="96"
   xmlns:inkscape="http://www.inkscape.org/namespaces/inkscape"
   xmlns:sodipodi="http://sodipodi.sourceforge.net/DTD/sodipodi-0.dtd"
   xmlns="http://www.w3.org/2000/svg"
   xmlns:svg="http://www.w3.org/2000/svg">
  <sodipodi:namedview
     id="namedview7"
     pagecolor="#ffffff"
     bordercolor="#666666"
     borderopacity="1.0"
     inkscape:pageshadow="2"
     inkscape:pageopacity="1"
     inkscape:pagecheckerboard="0"
     inkscape:document-units="mm"
     showgrid="true"
     inkscape:snap-global="false"
     inkscape:zoom="1.3416246"
     inkscape:cx="118.88572"
     inkscape:cy="207.21147"
     inkscape:window-width="1312"
     inkscape:window-height="998"
     inkscape:window-x="0"
     inkscape:window-y="25"
     inkscape:window-maximized="0"
     inkscape:current-layer="layer1"
     fit-margin-left="1"
     fit-margin-top="1"
     fit-margin-right="1"
     fit-margin-bottom="1">
    <inkscape:grid
       type="xygrid"
       id="grid1084"
       originx="-73.528642"
       originy="-93.661357" />
  </sodipodi:namedview>
  <defs
     id="defs2" />
  <g
     inkscape:label="Layer 1"
     inkscape:groupmode="layer"
     id="layer1"
     transform="translate(-73.52864,-93.661354)">
    <ellipse
       style="fill:none;fill-rule:evenodd;stroke:#010000;stroke-width:0.364973;stroke-opacity:1"
       id="path846"
       cx="95.170891"
       cy="116.30193"
       rx="20.459764"
       ry="21.44582" />
    <circle
       style="fill:none;fill-rule:evenodd;stroke:#010000;stroke-width:0.264583;stroke-opacity:1"
       id="path848"
       cx="95.335075"
       cy="116.53837"
       r="8.67729" />
    <path
       style="fill:none;stroke:#000000;stroke-width:0.264583px;stroke-linecap:butt;stroke-linejoin:miter;stroke-opacity:1"
       d="M 95.055776,94.661354 V 107.67729"
       id="path1119" />
    <path
       style="fill:none;stroke:#000000;stroke-width:0.264583px;stroke-linecap:butt;stroke-linejoin:miter;stroke-opacity:1"
       d="m 101.76096,121.87649 9.07171,8.67729"
       id="path1121"
       sodipodi:nodetypes="cc" />
    <path
       style="fill:none;stroke:#000000;stroke-width:0.264583px;stroke-linecap:butt;stroke-linejoin:miter;stroke-opacity:1"
       d="m 80.659362,132.13148 8.677291,-9.66335"
       id="path1123"
       sodipodi:nodetypes="cc" />
    <path
       style="fill:#ff0000;stroke:none;stroke-width:0.745365"
       d="m 346.47664,518.41666 c -12.94052,-2.34819 -25.23204,-8.42653 -36.74125,-18.16912 l -2.57255,-2.17767 2.51561,-2.87814 c 7.30958,-8.36297 27.06127,-30.08397 27.35645,-30.08397 0.18822,0 1.40994,0.80102 2.71493,1.78004 12.79849,9.60161 29.68505,9.23632 42.14404,-0.91166 l 4.01178,-3.26764 6.43231,6.24387 c 3.53777,3.43413 10.55527,10.2452 15.59444,15.13572 l 9.16211,8.89185 -5.41814,5.20753 c -14.41637,13.85597 -32.87544,21.3956 -52.03776,21.25487 -4.30448,-0.0316 -10.22737,-0.49317 -13.16197,-1.02568 z"
       id="path1534"
       transform="scale(0.26458333)" />
    <path
       style="fill:#0000ff;stroke:none;stroke-width:0.745365"
       d="m 352.3718,471.40971 c -5.59747,-1.50727 -9.55556,-3.70584 -13.77203,-7.64985 -13.13757,-12.28866 -13.68387,-32.09697 -1.24786,-45.24621 18.04654,-19.08156 49.65094,-9.3713 54.50821,16.74732 1.07384,5.77429 -0.0414,13.50913 -2.74447,19.03394 -2.38399,4.87269 -9.35203,12.25955 -13.6153,14.43365 -7.22835,3.68617 -15.7344,4.67222 -23.12855,2.68115 z"
       id="path1610"
       transform="scale(0.26458333)" />
    <path
       style="fill:#00ff00;stroke:none;stroke-width:0.745365"
       d="m 302.18322,492.12446 c -8.13413,-10.19751 -12.97377,-19.57788 -16.16699,-31.33549 -1.80505,-6.64627 -1.9631,-8.38563 -1.94433,-21.3963 0.0175,-12.16319 0.24734,-14.98565 1.62816,-19.99827 6.98683,-25.36343 23.56257,-44.99966 45.76416,-54.21391 6.0033,-2.49153 15.64639,-4.88502 22.02513,-5.46681 l 4.65853,-0.4249 v 23.74328 23.74328 l -4.35474,0.85674 c -23.57978,4.63904 -34.68621,32.77106 -20.65077,52.30737 l 2.72002,3.78606 -2.46017,2.74237 c -1.35309,1.5083 -7.94612,8.86301 -14.65118,16.34379 -6.70506,7.48078 -12.4071,13.60017 -12.6712,13.59864 -0.26411,-10e-4 -2.01758,-1.93017 -3.89662,-4.28585 z"
       id="path1686"
       transform="scale(0.26458333)" />
    <path
       style="fill:#800080;stroke:none;stroke-width:0.745365"
       d="m 401.98265,476.23308 -15.42175,-14.91732 1.78622,-2.63213 c 0.98241,-1.44767 2.48068,-4.48827 3.32948,-6.75688 7.31436,-19.54938 -5.46608,-41.20171 -26.26141,-44.49148 l -5.03121,-0.79592 V 382.9075 359.17566 l 5.40389,0.51148 c 18.18861,1.72154 34.59143,9.68371 47.36984,22.99399 13.40344,13.96134 20.97483,30.73747 22.44639,49.73511 1.24704,16.09897 -1.45121,30.42058 -8.33586,44.24468 -2.94929,5.92206 -8.54897,14.55527 -9.41281,14.51205 -0.24807,-0.0124 -7.39082,-6.73536 -15.87278,-14.93989 z"
       id="path1762"
       transform="scale(0.26458333)" />
  </g>
</svg>
