<?xml version="1.0" encoding="UTF-8" standalone="no"?>
<!-- Created with Inkscape (http://www.inkscape.org/) -->

<svg
   width="131.37845mm"
   height="79.202538mm"
   viewBox="0 0 131.37845 79.202538"
   version="1.1"
   id="svg5"
   inkscape:version="1.1 (c4e8f9e, 2021-05-24)"
   sodipodi:docname="SimpleClosedCurveInOut.svg"
   xmlns:inkscape="http://www.inkscape.org/namespaces/inkscape"
   xmlns:sodipodi="http://sodipodi.sourceforge.net/DTD/sodipodi-0.dtd"
   xmlns="http://www.w3.org/2000/svg"
   xmlns:svg="http://www.w3.org/2000/svg">
  <sodipodi:namedview
     id="namedview7"
     pagecolor="#ffffff"
     bordercolor="#666666"
     borderopacity="1.0"
     inkscape:pageshadow="2"
     inkscape:pageopacity="1"
     inkscape:pagecheckerboard="0"
     inkscape:document-units="mm"
     showgrid="false"
     fit-margin-left="1"
     fit-margin-top="1"
     fit-margin-right="1"
     fit-margin-bottom="1"
     inkscape:zoom="0.67081229"
     inkscape:cx="251.188"
     inkscape:cy="185.59588"
     inkscape:window-width="1312"
     inkscape:window-height="997"
     inkscape:window-x="0"
     inkscape:window-y="25"
     inkscape:window-maximized="0"
     inkscape:current-layer="layer1" />
  <defs
     id="defs2" />
  <g
     inkscape:label="Layer 1"
     inkscape:groupmode="layer"
     id="layer1"
     transform="translate(-38.617022,-99.285441)">
    <path
       style="fill:#cccccc;stroke:#000000;stroke-width:0.264583px;stroke-linecap:butt;stroke-linejoin:miter;stroke-opacity:1"
       d="m 130.9482,106.88845 c -13.26643,-5.67462 -34.776016,-10.600784 -47.725093,-1.18327 -4.054149,2.94847 -6.014492,6.9443 -6.310757,11.83267 -0.926486,15.287 17.479574,14.51387 26.42629,20.90438 7.76717,5.54798 0.008,12.12541 -5.521906,14.1992 -15.941438,5.97804 -43.990883,-3.78677 -52.458168,3.94423 -0.03271,0.0299 -6.420237,5.33123 -5.521913,8.28287 6.129062,20.13835 39.985693,10.37554 54.824701,8.28286 17.613456,-2.48395 34.181706,-5.06597 51.274896,-10.25498 4.09785,-1.24399 8.55487,-1.74089 12.22709,-3.94422 3.11002,-1.86601 5.29088,-5.00741 7.49403,-7.88845 3.45174,-4.51382 3.28074,-7.76891 3.15537,-13.41035 -0.0733,-3.29655 -0.012,-6.65603 -0.78884,-9.86056 -2.72857,-11.25534 -26.80465,-18.33662 -37.0757,-20.90438 z"
       id="path857" />
    <text
       xml:space="preserve"
       style="font-size:11.2889px;line-height:1.25;font-family:Chalkboard;-inkscape-font-specification:Chalkboard;letter-spacing:0.264583px;word-spacing:0.264583px;stroke-width:0.264583"
       x="101.53071"
       y="125.62968"
       id="text1345"><tspan
         sodipodi:role="line"
         id="tspan1343"
         style="stroke-width:0.264583"
         x="101.53071"
         y="125.62968">Inside</tspan></text>
    <text
       xml:space="preserve"
       style="font-size:11.2889px;line-height:1.25;font-family:Chalkboard;-inkscape-font-specification:Chalkboard;letter-spacing:0.264583px;word-spacing:0.264583px;stroke-width:0.264583"
       x="59.55777"
       y="147.11952"
       id="text1979"><tspan
         sodipodi:role="line"
         id="tspan1977"
         style="stroke-width:0.264583"
         x="59.55777"
         y="147.11952">Outside</tspan></text>
  </g>
</svg>
