<svg height="50.418751mm" viewBox="0 0 66.293755 50.418751" width="66.293755mm" xmlns="http://www.w3.org/2000/svg"><g transform="translate(-30.353125 -88.561456)"><path d="m31.750002 121.70833h63.5v15.875h-63.5z" fill="none" stroke="#020000" stroke-width=".79375"/><path d="m31.750001 105.83333h31.749999v31.75" fill="none" stroke="#020000" stroke-width=".79375"/><path d="m31.750001 89.958333h31.749999v15.874997h15.875001v31.75" fill="none" stroke="#020000" stroke-width=".79375"/><path d="m31.75 121.70833v-31.749999h63.499998v31.749999" fill="none" stroke="#020000" stroke-width=".79375"/><path d="m47.625 89.958331v47.624999" fill="none" stroke="#020000" stroke-width=".79375"/><path d="m79.374998 89.958331v15.874999h15.875" fill="none" stroke="#020000" stroke-width=".79375"/><g font-family="Chalkboard" font-size="8.46667" letter-spacing="0" stroke-width=".264583" word-spacing="0"><text x="54.032265" y="116.41666"><tspan stroke-width=".264583" x="54.032265" y="116.41666">1</tspan></text><text x="84.666664" y="116.41666"><tspan stroke-width=".264583" x="84.666664" y="116.41666">2</tspan></text><text x="37.041664" y="100.54166"><tspan stroke-width=".264583" x="37.041664" y="100.54166">3</tspan></text><text x="37.320564" y="132.29166"><tspan stroke-width=".264583" x="37.320564" y="132.29166">4</tspan></text><text x="69.070564" y="100.54166"><tspan stroke-width=".264583" x="69.070564" y="100.54166">5</tspan></text><text x="68.791664" y="132.29166"><tspan stroke-width=".264583" x="68.791664" y="132.29166">6</tspan></text><text x="52.916664" y="100.54166"><tspan stroke-width=".264583" x="52.916664" y="100.54166">7</tspan></text><text x="52.916664" y="132.29166"><tspan stroke-width=".264583" x="52.916664" y="132.29166">8</tspan></text><text x="84.666664" y="132.29166"><tspan stroke-width=".264583" x="84.666664" y="132.29166">9</tspan></text><text x="83.415337" y="100.54166"><tspan stroke-width=".264583" x="83.415337" y="100.54166">10</tspan></text><text x="36.348133" y="116.41666"><tspan stroke-width=".264583" x="36.348133" y="116.41666">11</tspan></text><text x="67.676064" y="116.41666"><tspan stroke-width=".264583" x="67.676064" y="116.41666">12</tspan></text></g></g></svg>