<?xml version="1.0" encoding="UTF-8" standalone="no"?>
<!-- Created with Inkscape (http://www.inkscape.org/) -->

<svg
   width="536.4129mm"
   height="212.08345mm"
   viewBox="0 0 536.41289 212.08345"
   version="1.1"
   id="svg5"
   inkscape:version="1.1 (c4e8f9e, 2021-05-24)"
   sodipodi:docname="MapColoringStraightLinesChallengeColored.svg"
   inkscape:export-filename="/Users/chriswright/desktop/bitmap.png"
   inkscape:export-xdpi="96"
   inkscape:export-ydpi="96"
   xmlns:inkscape="http://www.inkscape.org/namespaces/inkscape"
   xmlns:sodipodi="http://sodipodi.sourceforge.net/DTD/sodipodi-0.dtd"
   xmlns="http://www.w3.org/2000/svg"
   xmlns:svg="http://www.w3.org/2000/svg">
  <sodipodi:namedview
     id="namedview7"
     pagecolor="#ffffff"
     bordercolor="#666666"
     borderopacity="1.0"
     inkscape:pageshadow="2"
     inkscape:pageopacity="1"
     inkscape:pagecheckerboard="0"
     inkscape:document-units="mm"
     showgrid="true"
     inkscape:snap-global="false"
     inkscape:zoom="0.33540615"
     inkscape:cx="934.6877"
     inkscape:cy="688.71725"
     inkscape:window-width="1592"
     inkscape:window-height="998"
     inkscape:window-x="41"
     inkscape:window-y="25"
     inkscape:window-maximized="0"
     inkscape:current-layer="layer1"
     fit-margin-left="1"
     fit-margin-top="1"
     fit-margin-right="1"
     fit-margin-bottom="1">
    <inkscape:grid
       type="xygrid"
       id="grid824"
       originx="917.10047"
       originy="-87.772" />
  </sodipodi:namedview>
  <defs
     id="defs2">
    <inkscape:path-effect
       effect="skeletal"
       id="path-effect1179"
       is_visible="true"
       lpeversion="1"
       pattern="M 0,4.9921382 C 0,2.2364779 2.2364779,0 4.9921382,0 c 2.7556604,0 4.9921383,2.2364779 4.9921383,4.9921382 0,2.7556604 -2.2364779,4.9921383 -4.9921383,4.9921383 C 2.2364779,9.9842765 0,7.7477986 0,4.9921382 Z"
       copytype="single_stretched"
       prop_scale="1"
       scale_y_rel="false"
       spacing="0"
       normal_offset="0"
       tang_offset="0"
       prop_units="false"
       vertical_pattern="false"
       hide_knot="false"
       fuse_tolerance="0" />
    <inkscape:path-effect
       effect="skeletal"
       id="path-effect1175"
       is_visible="true"
       lpeversion="1"
       pattern="M 0,4.9921382 C 0,2.2364779 2.2364779,0 4.9921382,0 c 2.7556604,0 4.9921383,2.2364779 4.9921383,4.9921382 0,2.7556604 -2.2364779,4.9921383 -4.9921383,4.9921383 C 2.2364779,9.9842765 0,7.7477986 0,4.9921382 Z"
       copytype="single_stretched"
       prop_scale="1"
       scale_y_rel="false"
       spacing="0"
       normal_offset="0"
       tang_offset="0"
       prop_units="false"
       vertical_pattern="false"
       hide_knot="false"
       fuse_tolerance="0" />
    <inkscape:path-effect
       effect="simplify"
       id="path-effect1173"
       is_visible="true"
       lpeversion="1"
       steps="1"
       threshold="0.0363636"
       smooth_angles="360"
       helper_size="0"
       simplify_individual_paths="false"
       simplify_just_coalesce="false" />
  </defs>
  <g
     inkscape:label="Layer 1"
     inkscape:groupmode="layer"
     id="layer1"
     transform="translate(917.10048,-87.772002)">
    <g
       id="g5178"
       transform="translate(0,-0.52916667)">
      <ellipse
         style="fill:none;fill-rule:evenodd;stroke:#000000;stroke-width:0.79375;stroke-miterlimit:4;stroke-dasharray:none;stroke-opacity:1"
         id="path1722-3-4-6-5-8"
         cx="-849.91718"
         cy="132.29565"
         rx="65.276894"
         ry="42.59761" />
      <path
         style="fill:#ff0000;stroke:none;stroke-width:4.21642"
         d="m -3407.8248,341.36123 c -63.2526,-6.57378 -124.1821,-32.02625 -160.8682,-67.20056 -85.3328,-81.81634 -37.3458,-188.246266 104.903,-232.66323 27.3427,-8.537719 40.1841,-9.861033 94.8695,-9.776401 71.9552,0.111359 98.1634,5.470399 149.289,30.526542 35.1728,17.237865 70.295,49.042439 82.5872,74.786109 4.5021,9.42866 8.8183,29.431 9.7884,45.36132 1.4875,24.42866 0.1324,31.77195 -9.496,51.45135 -35.6678,72.90239 -153.6923,119.7141 -271.0729,107.51487 z"
         id="path1790"
         transform="matrix(0.26458333,0,0,0.26458333,41.200728,83.009497)" />
    </g>
    <g
       id="g5174"
       transform="translate(5.2916667,4.7624975)">
      <ellipse
         style="fill:none;fill-rule:evenodd;stroke:#000000;stroke-width:0.79375;stroke-miterlimit:4;stroke-dasharray:none;stroke-opacity:1"
         id="path1722-3-4-6-5"
         cx="-654.12549"
         cy="127.00399"
         rx="65.276894"
         ry="42.59761" />
      <path
         style="fill:none;stroke:#000000;stroke-width:0.79375;stroke-linecap:butt;stroke-linejoin:miter;stroke-miterlimit:4;stroke-dasharray:none;stroke-opacity:1"
         d="M -717.02081,137.58333 -600.60415,103.1875"
         id="path1515-5-2-7-5"
         sodipodi:nodetypes="cc" />
      <path
         style="fill:#ff0000;stroke:none;stroke-width:4.21642"
         d="m -2866.6223,195.96105 c -1.4587,-3.80149 -2.6337,-17.66661 -2.6111,-30.81137 0.1086,-63.02661 57.6401,-118.580995 149.8318,-144.68285 44.506,-12.60081 132.2131,-13.5798584 176.8997,-1.97468 33.3353,8.657238 82.5398,31.068242 100.6178,45.828018 l 12.0729,9.856993 -212.3529,62.592879 c -116.7942,34.42608 -214.4799,63.38261 -217.0794,64.34784 -2.5996,0.96524 -5.92,-1.35534 -7.3788,-5.15683 z"
         id="path1866"
         transform="matrix(0.26458333,0,0,0.26458333,41.200728,83.009497)" />
      <path
         style="fill:#0000ff;stroke:none;stroke-width:4.21642"
         d="m -2671.1028,321.91715 c -61.545,-8.22329 -117.1417,-31.69338 -153.0548,-64.61188 -21.3714,-19.58934 -40.0159,-44.76399 -35.9409,-48.52911 0.7507,-0.69367 98.807,-30.03926 217.9027,-65.21241 244.3835,-72.175015 220.879,-69.416403 243.4581,-28.57355 10.1775,18.40978 12.1864,26.90881 12.1864,51.55843 0,24.80726 -1.9904,33.11661 -12.4787,52.0956 -32.8509,59.44506 -117.3818,100.1972 -215.1511,103.72383 -23.1903,0.8365 -48.8051,0.63359 -56.9217,-0.45091 z"
         id="path1942"
         transform="matrix(0.26458333,0,0,0.26458333,41.200728,83.009497)" />
    </g>
    <g
       id="g5168"
       transform="translate(0,-0.52916667)">
      <g
         id="g1543">
        <ellipse
           style="fill:none;fill-rule:evenodd;stroke:#000000;stroke-width:0.79375;stroke-miterlimit:4;stroke-dasharray:none;stroke-opacity:1"
           id="path1722-3-4-6"
           cx="-447.75049"
           cy="132.29565"
           rx="65.276894"
           ry="42.59761" />
        <path
           style="fill:none;stroke:#000000;stroke-width:0.79375;stroke-linecap:butt;stroke-linejoin:miter;stroke-miterlimit:4;stroke-dasharray:none;stroke-opacity:1"
           d="m -510.64581,142.875 116.41666,-34.39583"
           id="path1515-5-2-7"
           sodipodi:nodetypes="cc" />
        <path
           style="fill:none;stroke:#000000;stroke-width:0.79375;stroke-linecap:butt;stroke-linejoin:miter;stroke-miterlimit:4;stroke-dasharray:none;stroke-opacity:1"
           d="m -457.72915,89.958334 2.64584,84.666666"
           id="path1517-7-6-9" />
      </g>
      <path
         style="fill:#a0a0a0;stroke:none;stroke-width:4.21642"
         d="m -2086.8828,216.26545 c -1.2946,-3.37375 -2.3539,-17.38393 -2.3539,-31.13372 0,-73.01298 73.0694,-132.244435 188.6849,-152.951633 l 13.7033,-2.454328 v 67.178783 67.178788 l -30.569,9.11995 c -152.0879,45.37382 -167.1131,49.19181 -169.4653,43.06216 z"
         id="path2018"
         transform="matrix(0.26458333,0,0,0.26458333,41.200728,83.009497)" />
      <path
         style="fill:#ff0000;stroke:none;stroke-width:4.21642"
         d="m -1866.1609,342.97079 c -5.7525,-1.5453 -7.0979,-14.03884 -9.3517,-86.84013 -1.7833,-57.60565 -1.2037,-85.91818 1.797,-87.77268 2.4362,-1.50564 54.6122,-17.509 115.9468,-35.56302 l 111.5175,-32.825496 9.694,9.107056 c 14.7029,13.81268 28.349,44.4029 30.8203,69.08961 8.222,82.13032 -90.6078,155.99888 -219.9734,164.41514 -18.5522,1.20698 -36.755,1.38226 -40.4505,0.38952 z"
         id="path2057"
         transform="matrix(0.26458333,0,0,0.26458333,41.200728,83.009497)" />
      <path
         style="fill:#ff0000;stroke:none;stroke-width:4.21642"
         d="m -2063.449,220.308 c -0.269,-2.89879 -4.2839,-5.27052 -8.922,-5.27052 -4.6381,0 -12.2276,-3.79478 -16.8657,-8.43284 -4.638,-4.63807 -6.7799,-8.43285 -4.7596,-8.43285 2.0203,0 4.9682,-9.7622 6.551,-21.6938 1.5828,-11.93159 6.6093,-29.00809 11.17,-37.94779 4.5606,-8.93969 7.2848,-16.25399 6.0536,-16.25399 -3.7027,0 42.9665,-41.190574 52.3728,-46.224698 4.7983,-2.567977 8.7533,-7.922727 8.7888,-11.89944 0.055,-6.209657 0.6416,-6.337525 4.1519,-0.905755 3.3903,5.246126 4.1093,4.886626 4.2164,-2.108211 0.1071,-6.994836 0.8261,-7.354338 4.2164,-2.10821 3.3903,5.246126 4.1093,4.886625 4.2164,-2.108211 0.092,-5.983078 1.127,-6.860253 3.564,-3.019507 3.4672,5.464377 17.5181,2.827354 17.5181,-3.287743 0,-1.813251 2.3718,-3.208737 5.2705,-3.10108 14.4804,0.537779 20.0579,-1.793762 20.3609,-8.51146 0.1989,-4.408005 1.1891,-5.256785 2.4596,-2.10821 3.1962,7.920922 14.0252,6.336191 14.4061,-2.108211 0.1989,-4.408005 1.1891,-5.256786 2.4596,-2.10821 2.9159,7.226339 9.8256,6.60572 19.0117,-1.707598 5.3323,-4.825593 7.7108,-5.336757 7.7108,-1.657101 0,2.997513 2.7617,4.26124 6.3246,2.894035 5.3597,-2.056703 6.3246,3.947856 6.3246,39.356051 0,23.307149 1.8645,42.935329 4.2165,44.388929 2.319,1.43324 4.2164,6.40067 4.2164,11.03874 0,4.63806 -1.8974,7.26019 -4.2164,5.82695 -2.5412,-1.57052 -4.2165,4.06096 -4.2165,14.17361 0,15.2977 -1.1422,17.03039 -12.9341,19.62033 -7.1138,1.56245 -14.0187,5.66707 -15.3443,9.12139 -1.6477,4.29397 -3.3354,4.78337 -5.3354,1.54721 -3.8178,-6.17723 -25.3895,1.60506 -25.4806,9.19246 -0.045,3.77815 -1.2306,3.53111 -3.9896,-0.83157 -3.3368,-5.27636 -4.3629,-5.06541 -6.8469,1.40763 -2.1877,5.70105 -3.753,6.26917 -6.2301,2.26117 -2.663,-4.30892 -4.6045,-4.27717 -9.9542,0.16275 -3.6553,3.03363 -6.7064,3.86031 -6.7801,1.83709 -0.074,-2.02323 -2.9199,0.005 -6.3246,4.50603 -3.4502,4.56147 -6.1906,5.83557 -6.1906,2.87817 0,-6.98451 -17.1317,-2.01375 -24.2444,7.03452 -3.1358,3.98917 -5.2705,4.67061 -5.2705,1.68246 0,-2.76227 -1.8974,-5.02231 -4.2165,-5.02231 -2.319,0 -4.2454,3.32044 -4.2809,7.37874 -0.042,4.78371 -1.1578,5.66064 -3.1731,2.49346 -4.3689,-6.86607 -25.444,-2.00097 -27.6737,6.38835 -1.013,3.81137 -2.0619,4.55803 -2.3309,1.65924 z"
         id="path2170"
         transform="matrix(0.26458333,0,0,0.26458333,41.200728,83.009497)" />
      <path
         style="fill:#0000ff;stroke:none;stroke-width:4.21642"
         d="m -1878.4156,139.79782 c 0,-11.23441 -1.2547,-40.93321 -2.7883,-65.997337 l -2.7883,-45.571143 52.3312,2.404571 c 69.7875,3.206665 125.3153,20.74247 167.5112,52.900391 l 13.9858,10.658729 -110.9635,32.933719 c -61.0299,18.11355 -112.3865,32.97052 -114.1258,33.01549 -1.7393,0.045 -3.1623,-9.11002 -3.1623,-20.34442 z"
         id="path2246"
         transform="matrix(0.26458333,0,0,0.26458333,41.200728,83.009497)" />
      <path
         style="fill:#0000ff;stroke:none;stroke-width:4.21642"
         d="m -1927.306,335.26819 c -46.5738,-10.13295 -91.914,-32.83852 -121.0861,-60.63776 -16.9462,-16.14872 -34.7554,-41.78909 -31.3742,-45.17028 1.837,-1.83703 194.3986,-60.05296 195.5199,-59.1103 0.2717,0.22836 1.5163,38.83734 2.7659,85.79773 l 2.272,85.38253 -11.1987,-0.3352 c -6.1593,-0.18435 -22.7638,-2.85139 -36.8988,-5.92672 z"
         id="path2322"
         transform="matrix(0.26458333,0,0,0.26458333,41.200728,83.009497)" />
    </g>
    <g
       id="g5157"
       transform="translate(-3.1553831,1.8569898)">
      <g
         id="g1401"
         transform="translate(-600.60417,121.70833)">
        <ellipse
           style="fill:none;fill-rule:evenodd;stroke:#000000;stroke-width:0.79375;stroke-miterlimit:4;stroke-dasharray:none;stroke-opacity:1"
           id="path1722-3-4"
           cx="-246.66716"
           cy="132.29565"
           rx="65.276894"
           ry="42.59761" />
        <path
           style="fill:none;stroke:#000000;stroke-width:0.79375;stroke-linecap:butt;stroke-linejoin:miter;stroke-miterlimit:4;stroke-dasharray:none;stroke-opacity:1"
           d="m -309.56249,142.875 116.41666,-34.39583"
           id="path1515-5-2"
           sodipodi:nodetypes="cc" />
        <path
           style="fill:none;stroke:#000000;stroke-width:0.79375;stroke-linecap:butt;stroke-linejoin:miter;stroke-miterlimit:4;stroke-dasharray:none;stroke-opacity:1"
           d="m -256.64583,89.958334 2.64584,84.666666"
           id="path1517-7-6" />
        <path
           style="fill:none;stroke:#000000;stroke-width:0.79375;stroke-linecap:butt;stroke-linejoin:miter;stroke-miterlimit:4;stroke-dasharray:none;stroke-opacity:1"
           d="m -269.87499,171.97917 87.3125,-31.75"
           id="path1521-6-7" />
      </g>
      <path
         style="fill:#ff0000;stroke:none;stroke-width:4.21642"
         d="m -3597.0052,678.1999 c -6.5323,-10.56958 -3.0032,-56.63099 5.8645,-76.54123 18.903,-42.44183 79.4489,-85.6004 142.7168,-101.73184 36.2555,-9.24407 46.3472,-8.6559 49.4391,2.88139 1.3983,5.21782 2.5683,34.48021 2.6,65.02754 l 0.058,55.54058 -13.7034,4.35837 c -7.5368,2.3971 -49.7538,14.9599 -93.8154,27.91733 -44.0616,12.95742 -82.4229,24.34217 -85.2475,25.29942 -2.8245,0.95726 -6.3848,-0.28094 -7.9117,-2.75156 z"
         id="path2398"
         transform="matrix(0.26458333,0,0,0.26458333,41.200728,83.009497)" />
      <path
         style="fill:#ff0000;stroke:none;stroke-width:4.21642"
         d="m -3385.7772,700.81129 c -2.1291,-48.26664 -1.6732,-70.23307 1.4984,-72.19317 2.5072,-1.54954 54.9881,-17.65824 116.6243,-35.7971 127.2879,-37.45946 117.1685,-37.66575 139.3733,2.84119 9.5349,17.39405 12.1113,27.52553 12.2148,48.03445 0.072,14.29503 -1.0303,27.15709 -2.4499,28.58234 -1.4196,1.42526 -61.4455,24.03763 -133.3909,50.24974 l -130.8098,47.65836 z"
         id="path2474"
         transform="matrix(0.26458333,0,0,0.26458333,41.200728,83.009497)" />
      <path
         style="fill:#a0a0a0;stroke:none;stroke-width:4.21642"
         d="m -3386.8311,790.57896 c 0.047,-9.27612 0.9103,-12.57443 1.9188,-7.32957 1.0086,5.24485 0.9703,12.83441 -0.085,16.86568 -1.0553,4.03127 -1.8805,-0.25998 -1.8337,-9.53611 z"
         id="path2550"
         transform="matrix(0.26458333,0,0,0.26458333,41.200728,83.009497)" />
      <path
         style="fill:#ff0000;stroke:none;stroke-width:1.49073"
         d="m -3402.5912,802.51931 c -21.9568,-3.40613 -32.2239,-5.32651 -33.1001,-6.19116 -0.5772,-0.56954 9.4652,-4.85421 22.3165,-9.52149 12.8513,-4.66728 23.5264,-8.32557 23.7224,-8.12953 0.1961,0.19603 0.8156,5.86215 1.3768,12.59138 l 1.0204,12.23495 -5.8046,-0.20301 c -3.1925,-0.11165 -7.4816,-0.46317 -9.5314,-0.78114 z"
         id="path2589"
         transform="matrix(0.26458333,0,0,0.26458333,41.200728,83.009497)" />
      <path
         style="fill:#0000ff;stroke:none;stroke-width:1.49073"
         d="m -3389.1983,621.90187 c -0.013,-0.55706 -1.0079,-30.4847 -2.2109,-66.50589 -1.203,-36.02118 -1.8067,-65.87304 -1.3416,-66.33748 1.6676,-1.66502 69.9846,-0.69912 81.8395,1.15709 53.2306,8.33466 94.014,22.71596 126.846,44.72913 14.1719,9.50204 25.6871,18.89475 24.4631,19.95405 -0.5936,0.5137 -182.3974,54.44292 -220.2554,65.33525 -5.1244,1.47437 -9.3277,2.2249 -9.3407,1.66785 z"
         id="path2969"
         transform="matrix(0.26458333,0,0,0.26458333,41.200728,83.009497)" />
      <path
         style="fill:#0000ff;stroke:none;stroke-width:1.49073"
         d="m -3467.438,788.07238 c -51.3529,-16.92134 -91.9517,-44.60548 -114.3316,-77.96202 -7.2893,-10.86457 -12.5889,-20.95889 -11.5295,-21.96089 1.1936,-1.12904 198.6448,-59.07504 199.2469,-58.47299 0.8642,0.86416 5.3255,142.57061 4.5141,143.38202 -0.6585,0.65854 -49.5259,18.70028 -55.5389,20.50485 -1.7068,0.51223 -11.2669,-1.83537 -22.361,-5.49097 z"
         id="path3045"
         transform="matrix(0.26458333,0,0,0.26458333,41.200728,83.009497)" />
      <path
         style="fill:#0000ff;stroke:none;stroke-width:1.49073"
         d="m -3383.5099,796.2589 c -0.1639,-5.03441 -0.3316,-11.6218 -0.3726,-14.63864 l -0.075,-5.48518 131.9296,-48.00823 c 72.5613,-26.40452 132.1901,-47.76964 132.5085,-47.47804 1.0509,0.96259 -11.3162,25.07338 -16.6156,32.3938 -27.2289,37.61245 -77.0664,67.48175 -136.8829,82.03857 -25.54,6.21537 -45.1111,8.57781 -78.5162,9.47776 l -31.678,0.85342 z"
         id="path3121"
         transform="matrix(0.26458333,0,0,0.26458333,41.200728,83.009497)" />
    </g>
    <g
       id="g5143"
       transform="translate(-7.9976888,4.5028215)">
      <g
         id="g1170"
         transform="translate(-579.4375,124.35417)">
        <ellipse
           style="fill:none;fill-rule:evenodd;stroke:#000000;stroke-width:0.79375;stroke-miterlimit:4;stroke-dasharray:none;stroke-opacity:1"
           id="path1722-3"
           cx="-61.458832"
           cy="127.00398"
           rx="65.276894"
           ry="42.59761" />
        <path
           style="fill:none;stroke:#000000;stroke-width:0.79375;stroke-linecap:butt;stroke-linejoin:miter;stroke-miterlimit:4;stroke-dasharray:none;stroke-opacity:1"
           d="M -124.35416,137.58333 -7.9375,103.1875 l -15.875,58.20833"
           id="path1515-5" />
        <path
           style="fill:none;stroke:#000000;stroke-width:0.79375;stroke-linecap:butt;stroke-linejoin:miter;stroke-miterlimit:4;stroke-dasharray:none;stroke-opacity:1"
           d="m -71.437496,84.666668 2.645836,84.666662"
           id="path1517-7" />
        <path
           style="fill:none;stroke:#000000;stroke-width:0.79375;stroke-linecap:butt;stroke-linejoin:miter;stroke-miterlimit:4;stroke-dasharray:none;stroke-opacity:1"
           d="M -84.666662,166.6875 2.64584,134.9375"
           id="path1521-6" />
      </g>
      <path
         style="fill:#ff0000;stroke:none;stroke-width:1.49073"
         d="m -2620.2122,792.68089 c -6.2892,-0.62305 -17.6933,-2.31157 -25.3425,-3.75226 l -13.9076,-2.61944 25.2923,-9.21753 c 13.9107,-5.06964 25.5099,-8.99991 25.7758,-8.73394 0.266,0.26598 0.2886,6.10239 0.05,12.9698 l -0.4335,12.4862 z"
         id="path2665"
         transform="matrix(0.26458333,0,0,0.26458333,41.200728,83.009497)" />
      <path
         style="fill:#ff0000;stroke:none;stroke-width:1.49073"
         d="m -2816.0081,672.28831 c -2.3758,-3.84415 -5.2612,-17.84491 -6.1484,-29.83397 -2.4083,-32.54389 11.4854,-64.70121 40.2575,-93.17686 27.9004,-27.61283 66.5687,-48.2078 113.4106,-60.40305 15.7714,-4.10609 41.3795,-8.84072 47.885,-8.85338 3.0399,-0.006 3.1071,0.88679 5.0049,66.46954 1.0677,36.89774 1.3549,66.98822 0.6455,67.62777 -0.703,0.63372 -45.2174,14.08393 -98.9209,29.88935 -53.7036,15.80542 -98.4135,29.02252 -99.3555,29.37132 -0.9419,0.3488 -2.1923,-0.14207 -2.7787,-1.09072 z"
         id="path2741"
         transform="matrix(0.26458333,0,0,0.26458333,41.200728,83.009497)" />
      <path
         style="fill:#ff0000;stroke:none;stroke-width:1.49073"
         d="m -2605.1058,751.05569 c -0.03,-5.99954 -0.9767,-38.41222 -2.103,-72.02818 -1.1263,-33.61596 -1.9244,-61.24742 -1.7734,-61.40324 0.4653,-0.48038 227.8058,-67.5449 228.9689,-67.5449 0.6012,0 -7.7315,32.36747 -18.5172,71.92772 l -19.6102,71.92772 -90.8462,33.14918 c -49.9654,18.23205 -92.0202,33.5386 -93.455,34.01456 -2.3226,0.77047 -2.6148,-0.33111 -2.6639,-10.04286 z"
         id="path2817"
         transform="matrix(0.26458333,0,0,0.26458333,41.200728,83.009497)" />
      <path
         style="fill:#ff0000;stroke:none;stroke-width:1.49073"
         d="m -2432.1196,762.13571 c 0,-0.61493 3.9062,-15.45521 8.6726,-32.9784 l 8.6663,-31.86036 36.8761,-13.40119 c 20.2819,-7.37066 37.2536,-13.02374 37.7149,-12.5624 1.2756,1.27556 -7.4298,19.01868 -14.2814,29.10815 -13.6385,20.08354 -36.7051,40.45561 -62.5573,55.24972 -13.4846,7.71665 -15.1024,8.40749 -15.0912,6.44448 z"
         id="path2893"
         transform="matrix(0.26458333,0,0,0.26458333,41.200728,83.009497)" />
      <path
         style="fill:#0000ff;stroke:none;stroke-width:1.49073"
         d="m -2609.5228,607.27365 c 1e-4,-8.78523 -2.8278,-97.74581 -3.6259,-114.06582 l -0.7035,-14.38572 19.6808,-1.04952 c 33.6823,-1.79618 78.8116,3.12579 110.6152,12.06412 38.8726,10.92502 76.4716,29.6912 98.8875,49.35601 l 6.4621,5.66909 -113.0493,33.37966 c -62.1772,18.35881 -114.2233,33.69839 -115.6582,34.08797 -2.1569,0.58562 -2.6087,-0.29014 -2.6087,-5.05579 z"
         id="path3197"
         transform="matrix(0.26458333,0,0,0.26458333,41.200728,83.009497)" />
      <path
         style="fill:#0000ff;stroke:none;stroke-width:1.49073"
         d="m -2687.7862,778.04847 c -43.4616,-14.44122 -82.3391,-38.6736 -104.0881,-64.87837 -8.2286,-9.91437 -19.8816,-28.3945 -20.6618,-32.76702 -0.4065,-2.27797 13.1721,-6.68014 98.6622,-31.98623 84.809,-25.10451 99.2627,-28.99804 100.028,-26.94553 1.5589,4.18146 4.8456,140.36742 3.4212,141.76037 -1.7274,1.68931 -54.7336,20.91301 -57.4257,20.82653 -1.1259,-0.0362 -10.097,-2.74054 -19.9358,-6.00975 z"
         id="path3273"
         transform="matrix(0.26458333,0,0,0.26458333,41.200728,83.009497)" />
      <path
         style="fill:#0000ff;stroke:none;stroke-width:1.49073"
         d="m -2603.9465,780.76983 c -0.4401,-7.58409 -0.6187,-13.98319 -0.397,-14.22022 1.253,-1.33919 183.4607,-66.88109 183.764,-66.10168 0.2013,0.51729 -3.5537,15.35121 -8.3444,32.96426 -10.1949,37.48175 -7.0306,33.77032 -37.3861,43.85128 -36.5612,12.14187 -69.8282,17.29561 -111.642,17.29561 h -25.1944 z"
         id="path3349"
         transform="matrix(0.26458333,0,0,0.26458333,41.200728,83.009497)" />
      <path
         style="fill:#0000ff;stroke:none;stroke-width:1.49073"
         d="m -2412.7465,690.9702 c 0,-1.47293 37.686,-140.00314 38.3005,-140.78894 0.9465,-1.21043 11.1775,9.57911 17.5729,18.53223 19.2214,26.90867 27.1518,59.25722 21.4669,87.56462 l -1.6685,8.30781 -35.9725,13.04547 c -19.7848,7.175 -36.811,13.34715 -37.8359,13.71589 -1.0249,0.36873 -1.8634,0.19904 -1.8634,-0.37708 z"
         id="path3425"
         transform="matrix(0.26458333,0,0,0.26458333,41.200728,83.009497)" />
    </g>
    <g
       id="g5128"
       transform="translate(-2.2566849,23.023652)">
      <g
         id="g946"
         transform="translate(-552.97917,105.83334)">
        <ellipse
           style="fill:none;fill-rule:evenodd;stroke:#000000;stroke-width:0.79375;stroke-miterlimit:4;stroke-dasharray:none;stroke-opacity:1"
           id="path1722"
           cx="107.8745"
           cy="127.00398"
           rx="65.276894"
           ry="42.59761" />
        <path
           style="fill:none;stroke:#000000;stroke-width:0.79375;stroke-linecap:butt;stroke-linejoin:miter;stroke-miterlimit:4;stroke-dasharray:none;stroke-opacity:1"
           d="M 164.04167,148.16667 140.22917,89.958334 74.083335,164.04167 60.854169,97.895834"
           id="path1513" />
        <path
           style="fill:none;stroke:#000000;stroke-width:0.79375;stroke-linecap:butt;stroke-linejoin:miter;stroke-miterlimit:4;stroke-dasharray:none;stroke-opacity:1"
           d="m 44.979169,137.58333 116.416661,-34.39583 -15.875,58.20833"
           id="path1515" />
        <path
           style="fill:none;stroke:#000000;stroke-width:0.79375;stroke-linecap:butt;stroke-linejoin:miter;stroke-miterlimit:4;stroke-dasharray:none;stroke-opacity:1"
           d="m 97.895834,84.666668 2.645836,84.666662"
           id="path1517" />
        <path
           style="fill:none;stroke:#000000;stroke-width:0.79375;stroke-linecap:butt;stroke-linejoin:miter;stroke-miterlimit:4;stroke-dasharray:none;stroke-opacity:1"
           d="M 47.625002,111.125 140.22917,89.958334"
           id="path1519" />
        <path
           style="fill:none;stroke:#000000;stroke-width:0.79375;stroke-linecap:butt;stroke-linejoin:miter;stroke-miterlimit:4;stroke-dasharray:none;stroke-opacity:1"
           d="m 84.666668,166.6875 87.312502,-31.75"
           id="path1521" />
      </g>
      <path
         style="fill:#0000ff;stroke:none;stroke-width:1.49073"
         d="m -1863.8392,710.19 0.4267,-14.30477 91.6378,-33.3165 c 50.4007,-18.32407 91.727,-33.18573 91.8362,-33.0259 0.1091,0.15982 -3.9313,15.3345 -8.9789,33.7215 l -9.1775,33.43091 -6.6315,2.86783 c -13.6842,5.9177 -41.5476,14.34014 -59.5525,18.00124 -26.0252,5.29194 -43.47,6.93046 -73.7864,6.93046 h -26.2005 z"
         id="path3501"
         transform="matrix(0.26458333,0,0,0.26458333,41.200728,83.009497)" />
      <path
         style="fill:#ff0000;stroke:none;stroke-width:1.49073"
         d="m -1879.8105,722.66936 c -14.2953,-1.48324 -38.366,-5.77275 -37.4627,-6.67603 0.4061,-0.40615 11.3493,-4.61659 24.3181,-9.35654 l 23.5797,-8.6181 0.4544,6.52976 c 0.2499,3.59136 0.2499,9.38138 0,12.86669 l -0.4544,6.33694 z"
         id="path3577"
         transform="matrix(0.26458333,0,0,0.26458333,41.200728,83.009497)" />
      <path
         style="fill:#ff0000;stroke:none;stroke-width:1.49073"
         d="m -1691.9806,690.21445 c 0.5193,-1.63624 4.5434,-16.14707 8.9423,-32.24628 4.3989,-16.09922 8.5473,-29.77603 9.2187,-30.39293 2.2351,-2.05389 31.8865,-12.29466 32.8394,-11.34181 1.4225,1.42252 12.3577,27.95776 12.3577,29.98711 0,2.32025 -16.3575,17.89875 -26.9837,25.69863 -8.8551,6.49993 -33.8801,21.27028 -36.0376,21.27028 -0.7045,0 -0.8561,-1.33875 -0.3368,-2.975 z"
         id="path3653"
         transform="matrix(0.26458333,0,0,0.26458333,41.200728,83.009497)" />
      <path
         style="fill:#ff0000;stroke:none;stroke-width:1.49073"
         d="m -1647.8452,586.63591 -9.4415,-23.14067 11.6476,-42.71183 11.6476,-42.71182 5.1183,5.81661 c 21.1973,24.08902 31.1493,44.58388 34.4941,71.03604 1.3381,10.58164 0.194,29.37553 -2.2585,37.1028 -0.5114,1.61137 -7.3555,4.93958 -19.0009,9.23994 -10.0109,3.69677 -19.2284,7.12374 -20.4833,7.6155 -1.7846,0.69927 -4.3392,-4.14841 -11.7234,-22.24657 z"
         id="path3729"
         transform="matrix(0.26458333,0,0,0.26458333,41.200728,83.009497)" />
      <path
         style="fill:#ff0000;stroke:none;stroke-width:1.49073"
         d="m -1864.7185,684.55421 c -0.4526,-3.85959 -1.1939,-24.79438 -1.6473,-46.52177 l -0.8243,-39.50435 31.5442,-35.03215 31.5442,-35.03216 56.5979,-16.85552 c 31.1289,-9.27053 56.9354,-16.518 57.3479,-16.10549 0.4126,0.41251 6.9641,15.95116 14.5591,34.53033 l 13.8089,33.7803 -3.5678,12.88516 c -1.9623,7.08683 -5.6407,20.64308 -8.1743,30.12499 l -4.6066,17.23984 -81.4574,29.6016 c -44.8017,16.28087 -86.5974,31.47023 -92.8795,33.75414 l -11.4221,4.15253 z"
         id="path3805"
         transform="matrix(0.26458333,0,0,0.26458333,41.200728,83.009497)" />
      <path
         style="fill:#ff0000;stroke:none;stroke-width:1.49073"
         d="m -1976.4597,642.31876 c -6.4026,-32.08506 -11.0902,-58.83889 -10.4169,-59.45295 1.1256,-1.02651 112.802,-34.36032 113.1896,-33.78549 0.094,0.13953 0.5811,11.14201 1.0823,24.44997 l 0.9112,24.19629 -45.5972,51.08558 c -25.0785,28.09706 -46.0316,51.25601 -46.5625,51.46432 -0.531,0.20831 -6.2039,-25.87266 -12.6065,-57.95772 z"
         id="path3881"
         transform="matrix(0.26458333,0,0,0.26458333,41.200728,83.009497)" />
      <path
         style="fill:#ff0000;stroke:none;stroke-width:1.49073"
         d="m -2077.8255,596.66468 c -1.223,-3.89453 -2.6623,-9.04914 -3.1985,-11.45468 -1.7894,-8.02795 -1.0031,-32.96036 1.3609,-43.15378 3.2781,-14.13499 11.7068,-31.83972 16.016,-33.64193 6.9747,-2.91704 52.2107,-12.28948 53.3187,-11.04709 1.6208,1.81756 17.0963,80.91365 16.0381,81.97187 -0.7041,0.70413 -79.2189,24.40658 -80.8472,24.40658 -0.2554,0 -1.465,-3.18644 -2.688,-7.08097 z"
         id="path3957"
         transform="matrix(0.26458333,0,0,0.26458333,41.200728,83.009497)" />
      <path
         style="fill:#ff0000;stroke:none;stroke-width:1.49073"
         d="m -2010.0277,474.49431 c -1.763,-8.85216 -3.205,-16.80544 -3.2043,-17.67395 0,-2.52476 22.0944,-14.97011 40.8943,-23.03687 21.8298,-9.36684 42.3684,-15.48768 67.6567,-20.16277 29.774,-5.50438 26.4742,-8.01752 27.7038,21.09923 0.5754,13.62306 0.6916,25.12367 0.2584,25.5569 -0.5876,0.5876 -93.2899,22.22373 -126.2267,29.46054 -3.8481,0.84549 -3.9002,0.7333 -7.0822,-15.24308 z"
         id="path4033"
         transform="matrix(0.26458333,0,0,0.26458333,41.200728,83.009497)" />
      <path
         style="fill:#ff0000;stroke:none;stroke-width:1.49073"
         d="m -1869.2631,540.86509 c -1.2206,-3.88088 -2.4834,-77.24806 -1.3296,-77.24806 0.6489,0 33.6169,-7.42963 73.2624,-16.51029 39.6455,-9.08065 72.4173,-16.17567 72.8263,-15.76669 0.409,0.40897 -17.8133,21.50815 -40.4939,46.88706 l -41.2376,46.14348 -28.5885,8.45787 c -15.7237,4.65184 -29.7657,8.80549 -31.2046,9.23036 -1.4401,0.42522 -2.8941,-0.11139 -3.2345,-1.19373 z"
         id="path4109"
         transform="matrix(0.26458333,0,0,0.26458333,41.200728,83.009497)" />
      <path
         style="fill:#ff0000;stroke:none;stroke-width:1.49073"
         d="m -1699.4166,460.57841 c -6.3683,-15.60957 -11.3019,-28.65776 -10.9637,-28.99598 1.0579,-1.05791 25.3622,10.31865 36.2789,16.98172 16.1399,9.85111 36.1844,24.86569 34.8823,26.12898 -0.6014,0.58347 -46.5049,14.26631 -47.8609,14.26631 -0.4169,0 -5.9684,-12.77147 -12.3366,-28.38103 z"
         id="path4185"
         transform="matrix(0.26458333,0,0,0.26458333,41.200728,83.009497)" />
      <path
         style="fill:#0000ff;stroke:none;stroke-width:1.49073"
         d="m -1943.7114,709.60549 c -7.2688,-2.33104 -13.817,-4.83922 -14.5515,-5.57374 -0.7869,-0.78684 16.585,-21.42913 42.2852,-50.24576 l 43.6208,-48.91026 0.9256,16.14831 c 0.5091,8.88157 1.1799,28.83559 1.4908,44.34227 l 0.5651,28.19396 -28.0988,10.2497 c -15.4543,5.63733 -29.2063,10.20111 -30.5599,10.14173 -1.3537,-0.0594 -8.4085,-2.01518 -15.6773,-4.34621 z"
         id="path4261"
         transform="matrix(0.26458333,0,0,0.26458333,41.200728,83.009497)" />
      <path
         style="fill:#0000ff;stroke:none;stroke-width:1.49073"
         d="m -1630.7749,628.26214 c -3.1004,-7.83337 -5.3902,-14.48933 -5.0885,-14.79102 1.3489,-1.34891 37.0555,-13.70006 37.0555,-12.81774 0,4.86548 -22.4551,41.85125 -25.409,41.85125 -0.5065,0 -3.4576,-6.40913 -6.558,-14.24249 z"
         id="path4337"
         transform="matrix(0.26458333,0,0,0.26458333,41.200728,83.009497)" />
      <path
         style="fill:#0000ff;stroke:none;stroke-width:1.49073"
         d="m -1668.7236,605.60906 c 2.4105,-8.81394 5.4633,-20.2422 6.784,-25.39614 1.3207,-5.15393 2.6199,-9.15208 2.8872,-8.88478 0.2673,0.2673 4.1309,9.30024 8.5858,20.07319 l 8.0998,19.5872 -14.4909,5.32294 c -7.9699,2.92761 -14.8863,5.32294 -15.3698,5.32294 -0.4834,0 1.0934,-7.21141 3.5039,-16.02535 z"
         id="path4413"
         transform="matrix(0.26458333,0,0,0.26458333,41.200728,83.009497)" />
      <path
         style="fill:#0000ff;stroke:none;stroke-width:1.49073"
         d="m -1673.2421,524.53641 c -6.7228,-16.50834 -11.6763,-30.51133 -11.0077,-31.11778 1.4806,-1.34293 43.8278,-13.77411 44.53,-13.07194 0.7955,0.79549 -19.3637,74.18352 -20.3808,74.19474 -0.5049,0.006 -6.4186,-13.49669 -13.1415,-30.00502 z"
         id="path4489"
         transform="matrix(0.26458333,0,0,0.26458333,41.200728,83.009497)" />
      <path
         style="fill:#0000ff;stroke:none;stroke-width:1.49073"
         d="m -1795.5843,519.44095 c 5.6533,-7.26286 77.6059,-87.18465 78.615,-87.32195 1.5186,-0.20664 24.4783,55.57398 23.7046,57.59027 -0.3322,0.86568 -22.8529,8.1288 -50.046,16.14027 -27.1931,8.01148 -50.5822,14.99334 -51.9758,15.51525 -2.2937,0.85899 -2.3219,0.67666 -0.2978,-1.92384 z"
         id="path4565"
         transform="matrix(0.26458333,0,0,0.26458333,41.200728,83.009497)" />
      <path
         style="fill:#0000ff;stroke:none;stroke-width:1.49073"
         d="m -1867.6775,589.58593 c -0.5239,-1.36519 -0.9525,-11.43827 -0.9525,-22.38464 0,-17.66444 0.2933,-19.98998 2.6087,-20.68071 1.4349,-0.42803 13.0067,-3.84685 25.7151,-7.59737 12.7085,-3.75051 24.4,-7.21827 25.9812,-7.70612 1.5811,-0.48786 -8.4111,11.77423 -22.2049,27.24908 -33.4928,37.57435 -30.0072,34.09184 -31.1476,31.11976 z"
         id="path4641"
         transform="matrix(0.26458333,0,0,0.26458333,41.200728,83.009497)" />
      <path
         style="fill:#0000ff;stroke:none;stroke-width:1.49073"
         d="m -1985.7605,692.63176 c -31.6157,-15.49051 -60.4029,-39.47234 -76.7905,-63.97219 -7.8281,-11.70314 -11.7367,-19.8092 -10.1154,-20.97847 1.9053,-1.37412 79.2706,-23.35633 79.9191,-22.70784 0.8414,0.84147 22.7476,108.95512 22.7476,112.26657 0,2.86082 -1.2822,2.48594 -15.7608,-4.60807 z"
         id="path4717"
         transform="matrix(0.26458333,0,0,0.26458333,41.200728,83.009497)" />
      <path
         style="fill:#0000ff;stroke:none;stroke-width:1.49073"
         d="m -1989.3792,577.95381 c 0,-0.24718 -3.686,-18.81035 -8.191,-41.25147 -4.5051,-22.44112 -7.8606,-41.13255 -7.4567,-41.53651 0.8702,-0.87014 127.9456,-30.06191 128.4906,-29.51686 0.6287,0.6287 3.1032,77.67991 2.5156,78.33187 -0.4369,0.48481 -113.6029,34.34658 -114.9858,34.4063 -0.205,0.009 -0.3727,-0.18615 -0.3727,-0.43333 z"
         id="path4793"
         transform="matrix(0.26458333,0,0,0.26458333,41.200728,83.009497)" />
      <path
         style="fill:#0000ff;stroke:none;stroke-width:1.49073"
         d="m -1872.1307,449.08241 c -0.5227,-5.53434 -0.9551,-16.85751 -0.9609,-25.16262 l -0.011,-15.10018 19.7521,-1.01495 c 27.7345,-1.42512 61.9144,1.37235 91.0948,7.45569 12.3425,2.57309 38.5072,9.81347 37.8474,10.47325 -0.5083,0.50837 -143.959,33.41124 -145.667,33.41124 -0.608,0 -1.5331,-4.5281 -2.0558,-10.06243 z"
         id="path4869"
         transform="matrix(0.26458333,0,0,0.26458333,41.200728,83.009497)" />
      <path
         style="fill:#0000ff;stroke:none;stroke-width:1.49073"
         d="m -2060.9342,501.4485 c 0,-4.24186 31.5306,-36.05025 40.6445,-41.00264 3.1663,-1.72054 3.026,-2.07006 6.7381,16.78148 l 2.8269,14.35567 -23.9867,5.41447 c -25.5514,5.76768 -26.2228,5.88163 -26.2228,4.45102 z"
         id="path4945"
         transform="matrix(0.26458333,0,0,0.26458333,41.200728,83.009497)" />
    </g>
  </g>
</svg>
