<?xml version="1.0" encoding="UTF-8" standalone="no"?>
<!-- Created with Inkscape (http://www.inkscape.org/) -->

<svg
   width="1069.0115mm"
   height="253.85495mm"
   viewBox="0 0 1069.0115 253.85495"
   version="1.1"
   id="svg5"
   inkscape:version="1.1 (c4e8f9e, 2021-05-24)"
   sodipodi:docname="BagsOfCoins.svg"
   inkscape:export-filename="/Users/chriswright/desktop/bitmap.png"
   inkscape:export-xdpi="96"
   inkscape:export-ydpi="96"
   xmlns:inkscape="http://www.inkscape.org/namespaces/inkscape"
   xmlns:sodipodi="http://sodipodi.sourceforge.net/DTD/sodipodi-0.dtd"
   xmlns="http://www.w3.org/2000/svg"
   xmlns:svg="http://www.w3.org/2000/svg">
  <sodipodi:namedview
     id="namedview7"
     pagecolor="#ffffff"
     bordercolor="#666666"
     borderopacity="1.0"
     inkscape:pageshadow="2"
     inkscape:pageopacity="1"
     inkscape:pagecheckerboard="0"
     inkscape:document-units="mm"
     showgrid="false"
     inkscape:zoom="0.23716796"
     inkscape:cx="1933.2291"
     inkscape:cy="914.96339"
     inkscape:window-width="1738"
     inkscape:window-height="998"
     inkscape:window-x="14"
     inkscape:window-y="25"
     inkscape:window-maximized="0"
     inkscape:current-layer="g7000"
     fit-margin-left="1"
     fit-margin-top="1"
     fit-margin-right="1"
     fit-margin-bottom="1" />
  <defs
     id="defs2" />
  <g
     inkscape:label="Layer 1"
     inkscape:groupmode="layer"
     id="layer1"
     transform="translate(-223.50111,-60.488745)">
    <g
       id="g6976"
       transform="translate(0,25.96618)"
       inkscape:export-filename="/Users/chriswright/desktop/bitmap.png"
       inkscape:export-xdpi="96"
       inkscape:export-ydpi="96"
       style="stroke:#000000;stroke-width:3.175;stroke-miterlimit:4;stroke-dasharray:none;stroke-opacity:1">
      <path
         style="fill:none;stroke:#000000;stroke-width:3.175;stroke-linecap:butt;stroke-linejoin:miter;stroke-miterlimit:4;stroke-dasharray:none;stroke-opacity:1"
         d="m 259.55605,88.350597 c 61.76594,32.264143 -49.16262,70.767993 -31.55381,141.203183 20.29769,81.19069 201.39738,75.23518 192.47814,-22.87649 -5.52526,-60.77789 -54.3718,-55.10218 -75.72908,-97.81673 -10.94536,-21.89072 31.46798,-36.196895 18.14342,-52.852592 -6.73718,-8.421473 -18.74029,3.130341 -28.93425,-3.325983 -6.29531,-3.764944 2.04157,-14.310537 -8.71284,-15.54119 -5.48053,1.895734 -10.86146,10.244309 -20.34103,9.509802 -9.21279,-0.713836 -5.97624,-11.118807 -17.82356,-6.082131 -11.99009,5.097372 -7.29061,12.757105 -12.45043,20.272088 -17.83704,3.435839 -31.02224,6.865429 -15.07656,27.510043 z"
         id="path1430"
         sodipodi:nodetypes="cssssccsscc" />
      <path
         style="fill:none;stroke:#000000;stroke-width:3.175;stroke-linecap:butt;stroke-linejoin:miter;stroke-miterlimit:4;stroke-dasharray:none;stroke-opacity:1"
         d="m 275.5519,111.00168 c 23.77334,-5.71459 48.11072,-4.67152 71.95587,-3.34679"
         id="path2782" />
      <text
         xml:space="preserve"
         style="font-size:50.8px;line-height:1.25;font-family:Chalkboard;-inkscape-font-specification:Chalkboard;letter-spacing:0px;word-spacing:0px;stroke:#000000;stroke-width:3.175;stroke-miterlimit:4;stroke-dasharray:none;stroke-opacity:1"
         x="307.96161"
         y="204.13904"
         id="text3118"><tspan
           sodipodi:role="line"
           id="tspan3116"
           style="font-size:50.8px;stroke:#000000;stroke-width:3.175;stroke-miterlimit:4;stroke-dasharray:none;stroke-opacity:1"
           x="307.96161"
           y="204.13904">1</tspan></text>
    </g>
    <g
       id="g6982"
       transform="translate(-25.997929,-26.77427)"
       inkscape:export-filename="/Users/chriswright/desktop/bitmap.png"
       inkscape:export-xdpi="96"
       inkscape:export-ydpi="96"
       style="stroke:#000000;stroke-width:3.175;stroke-miterlimit:4;stroke-dasharray:none;stroke-opacity:1">
      <path
         style="fill:none;stroke:#000000;stroke-width:3.175;stroke-linecap:butt;stroke-linejoin:miter;stroke-miterlimit:4;stroke-dasharray:none;stroke-opacity:1"
         d="m 502.83617,141.09105 c 61.76594,32.26414 -49.16262,70.76799 -31.55381,141.20318 20.29769,81.19069 201.39738,75.23518 192.47814,-22.87649 -5.52526,-60.77789 -54.3718,-55.10218 -75.72908,-97.81673 -10.94536,-21.89072 31.46798,-36.1969 18.14342,-52.85259 -6.73718,-8.42148 -18.74029,3.13034 -28.93425,-3.32599 -6.29531,-3.76494 2.04157,-14.310532 -8.71284,-15.541185 -5.48053,1.895734 -10.86146,10.244305 -20.34103,9.509802 -9.21279,-0.713836 -5.97624,-11.118807 -17.82356,-6.082131 -11.99009,5.097372 -7.29061,12.757104 -12.45043,20.272084 -17.83704,3.43584 -31.02224,6.86543 -15.07656,27.51005 z"
         id="path1430-5"
         sodipodi:nodetypes="cssssccsscc" />
      <path
         style="fill:none;stroke:#000000;stroke-width:3.175;stroke-linecap:butt;stroke-linejoin:miter;stroke-miterlimit:4;stroke-dasharray:none;stroke-opacity:1"
         d="m 518.83202,163.74213 c 23.77334,-5.71459 48.11072,-4.67152 71.95587,-3.34679"
         id="path2782-7" />
      <text
         xml:space="preserve"
         style="font-size:50.8px;line-height:1.25;font-family:Chalkboard;-inkscape-font-specification:Chalkboard;letter-spacing:0px;word-spacing:0px;stroke:#000000;stroke-width:3.175;stroke-miterlimit:4;stroke-dasharray:none;stroke-opacity:1"
         x="547.53748"
         y="256.87949"
         id="text3118-5"><tspan
           sodipodi:role="line"
           id="tspan3116-4"
           style="font-size:50.8px;stroke:#000000;stroke-width:3.175;stroke-miterlimit:4;stroke-dasharray:none;stroke-opacity:1"
           x="547.53748"
           y="256.87949">3</tspan></text>
    </g>
    <g
       id="g6988"
       transform="translate(9.4423177,16.73393)"
       inkscape:export-filename="/Users/chriswright/desktop/bitmap.png"
       inkscape:export-xdpi="96"
       inkscape:export-ydpi="96"
       style="stroke:#000000;stroke-width:3.175;stroke-miterlimit:4;stroke-dasharray:none;stroke-opacity:1">
      <path
         style="fill:none;stroke:#000000;stroke-width:3.175;stroke-linecap:butt;stroke-linejoin:miter;stroke-miterlimit:4;stroke-dasharray:none;stroke-opacity:1"
         d="m 684.67812,97.582852 c 61.76594,32.264138 -49.16262,70.767988 -31.55381,141.203178 20.29769,81.19069 201.39738,75.23518 192.47814,-22.87649 -5.52526,-60.77789 -54.3718,-55.10218 -75.72908,-97.81673 -10.94536,-21.890715 31.46798,-36.19689 18.14342,-52.852587 -6.73718,-8.421473 -18.74029,3.130341 -28.93425,-3.325983 -6.29531,-3.764944 2.04157,-14.310537 -8.71284,-15.54119 -5.48053,1.895734 -10.86146,10.244309 -20.34103,9.509802 -9.21279,-0.713836 -5.97624,-11.118807 -17.82356,-6.082131 -11.99009,5.097372 -7.29061,12.757105 -12.45043,20.272088 -17.83704,3.435839 -31.02224,6.865429 -15.07656,27.510043 z"
         id="path1430-56"
         sodipodi:nodetypes="cssssccsscc" />
      <path
         style="fill:none;stroke:#000000;stroke-width:3.175;stroke-linecap:butt;stroke-linejoin:miter;stroke-miterlimit:4;stroke-dasharray:none;stroke-opacity:1"
         d="m 700.67397,120.23393 c 23.77334,-5.71459 48.11072,-4.67152 71.95587,-3.34679"
         id="path2782-3" />
      <text
         xml:space="preserve"
         style="font-size:50.8px;line-height:1.25;font-family:Chalkboard;-inkscape-font-specification:Chalkboard;letter-spacing:0px;word-spacing:0px;stroke:#000000;stroke-width:3.175;stroke-miterlimit:4;stroke-dasharray:none;stroke-opacity:1"
         x="728.32111"
         y="213.37129"
         id="text3118-9"><tspan
           sodipodi:role="line"
           id="tspan3116-5"
           style="font-size:50.8px;stroke:#000000;stroke-width:3.175;stroke-miterlimit:4;stroke-dasharray:none;stroke-opacity:1"
           x="728.32111"
           y="213.37129">5</tspan></text>
    </g>
    <g
       id="g6994"
       transform="translate(-10.897203)"
       inkscape:export-filename="/Users/chriswright/desktop/bitmap.png"
       inkscape:export-xdpi="96"
       inkscape:export-ydpi="96"
       style="stroke:#000000;stroke-width:3.175;stroke-miterlimit:4;stroke-dasharray:none;stroke-opacity:1">
      <path
         style="fill:none;stroke:#000000;stroke-width:3.175;stroke-linecap:butt;stroke-linejoin:miter;stroke-miterlimit:4;stroke-dasharray:none;stroke-opacity:1"
         d="m 922.2998,114.31677 c 61.76594,32.26415 -49.16262,70.768 -31.55381,141.20319 20.29769,81.19069 201.39741,75.23518 192.47811,-22.87649 -5.5252,-60.77789 -54.3718,-55.10218 -75.7291,-97.81673 -10.94531,-21.89072 31.468,-36.196899 18.1435,-52.852596 -6.7372,-8.421473 -18.7403,3.130341 -28.93428,-3.325983 -6.29531,-3.764944 2.04157,-14.310537 -8.71284,-15.54119 -5.48053,1.895734 -10.86146,10.244309 -20.34103,9.509802 -9.21279,-0.713836 -5.97624,-11.118807 -17.82356,-6.082131 -11.99009,5.097372 -7.29061,12.757105 -12.45043,20.272088 -17.83704,3.435839 -31.02224,6.865429 -15.07656,27.51004 z"
         id="path1430-0"
         sodipodi:nodetypes="cssssccsscc" />
      <path
         style="fill:none;stroke:#000000;stroke-width:3.175;stroke-linecap:butt;stroke-linejoin:miter;stroke-miterlimit:4;stroke-dasharray:none;stroke-opacity:1"
         d="m 938.29565,136.96786 c 23.77334,-5.71459 48.11072,-4.67152 71.95585,-3.34679"
         id="path2782-30" />
      <text
         xml:space="preserve"
         style="font-size:50.8px;line-height:1.25;font-family:Chalkboard;-inkscape-font-specification:Chalkboard;letter-spacing:0px;word-spacing:0px;stroke:#000000;stroke-width:3.175;stroke-miterlimit:4;stroke-dasharray:none;stroke-opacity:1"
         x="965.41364"
         y="230.10521"
         id="text3118-2"><tspan
           sodipodi:role="line"
           id="tspan3116-0"
           style="font-size:50.8px;stroke:#000000;stroke-width:3.175;stroke-miterlimit:4;stroke-dasharray:none;stroke-opacity:1"
           x="965.41364"
           y="230.10521">7</tspan></text>
    </g>
    <g
       id="g7000"
       transform="translate(0,-35.69903)"
       inkscape:export-filename="/Users/chriswright/desktop/bitmap.png"
       inkscape:export-xdpi="96"
       inkscape:export-ydpi="96"
       style="stroke:#000000;stroke-width:3.175;stroke-miterlimit:4;stroke-dasharray:none;stroke-opacity:1">
      <path
         style="fill:none;stroke:#000000;stroke-width:3.175;stroke-linecap:butt;stroke-linejoin:miter;stroke-miterlimit:4;stroke-dasharray:none;stroke-opacity:1"
         d="m 1128.6848,150.0158 c 61.766,32.26415 -49.1626,70.768 -31.5538,141.20319 20.2977,81.19069 201.3974,75.23518 192.4782,-22.87649 -5.5253,-60.77789 -54.3718,-55.10218 -75.7291,-97.81673 -10.9454,-21.89072 31.468,-36.1969 18.1434,-52.85259 -6.7372,-8.42148 -18.7403,3.13034 -28.9342,-3.32599 -6.2954,-3.76494 2.0415,-14.31053 -8.7129,-15.541187 -5.4805,1.895737 -10.8614,10.244307 -20.341,9.509797 -9.2128,-0.71383 -5.9763,-11.118802 -17.8236,-6.08213 -11.9901,5.09738 -7.2906,12.75711 -12.4504,20.27209 -17.837,3.43584 -31.0223,6.86543 -15.0766,27.51004 z"
         id="path1430-3"
         sodipodi:nodetypes="cssssccsscc" />
      <path
         style="fill:none;stroke:#000000;stroke-width:3.175;stroke-linecap:butt;stroke-linejoin:miter;stroke-miterlimit:4;stroke-dasharray:none;stroke-opacity:1"
         d="m 1144.6807,172.66689 c 23.7733,-5.71459 48.1107,-4.67152 71.9559,-3.34679"
         id="path2782-9" />
      <text
         xml:space="preserve"
         style="font-size:50.8px;line-height:1.25;font-family:Chalkboard;-inkscape-font-specification:Chalkboard;letter-spacing:0px;word-spacing:0px;stroke:#000000;stroke-width:3.175;stroke-miterlimit:4;stroke-dasharray:none;stroke-opacity:1"
         x="1172.8569"
         y="265.80426"
         id="text3118-3"><tspan
           sodipodi:role="line"
           id="tspan3116-2"
           style="font-size:50.8px;stroke:#000000;stroke-width:3.175;stroke-miterlimit:4;stroke-dasharray:none;stroke-opacity:1"
           x="1172.8569"
           y="265.80426">9</tspan></text>
    </g>
  </g>
</svg>
