<?xml version="1.0" encoding="UTF-8" standalone="no"?>
<!-- Created with Inkscape (http://www.inkscape.org/) -->

<svg
   width="133.34753mm"
   height="87.988968mm"
   viewBox="0 0 133.34753 87.988968"
   version="1.1"
   id="svg5"
   inkscape:version="1.1 (c4e8f9e, 2021-05-24)"
   sodipodi:docname="MapColoring4ColorChallengeColored.svg"
   inkscape:export-filename="/Users/chriswright/desktop/bitmap.png"
   inkscape:export-xdpi="96"
   inkscape:export-ydpi="96"
   xmlns:inkscape="http://www.inkscape.org/namespaces/inkscape"
   xmlns:sodipodi="http://sodipodi.sourceforge.net/DTD/sodipodi-0.dtd"
   xmlns="http://www.w3.org/2000/svg"
   xmlns:svg="http://www.w3.org/2000/svg">
  <sodipodi:namedview
     id="namedview7"
     pagecolor="#ffffff"
     bordercolor="#666666"
     borderopacity="1.0"
     inkscape:pageshadow="2"
     inkscape:pageopacity="1"
     inkscape:pagecheckerboard="0"
     inkscape:document-units="mm"
     showgrid="true"
     inkscape:snap-global="false"
     inkscape:zoom="1.4599884"
     inkscape:cx="240.0704"
     inkscape:cy="124.65852"
     inkscape:window-width="1792"
     inkscape:window-height="998"
     inkscape:window-x="0"
     inkscape:window-y="25"
     inkscape:window-maximized="0"
     inkscape:current-layer="layer1"
     fit-margin-left="1"
     fit-margin-top="1"
     fit-margin-right="1"
     fit-margin-bottom="1">
    <inkscape:grid
       type="xygrid"
       id="grid824"
       originx="-41.200726"
       originy="-83.009496" />
  </sodipodi:namedview>
  <defs
     id="defs2">
    <inkscape:path-effect
       effect="skeletal"
       id="path-effect1179"
       is_visible="true"
       lpeversion="1"
       pattern="M 0,4.9921382 C 0,2.2364779 2.2364779,0 4.9921382,0 c 2.7556604,0 4.9921383,2.2364779 4.9921383,4.9921382 0,2.7556604 -2.2364779,4.9921383 -4.9921383,4.9921383 C 2.2364779,9.9842765 0,7.7477986 0,4.9921382 Z"
       copytype="single_stretched"
       prop_scale="1"
       scale_y_rel="false"
       spacing="0"
       normal_offset="0"
       tang_offset="0"
       prop_units="false"
       vertical_pattern="false"
       hide_knot="false"
       fuse_tolerance="0" />
    <inkscape:path-effect
       effect="skeletal"
       id="path-effect1175"
       is_visible="true"
       lpeversion="1"
       pattern="M 0,4.9921382 C 0,2.2364779 2.2364779,0 4.9921382,0 c 2.7556604,0 4.9921383,2.2364779 4.9921383,4.9921382 0,2.7556604 -2.2364779,4.9921383 -4.9921383,4.9921383 C 2.2364779,9.9842765 0,7.7477986 0,4.9921382 Z"
       copytype="single_stretched"
       prop_scale="1"
       scale_y_rel="false"
       spacing="0"
       normal_offset="0"
       tang_offset="0"
       prop_units="false"
       vertical_pattern="false"
       hide_knot="false"
       fuse_tolerance="0" />
    <inkscape:path-effect
       effect="simplify"
       id="path-effect1173"
       is_visible="true"
       lpeversion="1"
       steps="1"
       threshold="0.0363636"
       smooth_angles="360"
       helper_size="0"
       simplify_individual_paths="false"
       simplify_just_coalesce="false" />
  </defs>
  <g
     inkscape:label="Layer 1"
     inkscape:groupmode="layer"
     id="layer1"
     transform="translate(-41.200728,-83.009497)">
    <ellipse
       style="fill:none;fill-rule:evenodd;stroke:#000000;stroke-width:0.79375;stroke-miterlimit:4;stroke-dasharray:none;stroke-opacity:1"
       id="path1722"
       cx="107.8745"
       cy="127.00398"
       rx="65.276894"
       ry="42.59761" />
    <path
       style="fill:none;stroke:#000000;stroke-width:0.79375;stroke-linecap:butt;stroke-linejoin:miter;stroke-opacity:1;stroke-miterlimit:4;stroke-dasharray:none"
       d="M 47.625002,111.125 140.22917,89.958334"
       id="path1519" />
    <path
       style="fill:none;stroke:#000000;stroke-width:0.79375;stroke-linecap:butt;stroke-linejoin:miter;stroke-opacity:1;stroke-miterlimit:4;stroke-dasharray:none"
       d="m 84.666668,166.6875 87.312502,-31.75"
       id="path1521" />
    <ellipse
       style="fill:none;fill-rule:evenodd;stroke-width:0.79375;stroke:#000000;stroke-opacity:1;stroke-miterlimit:4;stroke-dasharray:none"
       id="path1100"
       cx="103.1875"
       cy="123.03125"
       rx="15.875"
       ry="9.260417" />
    <path
       style="fill:none;stroke:#000000;stroke-width:0.79375;stroke-linecap:butt;stroke-linejoin:miter;stroke-opacity:1;stroke-miterlimit:4;stroke-dasharray:none"
       d="m 43.656252,120.38542 c 5.606263,-0.96473 13.120862,-1.53107 18.322428,1.66989 31.948405,30.08011 58.28591,18.50268 88.83382,20.81969 14.05694,12.29521 16.85765,-19.68893 19.84375,-26.45833"
       id="path1234"
       sodipodi:nodetypes="cccc" />
    <path
       style="fill:none;stroke:#000000;stroke-width:0.79375;stroke-linecap:butt;stroke-linejoin:miter;stroke-opacity:1;stroke-miterlimit:4;stroke-dasharray:none"
       d="m 116.9519,127.04666 c 18.87916,-5.9931 25.35417,4.48963 33.88868,16.49128"
       id="path1116" />
    <path
       style="fill:none;stroke:#000000;stroke-width:0.79375;stroke-linecap:butt;stroke-linejoin:miter;stroke-opacity:1;stroke-miterlimit:4;stroke-dasharray:none"
       d="m 98.467165,132.1209 c -15.087486,7.86926 -13.971296,20.56412 -13.229272,35.15724"
       id="path1311" />
    <path
       style="fill:none;stroke:#000000;stroke-width:0.79375;stroke-linecap:butt;stroke-linejoin:miter;stroke-opacity:1;stroke-miterlimit:4;stroke-dasharray:none"
       d="m 98.82961,113.81739 c 12.0825,-21.525821 40.85061,2.11736 41.31882,-24.102646"
       id="path1315" />
    <path
       style="fill:none;stroke:#000000;stroke-width:0.79375;stroke-linecap:butt;stroke-linejoin:miter;stroke-opacity:1;stroke-miterlimit:4;stroke-dasharray:none"
       d="M 88.137459,126.50299 C 71.195432,139.05714 53.17249,138.36165 43.556626,120.16019"
       id="path1510" />
    <path
       style="fill:none;stroke:#000000;stroke-width:0.79375;stroke-linecap:butt;stroke-linejoin:miter;stroke-opacity:1;stroke-miterlimit:4;stroke-dasharray:none"
       d="m 113.87111,115.99206 c 33.97714,-23.447293 39.97932,-3.22646 50.56119,21.74675"
       id="path1512" />
    <path
       style="fill:#ff0000;stroke:none;stroke-width:0.684937"
       d="m 218.83736,183.22777 c -20.28741,-3.47465 -35.57229,-12.41396 -40.79226,-23.85719 -1.55354,-3.40569 -1.78099,-4.70373 -1.56023,-8.90418 0.34044,-6.47781 2.37667,-10.61769 7.84091,-15.94141 4.83134,-4.7071 14.77635,-10.20773 22.63855,-12.52149 17.80639,-5.24023 39.58855,-5.01753 56.39393,0.57656 17.61849,5.86475 28.804,16.72047 28.85798,28.00714 0.0289,6.03365 -2.95085,13.79767 -5.29532,13.79767 -0.52786,0 -0.95974,0.56338 -0.95974,1.25195 0,3.33449 -14.88721,12.23191 -25.35842,15.15561 -12.22416,3.41313 -30.00337,4.44984 -41.7654,2.43534 z"
       id="path996"
       transform="matrix(0.26458333,0,0,0.26458333,41.200728,83.009497)" />
    <path
       style="fill:#0000ff;stroke:none;stroke-width:0.684937"
       d="m 175.68633,208.6425 c -11.54249,-4.47127 -29.73928,-13.13537 -36.91395,-17.57596 l -2.32463,-1.43878 5.10799,-2.22053 c 8.44758,-3.67231 19.61319,-9.82006 28.0897,-15.46612 l 8.00033,-5.32887 3.74759,3.62983 c 6.08048,5.88941 14.37802,10.50326 24.59014,13.67333 l 5.98191,1.85693 -7.00932,4.64977 c -7.96906,5.28645 -14.54747,10.89127 -19.41786,16.54407 -1.83975,2.1353 -3.49911,3.89344 -3.68747,3.90699 -0.18836,0.0135 -2.96235,-0.99025 -6.16443,-2.23066 z"
       id="path1072"
       transform="matrix(0.26458333,0,0,0.26458333,41.200728,83.009497)" />
    <path
       style="fill:#0000ff;stroke:none;stroke-width:0.684937"
       d="m 456.52614,180.35708 c -17.40577,-41.0947 -28.91959,-61.68379 -42.27736,-75.60069 -9.90543,-10.320044 -19.1617,-16.020463 -31.32142,-19.28909 -7.74805,-2.08274 -22.44639,-2.067707 -32.31668,0.03305 -19.1152,4.068405 -43.20226,15.39073 -69.75819,32.7904 -6.50578,4.26264 -6.96165,4.44992 -8.92172,3.66499 -13.76828,-5.51363 -22.31839,-7.12273 -38.15527,-7.1807 l -12.80181,-0.0469 1.28636,-2.05543 c 8.40119,-13.424024 21.3405,-23.320014 37.00499,-28.301427 10.88257,-3.460734 18.347,-4.257927 46.21684,-4.935912 13.93847,-0.339079 27.48431,-0.943645 30.10186,-1.343481 12.93621,-1.976025 19.8863,-5.083409 26.77317,-11.970265 7.33444,-7.334442 10.95694,-16.017022 12.70701,-30.456749 l 0.8174,-6.744358 8.07431,3.319011 c 40.09755,16.482411 73.4185,41.933083 92.73695,70.832831 5.34485,7.99572 12.35554,21.63414 11.4185,22.21326 -1.15894,0.71627 -3.41648,8.50879 -8.98905,31.02815 -5.45754,22.05453 -10.0391,38.2645 -12.21607,43.22149 l -1.14883,2.61594 z"
       id="path1148"
       transform="matrix(0.26458333,0,0,0.26458333,41.200728,83.009497)" />
    <path
       style="fill:#008000;stroke:none;stroke-width:0.684937"
       d="M 124.64981,182.15591 C 112.2131,173.95916 98.288925,163.0451 84.91988,151.01473 76.671189,143.592 69.430637,140.24695 56.744904,137.99821 c -8.003068,-1.41867 -26.752584,-1.41434 -37.487743,0.009 -4.477174,0.59347 -8.258451,0.9609 -8.402837,0.81652 C 9.9013722,137.87042 20.150905,113.541 23.260322,109.37514 23.986552,108.40216 61.42325,99.62423 195.99932,68.872325 290.49582,47.27898 368.79266,29.401667 369.9923,29.144963 l 2.18115,-0.466736 -0.36548,3.98295 c -1.74539,19.020747 -8.46415,31.414581 -20.09285,37.064496 -9.49289,4.612216 -16.3715,5.508541 -48.45714,6.314261 -31.36827,0.787705 -40.50372,2.178442 -53.95577,8.213969 -11.36799,5.100473 -22.90966,15.20699 -29.75453,26.054687 l -3.69492,5.85571 -5.18584,1.17708 c -16.40741,3.72418 -30.17766,12.86709 -35.45184,23.53866 -2.24766,4.54784 -2.51994,5.67104 -2.51247,10.36433 0.006,3.90703 0.39181,6.12472 1.49604,8.60424 0.81822,1.83728 1.48768,3.42433 1.48768,3.52676 0,0.50363 -16.17029,10.88677 -21.57552,13.85391 -6.63245,3.6408 -17.6766,8.75654 -20.35582,9.42898 -1.28029,0.32134 -3.30667,-0.68068 -9.10518,-4.50235 z"
       id="path1224"
       transform="matrix(0.26458333,0,0,0.26458333,41.200728,83.009497)" />
    <path
       style="fill:#008000;stroke:none;stroke-width:0.684937"
       d="m 269.86516,225.60273 c -20.30044,-0.63228 -39.92979,-2.75206 -56.68809,-6.12175 -8.66392,-1.74211 -24.3586,-5.94798 -26.34613,-7.06026 -0.82347,-0.46084 -0.0904,-1.57657 3.62086,-5.51067 5.41484,-5.74001 12.9965,-11.61694 21.35819,-16.55582 5.91285,-3.49245 5.92844,-3.49701 10.32959,-3.02569 2.4243,0.25962 8.45221,0.45267 13.39536,0.429 21.15987,-0.10133 39.13896,-6.0984 51.28659,-17.10707 4.19351,-3.80032 4.88114,-4.15681 10.54578,-5.4672 12.11052,-2.80152 15.00664,-3.13955 26.60787,-3.10561 10.35814,0.0303 12.39487,0.23427 18.4444,1.84715 20.85248,5.55954 36.20654,18.48331 58.7342,49.43762 3.56229,4.89479 6.68079,9.24526 6.93,9.66773 0.33255,0.56372 -5.23885,0.67852 -20.93716,0.43142 -13.22716,-0.2082 -32.89149,0.078 -51.52752,0.74982 -34.54368,1.24538 -55.91856,1.69766 -65.75394,1.39133 z"
       id="path1300"
       transform="matrix(0.26458333,0,0,0.26458333,41.200728,83.009497)" />
    <path
       style="fill:#800080;stroke:none;stroke-width:0.684937"
       d="m 406.36382,214.52371 c -24.37094,-34.37816 -40.74583,-48.23857 -64.21672,-54.35579 -10.62854,-2.77013 -28.22094,-2.41024 -42.41354,0.86765 -3.16157,0.73019 -5.86256,1.21338 -6.00219,1.07375 -0.13963,-0.13963 0.19503,-1.32824 0.74369,-2.64135 2.65264,-6.34868 1.6814,-14.82917 -2.43258,-21.24026 -2.38022,-3.70924 -9.23262,-10.2987 -12.42799,-11.95109 l -2.14626,-1.10987 1.57714,-1.27709 c 2.82375,-2.28654 17.48802,-11.37239 26.46031,-16.39459 35.9544,-20.12529 64.83437,-25.163274 86.39993,-15.072084 6.82965,3.195809 12.47351,7.355553 19.15346,14.116864 12.72455,12.87952 24.65058,33.82856 40.33907,70.85882 3.27184,7.72266 7.26607,17.12342 8.87607,20.89058 1.61,3.76715 2.73174,7.04825 2.49275,7.29133 -0.31921,0.32468 -33.5069,12.56056 -48.72257,17.96341 -0.72072,0.25591 -3.01345,-2.43673 -7.68057,-9.02028 z"
       id="path1376"
       transform="matrix(0.26458333,0,0,0.26458333,41.200728,83.009497)" />
    <path
       style="fill:#008000;stroke:none;stroke-width:0.684937"
       d="M 158.5629,313.52766 C 132.81851,305.81105 119.23404,300.60269 101.71314,291.73112 80.585195,281.03316 64.139225,269.64011 49.573347,255.61095 22.571461,229.60402 8.7173475,201.76609 7.4111266,170.89177 c -0.3652203,-8.63248 0.4989286,-21.8201 1.6215049,-24.74548 0.2418443,-0.63024 1.4895495,0.809 3.4711525,4.00401 15.094074,24.33673 35.628977,40.04329 59.757064,45.70646 16.28241,3.8217 35.819682,2.85103 53.371082,-2.65162 l 6.44343,-2.02013 6.36879,3.74823 c 8.38345,4.93393 22.54725,11.76311 32.8962,15.86114 l 8.32537,3.29673 -1.68371,2.71559 c -6.05918,9.77266 -10.18918,21.15001 -12.67625,34.92057 -1.49897,8.29959 -1.60325,10.55483 -1.56708,33.89144 0.0213,13.75011 0.25836,25.84781 0.52676,26.88377 0.44773,1.72817 0.33151,1.87781 -1.40863,1.81365 -1.04315,-0.0385 -2.9754,-0.39327 -4.29391,-0.78847 z"
       id="path1452"
       transform="matrix(0.26458333,0,0,0.26458333,41.200728,83.009497)" />
    <path
       style="fill:#ff0000;stroke:none;stroke-width:0.684937"
       d="m 77.46437,193.42165 c -24.657539,-4.4528 -46.623334,-20.53079 -62.066067,-45.4296 l -3.344953,-5.39318 5.959722,-0.92216 c 3.773267,-0.58385 11.613614,-0.90406 21.370803,-0.87281 14.448658,0.0463 15.835448,0.1633 22.206382,1.87385 9.689741,2.60162 14.502869,5.07374 20.345127,10.44966 11.946156,10.9926 27.562606,23.3324 39.818966,31.46412 3.30001,2.18945 5.88431,4.09652 5.7429,4.23793 -0.69333,0.69334 -10.54369,3.14385 -17.4617,4.34403 -9.30035,1.61347 -24.374732,1.72833 -32.57118,0.24816 z"
       id="path1528"
       transform="matrix(0.26458333,0,0,0.26458333,41.200728,83.009497)" />
    <path
       style="fill:#800080;stroke:none;stroke-width:0.684937"
       d="M 29.092059,100.36908 C 50.536275,69.200979 90.773886,41.562003 138.22393,25.407042 196.38506,5.605362 263.52285,1.6900832 325.68752,14.474717 c 17.19701,3.536696 42.5966,10.928533 40.41128,11.760569 -1.50554,0.573217 -337.250581,77.190194 -338.256951,77.190194 -0.49346,0 0.0332,-1.28755 1.25021,-3.0564 z"
       id="path1604"
       transform="matrix(0.26458333,0,0,0.26458333,41.200728,83.009497)" />
    <path
       style="fill:#0000ff;stroke:none;stroke-width:0.684937"
       d="m 167.73566,309.05446 c -0.28,-2.15328 -0.5306,-13.46992 -0.55688,-25.14809 -0.0519,-23.05663 0.58315,-29.64784 4.12452,-42.80856 1.81644,-6.75039 6.36875,-17.15835 9.93702,-22.71901 l 2.05851,-3.20791 3.58983,1.23508 c 11.59164,3.98811 33.89299,8.60083 51.44977,10.64167 23.8591,2.77342 46.12741,2.84183 109.95201,0.33774 17.92006,-0.70307 43.2272,-0.74237 49.90107,-0.0775 l 4.35277,0.43365 -112.91527,41.03496 c -62.1034,22.56923 -114.8208,41.74552 -117.14976,42.61399 l -4.23449,1.57902 z"
       id="path1680"
       transform="matrix(0.26458333,0,0,0.26458333,41.200728,83.009497)" />
    <path
       style="fill:#a0a0a0;stroke:none;stroke-width:0.684937"
       d="m 222.0469,324.3161 c -14.14764,-1.24251 -29.24924,-3.36547 -41.47926,-5.8311 -5.41465,-1.09163 -9.9583,-2.09825 -10.09699,-2.23694 -0.1387,-0.13869 54.06927,-20.01323 120.46214,-44.16564 94.08856,-34.22755 120.86539,-43.72073 121.39925,-43.03965 0.37672,0.48059 1.09548,0.7356 1.59726,0.56667 0.50177,-0.16893 2.26222,0.66229 3.91211,1.84715 1.64989,1.18486 5.09212,3.14535 7.6494,4.35665 4.1639,1.97229 5.29353,2.20235 10.81403,2.20235 5.07154,0 6.73888,-0.28292 9.40462,-1.59579 6.99181,-3.44346 13.76636,-11.5482 19.2929,-23.08109 l 2.63494,-5.49865 11.68469,-4.25118 c 6.42659,-2.33815 11.80936,-4.12651 11.96173,-3.97415 0.62409,0.62409 -5.65928,14.92736 -9.56813,21.78059 -6.29092,11.02963 -14.10675,21.01462 -24.82278,31.71191 -38.69888,38.63123 -98.8682,63.63294 -170.58917,70.88365 -12.156,1.22893 -51.68854,1.42901 -64.25674,0.32522 z"
       id="path1756"
       transform="matrix(0.26458333,0,0,0.26458333,41.200728,83.009497)" />
    <path
       style="fill:#ff0000;stroke:none;stroke-width:0.684937"
       d="m 429.38855,233.62657 c -3.50906,-1.26367 -10.71795,-5.52246 -11.50584,-6.79728 -0.47565,-0.76962 -1.49163,-0.3629 24.92903,-9.97975 10.73638,-3.90793 19.62987,-7.00502 19.76329,-6.88242 0.47646,0.43782 -5.03627,9.96628 -8.24466,14.25045 -3.47053,4.63421 -8.9562,8.9031 -12.89092,10.03156 -3.56761,1.02318 -8.1363,0.78715 -12.0509,-0.62256 z"
       id="path1795"
       transform="matrix(0.26458333,0,0,0.26458333,41.200728,83.009497)" />
    <path
       style="fill:#008000;stroke:none;stroke-width:0.684937"
       d="m 226.52942,324.49335 c -1.02856,-0.28008 -2.94888,-0.49043 -4.26738,-0.46744 -2.23261,0.0389 -6.22268,-0.31263 -13.69874,-1.20698 -1.69522,-0.20279 -4.00688,-0.45318 -5.13703,-0.55641 -1.13014,-0.10323 -2.5988,-0.41131 -3.26368,-0.6846 -0.66488,-0.2733 -1.82071,-0.33691 -2.56852,-0.14135 -0.7478,0.19555 -1.35963,0.053 -1.35963,-0.31689 0,-0.36984 -0.84761,-0.60497 -1.88358,-0.52252 -1.03597,0.0825 -2.42297,-0.0814 -3.08222,-0.36412 -0.65925,-0.28272 -1.62341,-0.35105 -2.14258,-0.15182 -0.51917,0.19922 -1.23309,0.0731 -1.5865,-0.28034 -0.35341,-0.35341 -2.00914,-0.7603 -3.67939,-0.90419 -1.67025,-0.1439 -3.56144,-0.47441 -4.20266,-0.73448 -0.64121,-0.26007 -1.48882,-0.27324 -1.88357,-0.0292 -0.39476,0.24395 -0.71774,0.0978 -0.71774,-0.32485 0,-0.42262 -0.53939,-0.70241 -1.19864,-0.62175 -0.65925,0.0807 -1.95692,-0.1619 -2.88371,-0.53902 -1.59672,-0.64973 -1.49797,-0.74782 1.88358,-1.871 1.96276,-0.65192 3.56865,-1.45909 3.56865,-1.7937 0,-0.33462 0.46233,-0.43099 1.0274,-0.21415 0.56507,0.21685 1.02741,0.0349 1.02741,-0.40438 0,-0.43925 0.27281,-0.63004 0.60625,-0.42395 0.79506,0.49136 4.87324,-0.939 4.87324,-1.70923 0,-0.32804 0.46233,-0.41902 1.02741,-0.20219 0.56507,0.21685 1.0274,0.0349 1.0274,-0.40438 0,-0.43925 0.26306,-0.63606 0.58457,-0.43736 0.72109,0.44566 4.89493,-1.07124 4.89493,-1.77898 0,-0.2823 0.46233,-0.33586 1.0274,-0.11902 0.56508,0.21684 1.02741,0.0531 1.02741,-0.36397 0,-0.41702 0.23117,-0.6995 0.5137,-0.62773 1.04539,0.26553 4.96579,-0.94497 4.96579,-1.53328 0,-0.33496 0.46234,-0.43161 1.02741,-0.21477 0.56507,0.21684 1.02741,0.0531 1.02741,-0.36396 0,-0.41703 0.23116,-0.69951 0.5137,-0.62774 1.04539,0.26553 4.96579,-0.94497 4.96579,-1.53328 0,-0.33496 0.46233,-0.43161 1.02741,-0.21477 0.56507,0.21684 1.0274,0.0531 1.0274,-0.36396 0,-0.41702 0.23117,-0.69951 0.5137,-0.62774 1.0454,0.26553 4.9658,-0.94497 4.9658,-1.53328 0,-0.33496 0.46233,-0.4316 1.0274,-0.21477 0.56508,0.21685 1.02741,0.0531 1.02741,-0.36396 0,-0.41702 0.23116,-0.6995 0.5137,-0.62774 1.04539,0.26553 4.96579,-0.94496 4.96579,-1.53328 0,-0.33496 0.46234,-0.4316 1.02741,-0.21476 0.56507,0.21684 1.0274,0.0531 1.0274,-0.36397 0,-0.41702 0.23117,-0.6995 0.51371,-0.62773 1.06545,0.27062 4.96579,-0.95057 4.96579,-1.55478 0,-0.34678 0.23117,-0.59402 0.5137,-0.54941 0.28254,0.0446 0.74487,0.006 1.02741,-0.0856 0.56281,-0.18267 0.55889,-0.18168 3.76715,-0.94476 1.22433,-0.2912 2.22605,-0.81319 2.22605,-1.15997 0,-0.34678 0.23116,-0.59401 0.5137,-0.5494 0.28254,0.0446 0.74487,0.006 1.0274,-0.0856 0.56282,-0.18267 0.55889,-0.18168 3.76716,-0.94475 1.22432,-0.29121 2.22604,-0.8132 2.22604,-1.15998 0,-0.34678 0.23117,-0.59401 0.51371,-0.5494 0.28253,0.0446 0.74486,0.006 1.0274,-0.0856 0.56281,-0.18266 0.55889,-0.18168 3.76715,-0.94475 1.22433,-0.2912 2.22605,-0.81319 2.22605,-1.15998 0,-0.34677 0.23117,-0.59401 0.5137,-0.5494 0.28254,0.0446 0.74487,0.006 1.02741,-0.0856 0.56281,-0.18266 0.55889,-0.18168 3.76715,-0.94475 1.22433,-0.2912 2.22605,-0.81319 2.22605,-1.15998 0,-0.34677 0.23116,-0.59401 0.5137,-0.5494 0.28254,0.0446 0.74487,0.006 1.0274,-0.0856 0.56282,-0.18267 0.55889,-0.18168 3.76716,-0.94476 1.22432,-0.2912 2.22604,-0.81319 2.22604,-1.15997 0,-0.34678 0.23117,-0.59401 0.51371,-0.5494 0.28253,0.0446 0.74486,0.006 1.0274,-0.0856 0.56281,-0.18267 0.55889,-0.18168 3.76715,-0.94476 1.22433,-0.2912 2.22605,-0.81319 2.22605,-1.15997 0,-0.34678 0.23117,-0.59401 0.5137,-0.5494 0.28254,0.0446 0.66782,0.0217 0.85617,-0.0509 0.18836,-0.0726 1.05926,-0.26484 1.93534,-0.42718 0.87608,-0.16235 2.26307,-0.66791 3.08222,-1.12347 0.81913,-0.45557 1.72051,-0.87776 2.00305,-0.93819 0.28253,-0.0604 0.59075,-0.17132 0.68493,-0.2464 0.0942,-0.0751 0.88802,-0.26935 1.76411,-0.43169 0.87607,-0.16235 2.26307,-0.66791 3.08221,-1.12347 0.81914,-0.45557 1.72052,-0.87775 2.00305,-0.93819 0.28254,-0.0604 0.59076,-0.17132 0.68494,-0.2464 0.0942,-0.0751 0.88802,-0.26935 1.7641,-0.43169 0.87608,-0.16234 2.26308,-0.6679 3.08222,-1.12347 0.81914,-0.45556 1.72051,-0.87775 2.00305,-0.93818 0.28254,-0.0604 0.59076,-0.17133 0.68494,-0.24641 0.0942,-0.0751 0.88802,-0.26934 1.7641,-0.43169 0.87607,-0.16234 2.26307,-0.6679 3.08222,-1.12347 0.81913,-0.45556 1.72051,-0.87775 2.00305,-0.93818 0.28253,-0.0604 0.59075,-0.17132 0.68493,-0.24641 0.0942,-0.0751 0.88802,-0.26934 1.76411,-0.43168 0.87607,-0.16235 2.26307,-0.66791 3.08221,-1.12348 0.81914,-0.45556 1.72052,-0.87774 2.00305,-0.93818 0.28254,-0.0604 0.66782,-0.18695 0.85617,-0.28112 0.18836,-0.0942 0.57364,-0.22717 0.85617,-0.29552 0.28254,-0.0684 1.51543,-0.36255 2.73975,-0.65375 1.22433,-0.2912 2.22605,-0.81318 2.22605,-1.15997 0,-0.34678 0.23116,-0.59401 0.5137,-0.5494 0.28254,0.0446 0.74487,0.006 1.02741,-0.0856 0.56281,-0.18267 0.55888,-0.18168 3.76715,-0.94475 1.22432,-0.29121 2.22604,-0.81319 2.22604,-1.15998 0,-0.34678 0.23117,-0.59401 0.51371,-0.5494 0.28253,0.0446 0.74487,0.006 1.0274,-0.0856 0.56281,-0.18266 0.55889,-0.18168 3.76716,-0.94475 1.22432,-0.2912 2.22604,-0.81319 2.22604,-1.15997 0,-0.34679 0.23117,-0.59402 0.5137,-0.54941 0.28254,0.0446 0.74487,0.006 1.02741,-0.0856 0.56281,-0.18267 0.55889,-0.18169 3.76715,-0.94476 1.22433,-0.2912 2.22605,-0.81319 2.22605,-1.15997 0,-0.34678 0.23116,-0.59402 0.5137,-0.54941 0.28254,0.0446 0.74487,0.006 1.0274,-0.0856 0.56282,-0.18267 0.55889,-0.18169 3.76716,-0.94476 1.22432,-0.2912 2.22604,-0.81319 2.22604,-1.15997 0,-0.34678 0.23117,-0.59401 0.51371,-0.5494 0.28253,0.0446 0.74486,0.006 1.0274,-0.0856 0.56281,-0.18267 0.55889,-0.18168 3.76715,-0.94476 1.22433,-0.2912 2.22605,-0.80351 2.22605,-1.13847 0,-0.33496 0.46233,-0.43161 1.02741,-0.21477 0.56507,0.21684 1.0274,0.0531 1.0274,-0.36396 0,-0.41702 0.23117,-0.6995 0.5137,-0.62774 1.0454,0.26553 4.9658,-0.94497 4.9658,-1.53328 0,-0.33496 0.46233,-0.4316 1.0274,-0.21476 0.56507,0.21684 1.02741,0.0349 1.02741,-0.40439 0,-0.43925 0.26305,-0.63607 0.58456,-0.43736 0.7211,0.44565 4.89493,-1.07125 4.89493,-1.77898 0,-0.28231 0.46233,-0.33587 1.02741,-0.11903 0.56507,0.21684 1.0274,0.0349 1.0274,-0.40439 0,-0.43925 0.26306,-0.63606 0.58457,-0.43736 0.72109,0.44567 4.89493,-1.07124 4.89493,-1.77897 0,-0.2823 0.46233,-0.33587 1.0274,-0.11903 0.56508,0.21684 1.02741,0.0349 1.02741,-0.40438 0,-0.43926 0.27282,-0.63004 0.60626,-0.42396 0.79505,0.49137 4.87324,-0.939 4.87324,-1.70922 0,-0.32804 0.46233,-0.41902 1.0274,-0.20218 0.56507,0.21684 1.02741,0.0349 1.02741,-0.40439 0,-0.43925 0.26655,-0.6339 0.59233,-0.43256 0.32579,0.20135 4.71795,-1.02738 9.76035,-2.7305 6.27465,-2.11932 9.8165,-2.97787 11.22283,-2.72044 1.87719,0.34363 6.36643,2.28549 7.19184,3.11089 0.58037,0.58038 8.40456,4.39384 9.54289,4.65115 1.96093,0.44325 10.62967,0.46599 12.79437,0.0336 3.7782,-0.75475 5.34463,-1.8107 10.50565,-7.08199 4.74991,-4.8514 6.10006,-6.48762 6.56678,-7.95813 0.22493,-0.70869 0.69641,-1.28853 1.04775,-1.28853 0.35132,0 0.63878,-0.44031 0.63878,-0.97848 0,-0.53816 0.42661,-1.40509 0.94803,-1.92651 1.41319,-1.41319 3.8518,-6.45054 3.36055,-6.94178 -0.235,-0.235 -0.0163,-0.42728 0.48597,-0.42728 0.50229,0 0.72633,-0.18692 0.49787,-0.41538 -0.81034,-0.81034 3.52615,-3.97385 6.52274,-4.75839 0.28253,-0.074 0.59076,-0.19592 0.68493,-0.27101 0.0942,-0.0751 0.88803,-0.26934 1.76411,-0.43168 0.87607,-0.16235 2.26307,-0.66791 3.08221,-1.12347 0.81914,-0.45557 1.72052,-0.87775 2.00305,-0.93819 0.28254,-0.0604 0.66782,-0.18694 0.85618,-0.28112 0.18835,-0.0942 0.57363,-0.22717 0.85617,-0.29552 0.28253,-0.0684 1.51542,-0.36254 2.73974,-0.65375 1.22433,-0.2912 2.22605,-0.80351 2.22605,-1.13847 0,-0.33496 0.46233,-0.4316 1.0274,-0.21477 0.5903,0.22652 1.02741,0.0134 1.02741,-0.50095 0,-0.66275 0.19995,-0.69526 0.77003,-0.12517 0.55863,0.55863 0.56841,1.34839 0.0356,2.87673 -0.40392,1.15869 -0.51927,2.11143 -0.25633,2.1172 0.26294,0.006 0.1236,0.23693 -0.30964,0.5137 -0.43324,0.27677 -0.89558,1.11966 -1.02741,1.87309 -0.13183,0.75343 -0.4294,1.52398 -0.66125,1.71234 -0.57722,0.46891 -6.13537,12.20427 -6.0427,12.75842 0.0409,0.24458 -0.20796,0.63326 -0.55303,0.86374 -0.92408,0.61723 -7.82653,11.03557 -7.31136,11.03557 0.24157,0 -0.28842,0.60619 -1.17777,1.34709 -0.88935,0.74089 -1.43888,1.35734 -1.22119,1.36987 1.69533,0.0976 -23.04267,24.82693 -30.85578,30.84495 -3.17905,2.44865 -6.48744,5.13158 -7.35199,5.96207 -0.86455,0.83048 -1.58171,1.29282 -1.59368,1.0274 -0.012,-0.26541 -0.47432,0.11573 -1.02741,0.84698 -0.55309,0.73126 -1.00562,1.11216 -1.00562,0.84645 0,-0.2657 -1.23289,0.33279 -2.73975,1.32999 -1.50686,0.99719 -2.73975,2.09853 -2.73975,2.44741 0,0.3489 -0.3104,0.44251 -0.68977,0.20804 -0.37938,-0.23446 -0.87401,0.0538 -1.09918,0.64058 -0.22517,0.58679 -0.67408,0.9033 -0.99759,0.70337 -0.3235,-0.19993 -1.16449,0.18711 -1.86888,0.86011 -0.70438,0.67299 -1.71735,1.31761 -2.25103,1.4325 -0.53368,0.11487 -1.3556,0.71317 -1.8265,1.32955 -0.47089,0.61637 -0.85617,0.89022 -0.85617,0.60856 0,-0.28165 -0.92466,0.0341 -2.05481,0.70171 -1.13014,0.66759 -2.05481,1.47376 -2.05481,1.79149 0,0.31772 -0.30822,0.38719 -0.68494,0.15437 -0.37671,-0.23283 -0.68493,-0.0455 -0.68493,0.4162 0,0.46174 -0.18106,0.65846 -0.40234,0.43717 -0.38835,-0.38834 -12.8289,5.61942 -14.42205,6.96468 -0.43076,0.36372 -0.97015,0.47436 -1.19864,0.24586 -0.22851,-0.22849 -0.41546,-0.0559 -0.41546,0.38364 0,0.4395 -0.23117,0.74853 -0.5137,0.68674 -1.05807,-0.23142 -4.28086,0.97079 -4.28086,1.59691 0,0.3581 -0.30822,0.46061 -0.68494,0.22779 -0.37671,-0.23283 -0.68493,-0.1625 -0.68493,0.15629 0,0.31878 -0.66577,0.62975 -1.47948,0.69104 -0.81372,0.0613 -1.66133,0.35805 -1.88358,0.65947 -0.22225,0.3014 -1.02054,0.65587 -1.77397,0.7877 -0.75343,0.13183 -1.52398,0.44005 -1.71234,0.68494 -0.18836,0.24489 -0.95891,0.55311 -1.71234,0.68494 -0.75343,0.13183 -1.55845,0.54343 -1.78892,0.91467 -0.23048,0.37123 -0.62089,0.62529 -0.86758,0.56456 -1.01752,-0.25049 -4.53534,0.83248 -4.53534,1.39621 0,0.33497 -0.46233,0.43161 -1.02741,0.21477 -0.56507,-0.21684 -1.0274,-0.0627 -1.0274,0.34247 0,0.4052 -0.46234,0.55931 -1.02741,0.34247 -0.56507,-0.21684 -1.0274,-0.0349 -1.0274,0.40439 0,0.43925 -0.28693,0.62131 -0.63761,0.40458 -0.35069,-0.21675 -0.83432,-0.0758 -1.07474,0.31321 -0.24042,0.389 -0.70275,0.54311 -1.0274,0.34247 -0.32465,-0.20065 -0.77556,-0.065 -1.00202,0.30138 -0.22644,0.36641 -0.86419,0.49257 -1.4172,0.28036 -0.553,-0.21221 -1.00547,-0.0543 -1.00547,0.35089 0,0.40519 -0.46233,0.55931 -1.0274,0.34247 -0.56507,-0.21685 -1.02741,-0.0627 -1.02741,0.34247 0,0.40519 -0.46233,0.5593 -1.0274,0.34246 -0.56508,-0.21684 -1.02802,-0.13011 -1.02877,0.19273 -6.9e-4,0.32285 -0.97922,0.65586 -2.17438,0.74003 -1.19515,0.0842 -2.35038,0.39239 -2.56715,0.68494 -0.21678,0.29254 -1.3188,0.63049 -2.44895,0.75099 -1.13014,0.1205 -2.15818,0.5077 -2.28454,0.86044 -0.12636,0.35273 -0.51164,0.46712 -0.85617,0.25418 -0.34454,-0.21294 -1.01172,-0.14595 -1.48261,0.14886 -0.47089,0.29481 -1.16439,0.55383 -1.54111,0.5756 -2.12537,0.1228 -6.54973,1.22414 -6.84646,1.70427 -0.19071,0.30857 -0.96287,0.39991 -1.71594,0.20299 -0.75305,-0.19693 -1.36918,-0.0427 -1.36918,0.34264 0,0.38539 -0.58166,0.5486 -1.29258,0.36268 -0.71091,-0.1859 -1.48178,-0.0319 -1.71302,0.34229 -0.23125,0.37417 -1.03659,0.51919 -1.78965,0.32226 -0.75305,-0.19693 -1.36919,-0.0566 -1.36919,0.31179 0,0.36841 -0.77055,0.52254 -1.71234,0.3425 -0.94179,-0.18003 -1.71234,-0.026 -1.71234,0.34247 0,0.36839 -0.77056,0.52251 -1.71234,0.34247 -0.94179,-0.18004 -1.71235,-0.026 -1.71235,0.34247 0,0.36839 -0.73442,0.52941 -1.63205,0.35782 -0.89763,-0.1716 -1.83217,0.0118 -2.07675,0.40753 -0.24458,0.39574 -0.89715,0.5459 -1.45016,0.33369 -0.55301,-0.21221 -1.54486,-0.16176 -2.20411,0.1121 -1.28636,0.53439 -4.31008,0.97305 -6.918,1.00362 -0.88536,0.0103 -1.93384,0.21918 -2.32998,0.464 -0.39613,0.24482 -1.67519,0.52835 -2.84235,0.63007 -2.27193,0.198 -6.00396,0.60671 -12.0537,1.32005 -5.63616,0.66458 -9.76029,0.78909 -36.1439,1.09125 -13.28663,0.15216 -24.99905,0.0475 -26.0276,-0.23257 z"
       id="path1871"
       transform="matrix(0.26458333,0,0,0.26458333,41.200728,83.009497)" />
    <path
       style="fill:#800080;stroke:none;stroke-width:0.684937"
       d="m 469.74177,202.47755 c 2.5799,-6.7231 7.721,-24.73002 11.85349,-41.51737 5.56421,-22.6034 7.62313,-30.1663 8.4502,-31.03959 0.85657,-0.90442 4.77945,14.41843 5.95211,23.24905 1.37418,10.34808 0.86943,23.65814 -1.29375,34.11595 l -1.54922,7.48963 -5.47949,1.99067 c -3.01373,1.09487 -8.36291,3.03976 -11.88709,4.32198 -4.35242,1.58358 -6.29169,2.0293 -6.04625,1.38968 z"
       id="path1947"
       transform="matrix(0.26458333,0,0,0.26458333,41.200728,83.009497)" />
  </g>
</svg>
