<?xml version="1.0" encoding="UTF-8" standalone="no"?>
<!-- Created with Inkscape (http://www.inkscape.org/) -->

<svg
   width="43.518978mm"
   height="43.51899mm"
   viewBox="0 0 43.518977 43.51899"
   version="1.1"
   id="svg5"
   inkscape:version="1.1 (c4e8f9e, 2021-05-24)"
   sodipodi:docname="ESMPOWCParityDominoesCheckerboardsIntro.svg"
   inkscape:export-filename="/Users/chriswright/desktop/bitmap.png"
   inkscape:export-xdpi="96"
   inkscape:export-ydpi="96"
   xmlns:inkscape="http://www.inkscape.org/namespaces/inkscape"
   xmlns:sodipodi="http://sodipodi.sourceforge.net/DTD/sodipodi-0.dtd"
   xmlns="http://www.w3.org/2000/svg"
   xmlns:svg="http://www.w3.org/2000/svg">
  <sodipodi:namedview
     id="namedview7"
     pagecolor="#ffffff"
     bordercolor="#666666"
     borderopacity="1.0"
     inkscape:pageshadow="2"
     inkscape:pageopacity="1"
     inkscape:pagecheckerboard="0"
     inkscape:document-units="mm"
     showgrid="true"
     inkscape:zoom="0.75554623"
     inkscape:cx="268.67979"
     inkscape:cy="254.78256"
     inkscape:window-width="1367"
     inkscape:window-height="997"
     inkscape:window-x="0"
     inkscape:window-y="25"
     inkscape:window-maximized="0"
     inkscape:current-layer="layer1"
     fit-margin-left="0.2"
     fit-margin-top="0.2"
     fit-margin-right="0.2"
     fit-margin-bottom="0.2">
    <inkscape:grid
       type="xygrid"
       id="grid824"
       originx="-15.142752"
       originy="-152.664" />
  </sodipodi:namedview>
  <defs
     id="defs2" />
  <g
     inkscape:label="Layer 1"
     inkscape:groupmode="layer"
     id="layer1"
     transform="translate(-15.142754,-152.66399)">
    <g
       id="g1133"
       transform="translate(-42.333335)">
      <path
         style="fill:none;stroke:#000000;stroke-width:0.661458;stroke-linecap:butt;stroke-linejoin:miter;stroke-miterlimit:4;stroke-dasharray:none;stroke-opacity:1"
         d="m 58.006818,153.19472 h 42.457522 v 42.45753 H 58.006818 Z"
         id="path1283" />
      <g
         id="g1383"
         style="stroke:#000000;stroke-width:0.659524;stroke-miterlimit:4;stroke-dasharray:none;stroke-opacity:1"
         transform="matrix(1.0029336,0,0,1.0029336,31.470864,-0.71380254)">
        <path
           style="fill:none;stroke:#000000;stroke-width:0.659524;stroke-linecap:butt;stroke-linejoin:miter;stroke-miterlimit:4;stroke-dasharray:none;stroke-opacity:1"
           d="m 37.041668,153.45833 v 42.33334"
           id="path1285" />
        <path
           style="fill:none;stroke:#000000;stroke-width:0.659524;stroke-linecap:butt;stroke-linejoin:miter;stroke-miterlimit:4;stroke-dasharray:none;stroke-opacity:1"
           d="m 47.625001,153.45833 v 42.33334"
           id="path1287" />
        <path
           style="fill:none;stroke:#000000;stroke-width:0.659524;stroke-linecap:butt;stroke-linejoin:miter;stroke-miterlimit:4;stroke-dasharray:none;stroke-opacity:1"
           d="m 58.208333,153.45833 v 42.33334"
           id="path1289" />
        <path
           style="fill:none;stroke:#000000;stroke-width:0.659524;stroke-linecap:butt;stroke-linejoin:miter;stroke-miterlimit:4;stroke-dasharray:none;stroke-opacity:1"
           d="M 26.458334,164.04167 H 68.791667"
           id="path1291" />
        <path
           style="fill:none;stroke:#000000;stroke-width:0.659524;stroke-linecap:butt;stroke-linejoin:miter;stroke-miterlimit:4;stroke-dasharray:none;stroke-opacity:1"
           d="M 26.458334,174.625 H 68.791667"
           id="path1293" />
        <path
           style="fill:none;stroke:#000000;stroke-width:0.659524;stroke-linecap:butt;stroke-linejoin:miter;stroke-miterlimit:4;stroke-dasharray:none;stroke-opacity:1"
           d="M 26.458334,185.20833 H 68.791667"
           id="path1295" />
      </g>
      <g
         id="g3617"
         style="fill:#b3b3b3"
         transform="translate(31.750001)">
        <path
           style="fill:#b3b3b3;stroke:none;stroke-width:1.32355"
           d="m 45.662328,244.19419 v -19.19141 h 19.191414 19.191413 v 19.19141 19.19141 H 64.853742 45.662328 Z"
           id="path1862"
           transform="matrix(0.26458333,0,0,0.26458333,25.127604,93.91927)" />
        <path
           style="fill:#b3b3b3;stroke:none;stroke-width:1.32355"
           d="m 125.07507,244.19419 v -19.19141 h 19.19142 19.19141 v 19.19141 19.19141 h -19.19141 -19.19142 z"
           id="path2086"
           transform="matrix(0.26458333,0,0,0.26458333,25.127604,93.91927)" />
        <path
           style="fill:#b3b3b3;stroke:none;stroke-width:1.32355"
           d="M 4.9269565,284.23145 5.294183,265.37092 24.15471,265.0037 43.015237,264.63647 v 19.22775 19.22776 H 23.787483 4.55973 Z"
           id="path2125"
           transform="matrix(0.26458333,0,0,0.26458333,25.127604,93.91927)" />
        <path
           style="fill:#b3b3b3;stroke:none;stroke-width:1.32355"
           d="m 85.368701,283.90056 v -19.19141 h 19.191409 19.19142 v 19.19141 19.19142 H 104.56011 85.368701 Z"
           id="path2164"
           transform="matrix(0.26458333,0,0,0.26458333,25.127604,93.91927)" />
        <path
           style="fill:#b3b3b3;stroke:none;stroke-width:1.32355"
           d="m 45.662328,324.96682 v -19.22775 h 19.227754 19.227753 l -0.367226,18.86052 -0.367227,18.86053 -18.860527,0.36723 -18.860527,0.36722 z"
           id="path2203"
           transform="matrix(0.26458333,0,0,0.26458333,25.127604,93.91927)" />
        <path
           style="fill:#b3b3b3;stroke:none;stroke-width:1.32355"
           d="m 125.95744,343.23953 c -0.4853,-0.4853 -0.88237,-9.12143 -0.88237,-19.19141 v -18.30905 h 19.19142 19.19141 v 19.19141 19.19141 h -18.30905 c -10.06998,0 -18.70611,-0.39706 -19.19141,-0.88236 z"
           id="path2242"
           transform="matrix(0.26458333,0,0,0.26458333,25.127604,93.91927)" />
        <path
           style="fill:#b3b3b3;stroke:none;stroke-width:1.32355"
           d="M 5.514774,382.9459 C 5.0294738,382.4606 4.6324101,373.82447 4.6324101,363.75449 V 345.44544 H 23.823823 43.015237 v 19.19141 19.19142 H 24.706188 c -10.069978,0 -18.706114,-0.39707 -19.191414,-0.88237 z"
           id="path2281"
           transform="matrix(0.26458333,0,0,0.26458333,25.127604,93.91927)" />
        <path
           style="fill:#b3b3b3;stroke:none;stroke-width:1.32355"
           d="m 85.368701,364.63685 v -19.19141 h 19.191409 19.19142 v 19.19141 19.19142 H 104.56011 85.368701 Z"
           id="path2320"
           transform="matrix(0.26458333,0,0,0.26458333,25.127604,93.91927)" />
      </g>
    </g>
  </g>
</svg>
