<?xml version="1.0" encoding="UTF-8" standalone="no"?>
<!-- Created with Inkscape (http://www.inkscape.org/) -->

<svg
   width="108.01888mm"
   height="49.150028mm"
   viewBox="0 0 108.01887 49.15003"
   version="1.1"
   id="svg5"
   sodipodi:docname="LadybugsIntro 2.svg"
   inkscape:version="1.1 (c4e8f9e, 2021-05-24)"
   inkscape:export-filename="/Users/chriswright/desktop/bitmap.png"
   inkscape:export-xdpi="96"
   inkscape:export-ydpi="96"
   xmlns:inkscape="http://www.inkscape.org/namespaces/inkscape"
   xmlns:sodipodi="http://sodipodi.sourceforge.net/DTD/sodipodi-0.dtd"
   xmlns="http://www.w3.org/2000/svg"
   xmlns:svg="http://www.w3.org/2000/svg">
  <sodipodi:namedview
     id="namedview7"
     pagecolor="#ffffff"
     bordercolor="#666666"
     borderopacity="1.0"
     inkscape:pageshadow="2"
     inkscape:pageopacity="1"
     inkscape:pagecheckerboard="0"
     inkscape:document-units="mm"
     showgrid="false"
     inkscape:zoom="0.67081229"
     inkscape:cx="270.56749"
     inkscape:cy="-8.94438"
     inkscape:window-width="1312"
     inkscape:window-height="998"
     inkscape:window-x="352"
     inkscape:window-y="25"
     inkscape:window-maximized="0"
     inkscape:current-layer="layer1"
     fit-margin-left="1"
     fit-margin-top="1"
     fit-margin-right="1"
     fit-margin-bottom="1" />
  <defs
     id="defs2" />
  <g
     inkscape:label="Layer 1"
     inkscape:groupmode="layer"
     id="layer1"
     transform="translate(-54.306191,-130.49581)">
    <path
       d="m 114.74884,175.31207 c -0.42841,-5.13709 1.30886,-12.30452 3.91955,-16.17085 2.35924,-3.49391 4.7629,-5.61645 8.59047,-7.58574 3.19803,-1.64539 5.82938,-2.40866 11.32939,-3.28628 5.33746,-0.85167 10.80789,-2.85922 14.00187,-5.1384 1.81417,-1.29455 2.83891,-2.47787 3.88829,-4.48998 l 0.69224,-1.32733 0.55525,1.25523 c 0.66383,1.50072 2.27157,6.64996 2.65579,8.50596 0.15062,0.72761 0.42247,2.02761 0.6041,2.88885 0.4538,2.15183 0.45194,9.67722 -0.003,11.53094 -1.05556,4.30255 -2.51512,7.02816 -5.135,9.58919 -2.49712,2.44105 -6.35464,4.5294 -10.17315,5.50749 -2.63404,0.67471 -8.64134,0.73154 -11.98133,0.11337 -5.88842,-1.08984 -7.08396,-1.22769 -9.65729,-1.11352 -19.59129,1.95522 0,0 -9.28718,-0.27893 z m 4.01265,-2.50666 c 3.30785,-5.37202 8.7287,-8.37935 17.04863,-9.45811 7.95772,-1.0318 13.2999,-3.84927 16.55668,-8.73199 0.98369,-1.47482 1.86718,-3.31783 2.09275,-4.36563 0.16287,-0.75652 0.15184,-0.76893 -0.23502,-0.26458 -0.22325,0.29104 -0.4097,0.62317 -0.41433,0.73805 -0.0124,0.30824 -1.60722,2.61591 -2.52465,3.65316 -3.44169,3.89117 -7.90795,5.98223 -14.94626,6.99764 -6.4853,0.93565 -10.25931,2.407 -13.71155,5.34565 -2.13882,1.82059 -4.24267,4.86952 -4.92971,7.14414 -0.29303,0.97015 -0.0156,0.69401 1.06346,-1.05833 z"
       style="fill:#008000;stroke-width:0.0700042;opacity:0.82330097"
       id="path1291"
       sodipodi:nodetypes="cssssscssscssscccsssssssssc" />
    <path
       d="m 90.795476,174.27973 c -1.046107,-0.16712 -4.706324,-0.25646 -8.835996,-0.21568 -6.111451,0.0604 -7.309956,0.005 -9.001861,-0.41623 -4.256132,-1.05951 -8.064135,-3.15051 -10.858913,-5.9627 -5.932781,-5.96974 -8.186127,-14.5382 -5.936025,-22.57202 1.149445,-4.10401 1.458606,-5.56054 1.599433,-7.53535 l 0.154892,-2.17208 1.087856,0.93619 c 2.373998,2.04301 6.974933,3.68108 12.200353,4.34368 10.010656,1.26937 15.831857,3.23965 20.814784,7.04509 6.031265,4.60605 8.394441,12.06995 8.106261,25.60292 0.54117,10.79943 -3.382011,1.95763 -9.330784,0.94618 z m 3.795966,-5.44999 c -0.493154,-0.82179 -1.923891,-2.58335 -3.179413,-3.91458 -3.514556,-3.72648 -6.382536,-5.62305 -11.273107,-7.45478 -4.560853,-1.70824 -7.802266,-3.55411 -11.050374,-6.2928 -1.993241,-1.68063 -4.689369,-4.45699 -5.755934,-5.92721 -1.043614,-1.43858 -1.305099,-1.23252 -0.328363,0.25877 2.929374,4.47257 8.047453,9.06317 12.698881,11.3901 0.727604,0.36399 2.513542,1.10327 3.96875,1.64284 3.058932,1.13421 6.339813,2.84676 8.370922,4.36944 1.904389,1.42769 4.975788,4.49166 6.224058,6.20901 0.55849,0.76837 1.061739,1.3557 1.11833,1.3052 0.05659,-0.0505 -0.300593,-0.7642 -0.79375,-1.58599 z M 94.231204,145.1408 c -1.132858,-11.39313 -2.144117,-18.90971 0,0 z"
       style="fill:#008000;stroke-width:0.0700042;opacity:0.82330097"
       id="path1338"
       sodipodi:nodetypes="cccssscsssccsssssssssssscc" />
    <text
       xml:space="preserve"
       style="font-size:16.9333px;line-height:1.25;font-family:Chalkboard;-inkscape-font-specification:Chalkboard;letter-spacing:0px;word-spacing:0px;stroke-width:0.264583"
       x="76.787407"
       y="145.19637"
       id="text1932"><tspan
         sodipodi:role="line"
         id="tspan1930"
         style="font-size:16.9333px;fill:#ff0000;stroke-width:0.264583"
         x="76.787407"
         y="145.19637">1</tspan></text>
  </g>
</svg>
