<?xml version="1.0" encoding="UTF-8" standalone="no"?>
<!-- Created with Inkscape (http://www.inkscape.org/) -->

<svg
   width="133.34753mm"
   height="87.988968mm"
   viewBox="0 0 133.34753 87.988968"
   version="1.1"
   id="svg5"
   inkscape:version="1.1 (c4e8f9e, 2021-05-24)"
   sodipodi:docname="MapColoringStraightLinesIntro 2.svg"
   inkscape:export-filename="/Users/chriswright/desktop/bitmap.png"
   inkscape:export-xdpi="96"
   inkscape:export-ydpi="96"
   xmlns:inkscape="http://www.inkscape.org/namespaces/inkscape"
   xmlns:sodipodi="http://sodipodi.sourceforge.net/DTD/sodipodi-0.dtd"
   xmlns="http://www.w3.org/2000/svg"
   xmlns:svg="http://www.w3.org/2000/svg">
  <sodipodi:namedview
     id="namedview7"
     pagecolor="#ffffff"
     bordercolor="#666666"
     borderopacity="1.0"
     inkscape:pageshadow="2"
     inkscape:pageopacity="1"
     inkscape:pagecheckerboard="0"
     inkscape:document-units="mm"
     showgrid="true"
     inkscape:snap-global="true"
     inkscape:zoom="0.94867184"
     inkscape:cx="240.86306"
     inkscape:cy="246.66064"
     inkscape:window-width="1312"
     inkscape:window-height="998"
     inkscape:window-x="0"
     inkscape:window-y="25"
     inkscape:window-maximized="0"
     inkscape:current-layer="layer1"
     fit-margin-left="1"
     fit-margin-top="1"
     fit-margin-right="1"
     fit-margin-bottom="1">
    <inkscape:grid
       type="xygrid"
       id="grid824"
       originx="-41.200726"
       originy="-83.009496" />
  </sodipodi:namedview>
  <defs
     id="defs2">
    <inkscape:path-effect
       effect="skeletal"
       id="path-effect1179"
       is_visible="true"
       lpeversion="1"
       pattern="M 0,4.9921382 C 0,2.2364779 2.2364779,0 4.9921382,0 c 2.7556604,0 4.9921383,2.2364779 4.9921383,4.9921382 0,2.7556604 -2.2364779,4.9921383 -4.9921383,4.9921383 C 2.2364779,9.9842765 0,7.7477986 0,4.9921382 Z"
       copytype="single_stretched"
       prop_scale="1"
       scale_y_rel="false"
       spacing="0"
       normal_offset="0"
       tang_offset="0"
       prop_units="false"
       vertical_pattern="false"
       hide_knot="false"
       fuse_tolerance="0" />
    <inkscape:path-effect
       effect="skeletal"
       id="path-effect1175"
       is_visible="true"
       lpeversion="1"
       pattern="M 0,4.9921382 C 0,2.2364779 2.2364779,0 4.9921382,0 c 2.7556604,0 4.9921383,2.2364779 4.9921383,4.9921382 0,2.7556604 -2.2364779,4.9921383 -4.9921383,4.9921383 C 2.2364779,9.9842765 0,7.7477986 0,4.9921382 Z"
       copytype="single_stretched"
       prop_scale="1"
       scale_y_rel="false"
       spacing="0"
       normal_offset="0"
       tang_offset="0"
       prop_units="false"
       vertical_pattern="false"
       hide_knot="false"
       fuse_tolerance="0" />
    <inkscape:path-effect
       effect="simplify"
       id="path-effect1173"
       is_visible="true"
       lpeversion="1"
       steps="1"
       threshold="0.0363636"
       smooth_angles="360"
       helper_size="0"
       simplify_individual_paths="false"
       simplify_just_coalesce="false" />
  </defs>
  <g
     inkscape:label="Layer 1"
     inkscape:groupmode="layer"
     id="layer1"
     transform="translate(-41.200728,-83.009497)">
    <ellipse
       style="fill:none;fill-rule:evenodd;stroke:#000000;stroke-width:0.79375;stroke-miterlimit:4;stroke-dasharray:none;stroke-opacity:1"
       id="path1722"
       cx="107.8745"
       cy="127.00398"
       rx="65.276894"
       ry="42.59761" />
    <path
       style="fill:none;stroke:#000000;stroke-width:0.79375;stroke-linecap:butt;stroke-linejoin:miter;stroke-miterlimit:4;stroke-dasharray:none;stroke-opacity:1"
       d="M 140.22916,89.958332 84.666666,166.6875"
       id="path1903" />
    <path
       style="fill:none;stroke:#000000;stroke-width:0.79375;stroke-linecap:butt;stroke-linejoin:miter;stroke-miterlimit:4;stroke-dasharray:none;stroke-opacity:1"
       d="M 74.083332,89.958332 171.97916,134.9375"
       id="path1905" />
    <path
       style="fill:none;stroke:#000000;stroke-width:0.79375;stroke-linecap:butt;stroke-linejoin:miter;stroke-miterlimit:4;stroke-dasharray:none;stroke-opacity:1"
       d="M 47.624999,142.875 171.97916,119.0625"
       id="path1907" />
    <ellipse
       style="fill:none;fill-rule:evenodd;stroke-width:0.79393724;stroke:#000000;stroke-opacity:1;stroke-miterlimit:4;stroke-dasharray:none"
       id="path1262"
       cx="124.51365"
       cy="74.842758"
       rx="18.06938"
       ry="30.082087"
       transform="matrix(0.91594672,0.4012999,-0.37298352,0.92783797,0,0)" />
    <path
       style="fill:none;stroke:#000000;stroke-width:0.79375;stroke-linecap:butt;stroke-linejoin:miter;stroke-opacity:1;stroke-miterlimit:4;stroke-dasharray:none"
       d="m 52.916669,103.1875 c 15.037196,29.03865 53.414951,5.31344 66.576881,18.47538 10.31142,10.31142 17.79666,40.62586 20.73562,42.37879"
       id="path1626" />
    <path
       style="fill:#a0a0a0;stroke:none;stroke-width:0.745365"
       d="m 99.962829,206.27178 c -2.781448,-9.56784 -3.515301,-14.83007 -3.922852,-28.12955 -0.322546,-10.5255 -0.132373,-15.99448 0.803474,-23.10631 1.497198,-11.37773 4.869629,-26.08778 5.980899,-26.08778 0.44856,0 4.13823,0.84287 8.19925,1.87303 4.06103,1.03016 11.43245,2.43747 16.38094,3.12735 13.06791,1.82182 42.73385,1.6129 68.25377,-0.48068 10.8637,-0.89122 25.53984,-1.82043 32.61367,-2.06491 l 12.86149,-0.44451 -0.47785,2.53535 c -0.90468,4.80005 -5.43085,19.95081 -8.14414,27.26145 -3.09027,8.3264 -11.0308,25.01842 -12.43831,26.14699 -0.51472,0.4127 -26.76276,5.67951 -58.32897,11.70402 -31.5662,6.0245 -58.11575,11.1244 -58.99899,11.33311 -1.40013,0.33085 -1.75662,-0.13905 -2.782381,-3.66756 z"
       id="path1940"
       transform="matrix(0.26458333,0,0,0.26458333,41.200728,83.009497)" />
    <path
       style="fill:#a0a0a0;stroke:none;stroke-width:0.745365"
       d="M 90.113111,120.46024 C 85.645482,118.2516 79.51296,114.6891 76.485285,112.54358 66.590671,105.53192 55.010209,92.570161 48.764826,81.516685 l -1.741514,-3.082242 4.363304,-3.998725 C 59.222878,67.254219 68.390631,60.214617 78.636007,53.511847 88.896096,46.799451 109.96114,35.722954 120.80166,31.340154 l 6.01546,-2.432035 14.36249,6.563035 14.36249,6.563036 -2.10277,1.530196 c -20.13036,14.649009 -40.84439,45.487893 -50.96772,75.880354 -1.20156,3.60732 -2.03805,5.03121 -2.955685,5.03121 -0.703918,0 -4.935185,-1.80707 -9.402814,-4.01571 z"
       id="path1979"
       transform="matrix(0.26458333,0,0,0.26458333,41.200728,83.009497)" />
    <path
       style="fill:#a0a0a0;stroke:none;stroke-width:0.745365"
       d="m 284.03448,136.28493 c -7.65524,-3.90941 -17.323,-6.31989 -29.65767,-7.39461 -5.4434,-0.47429 -9.95326,-0.90713 -10.02191,-0.96187 -0.0686,-0.0547 0.24172,-1.77633 0.68971,-3.82576 0.45593,-2.08582 0.83902,-11.80698 0.87017,-22.08177 l 0.0557,-18.35553 3.72682,1.673455 c 8.45584,3.796921 59.64609,27.375775 59.84848,27.566935 0.30598,0.28901 -18.42519,26.07111 -19.07233,26.25168 -0.28954,0.0808 -3.18706,-1.21185 -6.43894,-2.87253 z"
       id="path2018"
       transform="matrix(0.26458333,0,0,0.26458333,41.200728,83.009497)" />
    <path
       style="fill:#a0a0a0;stroke:none;stroke-width:0.745365"
       d="m 200.984,60.101594 c -21.46294,-9.911453 -38.99296,-18.348959 -38.9556,-18.750013 0.0374,-0.401054 2.62582,-2.119869 5.75212,-3.819589 31.11706,-16.917862 60.51188,-4.582615 71.3076,29.92354 2.72331,8.704441 3.10004,10.821925 1.91034,10.737339 -0.54502,-0.03875 -18.55152,-8.179824 -40.01446,-18.091277 z"
       id="path2096"
       transform="matrix(0.26458333,0,0,0.26458333,41.200728,83.009497)" />
    <path
       style="fill:#a0a0a0;stroke:none;stroke-width:0.745365"
       d="M 152.47739,312.19579 C 97.887097,296.06047 54.658555,268.48624 29.776979,233.92877 c -2.338579,-3.24801 -4.078919,-6.0785 -3.867423,-6.29 0.211496,-0.2115 16.102586,-3.38323 35.313534,-7.04829 19.210947,-3.66506 35.68494,-6.83973 36.608873,-7.05483 1.4514,-0.33788 1.931743,0.17844 3.531707,3.79624 4.92208,11.12971 14.21643,21.27946 23.69491,25.87566 7.04381,3.41561 12.101,4.51844 20.28759,4.42414 16.59517,-0.19117 33.69535,-8.48083 50.11184,-24.29274 8.93573,-8.60665 13.26747,-13.81364 21.07984,-25.33911 l 5.59956,-8.26094 18.25212,-3.49328 c 10.03867,-1.9213 18.34065,-3.40782 18.44885,-3.30339 0.31052,0.2997 -95.16496,131.96035 -95.78938,132.09354 -0.30769,0.0657 -5.06491,-1.21237 -10.57161,-2.83998 z"
       id="path2135"
       transform="matrix(0.26458333,0,0,0.26458333,41.200728,83.009497)" />
    <path
       style="fill:#a0a0a0;stroke:none;stroke-width:0.745365"
       d="m 266.46799,177.77129 c 0,-0.32061 23.43594,-32.90742 24.39176,-33.91585 0.73394,-0.77433 12.19503,12.16366 16.57259,18.70817 2.50983,3.75225 4.43803,6.94758 4.28488,7.10072 -0.36255,0.36256 -42.56424,8.4779 -44.08704,8.4779 -0.63921,0 -1.16219,-0.16692 -1.16219,-0.37094 z"
       id="path2174"
       transform="matrix(0.26458333,0,0,0.26458333,41.200728,83.009497)" />
    <path
       style="fill:#a0a0a0;stroke:none;stroke-width:0.745365"
       d="m 372.78888,302.51118 c -2.58636,-3.95018 -7.50746,-15.78803 -16.84262,-40.51538 -15.79366,-41.83491 -22.65272,-58.03467 -33.42697,-78.94797 -3.29083,-6.38763 -5.70039,-11.61388 -5.3546,-11.61388 0.3458,0 19.01168,-3.52185 41.47973,-7.82633 22.46806,-4.30449 41.64291,-7.82634 42.61078,-7.82634 1.64534,0 89.07501,39.64559 90.67422,41.11685 1.90049,1.74844 -6.69618,20.52095 -15.19526,33.18179 -18.73502,27.90905 -48.31658,51.04866 -87.49251,68.43936 -13.55706,6.01815 -14.91101,6.34665 -16.45277,3.9919 z"
       id="path2213"
       transform="matrix(0.26458333,0,0,0.26458333,41.200728,83.009497)" />
    <path
       style="fill:#a0a0a0;stroke:none;stroke-width:0.745365"
       d="m 357.61475,132.08418 c -23.8654,-10.94871 -43.39416,-20.07446 -43.39726,-20.27943 -0.008,-0.50151 58.58504,-81.311574 59.93519,-82.66173 0.92024,-0.920234 1.99313,-0.684543 7.99535,1.756407 9.46691,3.849943 28.52737,13.428362 37.11978,18.653731 27.35432,16.635198 48.69563,37.310991 62.13748,60.199762 4.18073,7.11895 9.8346,19.60336 10.59129,23.38681 l 0.43034,2.15171 -43.84686,8.3895 c -24.11578,4.61423 -44.6854,8.37161 -45.71028,8.34974 -1.02488,-0.0219 -21.38964,-8.99779 -45.25503,-19.9465 z"
       id="path2252"
       transform="matrix(0.26458333,0,0,0.26458333,41.200728,83.009497)" />
  </g>
</svg>
