<?xml version="1.0" encoding="UTF-8" standalone="no"?>
<!-- Created with Inkscape (http://www.inkscape.org/) -->

<svg
   width="80.574997mm"
   height="22.36668mm"
   viewBox="0 0 80.574996 22.36668"
   version="1.1"
   id="svg5"
   sodipodi:docname="ESMRoutineFractionsTriangles7.svg"
   inkscape:version="1.1 (c4e8f9e, 2021-05-24)"
   xmlns:inkscape="http://www.inkscape.org/namespaces/inkscape"
   xmlns:sodipodi="http://sodipodi.sourceforge.net/DTD/sodipodi-0.dtd"
   xmlns="http://www.w3.org/2000/svg"
   xmlns:svg="http://www.w3.org/2000/svg">
  <sodipodi:namedview
     id="namedview7"
     pagecolor="#ffffff"
     bordercolor="#666666"
     borderopacity="1.0"
     inkscape:pageshadow="2"
     inkscape:pageopacity="1"
     inkscape:pagecheckerboard="0"
     inkscape:document-units="mm"
     showgrid="true"
     inkscape:zoom="0.47433593"
     inkscape:cx="107.51874"
     inkscape:cy="-220.308"
     inkscape:window-width="1173"
     inkscape:window-height="997"
     inkscape:window-x="0"
     inkscape:window-y="25"
     inkscape:window-maximized="0"
     inkscape:current-layer="layer1"
     fit-margin-left="0.1"
     fit-margin-top="0.1"
     fit-margin-right="0.1"
     fit-margin-bottom="0.1">
    <inkscape:grid
       type="xygrid"
       id="grid824"
       originx="-25.85833"
       originy="-570.89995" />
  </sodipodi:namedview>
  <defs
     id="defs2" />
  <g
     inkscape:label="Layer 1"
     inkscape:groupmode="layer"
     id="layer1"
     transform="translate(-25.858333,-570.9)">
    <path
       style="fill:none;stroke:#000000;stroke-width:1;stroke-linecap:butt;stroke-linejoin:miter;stroke-miterlimit:4;stroke-dasharray:none;stroke-opacity:1"
       d="m 26.458333,571.5 h 31.749999 v 21.16667 H 26.458333 Z"
       id="path75133" />
    <path
       style="fill:none;stroke:#000000;stroke-width:0.264583px;stroke-linecap:butt;stroke-linejoin:miter;stroke-opacity:1"
       d="m 37.041666,571.5 v 21.16667"
       id="path75248" />
    <path
       style="fill:none;stroke:#000000;stroke-width:0.264583px;stroke-linecap:butt;stroke-linejoin:miter;stroke-opacity:1"
       d="m 47.624998,571.5 v 21.16667"
       id="path75250" />
    <path
       style="fill:none;stroke:#000000;stroke-width:0.264583px;stroke-linecap:butt;stroke-linejoin:miter;stroke-opacity:1"
       d="M 26.458333,582.08333 H 58.208332"
       id="path75252" />
    <path
       style="fill:none;stroke:#000000;stroke-width:1;stroke-linecap:butt;stroke-linejoin:miter;stroke-miterlimit:4;stroke-dasharray:none;stroke-opacity:1"
       d="m 74.083333,571.50001 h 31.749997 v 21.16667 H 74.083333 Z"
       id="path75133-8" />
    <path
       style="fill:none;stroke:#000000;stroke-width:0.264583px;stroke-linecap:butt;stroke-linejoin:miter;stroke-opacity:1"
       d="m 84.666666,571.50001 v 21.16667"
       id="path75248-5" />
    <path
       style="fill:none;stroke:#000000;stroke-width:0.264583px;stroke-linecap:butt;stroke-linejoin:miter;stroke-opacity:1"
       d="m 95.249998,571.50001 v 21.16667"
       id="path75250-5" />
    <path
       style="fill:none;stroke:#000000;stroke-width:0.264583px;stroke-linecap:butt;stroke-linejoin:miter;stroke-opacity:1"
       d="M 74.083333,582.08334 H 105.83333"
       id="path75252-9" />
    <path
       style="fill:none;stroke:#000000;stroke-width:0.264583px;stroke-linecap:butt;stroke-linejoin:miter;stroke-opacity:1"
       d="m 47.624998,571.5 10.583334,10.58333"
       id="path75472" />
    <path
       style="fill:none;stroke:#000000;stroke-width:0.264583px;stroke-linecap:butt;stroke-linejoin:miter;stroke-opacity:1"
       d="m 37.041666,571.5 21.166666,21.16667"
       id="path75474" />
    <path
       style="fill:none;stroke:#000000;stroke-width:0.264583px;stroke-linecap:butt;stroke-linejoin:miter;stroke-opacity:1"
       d="m 26.458333,571.5 21.166665,21.16667"
       id="path75476" />
    <path
       style="fill:none;stroke:#000000;stroke-width:0.264583px;stroke-linecap:butt;stroke-linejoin:miter;stroke-opacity:1"
       d="m 26.458333,582.08333 10.583333,10.58334"
       id="path75478" />
    <path
       style="fill:none;stroke:#000000;stroke-width:0.264583px;stroke-linecap:butt;stroke-linejoin:miter;stroke-opacity:1"
       d="m 95.249998,571.5 10.583332,10.58333"
       id="path75513" />
    <path
       style="fill:none;stroke:#000000;stroke-width:0.264583px;stroke-linecap:butt;stroke-linejoin:miter;stroke-opacity:1"
       d="m 84.666665,571.5 21.166665,21.16667"
       id="path75515" />
    <path
       style="fill:none;stroke:#000000;stroke-width:0.264583px;stroke-linecap:butt;stroke-linejoin:miter;stroke-opacity:1"
       d="m 74.083331,571.5 21.166667,21.16667"
       id="path75517" />
    <path
       style="fill:none;stroke:#000000;stroke-width:0.264583px;stroke-linecap:butt;stroke-linejoin:miter;stroke-opacity:1"
       d="m 74.083331,582.08333 10.583334,10.58334"
       id="path75519" />
    <path
       style="fill:#ffce00;fill-opacity:1;stroke:none;stroke-width:0.527053"
       d="m 44.535948,1843.7647 v -18.5758 l 18.446842,18.4412 c 10.145763,10.1427 18.446842,18.5018 18.446842,18.5758 0,0.074 -8.301079,0.1346 -18.446842,0.1346 H 44.535948 Z"
       id="path76074"
       transform="matrix(0.26458333,0,0,0.26458333,15.174996,89.258332)" />
    <path
       style="fill:#ff0000;fill-opacity:1;stroke:none;stroke-width:0.527053"
       d="m 63.246316,1842.8395 -18.441195,-18.4468 h 18.839308 18.839309 v 18.4468 c 0,10.1458 -0.179151,18.4469 -0.398113,18.4469 -0.218963,0 -8.696651,-8.3011 -18.839309,-18.4469 z"
       id="path76113"
       transform="matrix(0.26458333,0,0,0.26458333,15.174996,89.258332)" />
    <path
       style="fill:#ffce00;fill-opacity:1;stroke:none;stroke-width:0.527053"
       d="m 103.30232,1842.8395 -18.441198,-18.4468 h 18.575778 18.57579 v 18.4468 c 0,10.1458 -0.0606,18.4469 -0.13459,18.4469 -0.074,0 -8.43313,-8.3011 -18.57578,-18.4469 z"
       id="path76152"
       transform="matrix(0.26458333,0,0,0.26458333,15.174996,89.258332)" />
    <path
       style="fill:#ff0000;fill-opacity:1;stroke:none;stroke-width:0.527053"
       d="m 83.01079,1843.3666 c 0,-10.4356 0.179116,-18.9739 0.398035,-18.9739 0.218919,0 8.933816,8.5383 19.366435,18.9739 l 18.96841,18.9739 H 102.37723 83.01079 Z"
       id="path76191"
       transform="matrix(0.26458333,0,0,0.26458333,15.174996,89.258332)" />
    <path
       style="fill:#ffce00;fill-opacity:1;stroke:none;stroke-width:0.527053"
       d="m 142.83126,1842.3125 -17.91397,-17.9198 h 18.04864 18.04865 v 17.9198 c 0,9.8559 -0.0606,17.9198 -0.13467,17.9198 -0.0741,0 -8.19596,-8.0639 -18.04865,-17.9198 z"
       id="path76230"
       transform="matrix(0.26458333,0,0,0.26458333,15.174996,89.258332)" />
    <path
       style="fill:#0087ff;fill-opacity:1;stroke:none;stroke-width:0.527053"
       d="m 123.06679,1843.3666 c 0,-10.4356 0.17913,-18.9739 0.39807,-18.9739 0.51672,0 37.54972,37.0385 37.54972,37.5552 0,0.2159 -8.53825,0.3926 -18.97389,0.3926 h -18.9739 z"
       id="path76269"
       transform="matrix(0.26458333,0,0,0.26458333,15.174996,89.258332)" />
    <path
       style="fill:#0087ff;fill-opacity:1;stroke:none;stroke-width:0.527053"
       d="m 142.43597,1881.9735 c -10.07329,-10.0765 -18.31507,-18.4976 -18.31507,-18.7135 0,-0.2158 8.18993,-0.3925 18.19985,-0.3925 14.1212,0 18.2568,0.1484 18.45392,0.6621 0.13973,0.3641 0.19158,8.7852 0.11522,18.7135 l -0.13884,18.0514 z"
       id="path76308"
       transform="matrix(0.26458333,0,0,0.26458333,15.174996,89.258332)" />
    <path
       style="fill:#ffce00;fill-opacity:1;stroke:none;stroke-width:0.527053"
       d="m 123.06679,1882.2395 v -18.5757 l 18.44684,18.4412 c 10.14577,10.1426 18.44684,18.5017 18.44684,18.5757 0,0.074 -8.30107,0.1346 -18.44684,0.1346 h -18.44684 z"
       id="path76347"
       transform="matrix(0.26458333,0,0,0.26458333,15.174996,89.258332)" />
    <path
       style="fill:#ff0000;fill-opacity:1;stroke:none;stroke-width:0.527053"
       d="m 102.64072,1882.234 c -10.216705,-10.2198 -18.575825,-18.758 -18.575825,-18.9739 0,-0.2159 8.538253,-0.3926 18.973895,-0.3926 h 18.9739 v 18.9739 c 0,10.4357 -0.17914,18.9739 -0.39808,18.9739 -0.21894,0 -8.75719,-8.3616 -18.97389,-18.5813 z"
       id="path76386"
       transform="matrix(0.26458333,0,0,0.26458333,15.174996,89.258332)" />
    <path
       style="fill:#ffce00;fill-opacity:1;stroke:none;stroke-width:0.527053"
       d="m 83.01079,1882.2395 v -18.5757 l 18.44684,18.4412 c 10.14577,10.1426 18.44684,18.5017 18.44684,18.5757 0,0.074 -8.30107,0.1346 -18.44684,0.1346 H 83.01079 Z"
       id="path76425"
       transform="matrix(0.26458333,0,0,0.26458333,15.174996,89.258332)" />
    <path
       style="fill:#ffce00;fill-opacity:1;stroke:none;stroke-width:0.527053"
       d="m 62.848203,1882.4975 c -10.07174,-10.0749 -18.312255,-18.6161 -18.312255,-18.9806 0,-0.5224 3.987667,-0.6334 18.842131,-0.5243 l 18.842132,0.1385 0.138421,18.8421 c 0.109737,14.9377 -6.4e-5,18.8421 -0.529877,18.8421 -0.367563,0 -8.908811,-8.243 -18.980552,-18.3178 z"
       id="path76464"
       transform="matrix(0.26458333,0,0,0.26458333,15.174996,89.258332)" />
    <path
       style="fill:#ff0000;fill-opacity:1;stroke:none;stroke-width:0.527053"
       d="m 44.535948,1883.0303 v -17.7851 l 17.656263,17.6503 c 9.710945,9.7077 17.656263,17.711 17.656263,17.7851 0,0.074 -7.945318,0.1347 -17.656263,0.1347 H 44.535948 Z"
       id="path76503"
       transform="matrix(0.26458333,0,0,0.26458333,15.174996,89.258332)" />
    <path
       style="fill:#a00bf7;fill-opacity:1;stroke:none;stroke-width:0.527053"
       d="m 243.49832,1842.8395 -18.4412,-18.4468 h 18.57578 18.57579 v 18.4468 c 0,10.1458 -0.0606,18.4469 -0.13459,18.4469 -0.074,0 -8.43312,-8.3011 -18.57578,-18.4469 z"
       id="path76542"
       transform="matrix(0.26458333,0,0,0.26458333,15.174996,89.258332)" />
    <path
       style="fill:#ffce00;fill-opacity:1;stroke:none;stroke-width:0.527053"
       d="m 224.2609,1843.8936 c 0,-10.1457 0.17915,-18.4468 0.39811,-18.4468 0.21896,0 8.69665,8.3011 18.83931,18.4468 l 18.44119,18.4469 H 243.1002 224.2609 Z"
       id="path76581"
       transform="matrix(0.26458333,0,0,0.26458333,15.174996,89.258332)" />
    <path
       style="fill:#a00bf7;fill-opacity:1;stroke:none;stroke-width:0.527053"
       d="m 263.26279,1843.3666 c 0,-10.4356 0.17913,-18.9739 0.39807,-18.9739 0.51672,0 37.54972,37.0385 37.54972,37.5552 0,0.2159 -8.53825,0.3926 -18.97389,0.3926 h -18.9739 z"
       id="path76620"
       transform="matrix(0.26458333,0,0,0.26458333,15.174996,89.258332)" />
    <path
       style="fill:#ffce00;fill-opacity:1;stroke:none;stroke-width:0.527053"
       d="m 283.55432,1842.8395 -18.4412,-18.4468 h 18.57578 18.57579 v 18.4468 c 0,10.1458 -0.0606,18.4469 -0.13459,18.4469 -0.074,0 -8.43312,-8.3011 -18.57578,-18.4469 z"
       id="path76659"
       transform="matrix(0.26458333,0,0,0.26458333,15.174996,89.258332)" />
    <path
       style="fill:#ff0000;fill-opacity:1;stroke:none;stroke-width:0.527053"
       d="m 322.81974,1842.049 -17.65036,-17.6563 h 17.78507 17.78508 v 17.6563 c 0,9.7109 -0.0606,17.6562 -0.13471,17.6562 -0.0741,0 -8.07738,-7.9453 -17.78508,-17.6562 z"
       id="path76698"
       transform="matrix(0.26458333,0,0,0.26458333,15.174996,89.258332)" />
    <path
       style="fill:#ffce00;fill-opacity:1;stroke:none;stroke-width:0.527053"
       d="m 303.14311,1861.9891 c -0.63258,-0.6326 -0.41178,-36.9698 0.22704,-37.3646 0.6555,-0.4051 37.36938,35.9921 37.36938,37.0471 0,0.5279 -3.92582,0.6689 -18.62253,0.6689 -10.24239,0 -18.78064,-0.1581 -18.97389,-0.3514 z"
       id="path76737"
       transform="matrix(0.26458333,0,0,0.26458333,15.174996,89.258332)" />
    <path
       style="fill:#ffce00;fill-opacity:1;stroke:none;stroke-width:0.527053"
       d="m 322.02916,1881.3144 -18.44119,-18.4469 h 18.57578 18.57578 v 18.4469 c 0,10.1457 -0.0606,18.4468 -0.13459,18.4468 -0.074,0 -8.43312,-8.3011 -18.57578,-18.4468 z"
       id="path76776"
       transform="matrix(0.26458333,0,0,0.26458333,15.174996,89.258332)" />
    <path
       style="fill:#a00bf7;fill-opacity:1;stroke:none;stroke-width:0.527053"
       d="m 302.79174,1882.3685 c 0,-10.1458 0.17915,-18.4469 0.39811,-18.4469 0.21896,0 8.69665,8.3011 18.83931,18.4469 l 18.4412,18.4468 h -18.83931 -18.83931 z"
       id="path76815"
       transform="matrix(0.26458333,0,0,0.26458333,15.174996,89.258332)" />
    <path
       style="fill:#a00bf7;fill-opacity:1;stroke:none;stroke-width:0.527053"
       d="m 282.50021,1881.8414 -18.9684,-18.9739 h 19.36644 19.36644 v 18.9739 c 0,10.4357 -0.17912,18.9739 -0.39804,18.9739 -0.21892,0 -8.93381,-8.5382 -19.36644,-18.9739 z"
       id="path76854"
       transform="matrix(0.26458333,0,0,0.26458333,15.174996,89.258332)" />
    <path
       style="fill:#ffce00;fill-opacity:1;stroke:none;stroke-width:0.527053"
       d="m 263.26279,1882.2395 v -18.5757 l 18.44684,18.4412 c 10.14577,10.1426 18.44685,18.5017 18.44685,18.5757 0,0.074 -8.30108,0.1346 -18.44685,0.1346 h -18.44684 z"
       id="path76893"
       transform="matrix(0.26458333,0,0,0.26458333,15.174996,89.258332)" />
    <path
       style="fill:#ffce00;fill-opacity:1;stroke:none;stroke-width:0.527053"
       d="m 242.81613,1882.2134 c -10.22802,-10.2311 -18.42902,-18.7693 -18.22445,-18.9739 0.20457,-0.2046 8.75209,-0.372 18.99448,-0.372 h 18.62253 v 18.9739 c 0,10.4357 -0.17914,18.9739 -0.39808,18.9739 -0.21894,0 -8.76645,-8.3708 -18.99448,-18.6019 z"
       id="path76932"
       transform="matrix(0.26458333,0,0,0.26458333,15.174996,89.258332)" />
    <path
       style="fill:#ff0000;fill-opacity:1;stroke:none;stroke-width:0.527053"
       d="m 224.2609,1882.7667 v -18.0487 l 17.91979,17.914 c 9.85588,9.8527 17.91979,17.9746 17.91979,18.0487 0,0.074 -8.06391,0.1346 -17.91979,0.1346 H 224.2609 Z"
       id="path76971"
       transform="matrix(0.26458333,0,0,0.26458333,15.174996,89.258332)" />
  </g>
</svg>
