<?xml version="1.0" encoding="UTF-8" standalone="no"?>
<!-- Created with Inkscape (http://www.inkscape.org/) -->

<svg
   width="80.774994mm"
   height="11.98334mm"
   viewBox="0 0 80.774993 11.98334"
   version="1.1"
   id="svg5"
   sodipodi:docname="ESMRoutineFractionsTriangles3.svg"
   inkscape:version="1.1 (c4e8f9e, 2021-05-24)"
   xmlns:inkscape="http://www.inkscape.org/namespaces/inkscape"
   xmlns:sodipodi="http://sodipodi.sourceforge.net/DTD/sodipodi-0.dtd"
   xmlns="http://www.w3.org/2000/svg"
   xmlns:svg="http://www.w3.org/2000/svg">
  <sodipodi:namedview
     id="namedview7"
     pagecolor="#ffffff"
     bordercolor="#666666"
     borderopacity="1.0"
     inkscape:pageshadow="2"
     inkscape:pageopacity="1"
     inkscape:pagecheckerboard="0"
     inkscape:document-units="mm"
     showgrid="true"
     inkscape:zoom="0.47433593"
     inkscape:cx="162.33221"
     inkscape:cy="348.90884"
     inkscape:window-width="1173"
     inkscape:window-height="997"
     inkscape:window-x="0"
     inkscape:window-y="25"
     inkscape:window-maximized="0"
     inkscape:current-layer="layer1"
     fit-margin-left="0.1"
     fit-margin-top="0.1"
     fit-margin-right="0.1"
     fit-margin-bottom="0.1">
    <inkscape:grid
       type="xygrid"
       id="grid824"
       originx="-25.75833"
       originy="-454.38326" />
  </sodipodi:namedview>
  <defs
     id="defs2" />
  <g
     inkscape:label="Layer 1"
     inkscape:groupmode="layer"
     id="layer1"
     transform="translate(-25.758333,-454.38333)">
    <path
       style="fill:none;stroke:#000000;stroke-width:1.2;stroke-linecap:butt;stroke-linejoin:miter;stroke-miterlimit:4;stroke-dasharray:none;stroke-opacity:1"
       d="m 26.458333,455.08333 h 31.749999 v 10.58334 H 26.458333 Z"
       id="path959-0" />
    <path
       style="fill:none;stroke:#000000;stroke-width:1.2;stroke-linecap:butt;stroke-linejoin:miter;stroke-miterlimit:4;stroke-dasharray:none;stroke-opacity:1"
       d="m 74.083333,455.08333 h 31.749997 v 10.58334 H 74.083333 Z"
       id="path959-52" />
    <path
       style="fill:none;stroke:#000000;stroke-width:0.264583px;stroke-linecap:butt;stroke-linejoin:miter;stroke-opacity:1"
       d="m 37.041666,455.08334 v 10.58333"
       id="path1120" />
    <path
       style="fill:none;stroke:#000000;stroke-width:0.264583px;stroke-linecap:butt;stroke-linejoin:miter;stroke-opacity:1"
       d="m 47.624998,455.08334 v 10.58333"
       id="path1122" />
    <path
       style="fill:none;stroke:#000000;stroke-width:0.264583px;stroke-linecap:butt;stroke-linejoin:miter;stroke-opacity:1"
       d="m 84.666665,455.08334 v 10.58333"
       id="path1124" />
    <path
       style="fill:none;stroke:#000000;stroke-width:0.264583px;stroke-linecap:butt;stroke-linejoin:miter;stroke-opacity:1"
       d="m 95.249998,455.08334 v 10.58333"
       id="path1126" />
    <path
       style="fill:none;stroke:#000000;stroke-width:0.264583px;stroke-linecap:butt;stroke-linejoin:miter;stroke-opacity:1"
       d="m 26.458333,455.08334 10.583333,10.58333 h 10.583332 l 10.583334,-10.58333"
       id="path1128" />
    <path
       style="fill:none;stroke:#000000;stroke-width:0.264583px;stroke-linecap:butt;stroke-linejoin:miter;stroke-opacity:1"
       d="M 84.666665,465.66667 95.249998,455.08334"
       id="path1140" />
    <path
       style="fill:none;stroke:#000000;stroke-width:0.264583px;stroke-linecap:butt;stroke-linejoin:miter;stroke-opacity:1"
       d="M 95.249998,465.66667 105.83333,455.08334"
       id="path1142" />
    <path
       style="fill:#ff0000;fill-opacity:1;stroke:none;stroke-width:0.745365"
       d="m 45.094582,1402.9693 v -17.3236 l 17.143394,17.1312 c 9.428867,9.4222 17.143395,17.2178 17.143395,17.3237 0,0.1058 -7.714528,0.1924 -17.143395,0.1924 H 45.094582 Z"
       id="path1608"
       transform="matrix(0.26458333,0,0,0.26458333,15.174996,89.258332)" />
    <path
       style="fill:#ffce00;fill-opacity:1;stroke:none;stroke-width:0.745365"
       d="m 63.163735,1402.9574 c -9.528084,-9.5345 -17.323788,-17.5845 -17.323788,-17.8887 0,-0.3043 8.217649,-0.5532 18.261442,-0.5532 h 18.261442 v 17.8887 c 0,13.8746 -0.210405,17.8888 -0.937654,17.8888 -0.515709,0 -8.733358,-7.801 -18.261442,-17.3356 z"
       id="path1647"
       transform="matrix(0.26458333,0,0,0.26458333,15.174996,89.258332)" />
    <path
       style="fill:#ffce00;fill-opacity:1;stroke:none;stroke-width:0.745365"
       d="m 83.108196,1402.4139 v -17.8792 h 38.555364 38.55536 l -17.86566,17.8773 -17.86566,17.8773 H 103.7979 83.108196 Z"
       id="path1686"
       transform="matrix(0.26458333,0,0,0.26458333,15.174996,89.258332)" />
    <path
       style="fill:#0087ff;fill-opacity:1;stroke:none;stroke-width:0.745365"
       d="m 142.36471,1403.1496 c 9.42218,-9.4289 17.38554,-17.1434 17.69634,-17.1434 0.31081,0 0.5651,7.7145 0.5651,17.1434 v 17.1434 h -17.69634 -17.69634 z"
       id="path1762"
       transform="matrix(0.26458333,0,0,0.26458333,15.174996,89.258332)" />
    <path
       style="fill:#a00bf7;fill-opacity:1;stroke:none;stroke-width:0.745365"
       d="m 224.72754,1402.4042 v -17.8887 h 18.63413 18.63412 v 17.8887 17.8888 h -18.63412 -18.63413 z"
       id="path1801"
       transform="matrix(0.26458333,0,0,0.26458333,15.174996,89.258332)" />
    <path
       style="fill:#0087ff;fill-opacity:1;stroke:none;stroke-width:0.745365"
       d="m 262.91401,1402.5906 0.19983,-17.7025 18.63412,-0.1972 18.63413,-0.1972 -17.88294,17.8996 c -9.83561,9.8448 -18.31089,17.8997 -18.83395,17.8997 -0.75003,0 -0.90879,-3.7413 -0.75119,-17.7024 z"
       id="path1840"
       transform="matrix(0.26458333,0,0,0.26458333,15.174996,89.258332)" />
    <path
       style="fill:#ff0000;fill-opacity:1;stroke:none;stroke-width:0.745365"
       d="m 282.49941,1403.1025 c 9.42552,-9.4548 17.72429,-17.5166 18.4417,-17.915 1.22619,-0.6811 1.30439,0.3495 1.30439,17.1905 v 17.915 h -18.4417 -18.44171 z"
       id="path1879"
       transform="matrix(0.26458333,0,0,0.26458333,15.174996,89.258332)" />
    <path
       style="fill:#0087ff;fill-opacity:1;stroke:none;stroke-width:0.745365"
       d="m 302.99087,1402.4042 v -17.8887 h 18.26144 c 10.04379,0 18.26144,0.2542 18.26144,0.5649 0,0.968 -34.61849,35.2126 -35.597,35.2126 -0.71188,0 -0.92588,-4.1347 -0.92588,-17.8888 z"
       id="path1918"
       transform="matrix(0.26458333,0,0,0.26458333,15.174996,89.258332)" />
    <path
       style="fill:#a00bf7;fill-opacity:1;stroke:none;stroke-width:0.745365"
       d="m 322.74304,1403.1496 c 9.42218,-9.4289 17.21783,-17.1434 17.32366,-17.1434 0.10583,0 0.19242,7.7145 0.19242,17.1434 v 17.1434 H 322.93546 305.6118 Z"
       id="path1957"
       transform="matrix(0.26458333,0,0,0.26458333,15.174996,89.258332)" />
  </g>
</svg>
