<?xml version="1.0" encoding="UTF-8" standalone="no"?>
<!-- Created with Inkscape (http://www.inkscape.org/) -->

<svg
   width="59.408333mm"
   height="22.366671mm"
   viewBox="0 0 59.408332 22.36667"
   version="1.1"
   id="svg5"
   sodipodi:docname="ESMRoutineFractionsTriangles5.svg"
   inkscape:version="1.1 (c4e8f9e, 2021-05-24)"
   xmlns:inkscape="http://www.inkscape.org/namespaces/inkscape"
   xmlns:sodipodi="http://sodipodi.sourceforge.net/DTD/sodipodi-0.dtd"
   xmlns="http://www.w3.org/2000/svg"
   xmlns:svg="http://www.w3.org/2000/svg">
  <sodipodi:namedview
     id="namedview7"
     pagecolor="#ffffff"
     bordercolor="#666666"
     borderopacity="1.0"
     inkscape:pageshadow="2"
     inkscape:pageopacity="1"
     inkscape:pagecheckerboard="0"
     inkscape:document-units="mm"
     showgrid="true"
     inkscape:zoom="0.47433593"
     inkscape:cx="101.19411"
     inkscape:cy="144.41242"
     inkscape:window-width="1173"
     inkscape:window-height="997"
     inkscape:window-x="0"
     inkscape:window-y="25"
     inkscape:window-maximized="0"
     inkscape:current-layer="layer1"
     fit-margin-left="0.1"
     fit-margin-top="0.1"
     fit-margin-right="0.1"
     fit-margin-bottom="0.1">
    <inkscape:grid
       type="xygrid"
       id="grid824"
       originx="-36.441664"
       originy="-507.39997" />
  </sodipodi:namedview>
  <defs
     id="defs2" />
  <g
     inkscape:label="Layer 1"
     inkscape:groupmode="layer"
     id="layer1"
     transform="translate(-36.441666,-507.40001)">
    <path
       style="fill:none;stroke:#000000;stroke-width:1;stroke-linecap:butt;stroke-linejoin:miter;stroke-miterlimit:4;stroke-dasharray:none;stroke-opacity:1"
       d="m 37.041666,508.00001 h 21.166666 v 21.16667 H 37.041666 Z"
       id="path31628-0" />
    <path
       style="fill:none;stroke:#000000;stroke-width:0.264583px;stroke-linecap:butt;stroke-linejoin:miter;stroke-opacity:1"
       d="m 47.624998,508.00001 v 21.16667"
       id="path31823-8" />
    <path
       style="fill:none;stroke:#000000;stroke-width:0.264583px;stroke-linecap:butt;stroke-linejoin:miter;stroke-opacity:1"
       d="M 37.041666,518.58335 H 58.208332"
       id="path31825-1" />
    <path
       style="fill:none;stroke:#000000;stroke-width:1;stroke-linecap:butt;stroke-linejoin:miter;stroke-miterlimit:4;stroke-dasharray:none;stroke-opacity:1"
       d="m 74.083333,508.00001 h 21.166666 v 21.16667 H 74.083333 Z"
       id="path31628-7" />
    <path
       style="fill:none;stroke:#000000;stroke-width:0.264583px;stroke-linecap:butt;stroke-linejoin:miter;stroke-opacity:1"
       d="m 84.666665,508.00001 v 21.16667"
       id="path31823-6" />
    <path
       style="fill:none;stroke:#000000;stroke-width:0.264583px;stroke-linecap:butt;stroke-linejoin:miter;stroke-opacity:1"
       d="M 74.083333,518.58335 H 95.249999"
       id="path31825-7" />
    <path
       style="fill:none;stroke:#000000;stroke-width:0.264583px;stroke-linecap:butt;stroke-linejoin:miter;stroke-opacity:1"
       d="m 37.041666,518.58333 10.583332,10.58334"
       id="path47029" />
    <path
       style="fill:#a00bf7;fill-opacity:1;stroke:none;stroke-width:0.527053"
       d="m 84.591948,1603.5576 v -18.9739 h 18.710372 18.71037 v 18.9739 18.9739 H 103.30232 84.591948 Z"
       id="path47148"
       transform="matrix(0.26458333,0,0,0.26458333,15.174996,89.258332)" />
    <path
       style="fill:#a00bf7;fill-opacity:1;stroke:none;stroke-width:0.527053"
       d="m 123.4248,1622.1868 c -0.19691,-0.1969 -0.35801,-8.7381 -0.35801,-18.9805 v -18.6226 h 18.98055 18.98056 l -0.13843,18.8422 -0.13842,18.8421 -18.48412,0.1384 c -10.16627,0.076 -18.64523,-0.023 -18.84213,-0.2196 z"
       id="path47187"
       transform="matrix(0.26458333,0,0,0.26458333,15.174996,89.258332)" />
    <path
       style="fill:#ffce00;fill-opacity:1;stroke:none;stroke-width:0.527053"
       d="m 123.06679,1642.0325 v -18.9739 h 18.9739 18.97389 v 18.9739 18.9739 h -18.97389 -18.9739 z"
       id="path47226"
       transform="matrix(0.26458333,0,0,0.26458333,15.174996,89.258332)" />
    <path
       style="fill:#0087ff;fill-opacity:1;stroke:none;stroke-width:0.527053"
       d="m 103.16777,1642.425 c -10.216702,-10.2197 -18.575822,-18.758 -18.575822,-18.9739 0,-0.2159 8.419666,-0.3925 18.710372,-0.3925 h 18.71037 v 18.9739 c 0,10.4356 -0.0606,18.9739 -0.13455,18.9739 -0.074,0 -8.49367,-8.3616 -18.71037,-18.5814 z"
       id="path47265"
       transform="matrix(0.26458333,0,0,0.26458333,15.174996,89.258332)" />
    <path
       style="fill:#ff0000;fill-opacity:1;stroke:none;stroke-width:0.527053"
       d="m 84.591948,1642.9578 v -18.0486 l 17.656262,17.6503 c 9.71095,9.7077 17.65626,17.8296 17.65626,18.0486 0,0.2191 -7.94531,0.3983 -17.65626,0.3983 H 84.591948 Z"
       id="path47304"
       transform="matrix(0.26458333,0,0,0.26458333,15.174996,89.258332)" />
    <path
       style="fill:none;stroke:#000000;stroke-width:0.264583px;stroke-linecap:butt;stroke-linejoin:miter;stroke-opacity:1"
       d="m 84.666665,508 10.583333,10.58333"
       id="path54514" />
    <path
       style="fill:none;stroke:#000000;stroke-width:0.264583px;stroke-linecap:butt;stroke-linejoin:miter;stroke-opacity:1"
       d="m 74.083331,518.58333 10.583334,10.58334"
       id="path54516" />
    <path
       style="fill:#0087ff;fill-opacity:1;stroke:none;stroke-width:0.527053"
       d="m 224.6189,1622.1868 c -0.1969,-0.1969 -0.358,-8.7381 -0.358,-18.9805 v -18.6226 h 18.98055 18.98055 l -0.13842,18.8422 -0.13842,18.8421 -18.48413,0.1384 c -10.16627,0.076 -18.64522,-0.023 -18.84213,-0.2196 z"
       id="path54555"
       transform="matrix(0.26458333,0,0,0.26458333,15.174996,89.258332)" />
    <path
       style="fill:#ff0000;fill-opacity:1;stroke:none;stroke-width:0.527053"
       d="m 263.26279,1603.5576 c 0,-10.4356 0.17915,-18.9739 0.39811,-18.9739 0.68602,0 37.02263,36.6008 37.02263,37.2918 0,0.511 -4.13579,0.656 -18.71037,0.656 h -18.71037 z"
       id="path54594"
       transform="matrix(0.26458333,0,0,0.26458333,15.174996,89.258332)" />
    <path
       style="fill:#0087ff;fill-opacity:1;stroke:none;stroke-width:0.527053"
       d="m 282.76374,1602.24 -17.65036,-17.6563 h 17.78507 17.78508 v 17.6563 c 0,9.711 -0.0606,17.6563 -0.13471,17.6563 -0.0741,0 -8.07738,-7.9453 -17.78508,-17.6563 z"
       id="path54633"
       transform="matrix(0.26458333,0,0,0.26458333,15.174996,89.258332)" />
    <path
       style="fill:#0087ff;fill-opacity:1;stroke:none;stroke-width:0.527053"
       d="m 263.26279,1642.0325 v -18.9739 h 18.71037 18.71037 v 18.9739 18.9739 h -18.71037 -18.71037 z"
       id="path54672"
       transform="matrix(0.26458333,0,0,0.26458333,15.174996,89.258332)" />
    <path
       style="fill:#ffce00;fill-opacity:1;stroke:none;stroke-width:0.527053"
       d="m 242.97127,1642.296 -18.9739,-18.9739 18.92323,-0.1385 c 10.40777,-0.076 19.00836,-0.053 19.1124,0.051 0.10405,0.104 0.12685,8.7046 0.0507,19.1124 l -0.13851,18.9232 z"
       id="path54711"
       transform="matrix(0.26458333,0,0,0.26458333,15.174996,89.258332)" />
    <path
       style="fill:#0087ff;fill-opacity:1;stroke:none;stroke-width:0.527053"
       d="m 224.2609,1642.9577 v -18.0486 l 17.91979,17.914 c 9.85588,9.8527 17.91979,17.9745 17.91979,18.0486 0,0.074 -8.06391,0.1347 -17.91979,0.1347 H 224.2609 Z"
       id="path54750"
       transform="matrix(0.26458333,0,0,0.26458333,15.174996,89.258332)" />
  </g>
</svg>
