<?xml version="1.0" encoding="UTF-8" standalone="no"?>
<!-- Created with Inkscape (http://www.inkscape.org/) -->

<svg
   width="80.574997mm"
   height="22.366671mm"
   viewBox="0 0 80.574996 22.36667"
   version="1.1"
   id="svg5"
   sodipodi:docname="ESMRoutineFractionsTriangles8.svg"
   inkscape:version="1.1 (c4e8f9e, 2021-05-24)"
   xmlns:inkscape="http://www.inkscape.org/namespaces/inkscape"
   xmlns:sodipodi="http://sodipodi.sourceforge.net/DTD/sodipodi-0.dtd"
   xmlns="http://www.w3.org/2000/svg"
   xmlns:svg="http://www.w3.org/2000/svg">
  <sodipodi:namedview
     id="namedview7"
     pagecolor="#ffffff"
     bordercolor="#666666"
     borderopacity="1.0"
     inkscape:pageshadow="2"
     inkscape:pageopacity="1"
     inkscape:pagecheckerboard="0"
     inkscape:document-units="mm"
     showgrid="true"
     inkscape:zoom="0.47433593"
     inkscape:cx="221.36211"
     inkscape:cy="-95.92358"
     inkscape:window-width="1173"
     inkscape:window-height="997"
     inkscape:window-x="0"
     inkscape:window-y="25"
     inkscape:window-maximized="0"
     inkscape:current-layer="layer1"
     fit-margin-left="0.1"
     fit-margin-top="0.1"
     fit-margin-right="0.1"
     fit-margin-bottom="0.1">
    <inkscape:grid
       type="xygrid"
       id="grid824"
       originx="-25.85833"
       originy="-602.64997" />
  </sodipodi:namedview>
  <defs
     id="defs2" />
  <g
     inkscape:label="Layer 1"
     inkscape:groupmode="layer"
     id="layer1"
     transform="translate(-25.858333,-602.65001)">
    <path
       style="fill:none;stroke:#000000;stroke-width:1;stroke-linecap:butt;stroke-linejoin:miter;stroke-miterlimit:4;stroke-dasharray:none;stroke-opacity:1"
       d="m 74.083333,603.25001 h 31.749997 v 21.16667 H 74.083333 Z"
       id="path75133-7" />
    <path
       style="fill:none;stroke:#000000;stroke-width:0.264583px;stroke-linecap:butt;stroke-linejoin:miter;stroke-opacity:1"
       d="m 84.666666,603.25001 v 21.16667"
       id="path75248-6" />
    <path
       style="fill:none;stroke:#000000;stroke-width:0.264583px;stroke-linecap:butt;stroke-linejoin:miter;stroke-opacity:1"
       d="m 95.249998,603.25001 v 21.16667"
       id="path75250-4" />
    <path
       style="fill:none;stroke:#000000;stroke-width:0.264583px;stroke-linecap:butt;stroke-linejoin:miter;stroke-opacity:1"
       d="M 74.083333,613.83334 H 105.83333"
       id="path75252-35" />
    <path
       style="fill:none;stroke:#000000;stroke-width:0.264583px;stroke-linecap:butt;stroke-linejoin:miter;stroke-opacity:1"
       d="m 84.666665,603.25 10.583333,10.58333"
       id="path75529" />
    <path
       style="fill:none;stroke:#000000;stroke-width:0.264583px;stroke-linecap:butt;stroke-linejoin:miter;stroke-opacity:1"
       d="m 74.083331,603.25 21.166667,21.16667"
       id="path75531" />
    <path
       style="fill:none;stroke:#000000;stroke-width:0.264583px;stroke-linecap:butt;stroke-linejoin:miter;stroke-opacity:1"
       d="m 74.083331,613.83333 10.583334,10.58334"
       id="path75533" />
    <path
       style="fill:#ff0000;fill-opacity:1;stroke:none;stroke-width:0.527053"
       d="m 243.49832,1963.0075 -18.4412,-18.4468 h 18.57578 18.57579 v 18.4468 c 0,10.1458 -0.0606,18.4469 -0.13459,18.4469 -0.074,0 -8.43312,-8.3011 -18.57578,-18.4469 z"
       id="path77478"
       transform="matrix(0.26458333,0,0,0.26458333,15.174996,89.258332)" />
    <path
       style="fill:#ffce00;fill-opacity:1;stroke:none;stroke-width:0.527053"
       d="m 224.61226,1982.1571 c -0.19325,-0.1932 -0.35136,-8.6709 -0.35136,-18.8393 v -18.4879 l 18.44684,18.4412 c 10.14576,10.1426 18.44684,18.6203 18.44684,18.8393 0,0.4901 -36.05277,0.5363 -36.54232,0.047 z"
       id="path77517"
       transform="matrix(0.26458333,0,0,0.26458333,15.174996,89.258332)" />
    <path
       style="fill:#ffce00;fill-opacity:1;stroke:none;stroke-width:0.527053"
       d="m 242.82953,2002.3875 c -10.21275,-10.2277 -18.56863,-18.7659 -18.56863,-18.9739 0,-0.2079 8.53825,-0.3781 18.97389,-0.3781 h 18.9739 v 18.9739 c 0,10.4357 -0.18237,18.9739 -0.40526,18.9739 -0.22289,0 -8.76114,-8.3681 -18.9739,-18.5958 z"
       id="path77556"
       transform="matrix(0.26458333,0,0,0.26458333,15.174996,89.258332)" />
    <path
       style="fill:#a00bf7;fill-opacity:1;stroke:none;stroke-width:0.527053"
       d="m 224.2609,2002.9347 v -18.0487 l 17.91979,17.914 c 9.85588,9.8527 17.91979,17.9746 17.91979,18.0487 0,0.074 -8.06391,0.1346 -17.91979,0.1346 H 224.2609 Z"
       id="path77595"
       transform="matrix(0.26458333,0,0,0.26458333,15.174996,89.258332)" />
    <path
       style="fill:#ffce00;fill-opacity:1;stroke:none;stroke-width:0.527053"
       d="m 283.55432,1963.0075 -18.4412,-18.4468 h 18.57578 18.57579 v 18.4468 c 0,10.1458 -0.0606,18.4469 -0.13459,18.4469 -0.074,0 -8.43312,-8.3011 -18.57578,-18.4469 z"
       id="path77634"
       transform="matrix(0.26458333,0,0,0.26458333,15.174996,89.258332)" />
    <path
       style="fill:#ff0000;fill-opacity:1;stroke:none;stroke-width:0.527053"
       d="m 263.26279,1963.5346 c 0,-10.4356 0.17913,-18.9739 0.39807,-18.9739 0.51672,0 37.54972,37.0385 37.54972,37.5552 0,0.2159 -8.53825,0.3926 -18.97389,0.3926 h -18.9739 z"
       id="path77673"
       transform="matrix(0.26458333,0,0,0.26458333,15.174996,89.258332)" />
    <path
       style="fill:#ff0000;fill-opacity:1;stroke:none;stroke-width:0.527053"
       d="m 282.50021,2002.0094 -18.9684,-18.9739 h 19.36644 19.36644 v 18.9739 c 0,10.4357 -0.17912,18.9739 -0.39804,18.9739 -0.21892,0 -8.93381,-8.5382 -19.36644,-18.9739 z"
       id="path77712"
       transform="matrix(0.26458333,0,0,0.26458333,15.174996,89.258332)" />
    <path
       style="fill:#ffce00;fill-opacity:1;stroke:none;stroke-width:0.527053"
       d="m 263.26279,2002.4076 v -18.5758 l 18.44684,18.4412 c 10.14577,10.1426 18.44685,18.5017 18.44685,18.5757 0,0.074 -8.30108,0.1346 -18.44685,0.1346 h -18.44684 z"
       id="path77751"
       transform="matrix(0.26458333,0,0,0.26458333,15.174996,89.258332)" />
    <path
       style="fill:#0087ff;fill-opacity:1;stroke:none;stroke-width:0.527053"
       d="m 303.14311,1982.1571 c -0.19325,-0.1932 -0.35137,-8.7315 -0.35137,-18.9739 v -18.6225 h 18.97389 18.9739 v 18.9739 18.9739 H 322.117 c -10.24239,0 -18.78064,-0.1581 -18.97389,-0.3514 z"
       id="path77790"
       transform="matrix(0.26458333,0,0,0.26458333,15.174996,89.258332)" />
    <path
       style="fill:#0087ff;fill-opacity:1;stroke:none;stroke-width:0.527053"
       d="m 303.14311,2020.632 c -0.19325,-0.1933 -0.35137,-8.7315 -0.35137,-18.9739 v -18.6226 h 18.97389 18.9739 v 18.9739 18.9739 H 322.117 c -10.24239,0 -18.78064,-0.1581 -18.97389,-0.3513 z"
       id="path77829"
       transform="matrix(0.26458333,0,0,0.26458333,15.174996,89.258332)" />
    <path
       style="fill:none;stroke:#000000;stroke-width:1;stroke-linecap:butt;stroke-linejoin:miter;stroke-miterlimit:4;stroke-dasharray:none;stroke-opacity:1"
       d="M 26.458333,603.25001 H 58.20833 v 21.16667 H 26.458333 Z"
       id="path75133-8-6" />
    <path
       style="fill:none;stroke:#000000;stroke-width:0.264583px;stroke-linecap:butt;stroke-linejoin:miter;stroke-opacity:1"
       d="m 37.041666,603.25001 v 21.16667"
       id="path75248-5-2" />
    <path
       style="fill:none;stroke:#000000;stroke-width:0.264583px;stroke-linecap:butt;stroke-linejoin:miter;stroke-opacity:1"
       d="m 47.624998,603.25001 v 21.16667"
       id="path75250-5-8" />
    <path
       style="fill:none;stroke:#000000;stroke-width:0.264583px;stroke-linecap:butt;stroke-linejoin:miter;stroke-opacity:1"
       d="M 26.458333,613.83334 H 58.20833"
       id="path75252-9-4" />
    <path
       style="fill:none;stroke:#000000;stroke-width:0.264583px;stroke-linecap:butt;stroke-linejoin:miter;stroke-opacity:1"
       d="M 47.624998,603.25 58.20833,613.83333"
       id="path75513-6" />
    <path
       style="fill:none;stroke:#000000;stroke-width:0.264583px;stroke-linecap:butt;stroke-linejoin:miter;stroke-opacity:1"
       d="M 37.041665,603.25 58.20833,624.41667"
       id="path75515-6" />
    <path
       style="fill:none;stroke:#000000;stroke-width:0.264583px;stroke-linecap:butt;stroke-linejoin:miter;stroke-opacity:1"
       d="m 26.458331,603.25 21.166667,21.16667"
       id="path75517-2" />
    <path
       style="fill:none;stroke:#000000;stroke-width:0.264583px;stroke-linecap:butt;stroke-linejoin:miter;stroke-opacity:1"
       d="m 26.458331,613.83333 10.583334,10.58334"
       id="path75519-5" />
    <path
       style="fill:#a00bf7;fill-opacity:1;stroke:none;stroke-width:0.139449"
       d="m 31.975592,608.59294 -4.879234,-4.88071 h 4.914842 4.914844 v 4.88071 c 0,2.68441 -0.01603,4.88074 -0.03561,4.88074 -0.01958,0 -2.231263,-2.19633 -4.914842,-4.88074 z"
       id="path76542-1" />
    <path
       style="fill:#ffce00;fill-opacity:1;stroke:none;stroke-width:0.139449"
       d="m 26.885692,608.87184 c 0,-2.68438 0.0474,-4.88072 0.105333,-4.88072 0.05793,0 2.300989,2.19634 4.984567,4.88072 l 4.879232,4.88074 h -4.984568 -4.984564 z"
       id="path76581-7" />
    <path
       style="fill:#ff0000;fill-opacity:1;stroke:none;stroke-width:0.139449"
       d="m 37.204942,608.7324 c 0,-2.76108 0.04739,-5.02017 0.105322,-5.02017 0.136716,0 9.93503,9.79977 9.93503,9.93648 0,0.0571 -2.259078,0.10387 -5.020175,0.10387 h -5.020177 z"
       id="path76620-1" />
    <path
       style="fill:#ffce00;fill-opacity:1;stroke:none;stroke-width:0.139449"
       d="m 42.573742,608.59294 -4.879234,-4.88071 h 4.914842 4.914844 v 4.88071 c 0,2.68441 -0.01603,4.88074 -0.03561,4.88074 -0.01958,0 -2.231263,-2.19633 -4.914842,-4.88074 z"
       id="path76659-8" />
    <path
       style="fill:#ff0000;fill-opacity:1;stroke:none;stroke-width:0.139449"
       d="m 52.962718,608.38379 -4.669991,-4.67156 h 4.705633 4.705636 v 4.67156 c 0,2.56934 -0.01603,4.67153 -0.03564,4.67153 -0.01961,0 -2.13714,-2.10219 -4.705635,-4.67153 z"
       id="path76698-4" />
    <path
       style="fill:#0087ff;fill-opacity:1;stroke:none;stroke-width:0.139449"
       d="m 47.75661,613.65961 c -0.167371,-0.16738 -0.108951,-9.7816 0.06007,-9.88605 0.173434,-0.10719 9.887315,9.52291 9.887315,9.80204 0,0.13967 -1.038707,0.17698 -4.927211,0.17698 -2.709966,0 -4.969045,-0.0418 -5.020175,-0.093 z"
       id="path76737-0" />
    <path
       style="fill:#ffce00;fill-opacity:1;stroke:none;stroke-width:0.139449"
       d="m 52.753544,618.77276 -4.879232,-4.88074 h 4.914842 4.914842 v 4.88074 c 0,2.68438 -0.01603,4.88071 -0.03561,4.88071 -0.01958,0 -2.231263,-2.19633 -4.914842,-4.88071 z"
       id="path76776-7" />
    <path
       style="fill:#a00bf7;fill-opacity:1;stroke:none;stroke-width:0.139449"
       d="m 47.663643,619.05166 c 0,-2.68441 0.0474,-4.88075 0.105333,-4.88075 0.05793,0 2.300989,2.19634 4.984568,4.88075 l 4.879234,4.88071 H 52.64821 47.663643 Z"
       id="path76815-7" />
    <path
       style="fill:#ff0000;fill-opacity:1;stroke:none;stroke-width:0.139449"
       d="m 42.294842,618.91219 -5.018722,-5.02017 h 5.124037 5.124037 v 5.02017 c 0,2.76112 -0.04739,5.02018 -0.105315,5.02018 -0.05792,0 -2.363737,-2.25906 -5.124037,-5.02018 z"
       id="path76854-1" />
    <path
       style="fill:#ffce00;fill-opacity:1;stroke:none;stroke-width:0.139449"
       d="m 37.204942,619.01752 v -4.91482 l 4.880726,4.87924 c 2.684402,2.68356 4.880729,4.89524 4.880729,4.91482 0,0.0196 -2.196327,0.0356 -4.880729,0.0356 h -4.880726 z"
       id="path76893-2" />
    <path
       style="fill:#0087ff;fill-opacity:1;stroke:none;stroke-width:0.139449"
       d="m 31.795096,619.01062 c -2.706163,-2.70698 -4.876011,-4.96604 -4.821885,-5.02018 0.05412,-0.0541 2.315657,-0.0984 5.025622,-0.0984 h 4.927211 v 5.02017 c 0,2.76112 -0.0474,5.02018 -0.105325,5.02018 -0.05793,0 -2.319457,-2.21477 -5.025623,-4.92175 z"
       id="path76932-2" />
    <path
       style="fill:#ff0000;fill-opacity:1;stroke:none;stroke-width:0.139449"
       d="m 26.885692,619.15701 v -4.77538 l 4.741277,4.73974 c 2.607702,2.60686 4.741278,4.75578 4.741278,4.77539 0,0.0196 -2.133576,0.0356 -4.741278,0.0356 h -4.741277 z"
       id="path76971-7" />
  </g>
</svg>
