<?xml version="1.0" encoding="UTF-8" standalone="no"?>
<!-- Created with Inkscape (http://www.inkscape.org/) -->

<svg
   width="101.94168mm"
   height="54.845829mm"
   viewBox="0 0 101.94168 54.845828"
   version="1.1"
   id="svg5"
   sodipodi:docname="ESMRoutineFractionsRectanglesAll1.svg"
   inkscape:version="1.1 (c4e8f9e, 2021-05-24)"
   xmlns:inkscape="http://www.inkscape.org/namespaces/inkscape"
   xmlns:sodipodi="http://sodipodi.sourceforge.net/DTD/sodipodi-0.dtd"
   xmlns="http://www.w3.org/2000/svg"
   xmlns:svg="http://www.w3.org/2000/svg">
  <sodipodi:namedview
     id="namedview7"
     pagecolor="#ffffff"
     bordercolor="#666666"
     borderopacity="1.0"
     inkscape:pageshadow="2"
     inkscape:pageopacity="1"
     inkscape:pagecheckerboard="0"
     inkscape:document-units="mm"
     showgrid="true"
     inkscape:zoom="0.94867184"
     inkscape:cx="173.40032"
     inkscape:cy="372.62622"
     inkscape:window-width="1312"
     inkscape:window-height="997"
     inkscape:window-x="0"
     inkscape:window-y="25"
     inkscape:window-maximized="0"
     inkscape:current-layer="layer1"
     fit-margin-left="0.1"
     fit-margin-top="0.1"
     fit-margin-right="0.1"
     fit-margin-bottom="0.1">
    <inkscape:grid
       type="xygrid"
       id="grid824"
       originx="-15.174995"
       originy="-89.258327" />
  </sodipodi:namedview>
  <defs
     id="defs2" />
  <g
     inkscape:label="Layer 1"
     inkscape:groupmode="layer"
     id="layer1"
     transform="translate(-15.174996,-89.258332)">
    <path
       style="fill:none;stroke:#000000;stroke-width:1.2;stroke-linecap:butt;stroke-linejoin:miter;stroke-miterlimit:4;stroke-dasharray:none;stroke-opacity:1"
       d="M 74.083335,89.958332 H 116.41668 V 111.125 H 74.083335 Z"
       id="path859" />
    <path
       style="fill:none;stroke:#000000;stroke-width:0.8;stroke-linecap:butt;stroke-linejoin:miter;stroke-miterlimit:4;stroke-dasharray:none;stroke-opacity:1"
       d="M 95.250003,89.958332 V 111.125"
       id="path861" />
    <path
       style="fill:none;stroke:#000000;stroke-width:0.8;stroke-linecap:butt;stroke-linejoin:miter;stroke-miterlimit:4;stroke-dasharray:none;stroke-opacity:1"
       d="M 74.083335,100.54167 H 84.666669 V 89.958332"
       id="path863" />
    <path
       style="fill:#ff0000;stroke:none;stroke-width:0.2789"
       d="m 95.568263,110.23299 c -0.0739,-0.19269 -0.10137,-4.67947 -0.061,-9.97063 l 0.0735,-9.620286 10.110087,-0.0732 10.11008,-0.0732 v 10.043826 10.04383 h -10.04912 c -7.808237,0 -10.079087,-0.0781 -10.183547,-0.35034 z"
       id="path1455" />
    <path
       style="opacity:1;fill:#0087ff;fill-opacity:1;stroke:none;stroke-width:0.2789"
       d="m 74.587045,105.77233 0.0763,-4.81101 5.229357,-0.0759 5.229347,-0.0759 v -5.153475 -5.15347 h 4.880727 4.880727 v 10.040355 10.04035 H 84.697119 74.510725 Z"
       id="path1531" />
    <path
       style="fill:#a00bf7;fill-opacity:1;stroke:none;stroke-width:0.2789"
       d="m 74.709845,100.07814 c -0.10227,-0.102257 -0.18594,-2.298584 -0.18594,-4.880722 v -4.694793 h 4.880727 4.880727 v 4.880726 4.880729 h -4.694787 c -2.582137,0 -4.778467,-0.0837 -4.880727,-0.18594 z"
       id="path2051" />
    <path
       style="fill:none;stroke:#000000;stroke-width:1.2;stroke-linecap:butt;stroke-linejoin:miter;stroke-miterlimit:4;stroke-dasharray:none;stroke-opacity:1"
       d="M 15.874996,89.958332 H 58.208314 V 111.125 H 15.874996 Z"
       id="path859-6" />
    <path
       style="fill:none;stroke:#000000;stroke-width:0.8;stroke-linecap:butt;stroke-linejoin:miter;stroke-miterlimit:4;stroke-dasharray:none;stroke-opacity:1"
       d="M 37.041666,89.958332 V 111.125"
       id="path861-0" />
    <path
       style="fill:none;stroke:#000000;stroke-width:0.8;stroke-linecap:butt;stroke-linejoin:miter;stroke-miterlimit:4;stroke-dasharray:none;stroke-opacity:1"
       d="M 15.874996,100.54167 H 26.458329 V 89.958332"
       id="path863-4" />
    <path
       style="fill:#ff0000;stroke:none;stroke-width:0.2789"
       d="m 37.359926,110.23299 c -0.0739,-0.19269 -0.10138,-4.67947 -0.061,-9.97063 l 0.0735,-9.620286 10.110074,-0.0732 10.110077,-0.0732 v 10.043836 10.04383 H 47.54347 c -7.808224,0 -10.079074,-0.0781 -10.183534,-0.35034 z"
       id="path1455-2" />
    <path
       style="fill:#0087ff;fill-opacity:1;stroke:none;stroke-width:0.2789"
       d="m 16.378708,105.77233 0.07631,-4.81101 5.22935,-0.0759 5.22935,-0.0759 v -5.153475 -5.15347 h 4.880727 4.880731 v 10.040355 10.04035 H 26.488785 16.302397 Z"
       id="path1531-3" />
    <path
       style="fill:#a00bf7;fill-opacity:1;stroke:none;stroke-width:0.2789"
       d="m 16.501502,100.07814 c -0.102263,-0.102257 -0.185933,-2.298584 -0.185933,-4.880722 v -4.694793 h 4.880727 4.880727 v 4.880726 4.880729 h -4.694794 c -2.582137,0 -4.778465,-0.0837 -4.880727,-0.18594 z"
       id="path2051-3" />
    <path
       style="fill:none;stroke:#000000;stroke-width:0.5;stroke-linecap:butt;stroke-linejoin:miter;stroke-miterlimit:4;stroke-dasharray:none;stroke-opacity:1"
       d="M 47.62499,89.958332 V 111.125"
       id="path2399" />
    <path
       style="fill:none;stroke:#000000;stroke-width:0.5;stroke-linecap:butt;stroke-linejoin:miter;stroke-miterlimit:4;stroke-dasharray:none;stroke-opacity:1"
       d="M 15.874995,100.54167 H 58.208324"
       id="path2401" />
    <path
       style="fill:none;stroke:#000000;stroke-width:0.5;stroke-linecap:butt;stroke-linejoin:miter;stroke-miterlimit:4;stroke-dasharray:none;stroke-opacity:1"
       d="M 26.458329,89.958332 V 111.125"
       id="path2403" />
    <path
       style="fill:none;stroke:#000000;stroke-width:1.2;stroke-linecap:butt;stroke-linejoin:miter;stroke-miterlimit:4;stroke-dasharray:none;stroke-opacity:1"
       d="m 15.874999,122.23749 h 42.333327 v 21.16667 H 15.874999 Z"
       id="path859-6-4" />
    <path
       style="fill:none;stroke:#000000;stroke-width:0.8;stroke-linecap:butt;stroke-linejoin:miter;stroke-miterlimit:4;stroke-dasharray:none;stroke-opacity:1"
       d="m 37.041669,122.23749 v 21.16667"
       id="path861-0-8" />
    <path
       style="fill:none;stroke:#000000;stroke-width:0.8;stroke-linecap:butt;stroke-linejoin:miter;stroke-miterlimit:4;stroke-dasharray:none;stroke-opacity:1"
       d="M 15.874999,132.82083 H 26.458332 V 122.23749"
       id="path863-4-6" />
    <path
       style="fill:#ff0000;stroke:none;stroke-width:0.2789"
       d="m 37.359929,142.51215 c -0.0739,-0.19269 -0.10138,-4.67947 -0.061,-9.97063 l 0.0735,-9.62029 10.110077,-0.0732 10.11008,-0.0732 v 10.04384 10.04383 h -10.04911 c -7.808227,0 -10.079077,-0.0781 -10.183537,-0.35034 z"
       id="path1455-2-1" />
    <path
       style="fill:#0087ff;fill-opacity:1;stroke:none;stroke-width:0.2789"
       d="m 16.378711,138.05149 0.07631,-4.81101 5.22935,-0.0759 5.22935,-0.0759 v -5.15348 -5.15347 h 4.880727 4.880731 v 10.04036 10.04035 H 26.488788 16.3024 Z"
       id="path1531-3-4" />
    <path
       style="fill:#a00bf7;fill-opacity:1;stroke:none;stroke-width:0.2789"
       d="m 16.501505,132.3573 c -0.102263,-0.10226 -0.185933,-2.29859 -0.185933,-4.88072 v -4.6948 h 4.880727 4.880727 v 4.88073 4.88073 h -4.694794 c -2.582137,0 -4.778465,-0.0837 -4.880727,-0.18594 z"
       id="path2051-3-0" />
    <path
       style="fill:none;stroke:#000000;stroke-width:0.5;stroke-linecap:butt;stroke-linejoin:miter;stroke-miterlimit:4;stroke-dasharray:none;stroke-opacity:1"
       d="m 47.624996,122.23749 v 21.16667"
       id="path2399-8" />
    <path
       style="fill:none;stroke:#000000;stroke-width:0.5;stroke-linecap:butt;stroke-linejoin:miter;stroke-miterlimit:4;stroke-dasharray:none;stroke-opacity:1"
       d="M 15.874998,132.82083 H 58.208336"
       id="path2401-1" />
    <path
       style="fill:none;stroke:#000000;stroke-width:0.5;stroke-linecap:butt;stroke-linejoin:miter;stroke-miterlimit:4;stroke-dasharray:none;stroke-opacity:1"
       d="m 26.458332,122.23749 v 21.16667"
       id="path2403-0" />
    <path
       style="fill:none;stroke:#000000;stroke-width:0.6;stroke-linecap:butt;stroke-linejoin:miter;stroke-miterlimit:4;stroke-dasharray:none;stroke-opacity:1"
       d="M 21.166666,121.70833 V 142.875"
       id="path2642" />
    <path
       style="fill:none;stroke:#000000;stroke-width:0.6;stroke-linecap:butt;stroke-linejoin:miter;stroke-miterlimit:4;stroke-dasharray:none;stroke-opacity:1"
       d="M 31.75,121.70833 V 142.875"
       id="path2644" />
    <path
       style="fill:none;stroke:#000000;stroke-width:0.6;stroke-linecap:butt;stroke-linejoin:miter;stroke-miterlimit:4;stroke-dasharray:none;stroke-opacity:1"
       d="M 42.333333,121.70833 V 142.875"
       id="path2646" />
    <path
       style="fill:none;stroke:#000000;stroke-width:0.6;stroke-linecap:butt;stroke-linejoin:miter;stroke-miterlimit:4;stroke-dasharray:none;stroke-opacity:1"
       d="M 52.916666,121.70833 V 142.875"
       id="path2648" />
    <path
       style="fill:none;stroke:#000000;stroke-width:1.2;stroke-linecap:butt;stroke-linejoin:miter;stroke-miterlimit:4;stroke-dasharray:none;stroke-opacity:1"
       d="m 74.083332,122.23749 h 42.333328 v 21.16667 H 74.083332 Z"
       id="path859-6-4-5" />
    <path
       style="fill:none;stroke:#000000;stroke-width:0.8;stroke-linecap:butt;stroke-linejoin:miter;stroke-miterlimit:4;stroke-dasharray:none;stroke-opacity:1"
       d="m 95.250002,122.23749 v 21.16667"
       id="path861-0-8-4" />
    <path
       style="fill:none;stroke:#000000;stroke-width:0.8;stroke-linecap:butt;stroke-linejoin:miter;stroke-miterlimit:4;stroke-dasharray:none;stroke-opacity:1"
       d="M 74.083332,132.82083 H 84.666665 V 122.23749"
       id="path863-4-6-5" />
    <path
       style="fill:#ff0000;stroke:none;stroke-width:0.2789"
       d="m 95.568262,142.51215 c -0.0739,-0.19269 -0.10138,-4.67947 -0.061,-9.97063 l 0.0735,-9.62029 10.110078,-0.0732 10.11008,-0.0732 v 10.04384 10.04383 h -10.04911 c -7.808228,0 -10.079078,-0.0781 -10.183538,-0.35034 z"
       id="path1455-2-1-3" />
    <path
       style="fill:#0087ff;fill-opacity:1;stroke:none;stroke-width:0.2789"
       d="m 74.587044,138.05149 0.07631,-4.81101 5.22935,-0.0759 5.22935,-0.0759 v -5.15348 -5.15347 h 4.880727 4.880731 v 10.04036 10.04035 H 84.697121 74.510733 Z"
       id="path1531-3-4-0" />
    <path
       style="fill:#a00bf7;fill-opacity:1;stroke:none;stroke-width:0.2789"
       d="m 74.709838,132.3573 c -0.102263,-0.10226 -0.185933,-2.29859 -0.185933,-4.88072 v -4.6948 h 4.880727 4.880727 v 4.88073 4.88073 h -4.694794 c -2.582137,0 -4.778465,-0.0837 -4.880727,-0.18594 z"
       id="path2051-3-0-1" />
    <path
       style="fill:none;stroke:#000000;stroke-width:0.5;stroke-linecap:butt;stroke-linejoin:miter;stroke-miterlimit:4;stroke-dasharray:none;stroke-opacity:1"
       d="m 105.83333,122.23749 v 21.16667"
       id="path2399-8-9" />
    <path
       style="fill:none;stroke:#000000;stroke-width:0.5;stroke-linecap:butt;stroke-linejoin:miter;stroke-miterlimit:4;stroke-dasharray:none;stroke-opacity:1"
       d="M 74.083331,132.82083 H 116.41667"
       id="path2401-1-4" />
    <path
       style="fill:none;stroke:#000000;stroke-width:0.5;stroke-linecap:butt;stroke-linejoin:miter;stroke-miterlimit:4;stroke-dasharray:none;stroke-opacity:1"
       d="m 84.666665,122.23749 v 21.16667"
       id="path2403-0-5" />
    <path
       style="fill:none;stroke:#000000;stroke-width:0.6;stroke-linecap:butt;stroke-linejoin:miter;stroke-miterlimit:4;stroke-dasharray:none;stroke-opacity:1"
       d="M 79.374999,121.70833 V 142.875"
       id="path2642-9" />
    <path
       style="fill:none;stroke:#000000;stroke-width:0.6;stroke-linecap:butt;stroke-linejoin:miter;stroke-miterlimit:4;stroke-dasharray:none;stroke-opacity:1"
       d="M 89.958333,121.70833 V 142.875"
       id="path2644-3" />
    <path
       style="fill:none;stroke:#000000;stroke-width:0.6;stroke-linecap:butt;stroke-linejoin:miter;stroke-miterlimit:4;stroke-dasharray:none;stroke-opacity:1"
       d="M 100.54167,121.70833 V 142.875"
       id="path2646-9" />
    <path
       style="fill:none;stroke:#000000;stroke-width:0.6;stroke-linecap:butt;stroke-linejoin:miter;stroke-miterlimit:4;stroke-dasharray:none;stroke-opacity:1"
       d="M 111.125,121.70833 V 142.875"
       id="path2648-6" />
    <path
       style="fill:none;stroke:#000000;stroke-width:0.6;stroke-linecap:butt;stroke-linejoin:miter;stroke-miterlimit:4;stroke-dasharray:none;stroke-opacity:1"
       d="M 74.083332,127 H 116.41667"
       id="path2925" />
    <path
       style="fill:none;stroke:#000000;stroke-width:0.6;stroke-linecap:butt;stroke-linejoin:miter;stroke-miterlimit:4;stroke-dasharray:none;stroke-opacity:1"
       d="M 74.083332,137.58333 H 116.41667"
       id="path2927" />
  </g>
</svg>
