<?xml version="1.0" encoding="UTF-8" standalone="no"?>
<!-- Created with Inkscape (http://www.inkscape.org/) -->

<svg
   width="80.574997mm"
   height="22.366671mm"
   viewBox="0 0 80.574996 22.36667"
   version="1.1"
   id="svg5"
   sodipodi:docname="ESMRoutineFractionsTriangles9.svg"
   inkscape:version="1.1 (c4e8f9e, 2021-05-24)"
   xmlns:inkscape="http://www.inkscape.org/namespaces/inkscape"
   xmlns:sodipodi="http://sodipodi.sourceforge.net/DTD/sodipodi-0.dtd"
   xmlns="http://www.w3.org/2000/svg"
   xmlns:svg="http://www.w3.org/2000/svg">
  <sodipodi:namedview
     id="namedview7"
     pagecolor="#ffffff"
     bordercolor="#666666"
     borderopacity="1.0"
     inkscape:pageshadow="2"
     inkscape:pageopacity="1"
     inkscape:pagecheckerboard="0"
     inkscape:document-units="mm"
     showgrid="true"
     inkscape:zoom="0.47433593"
     inkscape:cx="166.54863"
     inkscape:cy="-277.22969"
     inkscape:window-width="1173"
     inkscape:window-height="997"
     inkscape:window-x="0"
     inkscape:window-y="25"
     inkscape:window-maximized="0"
     inkscape:current-layer="layer1"
     fit-margin-left="0.1"
     fit-margin-top="0.1"
     fit-margin-right="0.1"
     fit-margin-bottom="0.1">
    <inkscape:grid
       type="xygrid"
       id="grid824"
       originx="-25.85833"
       originy="-637.04581" />
  </sodipodi:namedview>
  <defs
     id="defs2" />
  <g
     inkscape:label="Layer 1"
     inkscape:groupmode="layer"
     id="layer1"
     transform="translate(-25.858333,-637.04585)">
    <path
       style="fill:none;stroke:#000000;stroke-width:1;stroke-linecap:butt;stroke-linejoin:miter;stroke-miterlimit:4;stroke-dasharray:none;stroke-opacity:1"
       d="m 26.458333,637.64585 h 31.749999 v 21.16667 H 26.458333 Z"
       id="path75133-4" />
    <path
       style="fill:none;stroke:#000000;stroke-width:0.264583px;stroke-linecap:butt;stroke-linejoin:miter;stroke-opacity:1"
       d="m 37.041666,637.64585 v 21.16667"
       id="path75248-56" />
    <path
       style="fill:none;stroke:#000000;stroke-width:0.264583px;stroke-linecap:butt;stroke-linejoin:miter;stroke-opacity:1"
       d="m 47.624998,637.64585 v 21.16667"
       id="path75250-9" />
    <path
       style="fill:none;stroke:#000000;stroke-width:1;stroke-linecap:butt;stroke-linejoin:miter;stroke-miterlimit:4;stroke-dasharray:none;stroke-opacity:1"
       d="m 74.083333,637.64585 h 31.749997 v 21.16667 H 74.083333 Z"
       id="path75133-3" />
    <path
       style="fill:none;stroke:#000000;stroke-width:0.264583px;stroke-linecap:butt;stroke-linejoin:miter;stroke-opacity:1"
       d="m 84.666666,637.64585 v 21.16667"
       id="path75248-63" />
    <path
       style="fill:none;stroke:#000000;stroke-width:0.264583px;stroke-linecap:butt;stroke-linejoin:miter;stroke-opacity:1"
       d="m 95.249998,637.64585 v 21.16667"
       id="path75250-47" />
    <path
       style="fill:none;stroke:#000000;stroke-width:0.264583px;stroke-linecap:butt;stroke-linejoin:miter;stroke-opacity:1"
       d="M 47.624998,637.64583 58.208332,658.8125"
       id="path75535" />
    <path
       style="fill:none;stroke:#000000;stroke-width:0.264583px;stroke-linecap:butt;stroke-linejoin:miter;stroke-opacity:1"
       d="M 37.041666,637.64583 47.624998,658.8125"
       id="path75537" />
    <path
       style="fill:none;stroke:#000000;stroke-width:0.264583px;stroke-linecap:butt;stroke-linejoin:miter;stroke-opacity:1"
       d="M 26.458333,637.64583 37.041666,658.8125"
       id="path75539" />
    <path
       style="fill:none;stroke:#000000;stroke-width:0.264583px;stroke-linecap:butt;stroke-linejoin:miter;stroke-opacity:1"
       d="M 74.083331,648.22917 H 84.666665"
       id="path75814" />
    <path
       style="fill:none;stroke:#000000;stroke-width:0.264583px;stroke-linecap:butt;stroke-linejoin:miter;stroke-opacity:1"
       d="M 74.083331,637.64583 84.666665,648.22917 74.083331,658.8125"
       id="path75816" />
    <path
       style="fill:none;stroke:#000000;stroke-width:0.264583px;stroke-linecap:butt;stroke-linejoin:miter;stroke-opacity:1"
       d="M 84.666665,637.64583 95.249998,658.8125"
       id="path75818" />
    <path
       style="fill:none;stroke:#000000;stroke-width:0.264583px;stroke-linecap:butt;stroke-linejoin:miter;stroke-opacity:1"
       d="M 95.249998,637.64583 105.83333,658.8125"
       id="path75820" />
    <path
       style="fill:#ff0000;fill-opacity:1;stroke:none;stroke-width:0.527053"
       d="m 44.564886,2114.1399 0.02894,-36.4984 18.12544,36.1031 c 9.968992,19.8567 18.138461,36.281 18.154377,36.4984 0.01592,0.2174 -8.153554,0.3953 -18.154377,0.3953 H 44.535948 Z"
       id="path77868"
       transform="matrix(0.26458333,0,0,0.26458333,15.174996,89.258332)" />
    <path
       style="fill:#a00bf7;fill-opacity:1;stroke:none;stroke-width:0.527053"
       d="m 63.378079,2113.3508 c -10.363172,-20.6531 -18.842131,-37.9075 -18.842131,-38.3431 0,-0.6898 2.416752,-0.7921 18.72691,-0.7921 14.495975,0 18.783752,0.1489 18.978504,0.6589 0.138377,0.3623 0.190227,17.6167 0.115222,38.343 l -0.136373,37.6843 z"
       id="path77907"
       transform="matrix(0.26458333,0,0,0.26458333,15.174996,89.258332)" />
    <path
       style="fill:#a00bf7;fill-opacity:1;stroke:none;stroke-width:0.527053"
       d="m 83.039743,2112.5587 0.02895,-38.0795 18.915997,37.6842 c 10.40379,20.7264 18.92901,37.8622 18.94494,38.0796 0.0159,0.2174 -8.5093,0.3953 -18.94494,0.3953 H 83.010788 Z"
       id="path77946"
       transform="matrix(0.26458333,0,0,0.26458333,15.174996,89.258332)" />
    <path
       style="fill:#ffce00;fill-opacity:1;stroke:none;stroke-width:0.527053"
       d="m 102.90531,2112.426 c -10.362228,-20.7269 -18.840415,-37.8034 -18.840415,-37.9478 0,-0.1444 8.538253,-0.2626 18.973895,-0.2626 h 18.9739 v 37.9478 c 0,20.8713 -0.0601,37.9478 -0.13349,37.9478 -0.0734,0 -8.61166,-16.9583 -18.97389,-37.6852 z"
       id="path77985"
       transform="matrix(0.26458333,0,0,0.26458333,15.174996,89.258332)" />
    <path
       style="fill:#a00bf7;fill-opacity:1;stroke:none;stroke-width:0.527053"
       d="m 123.09573,2112.5587 0.0289,-38.0795 18.22891,36.3666 c 10.0259,20.0017 18.55432,37.1375 18.95203,38.0796 l 0.72312,1.7129 h -18.98097 -18.98097 z"
       id="path78024"
       transform="matrix(0.26458333,0,0,0.26458333,15.174996,89.258332)" />
    <path
       style="fill:#ff0000;fill-opacity:1;stroke:none;stroke-width:0.527053"
       d="m 142.43597,2111.3756 c -10.07329,-20.1492 -18.31507,-36.753 -18.31507,-36.8974 0,-0.1444 8.18993,-0.2626 18.19985,-0.2626 14.0743,0 18.25691,0.1494 18.45152,0.6589 0.13841,0.3623 0.19026,16.9661 0.11522,36.8974 l -0.13644,36.2386 z"
       id="path78063"
       transform="matrix(0.26458333,0,0,0.26458333,15.174996,89.258332)" />
    <path
       style="fill:#0087ff;fill-opacity:1;stroke:none;stroke-width:0.527053"
       d="m 243.36369,2093.055 c -9.92678,-9.93 -18.04869,-18.231 -18.04869,-18.4469 0,-0.2158 8.30108,-0.3925 18.44684,-0.3925 h 18.44685 v 18.4469 c 0,10.1458 -0.17917,18.4468 -0.39816,18.4468 -0.21898,0 -8.52006,-8.1244 -18.44684,-18.0543 z"
       id="path78102"
       transform="matrix(0.26458333,0,0,0.26458333,15.174996,89.258332)" />
    <path
       style="fill:#a00bf7;fill-opacity:1;stroke:none;stroke-width:0.527053"
       d="m 224.2609,2093.5877 v -18.5758 l 18.44684,18.4412 c 10.14576,10.1426 18.44684,18.5017 18.44684,18.5758 0,0.074 -8.30108,0.1345 -18.44684,0.1345 H 224.2609 Z"
       id="path78141"
       transform="matrix(0.26458333,0,0,0.26458333,15.174996,89.258332)" />
    <path
       style="fill:#a00bf7;fill-opacity:1;stroke:none;stroke-width:0.527053"
       d="m 224.2609,2131.6644 v -18.4469 h 18.57578 18.57578 l -18.44119,18.4469 c -10.14266,10.1457 -18.50176,18.4468 -18.57579,18.4468 -0.074,0 -0.13458,-8.3011 -0.13458,-18.4468 z"
       id="path78180"
       transform="matrix(0.26458333,0,0,0.26458333,15.174996,89.258332)" />
    <path
       style="fill:#0087ff;fill-opacity:1;stroke:none;stroke-width:0.527053"
       d="m 243.49832,2132.1914 c 10.14266,-10.1457 18.50176,-18.4468 18.57578,-18.4468 0.074,0 0.13459,8.3011 0.13459,18.4468 v 18.4469 H 243.6329 225.05712 Z"
       id="path78219"
       transform="matrix(0.26458333,0,0,0.26458333,15.174996,89.258332)" />
    <path
       style="fill:#0087ff;fill-opacity:1;stroke:none;stroke-width:0.527053"
       d="m 263.26279,2112.8662 c 0,-20.7747 0.0925,-37.6733 0.20564,-37.5525 0.1131,0.1208 8.65168,17.1182 18.97463,37.7721 l 18.76899,37.5525 h -18.97463 -18.97463 z"
       id="path78258"
       transform="matrix(0.26458333,0,0,0.26458333,15.174996,89.258332)" />
    <path
       style="fill:#ff0000;fill-opacity:1;stroke:none;stroke-width:0.527053"
       d="m 283.15731,2112.953 c -10.36223,-20.7268 -18.84041,-37.9219 -18.84041,-38.2113 0,-0.3403 6.69941,-0.5261 18.97389,-0.5261 h 18.9739 v 38.2114 c 0,21.0162 -0.0601,38.2113 -0.13348,38.2113 -0.0734,0 -8.61167,-16.9584 -18.9739,-37.6853 z"
       id="path78297"
       transform="matrix(0.26458333,0,0,0.26458333,15.174996,89.258332)" />
    <path
       style="fill:#ff0000;fill-opacity:1;stroke:none;stroke-width:0.527053"
       d="m 302.79174,2112.6905 c 0,-20.8713 0.11826,-37.9478 0.26279,-37.9478 0.34454,0 37.685,74.678 37.685,75.3671 0,0.3435 -6.64096,0.5285 -18.9739,0.5285 h -18.97389 z"
       id="path78336"
       transform="matrix(0.26458333,0,0,0.26458333,15.174996,89.258332)" />
    <path
       style="fill:#0087ff;fill-opacity:1;stroke:none;stroke-width:0.527053"
       d="m 322.42266,2111.3718 c -9.92737,-19.8572 -18.04976,-36.3408 -18.04976,-36.6301 0,-0.3399 6.43589,-0.5261 18.18331,-0.5261 h 18.18332 v 36.6302 c 0,20.1466 -0.0601,36.6302 -0.13356,36.6302 -0.0735,0 -8.25594,-16.2469 -18.18331,-36.1042 z"
       id="path78375"
       transform="matrix(0.26458333,0,0,0.26458333,15.174996,89.258332)" />
  </g>
</svg>
