<?xml version="1.0" encoding="UTF-8" standalone="no"?>
<!-- Created with Inkscape (http://www.inkscape.org/) -->

<svg
   width="59.408337mm"
   height="22.36668mm"
   viewBox="0 0 59.408336 22.36668"
   version="1.1"
   id="svg5"
   sodipodi:docname="ESMRoutineFractionsTriangles4.svg"
   inkscape:version="1.1 (c4e8f9e, 2021-05-24)"
   xmlns:inkscape="http://www.inkscape.org/namespaces/inkscape"
   xmlns:sodipodi="http://sodipodi.sourceforge.net/DTD/sodipodi-0.dtd"
   xmlns="http://www.w3.org/2000/svg"
   xmlns:svg="http://www.w3.org/2000/svg">
  <sodipodi:namedview
     id="namedview7"
     pagecolor="#ffffff"
     bordercolor="#666666"
     borderopacity="1.0"
     inkscape:pageshadow="2"
     inkscape:pageopacity="1"
     inkscape:pagecheckerboard="0"
     inkscape:document-units="mm"
     showgrid="true"
     inkscape:zoom="0.47433593"
     inkscape:cx="160.224"
     inkscape:cy="374.20737"
     inkscape:window-width="1173"
     inkscape:window-height="997"
     inkscape:window-x="0"
     inkscape:window-y="25"
     inkscape:window-maximized="0"
     inkscape:current-layer="layer1"
     fit-margin-left="0.1"
     fit-margin-top="0.1"
     fit-margin-right="0.1"
     fit-margin-bottom="0.1">
    <inkscape:grid
       type="xygrid"
       id="grid824"
       originx="-36.441664"
       originy="-475.64996" />
  </sodipodi:namedview>
  <defs
     id="defs2" />
  <g
     inkscape:label="Layer 1"
     inkscape:groupmode="layer"
     id="layer1"
     transform="translate(-36.441666,-475.65)">
    <path
       style="fill:none;stroke:#000000;stroke-width:1;stroke-linecap:butt;stroke-linejoin:miter;stroke-miterlimit:4;stroke-dasharray:none;stroke-opacity:1"
       d="m 37.041666,476.25 h 21.166666 v 21.16667 H 37.041666 Z"
       id="path31628" />
    <path
       style="fill:none;stroke:#000000;stroke-width:0.264583px;stroke-linecap:butt;stroke-linejoin:miter;stroke-opacity:1"
       d="m 47.624998,476.25 v 21.16667"
       id="path31823" />
    <path
       style="fill:none;stroke:#000000;stroke-width:0.264583px;stroke-linecap:butt;stroke-linejoin:miter;stroke-opacity:1"
       d="M 37.041666,486.83334 H 58.208332"
       id="path31825" />
    <path
       style="fill:none;stroke:#000000;stroke-width:1;stroke-linecap:butt;stroke-linejoin:miter;stroke-miterlimit:4;stroke-dasharray:none;stroke-opacity:1"
       d="m 74.083334,476.25001 h 21.166667 v 21.16667 H 74.083334 Z"
       id="path31628-8" />
    <path
       style="fill:none;stroke:#000000;stroke-width:0.264583px;stroke-linecap:butt;stroke-linejoin:miter;stroke-opacity:1"
       d="m 84.666666,476.25001 v 21.16667"
       id="path31823-0" />
    <path
       style="fill:none;stroke:#000000;stroke-width:0.264583px;stroke-linecap:butt;stroke-linejoin:miter;stroke-opacity:1"
       d="M 74.083334,486.83335 H 95.250001"
       id="path31825-9" />
    <path
       style="fill:none;stroke:#000000;stroke-width:0.264583px;stroke-linecap:butt;stroke-linejoin:miter;stroke-opacity:1"
       d="m 37.041666,476.25 10.583332,10.58334 10.583334,10.58333"
       id="path32298" />
    <path
       style="fill:none;stroke:#000000;stroke-width:0.264583px;stroke-linecap:butt;stroke-linejoin:miter;stroke-opacity:1"
       d="m 47.624998,476.25 10.583334,10.58334"
       id="path32300" />
    <path
       style="fill:none;stroke:#000000;stroke-width:0.264583px;stroke-linecap:butt;stroke-linejoin:miter;stroke-opacity:1"
       d="m 37.041666,486.83334 10.583332,10.58333"
       id="path32302" />
    <path
       style="fill:#ffce00;fill-opacity:1;stroke:none;stroke-width:0.527053"
       d="m 103.30232,1482.8626 -18.441198,-18.4469 h 18.575778 18.57579 v 18.4469 c 0,10.1458 -0.0606,18.4468 -0.13459,18.4468 -0.074,0 -8.43313,-8.301 -18.57578,-18.4468 z"
       id="path32378"
       transform="matrix(0.26458333,0,0,0.26458333,15.174996,89.258332)" />
    <path
       style="fill:#0087ff;fill-opacity:1;stroke:none;stroke-width:0.527053"
       d="m 84.591948,1483.7878 v -18.5758 l 18.446842,18.4412 c 10.14576,10.1426 18.44684,18.5017 18.44684,18.5758 0,0.074 -8.30108,0.1345 -18.44684,0.1345 H 84.591948 Z"
       id="path32417"
       transform="matrix(0.26458333,0,0,0.26458333,15.174996,89.258332)" />
    <path
       style="fill:#ffce00;fill-opacity:1;stroke:none;stroke-width:0.527053"
       d="m 142.83126,1482.3355 -17.91397,-17.9198 h 18.04864 18.04865 v 17.9198 c 0,9.8559 -0.0606,17.9198 -0.13467,17.9198 -0.0741,0 -8.19596,-8.0639 -18.04865,-17.9198 z"
       id="path32456"
       transform="matrix(0.26458333,0,0,0.26458333,15.174996,89.258332)" />
    <path
       style="fill:#0087ff;fill-opacity:1;stroke:none;stroke-width:0.527053"
       d="m 123.06679,1483.3896 c 0,-10.4356 0.17913,-18.9739 0.39807,-18.9739 0.51672,0 37.54972,37.0385 37.54972,37.5553 0,0.2159 -8.53825,0.3925 -18.97389,0.3925 h -18.9739 z"
       id="path32495"
       transform="matrix(0.26458333,0,0,0.26458333,15.174996,89.258332)" />
    <path
       style="fill:#ff0000;fill-opacity:1;stroke:none;stroke-width:0.527053"
       d="m 141.77716,1521.3374 -18.4412,-18.4468 h 18.83931 18.83931 v 18.4468 c 0,10.1458 -0.17915,18.4469 -0.39811,18.4469 -0.21897,0 -8.69665,-8.3011 -18.83931,-18.4469 z"
       id="path32534"
       transform="matrix(0.26458333,0,0,0.26458333,15.174996,89.258332)" />
    <path
       style="fill:#a00bf7;fill-opacity:1;stroke:none;stroke-width:0.527053"
       d="m 123.06679,1522.2626 v -18.5758 l 18.44684,18.4412 c 10.14577,10.1427 18.44684,18.5018 18.44684,18.5758 0,0.074 -8.30107,0.1346 -18.44684,0.1346 h -18.44684 z"
       id="path32573"
       transform="matrix(0.26458333,0,0,0.26458333,15.174996,89.258332)" />
    <path
       style="fill:#ff0000;fill-opacity:1;stroke:none;stroke-width:0.527053"
       d="m 102.9042,1522.5205 c -10.071737,-10.0748 -18.312252,-18.6131 -18.312252,-18.9739 0,-0.511 4.135792,-0.656 18.710372,-0.656 h 18.71037 v 18.9739 c 0,10.4356 -0.17916,18.9739 -0.39812,18.9739 -0.21896,0 -8.63863,-8.2431 -18.71037,-18.3179 z"
       id="path32612"
       transform="matrix(0.26458333,0,0,0.26458333,15.174996,89.258332)" />
    <path
       style="fill:#a00bf7;fill-opacity:1;stroke:none;stroke-width:0.527053"
       d="m 84.591948,1523.0533 v -17.7851 l 17.656262,17.6504 c 9.71095,9.7077 17.65626,17.711 17.65626,17.7851 0,0.074 -7.94531,0.1347 -17.65626,0.1347 H 84.591948 Z"
       id="path32651"
       transform="matrix(0.26458333,0,0,0.26458333,15.174996,89.258332)" />
    <path
       style="fill:none;stroke:#000000;stroke-width:0.264583px;stroke-linecap:butt;stroke-linejoin:miter;stroke-opacity:1"
       d="m 74.083331,486.83334 10.583334,10.58333"
       id="path40137" />
    <path
       style="fill:none;stroke:#000000;stroke-width:0.264583px;stroke-linecap:butt;stroke-linejoin:miter;stroke-opacity:1"
       d="M 84.666665,486.83334 95.249998,476.25"
       id="path40139" />
    <path
       style="fill:#ffce00;fill-opacity:1;stroke:none;stroke-width:0.527053"
       d="m 224.2609,1483.3896 v -18.9739 h 18.97389 18.9739 v 18.9739 18.9739 h -18.9739 -18.97389 z"
       id="path40258"
       transform="matrix(0.26458333,0,0,0.26458333,15.174996,89.258332)" />
    <path
       style="fill:#ffce00;fill-opacity:1;stroke:none;stroke-width:0.527053"
       d="m 242.81613,1522.2364 c -10.22802,-10.231 -18.42902,-18.7693 -18.22445,-18.9739 0.20457,-0.2045 8.75209,-0.3719 18.99448,-0.3719 h 18.62253 v 18.9739 c 0,10.4356 -0.17914,18.9739 -0.39808,18.9739 -0.21894,0 -8.76645,-8.3709 -18.99448,-18.602 z"
       id="path40297"
       transform="matrix(0.26458333,0,0,0.26458333,15.174996,89.258332)" />
    <path
       style="fill:#0087ff;fill-opacity:1;stroke:none;stroke-width:0.527053"
       d="m 224.2609,1522.7897 v -18.0486 l 17.91979,17.914 c 9.85588,9.8527 17.91979,17.9745 17.91979,18.0486 0,0.074 -8.06391,0.1347 -17.91979,0.1347 H 224.2609 Z"
       id="path40336"
       transform="matrix(0.26458333,0,0,0.26458333,15.174996,89.258332)" />
    <path
       style="fill:#ffce00;fill-opacity:1;stroke:none;stroke-width:0.527053"
       d="m 263.26279,1482.8626 v -18.4469 h 18.57578 18.57579 l -18.4412,18.4469 c -10.14266,10.1458 -18.50176,18.4468 -18.57578,18.4468 -0.074,0 -0.13459,-8.301 -0.13459,-18.4468 z"
       id="path40375"
       transform="matrix(0.26458333,0,0,0.26458333,15.174996,89.258332)" />
    <path
       style="fill:#ff0000;fill-opacity:1;stroke:none;stroke-width:0.527053"
       d="m 281.97316,1483.9167 c 10.14266,-10.1458 18.50176,-18.4468 18.57578,-18.4468 0.074,0 0.13459,8.301 0.13459,18.4468 v 18.4468 h -18.57578 -18.57578 z"
       id="path40414"
       transform="matrix(0.26458333,0,0,0.26458333,15.174996,89.258332)" />
    <path
       style="fill:#ff0000;fill-opacity:1;stroke:none;stroke-width:0.527053"
       d="m 263.26279,1521.8645 v -18.9739 h 18.71037 18.71037 v 18.9739 18.9739 h -18.71037 -18.71037 z"
       id="path40453"
       transform="matrix(0.26458333,0,0,0.26458333,15.174996,89.258332)" />
  </g>
</svg>
