<?xml version="1.0" encoding="UTF-8" standalone="no"?>
<!-- Created with Inkscape (http://www.inkscape.org/) -->

<svg
   width="59.608334mm"
   height="12.107594mm"
   viewBox="0 0 59.608333 12.107593"
   version="1.1"
   id="svg5"
   sodipodi:docname="ESMRoutineFractionsTriangles1.svg"
   inkscape:version="1.1 (c4e8f9e, 2021-05-24)"
   xmlns:inkscape="http://www.inkscape.org/namespaces/inkscape"
   xmlns:sodipodi="http://sodipodi.sourceforge.net/DTD/sodipodi-0.dtd"
   xmlns="http://www.w3.org/2000/svg"
   xmlns:svg="http://www.w3.org/2000/svg">
  <sodipodi:namedview
     id="namedview7"
     pagecolor="#ffffff"
     bordercolor="#666666"
     borderopacity="1.0"
     inkscape:pageshadow="2"
     inkscape:pageopacity="1"
     inkscape:pagecheckerboard="0"
     inkscape:document-units="mm"
     showgrid="true"
     inkscape:zoom="1.3416246"
     inkscape:cx="141.24666"
     inkscape:cy="266.46798"
     inkscape:window-width="1524"
     inkscape:window-height="997"
     inkscape:window-x="0"
     inkscape:window-y="25"
     inkscape:window-maximized="0"
     inkscape:current-layer="layer1"
     fit-margin-left="0.1"
     fit-margin-top="0.1"
     fit-margin-right="0.1"
     fit-margin-bottom="0.1">
    <inkscape:grid
       type="xygrid"
       id="grid824"
       originx="-36.341666"
       originy="-406.63403" />
  </sodipodi:namedview>
  <defs
     id="defs2" />
  <g
     inkscape:label="Layer 1"
     inkscape:groupmode="layer"
     id="layer1"
     transform="translate(-36.341668,-406.63408)">
    <path
       style="fill:none;stroke:#000000;stroke-width:1.2;stroke-linecap:butt;stroke-linejoin:miter;stroke-miterlimit:4;stroke-dasharray:none;stroke-opacity:1"
       d="m 37.041668,407.45834 h 21.166667 v 10.58333 H 37.041668 Z"
       id="path45244" />
    <path
       style="fill:none;stroke:#000000;stroke-width:1.2;stroke-linecap:butt;stroke-linejoin:miter;stroke-miterlimit:4;stroke-dasharray:none;stroke-opacity:1"
       d="m 74.083334,407.45834 h 21.166669 v 10.58333 H 74.083334 Z"
       id="path45244-4" />
    <g
       id="g45498"
       style="stroke:#000000;stroke-width:0.6;stroke-miterlimit:4;stroke-dasharray:none;stroke-opacity:1">
      <path
         style="fill:none;stroke:#000000;stroke-width:0.6;stroke-linecap:butt;stroke-linejoin:miter;stroke-miterlimit:4;stroke-dasharray:none;stroke-opacity:1"
         d="m 47.624998,418.04167 v -10.58333 l 10.583335,10.58333"
         id="path45390" />
      <g
         id="g45475"
         style="stroke:#000000;stroke-width:0.6;stroke-miterlimit:4;stroke-dasharray:none;stroke-opacity:1">
        <path
           style="fill:none;stroke:#000000;stroke-width:0.6;stroke-linecap:butt;stroke-linejoin:miter;stroke-miterlimit:4;stroke-dasharray:none;stroke-opacity:1"
           d="m 37.041666,407.45834 10.583332,10.58333"
           id="path45392" />
      </g>
    </g>
    <path
       style="fill:#0087ff;fill-opacity:1;stroke:none;stroke-width:0.527053"
       d="m 84.591949,1223.5527 c 0,-9.2761 0.17927,-16.8657 0.398378,-16.8657 0.219108,0 7.985157,7.5896 17.257883,16.8657 l 16.85951,16.8657 H 101.84983 84.591949 Z"
       id="path45555"
       transform="matrix(0.26458333,0,0,0.26458333,15.174996,89.258332)" />
    <path
       style="fill:#ff0000;fill-opacity:1;stroke:none;stroke-width:0.527053"
       d="m 103.95814,1222.6274 c -9.49189,-9.4951 -17.25798,-17.4405 -17.25798,-17.6562 0,-0.2158 7.826731,-0.3924 17.39274,-0.3924 h 17.39273 v 17.6563 c 0,9.7109 -0.0606,17.6562 -0.13475,17.6562 -0.0741,0 -7.90085,-7.7687 -17.39274,-17.2639 z"
       id="path45594"
       transform="matrix(0.26458333,0,0,0.26458333,15.174996,89.258332)" />
    <path
       style="fill:#0087ff;fill-opacity:1;stroke:none;stroke-width:0.527053"
       d="m 123.59384,1223.0257 c 0,-9.566 0.17923,-17.3928 0.39829,-17.3928 0.21906,0 8.22232,7.8268 17.78503,17.3928 l 17.38675,17.3927 h -17.78503 -17.78504 z"
       id="path45633"
       transform="matrix(0.26458333,0,0,0.26458333,15.174996,89.258332)" />
    <path
       style="fill:#ffce00;fill-opacity:1;stroke:none;stroke-width:0.527053"
       d="m 143.48699,1222.1003 c -9.20195,-9.2054 -16.73083,-16.9135 -16.73083,-17.1292 0,-0.2158 7.58956,-0.3923 16.86569,-0.3923 h 16.86568 v 17.1292 c 0,9.4211 -0.0607,17.1292 -0.13485,17.1292 -0.0742,0 -7.66373,-7.5316 -16.86569,-16.7369 z"
       id="path45672"
       transform="matrix(0.26458333,0,0,0.26458333,15.174996,89.258332)" />
    <g
       id="g15022"
       style="stroke:#000000;stroke-width:0.5;stroke-miterlimit:4;stroke-dasharray:none;stroke-opacity:1">
      <path
         style="fill:none;stroke:#000000;stroke-width:0.5;stroke-linecap:butt;stroke-linejoin:miter;stroke-miterlimit:4;stroke-dasharray:none;stroke-opacity:1"
         d="m 84.666665,407.45834 v 10.58333"
         id="path14936" />
      <path
         style="fill:none;stroke:#000000;stroke-width:0.5;stroke-linecap:butt;stroke-linejoin:miter;stroke-miterlimit:4;stroke-dasharray:none;stroke-opacity:1"
         d="m 74.083331,418.04167 10.583334,-10.58333 10.583333,10.58333"
         id="path14938" />
    </g>
    <path
       style="fill:#a00bf7;fill-opacity:1;stroke:none;stroke-width:0.527053"
       d="m 224.78795,1221.708 v -17.1292 h 17.25794 17.25793 l -17.12313,17.1292 c -9.41772,9.4211 -17.18379,17.1292 -17.25793,17.1292 -0.0742,0 -0.13481,-7.7081 -0.13481,-17.1292 z"
       id="path15097"
       transform="matrix(0.26458333,0,0,0.26458333,15.174996,89.258332)" />
    <path
       style="fill:#ffce00;fill-opacity:1;stroke:none;stroke-width:0.527053"
       d="m 243.76185,1222.7621 c 9.7077,-9.7109 17.71098,-17.6562 17.78507,-17.6562 0.0741,0 0.13472,7.9453 0.13472,17.6562 v 17.6563 h -17.78508 -17.78508 z"
       id="path15136"
       transform="matrix(0.26458333,0,0,0.26458333,15.174996,89.258332)" />
    <path
       style="fill:#ff0000;fill-opacity:1;stroke:none;stroke-width:0.527053"
       d="m 263.26279,1222.7621 c 0,-9.7109 0.17921,-17.6562 0.39824,-17.6562 0.21904,0 8.34091,7.9453 18.04861,17.6562 l 17.65036,17.6563 h -18.0486 -18.04861 z"
       id="path15175"
       transform="matrix(0.26458333,0,0,0.26458333,15.174996,89.258332)" />
    <path
       style="fill:#a00bf7;fill-opacity:1;stroke:none;stroke-width:0.527053"
       d="m 283.15594,1222.1003 c -9.20195,-9.2054 -16.73083,-16.9168 -16.73083,-17.1365 0,-0.2198 7.64885,-0.337 16.99745,-0.2605 l 16.99745,0.139 0.13906,16.9975 c 0.0765,9.3486 -0.0435,16.9974 -0.26661,16.9974 -0.22313,0 -7.93456,-7.5316 -17.13652,-16.7369 z"
       id="path15214"
       transform="matrix(0.26458333,0,0,0.26458333,15.174996,89.258332)" />
  </g>
</svg>
