<?xml version="1.0" encoding="UTF-8" standalone="no"?>
<!-- Created with Inkscape (http://www.inkscape.org/) -->

<svg
   width="59.408333mm"
   height="22.366671mm"
   viewBox="0 0 59.408332 22.36667"
   version="1.1"
   id="svg5"
   sodipodi:docname="ESMRoutineFractionsTriangles6.svg"
   inkscape:version="1.1 (c4e8f9e, 2021-05-24)"
   xmlns:inkscape="http://www.inkscape.org/namespaces/inkscape"
   xmlns:sodipodi="http://sodipodi.sourceforge.net/DTD/sodipodi-0.dtd"
   xmlns="http://www.w3.org/2000/svg"
   xmlns:svg="http://www.w3.org/2000/svg">
  <sodipodi:namedview
     id="namedview7"
     pagecolor="#ffffff"
     bordercolor="#666666"
     borderopacity="1.0"
     inkscape:pageshadow="2"
     inkscape:pageopacity="1"
     inkscape:pagecheckerboard="0"
     inkscape:document-units="mm"
     showgrid="true"
     inkscape:zoom="0.47433593"
     inkscape:cx="42.164211"
     inkscape:cy="41.110106"
     inkscape:window-width="1173"
     inkscape:window-height="997"
     inkscape:window-x="0"
     inkscape:window-y="25"
     inkscape:window-maximized="0"
     inkscape:current-layer="layer1"
     fit-margin-left="0.1"
     fit-margin-top="0.1"
     fit-margin-right="0.1"
     fit-margin-bottom="0.1">
    <inkscape:grid
       type="xygrid"
       id="grid824"
       originx="-36.441664"
       originy="-539.14997" />
  </sodipodi:namedview>
  <defs
     id="defs2" />
  <g
     inkscape:label="Layer 1"
     inkscape:groupmode="layer"
     id="layer1"
     transform="translate(-36.441666,-539.15001)">
    <path
       style="fill:none;stroke:#000000;stroke-width:1;stroke-linecap:butt;stroke-linejoin:miter;stroke-miterlimit:4;stroke-dasharray:none;stroke-opacity:1"
       d="m 37.041666,539.75001 h 21.166666 v 21.16667 H 37.041666 Z"
       id="path31628-1" />
    <path
       style="fill:none;stroke:#000000;stroke-width:0.264583px;stroke-linecap:butt;stroke-linejoin:miter;stroke-opacity:1"
       d="m 47.624998,539.75001 v 21.16667"
       id="path31823-4" />
    <path
       style="fill:none;stroke:#000000;stroke-width:0.264583px;stroke-linecap:butt;stroke-linejoin:miter;stroke-opacity:1"
       d="M 37.041666,550.33335 H 58.208332"
       id="path31825-8" />
    <path
       style="fill:none;stroke:#000000;stroke-width:1;stroke-linecap:butt;stroke-linejoin:miter;stroke-miterlimit:4;stroke-dasharray:none;stroke-opacity:1"
       d="m 74.083333,539.75001 h 21.166666 v 21.16667 H 74.083333 Z"
       id="path31628-18" />
    <path
       style="fill:none;stroke:#000000;stroke-width:0.264583px;stroke-linecap:butt;stroke-linejoin:miter;stroke-opacity:1"
       d="m 84.666665,539.75001 v 21.16667"
       id="path31823-5" />
    <path
       style="fill:none;stroke:#000000;stroke-width:0.264583px;stroke-linecap:butt;stroke-linejoin:miter;stroke-opacity:1"
       d="M 74.083333,550.33335 H 95.249999"
       id="path31825-3" />
    <path
       style="fill:none;stroke:#000000;stroke-width:0.264583px;stroke-linecap:butt;stroke-linejoin:miter;stroke-opacity:1"
       d="m 47.624998,539.75 10.583334,10.58333"
       id="path62661" />
    <path
       style="fill:none;stroke:#000000;stroke-width:0.264583px;stroke-linecap:butt;stroke-linejoin:miter;stroke-opacity:1"
       d="m 37.041666,539.75 21.166666,21.16667"
       id="path62663" />
    <path
       style="fill:none;stroke:#000000;stroke-width:0.264583px;stroke-linecap:butt;stroke-linejoin:miter;stroke-opacity:1"
       d="m 37.041666,550.33333 10.583332,10.58334"
       id="path62665" />
    <path
       style="fill:#a00bf7;fill-opacity:1;stroke:none;stroke-width:0.527053"
       d="m 142.83417,1722.1477 -17.91688,-17.923 h 17.80166 c 13.81257,0 17.85866,0.1485 18.05601,0.6628 0.13989,0.3646 0.19174,8.4299 0.11522,17.923 l -0.13913,17.2602 z"
       id="path62704"
       transform="matrix(0.26458333,0,0,0.26458333,15.174996,89.258332)" />
    <path
       style="fill:#0087ff;fill-opacity:1;stroke:none;stroke-width:0.527053"
       d="m 103.30232,1722.6715 -18.441198,-18.4468 h 18.575778 18.57579 v 18.4468 c 0,10.1458 -0.0606,18.4469 -0.13459,18.4469 -0.074,0 -8.43313,-8.3011 -18.57578,-18.4469 z"
       id="path62743"
       transform="matrix(0.26458333,0,0,0.26458333,15.174996,89.258332)" />
    <path
       style="fill:#0087ff;fill-opacity:1;stroke:none;stroke-width:0.527053"
       d="m 123.06679,1723.18 c 0,-17.9309 0.0516,-18.9639 0.92234,-18.4825 1.15187,0.6369 37.02545,36.5801 37.02545,37.0974 0,0.2077 -8.53825,0.3776 -18.97389,0.3776 h -18.9739 z"
       id="path62782"
       transform="matrix(0.26458333,0,0,0.26458333,15.174996,89.258332)" />
    <path
       style="fill:#0087ff;fill-opacity:1;stroke:none;stroke-width:0.527053"
       d="m 142.30421,1761.6734 -18.44119,-18.4468 h 18.57578 18.57578 v 18.4468 c 0,10.1458 -0.0606,18.4469 -0.13459,18.4469 -0.074,0 -8.43312,-8.3011 -18.57578,-18.4469 z"
       id="path62821"
       transform="matrix(0.26458333,0,0,0.26458333,15.174996,89.258332)" />
    <path
       style="fill:#a00bf7;fill-opacity:1;stroke:none;stroke-width:0.527053"
       d="m 84.591948,1723.5967 v -18.5758 l 18.446842,18.4412 c 10.14576,10.1427 18.44684,18.5018 18.44684,18.5758 0,0.074 -8.30108,0.1346 -18.44684,0.1346 H 84.591948 Z"
       id="path62860"
       transform="matrix(0.26458333,0,0,0.26458333,15.174996,89.258332)" />
    <path
       style="fill:#a00bf7;fill-opacity:1;stroke:none;stroke-width:0.527053"
       d="m 102.9042,1762.3295 c -10.071737,-10.0749 -18.312252,-18.4945 -18.312252,-18.7104 0,-0.2159 8.419666,-0.3925 18.710372,-0.3925 h 18.71037 v 18.7104 c 0,10.2907 -0.17916,18.7103 -0.39812,18.7103 -0.21896,0 -8.63863,-8.243 -18.71037,-18.3178 z"
       id="path62899"
       transform="matrix(0.26458333,0,0,0.26458333,15.174996,89.258332)" />
    <path
       style="fill:#a00bf7;fill-opacity:1;stroke:none;stroke-width:0.527053"
       d="m 123.06679,1762.0715 v -18.5757 l 18.44684,18.4412 c 10.14577,10.1426 18.44684,18.5017 18.44684,18.5757 0,0.074 -8.30107,0.1346 -18.44684,0.1346 h -18.44684 z"
       id="path62938"
       transform="matrix(0.26458333,0,0,0.26458333,15.174996,89.258332)" />
    <path
       style="fill:#0087ff;fill-opacity:1;stroke:none;stroke-width:0.527053"
       d="m 84.591948,1762.8623 v -17.7851 l 17.656262,17.6503 c 9.71095,9.7077 17.65626,17.711 17.65626,17.7851 0,0.074 -7.94531,0.1347 -17.65626,0.1347 H 84.591948 Z"
       id="path62977"
       transform="matrix(0.26458333,0,0,0.26458333,15.174996,89.258332)" />
    <path
       style="fill:none;stroke:#000000;stroke-width:0.264583px;stroke-linecap:butt;stroke-linejoin:miter;stroke-opacity:1"
       d="M 74.083331,550.33333 84.666665,539.75 95.249998,550.33333 84.666665,560.91667 Z"
       id="path69350" />
    <path
       style="fill:#0087ff;fill-opacity:1;stroke:none;stroke-width:0.527053"
       d="m 224.2609,1762.9911 c 0,-9.711 0.1792,-17.6563 0.39824,-17.6563 0.21903,0 8.3409,7.9453 18.0486,17.6563 l 17.65036,17.6562 h -18.0486 -18.0486 z"
       id="path69463"
       transform="matrix(0.26458333,0,0,0.26458333,15.174996,89.258332)" />
    <path
       style="fill:#ff0000;fill-opacity:1;stroke:none;stroke-width:0.527053"
       d="m 242.70774,1761.937 -18.7048,-18.7104 h 19.10287 19.10288 v 18.7104 c 0,10.2907 -0.17914,18.7103 -0.39808,18.7103 -0.21894,0 -8.81523,-8.4196 -19.10287,-18.7103 z"
       id="path69502"
       transform="matrix(0.26458333,0,0,0.26458333,15.174996,89.258332)" />
    <path
       style="fill:#a00bf7;fill-opacity:1;stroke:none;stroke-width:0.527053"
       d="m 263.26279,1761.937 v -18.7104 h 18.71037 c 10.2907,0 18.71037,0.1791 18.71037,0.3981 0,0.5167 -36.51144,37.0226 -37.02823,37.0226 -0.21588,0 -0.39251,-8.4196 -0.39251,-18.7103 z"
       id="path69541"
       transform="matrix(0.26458333,0,0,0.26458333,15.174996,89.258332)" />
    <path
       style="fill:#0087ff;fill-opacity:1;stroke:none;stroke-width:0.527053"
       d="m 282.76374,1762.9911 c 9.7077,-9.711 17.71098,-17.6563 17.78508,-17.6563 0.0741,0 0.13471,7.9453 0.13471,17.6563 v 17.6562 h -17.78508 -17.78507 z"
       id="path69580"
       transform="matrix(0.26458333,0,0,0.26458333,15.174996,89.258332)" />
    <path
       style="fill:#0087ff;fill-opacity:1;stroke:none;stroke-width:0.527053"
       d="m 282.89255,1722.5369 c -9.63685,-9.6401 -17.52155,-17.704 -17.52155,-17.9198 0,-0.2158 7.94532,-0.3924 17.65627,-0.3924 h 17.65626 v 17.9198 c 0,9.8559 -0.0606,17.9198 -0.13471,17.9198 -0.0741,0 -8.01942,-7.8874 -17.65627,-17.5274 z"
       id="path69619"
       transform="matrix(0.26458333,0,0,0.26458333,15.174996,89.258332)" />
    <path
       style="fill:#ff0000;fill-opacity:1;stroke:none;stroke-width:0.527053"
       d="m 263.26279,1723.0696 v -19.1029 l 18.71037,18.7048 c 10.2907,10.2877 18.71037,18.884 18.71037,19.1029 0,0.219 -8.41967,0.3981 -18.71037,0.3981 h -18.71037 z"
       id="path69658"
       transform="matrix(0.26458333,0,0,0.26458333,15.174996,89.258332)" />
    <path
       style="fill:#a00bf7;fill-opacity:1;stroke:none;stroke-width:0.527053"
       d="m 224.73374,1741.2501 c 0.63683,-1.1518 36.58009,-37.0254 37.09736,-37.0254 0.20767,0 0.37759,8.5383 0.37759,18.9739 v 18.9739 h -18.99244 c -17.93093,0 -18.96394,-0.052 -18.48251,-0.9224 z"
       id="path69697"
       transform="matrix(0.26458333,0,0,0.26458333,15.174996,89.258332)" />
    <path
       style="fill:#0087ff;fill-opacity:1;stroke:none;stroke-width:0.527053"
       d="m 224.2609,1722.5203 c 0,-13.8125 0.14853,-17.8586 0.66282,-18.056 0.36456,-0.1399 8.42991,-0.1917 17.923,-0.1152 l 17.26017,0.1391 -17.923,17.9169 -17.92299,17.9169 z"
       id="path69736"
       transform="matrix(0.26458333,0,0,0.26458333,15.174996,89.258332)" />
  </g>
</svg>
