<?xml version="1.0" encoding="UTF-8" standalone="no"?>
<!-- Created with Inkscape (http://www.inkscape.org/) -->

<svg
   width="80.774994mm"
   height="11.98334mm"
   viewBox="0 0 80.774993 11.98334"
   version="1.1"
   id="svg5"
   sodipodi:docname="ESMRoutineFractionsTriangles2.svg"
   inkscape:version="1.1 (c4e8f9e, 2021-05-24)"
   xmlns:inkscape="http://www.inkscape.org/namespaces/inkscape"
   xmlns:sodipodi="http://sodipodi.sourceforge.net/DTD/sodipodi-0.dtd"
   xmlns="http://www.w3.org/2000/svg"
   xmlns:svg="http://www.w3.org/2000/svg">
  <sodipodi:namedview
     id="namedview7"
     pagecolor="#ffffff"
     bordercolor="#666666"
     borderopacity="1.0"
     inkscape:pageshadow="2"
     inkscape:pageopacity="1"
     inkscape:pagecheckerboard="0"
     inkscape:document-units="mm"
     showgrid="true"
     inkscape:zoom="0.47433593"
     inkscape:cx="153.89937"
     inkscape:cy="568.16274"
     inkscape:window-width="1173"
     inkscape:window-height="997"
     inkscape:window-x="0"
     inkscape:window-y="25"
     inkscape:window-maximized="0"
     inkscape:current-layer="layer1"
     fit-margin-left="0.1"
     fit-margin-top="0.1"
     fit-margin-right="0.1"
     fit-margin-bottom="0.1">
    <inkscape:grid
       type="xygrid"
       id="grid824"
       originx="-25.75833"
       originy="-427.92493" />
  </sodipodi:namedview>
  <defs
     id="defs2" />
  <g
     inkscape:label="Layer 1"
     inkscape:groupmode="layer"
     id="layer1"
     transform="translate(-25.758333,-427.925)">
    <path
       style="fill:none;stroke:#000000;stroke-width:1.2;stroke-linecap:butt;stroke-linejoin:miter;stroke-miterlimit:4;stroke-dasharray:none;stroke-opacity:1"
       d="m 26.458333,428.625 h 31.749999 v 10.58334 H 26.458333 Z"
       id="path959" />
    <path
       style="fill:none;stroke:#000000;stroke-width:1.2;stroke-linecap:butt;stroke-linejoin:miter;stroke-miterlimit:4;stroke-dasharray:none;stroke-opacity:1"
       d="m 74.083333,428.625 h 31.749997 v 10.58334 H 74.083333 Z"
       id="path959-5" />
    <path
       style="fill:none;stroke:#000000;stroke-width:0.264583px;stroke-linecap:butt;stroke-linejoin:miter;stroke-opacity:1"
       d="m 37.041666,428.625 v 10.58334"
       id="path1112" />
    <path
       style="fill:none;stroke:#000000;stroke-width:0.264583px;stroke-linecap:butt;stroke-linejoin:miter;stroke-opacity:1"
       d="m 47.624998,428.625 v 10.58334"
       id="path1114" />
    <path
       style="fill:none;stroke:#000000;stroke-width:0.264583px;stroke-linecap:butt;stroke-linejoin:miter;stroke-opacity:1"
       d="m 84.666665,428.625 v 10.58334"
       id="path1116" />
    <path
       style="fill:none;stroke:#000000;stroke-width:0.264583px;stroke-linecap:butt;stroke-linejoin:miter;stroke-opacity:1"
       d="m 95.249998,428.625 v 10.58334"
       id="path1118" />
    <path
       style="fill:none;stroke:#000000;stroke-width:0.264583px;stroke-linecap:butt;stroke-linejoin:miter;stroke-opacity:1"
       d="M 37.041666,428.625 26.458333,439.20834"
       id="path1130" />
    <path
       style="fill:none;stroke:#000000;stroke-width:0.264583px;stroke-linecap:butt;stroke-linejoin:miter;stroke-opacity:1"
       d="M 37.041666,439.20834 47.624998,428.625"
       id="path1132" />
    <path
       style="fill:none;stroke:#000000;stroke-width:0.264583px;stroke-linecap:butt;stroke-linejoin:miter;stroke-opacity:1"
       d="M 47.624998,439.20834 58.208332,428.625"
       id="path1134" />
    <path
       style="fill:none;stroke:#000000;stroke-width:0.264583px;stroke-linecap:butt;stroke-linejoin:miter;stroke-opacity:1"
       d="M 95.249998,439.20834 84.666665,428.625"
       id="path1136" />
    <path
       style="fill:none;stroke:#000000;stroke-width:0.264583px;stroke-linecap:butt;stroke-linejoin:miter;stroke-opacity:1"
       d="M 84.666665,439.20834 74.083331,428.625"
       id="path1138" />
    <path
       style="fill:#ff0000;fill-opacity:1;stroke:none;stroke-width:0.745365"
       d="m 45.094582,1302.3329 v -17.6963 h 17.143394 c 9.428867,0 17.143395,0.2542 17.143395,0.5651 0,0.3108 -7.714528,8.2741 -17.143395,17.6963 l -17.143394,17.1312 z"
       id="path1181"
       transform="matrix(0.26458333,0,0,0.26458333,15.174996,89.258332)" />
    <path
       style="fill:#0087ff;fill-opacity:1;stroke:none;stroke-width:0.745365"
       d="m 63.356024,1302.5253 c 9.832411,-9.8388 18.131293,-17.8887 18.44196,-17.8887 0.310666,0 0.564847,8.0499 0.564847,17.8887 v 17.8888 H 63.920871 45.478912 Z"
       id="path1220"
       transform="matrix(0.26458333,0,0,0.26458333,15.174996,89.258332)" />
    <path
       style="fill:#ff0000;fill-opacity:1;stroke:none;stroke-width:0.745365"
       d="m 83.108196,1302.5253 v -17.8887 h 18.441964 18.44195 l -17.87711,17.8887 c -9.832408,9.8388 -18.13129,17.8888 -18.441957,17.8888 -0.310666,0 -0.564847,-8.05 -0.564847,-17.8888 z"
       id="path1259"
       transform="matrix(0.26458333,0,0,0.26458333,15.174996,89.258332)" />
    <path
       style="fill:#0087ff;fill-opacity:1;stroke:none;stroke-width:0.745365"
       d="m 142.73739,1302.898 c 9.6273,-9.6338 17.59072,-17.5161 17.69648,-17.5161 0.10575,0 0.19228,7.8823 0.19228,17.5161 v 17.5161 h -17.69647 -17.69647 z"
       id="path1374"
       transform="matrix(0.26458333,0,0,0.26458333,15.174996,89.258332)" />
    <path
       style="fill:#a00bf7;fill-opacity:1;stroke:none;stroke-width:0.745365"
       d="m 224.72754,1302.7176 v -17.6965 l 17.51608,17.5042 c 9.63384,9.6273 17.51608,17.5907 17.51608,17.6965 0,0.1057 -7.88224,0.1923 -17.51608,0.1923 h -17.51608 z"
       id="path1413"
       transform="matrix(0.26458333,0,0,0.26458333,15.174996,89.258332)" />
    <path
       style="fill:#ffce00;fill-opacity:1;stroke:none;stroke-width:0.745365"
       d="m 242.98899,1302.5253 -17.87712,-17.8887 h 18.44196 18.44196 v 17.8887 c 0,9.8388 -0.25418,17.8888 -0.56484,17.8888 -0.31067,0 -8.60955,-8.05 -18.44196,-17.8888 z"
       id="path1452"
       transform="matrix(0.26458333,0,0,0.26458333,15.174996,89.258332)" />
    <path
       style="fill:#ffce00;fill-opacity:1;stroke:none;stroke-width:0.745365"
       d="m 262.74116,1302.5253 c 0,-9.8388 0.25418,-17.8887 0.56484,-17.8887 0.31067,0 8.60955,8.0499 18.44196,17.8887 l 17.87712,17.8888 h -18.44196 -18.44196 z"
       id="path1491"
       transform="matrix(0.26458333,0,0,0.26458333,15.174996,89.258332)" />
    <path
       style="fill:#0087ff;fill-opacity:1;stroke:none;stroke-width:0.745365"
       d="m 283.23869,1302.5253 -17.87711,-17.8887 h 18.44196 18.44196 v 17.8887 c 0,9.8388 -0.25418,17.8888 -0.56485,17.8888 -0.31066,0 -8.60954,-8.05 -18.44196,-17.8888 z"
       id="path1530"
       transform="matrix(0.26458333,0,0,0.26458333,15.174996,89.258332)" />
    <path
       style="fill:#0087ff;fill-opacity:1;stroke:none;stroke-width:0.745365"
       d="m 302.99087,1302.5253 v -17.8887 h 18.63412 18.63413 v 17.8887 17.8888 h -18.63413 -18.63412 z"
       id="path1569"
       transform="matrix(0.26458333,0,0,0.26458333,15.174996,89.258332)" />
    <path
       style="fill:none;stroke:#000000;stroke-width:0.264583px;stroke-linecap:butt;stroke-linejoin:miter;stroke-opacity:1"
       d="m 47.624998,428.625 v 10.58334"
       id="path4802" />
    <path
       style="fill:#0087ff;fill-opacity:1;stroke:none;stroke-width:0.745365"
       d="m 103.60573,1302.5253 c 9.83241,-9.8388 17.96359,-17.8887 18.06928,-17.8887 0.10569,0 0.19217,8.0499 0.19217,17.8887 v 17.8888 H 103.7979 85.728621 Z"
       id="path4921"
       transform="matrix(0.26458333,0,0,0.26458333,15.174996,89.258332)" />
    <path
       style="fill:#ffce00;fill-opacity:1;stroke:none;stroke-width:0.745365"
       d="m 123.35791,1302.5253 v -17.8887 h 18.44195 18.44196 l -17.87711,17.8887 c -9.83241,9.8388 -18.13129,17.8888 -18.44196,17.8888 -0.31066,0 -0.56484,-8.05 -0.56484,-17.8888 z"
       id="path4960"
       transform="matrix(0.26458333,0,0,0.26458333,15.174996,89.258332)" />
  </g>
</svg>
