<?xml version="1.0" encoding="UTF-8" standalone="no"?>
<!-- Created with Inkscape (http://www.inkscape.org/) -->

<svg
   width="427.98312mm"
   height="131.76941mm"
   viewBox="0 0 427.98312 131.76941"
   version="1.1"
   id="svg5"
   inkscape:version="1.1 (c4e8f9e, 2021-05-24)"
   sodipodi:docname="ESMSplats1Color1Splat8-3.svg"
   xmlns:inkscape="http://www.inkscape.org/namespaces/inkscape"
   xmlns:sodipodi="http://sodipodi.sourceforge.net/DTD/sodipodi-0.dtd"
   xmlns="http://www.w3.org/2000/svg"
   xmlns:svg="http://www.w3.org/2000/svg">
  <sodipodi:namedview
     id="namedview7"
     pagecolor="#ffffff"
     bordercolor="#666666"
     borderopacity="1.0"
     inkscape:pageshadow="2"
     inkscape:pageopacity="1"
     inkscape:pagecheckerboard="0"
     inkscape:document-units="mm"
     showgrid="true"
     inkscape:zoom="0.47433592"
     inkscape:cx="625.08443"
     inkscape:cy="273.01327"
     inkscape:window-width="1716"
     inkscape:window-height="997"
     inkscape:window-x="0"
     inkscape:window-y="25"
     inkscape:window-maximized="0"
     inkscape:current-layer="layer1"
     fit-margin-left="1"
     fit-margin-top="1"
     fit-margin-right="1"
     fit-margin-bottom="1"
     inkscape:snap-global="false">
    <inkscape:grid
       type="xygrid"
       id="grid824"
       originx="-8.5423815"
       originy="-58.436448" />
  </sodipodi:namedview>
  <defs
     id="defs2">
    <marker
       style="overflow:visible"
       id="Arrow2Mend"
       refX="0"
       refY="0"
       orient="auto"
       inkscape:stockid="Arrow2Mend"
       inkscape:isstock="true">
      <path
         transform="scale(-0.6)"
         d="M 8.7185878,4.0337352 -2.2072895,0.01601326 8.7185884,-4.0017078 c -1.7454984,2.3720609 -1.7354408,5.6174519 -6e-7,8.035443 z"
         style="fill:context-stroke;fill-rule:evenodd;stroke-width:0.625;stroke-linejoin:round"
         id="path1251" />
    </marker>
  </defs>
  <g
     inkscape:label="Layer 1"
     inkscape:groupmode="layer"
     id="layer1"
     transform="translate(-8.5423819,-58.436449)">
    <rect
       style="fill:none;stroke:#000000;stroke-width:2.07565;stroke-linecap:round;stroke-linejoin:round;stroke-miterlimit:4;stroke-dasharray:none;stroke-opacity:1"
       id="rect1151"
       width="173.60895"
       height="127.31699"
       x="10.580207"
       y="60.85104"
       ry="12.731698" />
    <circle
       style="fill:#0066ff;fill-rule:evenodd;stroke-width:0.264583"
       id="path848-7"
       cx="48.154163"
       cy="95.25"
       r="7.9375" />
    <text
       xml:space="preserve"
       style="font-size:19.7556px;line-height:1.25;font-family:Chalkboard;-inkscape-font-specification:Chalkboard;letter-spacing:0.264583px;word-spacing:0.264583px;stroke-width:0.264583"
       x="161.57825"
       y="82.681984"
       id="text1067"><tspan
         sodipodi:role="line"
         id="tspan1065"
         style="font-size:19.7556px;stroke-width:0.264583"
         x="161.57825"
         y="82.681984">8</tspan></text>
    <circle
       style="fill:#0066ff;fill-rule:evenodd;stroke-width:0.264583"
       id="path848-7-7"
       cx="89.793373"
       cy="111.27139"
       r="7.9375" />
    <circle
       style="fill:#0066ff;fill-rule:evenodd;stroke-width:0.264583"
       id="path848-7-6"
       cx="44.797188"
       cy="134.5423"
       r="7.9375" />
    <circle
       style="fill:#0066ff;fill-rule:evenodd;stroke-width:0.264583"
       id="path848-7-1"
       cx="133.57426"
       cy="135.72557"
       r="7.9375" />
    <circle
       style="fill:#0066ff;fill-rule:evenodd;stroke-width:0.264583"
       id="path848-7-4"
       cx="93.737595"
       cy="142.03632"
       r="7.9375" />
    <circle
       style="fill:#0066ff;fill-rule:evenodd;stroke-width:0.264583"
       id="path848-7-8"
       cx="116.6141"
       cy="144.79727"
       r="7.9375" />
    <circle
       style="fill:#0066ff;fill-rule:evenodd;stroke-width:0.264583"
       id="path848-7-2"
       cx="114.24756"
       cy="122.31521"
       r="7.9375" />
    <circle
       style="fill:#0066ff;fill-rule:evenodd;stroke-width:0.264583"
       id="path848-7-0"
       cx="109.90891"
       cy="168.46262"
       r="7.9375" />
    <path
       style="opacity:1;fill:#000000;fill-opacity:1;stroke:#000000;stroke-width:0.7;stroke-linecap:butt;stroke-linejoin:miter;stroke-miterlimit:4;stroke-dasharray:none;stroke-opacity:1"
       d="m 107.14796,110.87697 c -6.0549,-6.59916 -7.855194,-11.199162 -17.443077,-10.68963 -9.958247,1.19184 -17.746765,12.36187 -14.419499,22.05368 0.928117,4.56579 3.248272,9.53806 0.833321,14.0456 -3.036258,3.54129 -8.874226,4.23028 -10.494781,9.05039 -2.413207,3.97419 -4.556988,8.95712 -2.670604,13.576 5.098723,4.98027 13.181643,3.90468 19.107491,1.13051 9.00663,-3.60777 18.411669,-8.69288 28.434759,-6.78284 7.85899,1.66446 15.29464,7.06835 23.62977,5.14262 9.78276,-0.52212 19.00822,-8.12299 20.1834,-18.06411 0.71146,-4.44422 -1.53654,-9.5976 -6.17146,-10.78963 -4.42575,-1.7676 -8.91557,-6.60478 -6.36428,-11.57591 1.16013,-3.98113 0.52598,-9.45124 -3.82815,-11.17473 -5.51924,-2.63306 -12.58674,-0.22898 -15.88879,4.77785 -2.31264,2.20315 -11.9852,1.03141 -14.9081,-0.6998 z"
       id="path4108"
       sodipodi:nodetypes="ccccccccccccccc" />
    <path
       style="fill:none;stroke:#ee0000;stroke-width:3;stroke-linecap:butt;stroke-linejoin:miter;stroke-miterlimit:4;stroke-dasharray:9, 9;stroke-dashoffset:0;stroke-opacity:1;marker-end:url(#Arrow2Mend)"
       d="m 201.68617,124.21884 h 47.625"
       id="path1124" />
    <rect
       style="fill:none;stroke:#000000;stroke-width:2.07565;stroke-linecap:round;stroke-linejoin:round;stroke-miterlimit:4;stroke-dasharray:none;stroke-opacity:1"
       id="rect1151-5"
       width="173.60895"
       height="127.31699"
       x="260.87872"
       y="60.474274"
       ry="12.731698" />
    <circle
       style="fill:#0066ff;fill-rule:evenodd;stroke-width:0.264583"
       id="path848-7-04"
       cx="298.45267"
       cy="94.87323"
       r="7.9375" />
    <text
       xml:space="preserve"
       style="font-size:19.7556px;line-height:1.25;font-family:Chalkboard;-inkscape-font-specification:Chalkboard;letter-spacing:0.264583px;word-spacing:0.264583px;stroke-width:0.264583"
       x="411.87677"
       y="82.305214"
       id="text1067-5"><tspan
         sodipodi:role="line"
         id="tspan1065-1"
         style="font-size:19.7556px;stroke-width:0.264583"
         x="411.87677"
         y="82.305214">8</tspan></text>
    <circle
       style="fill:#0066ff;fill-rule:evenodd;stroke-width:0.264583"
       id="path848-7-7-2"
       cx="340.09189"
       cy="110.89462"
       r="7.9375" />
    <circle
       style="fill:#0066ff;fill-rule:evenodd;stroke-width:0.264583"
       id="path848-7-6-3"
       cx="295.0957"
       cy="134.16554"
       r="7.9375" />
    <circle
       style="fill:#0066ff;fill-rule:evenodd;stroke-width:0.264583"
       id="path848-7-1-7"
       cx="383.87277"
       cy="135.34882"
       r="7.9375" />
    <circle
       style="fill:#0066ff;fill-rule:evenodd;stroke-width:0.264583"
       id="path848-7-4-2"
       cx="344.0361"
       cy="141.65956"
       r="7.9375" />
    <circle
       style="fill:#0066ff;fill-rule:evenodd;stroke-width:0.264583"
       id="path848-7-8-4"
       cx="366.9126"
       cy="144.42052"
       r="7.9375" />
    <circle
       style="fill:#0066ff;fill-rule:evenodd;stroke-width:0.264583"
       id="path848-7-2-1"
       cx="364.54608"
       cy="121.93845"
       r="7.9375" />
    <circle
       style="fill:#0066ff;fill-rule:evenodd;stroke-width:0.264583"
       id="path848-7-0-8"
       cx="360.20743"
       cy="168.08586"
       r="7.9375" />
    <path
       style="opacity:0.132039;fill:#000000;fill-opacity:1;stroke:#000000;stroke-width:0.7;stroke-linecap:butt;stroke-linejoin:miter;stroke-miterlimit:4;stroke-dasharray:none;stroke-opacity:1"
       d="m 357.44647,110.5002 c -6.0549,-6.59916 -7.85519,-11.199164 -17.44308,-10.689627 -9.95824,1.191837 -17.74676,12.361867 -14.4195,22.053677 0.92812,4.56579 3.24828,9.53806 0.83332,14.0456 -3.03625,3.54129 -8.87422,4.23028 -10.49478,9.05039 -2.4132,3.97419 -4.55698,8.95712 -2.6706,13.576 5.09872,4.98027 13.18164,3.90468 19.10749,1.13051 9.00663,-3.60777 18.41167,-8.69288 28.43476,-6.78284 7.85899,1.66446 15.29464,7.06835 23.62977,5.14262 9.78276,-0.52212 19.00822,-8.12299 20.1834,-18.06411 0.71146,-4.44422 -1.53654,-9.5976 -6.17146,-10.78963 -4.42575,-1.7676 -8.91557,-6.60478 -6.36428,-11.57591 1.16013,-3.98113 0.52598,-9.45124 -3.82815,-11.17473 -5.51924,-2.63306 -12.58674,-0.22898 -15.88879,4.77785 -2.31264,2.20315 -11.9852,1.03141 -14.9081,-0.6998 z"
       id="path4108-2"
       sodipodi:nodetypes="ccccccccccccccc" />
  </g>
</svg>
