<?xml version="1.0" encoding="UTF-8" standalone="no"?>
<!-- Created with Inkscape (http://www.inkscape.org/) -->

<svg
   width="177.6846mm"
   height="131.39264mm"
   viewBox="0 0 177.6846 131.39264"
   version="1.1"
   id="svg5"
   inkscape:version="1.1 (c4e8f9e, 2021-05-24)"
   sodipodi:docname="ESMSplats1Color2-3Splat6-4.svg"
   xmlns:inkscape="http://www.inkscape.org/namespaces/inkscape"
   xmlns:sodipodi="http://sodipodi.sourceforge.net/DTD/sodipodi-0.dtd"
   xmlns="http://www.w3.org/2000/svg"
   xmlns:svg="http://www.w3.org/2000/svg">
  <sodipodi:namedview
     id="namedview7"
     pagecolor="#ffffff"
     bordercolor="#666666"
     borderopacity="1.0"
     inkscape:pageshadow="2"
     inkscape:pageopacity="1"
     inkscape:pagecheckerboard="0"
     inkscape:document-units="mm"
     showgrid="true"
     inkscape:zoom="0.67081229"
     inkscape:cx="267.58603"
     inkscape:cy="467.34385"
     inkscape:window-width="1716"
     inkscape:window-height="997"
     inkscape:window-x="0"
     inkscape:window-y="25"
     inkscape:window-maximized="0"
     inkscape:current-layer="layer1"
     fit-margin-left="1"
     fit-margin-top="1"
     fit-margin-right="1"
     fit-margin-bottom="1"
     inkscape:snap-global="false">
    <inkscape:grid
       type="xygrid"
       id="grid824"
       originx="-8.5423814"
       originy="-58.813215" />
  </sodipodi:namedview>
  <defs
     id="defs2" />
  <g
     inkscape:label="Layer 1"
     inkscape:groupmode="layer"
     id="layer1"
     transform="translate(-8.5423819,-58.813215)">
    <rect
       style="fill:none;stroke:#000000;stroke-width:2.07565;stroke-linecap:round;stroke-linejoin:round;stroke-miterlimit:4;stroke-dasharray:none;stroke-opacity:1"
       id="rect1151"
       width="173.60895"
       height="127.31699"
       x="10.580207"
       y="60.85104"
       ry="12.731698" />
    <circle
       style="fill:#0066ff;fill-rule:evenodd;stroke-width:0.264583"
       id="path848-7"
       cx="48.154163"
       cy="95.25"
       r="7.9375" />
    <text
       xml:space="preserve"
       style="font-size:19.7556px;line-height:1.25;font-family:Chalkboard;-inkscape-font-specification:Chalkboard;letter-spacing:0.264583px;word-spacing:0.264583px;stroke-width:0.264583"
       x="161.57825"
       y="82.681984"
       id="text1067"><tspan
         sodipodi:role="line"
         id="tspan1065"
         style="font-size:19.7556px;stroke-width:0.264583"
         x="161.57825"
         y="82.681984">6</tspan></text>
    <circle
       style="fill:#0066ff;fill-rule:evenodd;stroke-width:0.264583"
       id="path848-7-6"
       cx="40.458542"
       cy="130.49997"
       r="7.9375" />
    <circle
       style="fill:#0066ff;fill-rule:evenodd;stroke-width:0.264583"
       id="path848-7-1"
       cx="64.550362"
       cy="114.42676"
       r="7.9375" />
    <circle
       style="fill:#0066ff;fill-rule:evenodd;stroke-width:0.264583"
       id="path848-7-4"
       cx="59.817276"
       cy="144.00842"
       r="7.9375" />
    <circle
       style="fill:#0066ff;fill-rule:evenodd;stroke-width:0.264583"
       id="path848-7-7-6"
       cx="120.3611"
       cy="100.42478"
       r="7.9375" />
    <circle
       style="fill:#0066ff;fill-rule:evenodd;stroke-width:0.264583"
       id="path848-7-1-9"
       cx="145.60414"
       cy="157.22157"
       r="7.9375" />
    <path
       style="opacity:0.254369;fill:#000000;fill-opacity:1;stroke:#000000;stroke-width:0.7;stroke-linecap:butt;stroke-linejoin:miter;stroke-miterlimit:4;stroke-dasharray:none;stroke-opacity:1"
       d="m 129.6269,131.90043 c -6.0549,-6.59916 -7.8552,-11.19916 -17.44308,-10.68963 -9.95825,1.19184 -17.746767,12.36187 -14.419501,22.05368 0.928117,4.56579 3.248271,9.53806 0.833321,14.0456 -3.036258,3.54129 -8.874226,4.23028 -10.494781,9.05039 -2.413207,3.97419 -4.556988,8.95712 -2.670604,13.576 5.098723,4.98027 13.181643,3.90468 19.107495,1.13051 9.00663,-3.60777 18.41167,-8.69288 28.43476,-6.78284 7.85899,1.66446 15.29464,7.06835 23.62977,5.14262 9.78276,-0.52212 19.00822,-8.12299 20.1834,-18.06411 0.71146,-4.44422 -1.53654,-9.5976 -6.17146,-10.78963 -4.42575,-1.7676 -8.91557,-6.60478 -6.36428,-11.57591 1.16013,-3.98113 0.52598,-9.45124 -3.82815,-11.17473 -5.51924,-2.63306 -12.58674,-0.22898 -15.88879,4.77785 -2.31264,2.20315 -11.9852,1.03141 -14.9081,-0.6998 z"
       id="path4108-9"
       sodipodi:nodetypes="ccccccccccccccc" />
    <path
       style="opacity:0.254369;fill:#000000;fill-opacity:1;stroke:#000000;stroke-width:0.7;stroke-linecap:butt;stroke-linejoin:miter;stroke-miterlimit:4;stroke-dasharray:none;stroke-opacity:1"
       d="m 122.53043,75.37896 c -6.0549,-6.59916 -7.8552,-11.19916 -17.44308,-10.68963 -9.958247,1.19184 -17.746762,12.36187 -14.419496,22.05368 0.928117,4.56579 3.248269,9.538061 0.833321,14.0456 -3.036258,3.54129 -8.874226,4.23028 -10.494781,9.05039 -2.413207,3.97419 -4.556988,8.95712 -2.670604,13.576 5.098723,4.98027 13.181643,3.90468 19.107494,1.13051 9.006626,-3.60777 18.411666,-8.69288 28.434756,-6.78284 7.85899,1.66446 15.29464,7.06835 23.62977,5.14262 9.78276,-0.52212 19.00822,-8.12299 20.1834,-18.06411 0.71146,-4.44422 -1.53654,-9.597599 -6.17146,-10.789629 -4.42575,-1.767601 -8.91557,-6.604781 -6.36428,-11.575911 1.16013,-3.98113 0.52598,-9.45124 -3.82815,-11.17473 -5.51924,-2.63306 -12.58674,-0.22898 -15.88879,4.77785 -2.31264,2.20315 -11.9852,1.03141 -14.9081,-0.6998 z"
       id="path4108"
       sodipodi:nodetypes="ccccccccccccccc" />
  </g>
</svg>
