<?xml version="1.0" encoding="UTF-8" standalone="no"?>
<!-- Created with Inkscape (http://www.inkscape.org/) -->

<svg
   width="429.11356mm"
   height="131.74078mm"
   viewBox="0 0 429.11355 131.74078"
   version="1.1"
   id="svg5"
   inkscape:version="1.1 (c4e8f9e, 2021-05-24)"
   sodipodi:docname="ESMSplats1Color1Splat10-10.svg"
   xmlns:inkscape="http://www.inkscape.org/namespaces/inkscape"
   xmlns:sodipodi="http://sodipodi.sourceforge.net/DTD/sodipodi-0.dtd"
   xmlns="http://www.w3.org/2000/svg"
   xmlns:svg="http://www.w3.org/2000/svg">
  <sodipodi:namedview
     id="namedview7"
     pagecolor="#ffffff"
     bordercolor="#666666"
     borderopacity="1.0"
     inkscape:pageshadow="2"
     inkscape:pageopacity="1"
     inkscape:pagecheckerboard="0"
     inkscape:document-units="mm"
     showgrid="true"
     inkscape:zoom="0.47433592"
     inkscape:cx="835.90549"
     inkscape:cy="308.85285"
     inkscape:window-width="1716"
     inkscape:window-height="997"
     inkscape:window-x="51"
     inkscape:window-y="25"
     inkscape:window-maximized="0"
     inkscape:current-layer="layer1"
     fit-margin-left="1"
     fit-margin-top="1"
     fit-margin-right="1"
     fit-margin-bottom="1"
     inkscape:snap-global="false">
    <inkscape:grid
       type="xygrid"
       id="grid824"
       originx="-8.542381"
       originy="-58.465078" />
  </sodipodi:namedview>
  <defs
     id="defs2">
    <marker
       style="overflow:visible"
       id="Arrow2Mend"
       refX="0"
       refY="0"
       orient="auto"
       inkscape:stockid="Arrow2Mend"
       inkscape:isstock="true">
      <path
         transform="scale(-0.6)"
         d="M 8.7185878,4.0337352 -2.2072895,0.01601326 8.7185884,-4.0017078 c -1.7454984,2.3720609 -1.7354408,5.6174519 -6e-7,8.035443 z"
         style="fill:context-stroke;fill-rule:evenodd;stroke-width:0.625;stroke-linejoin:round"
         id="path1251" />
    </marker>
  </defs>
  <g
     inkscape:label="Layer 1"
     inkscape:groupmode="layer"
     id="layer1"
     transform="translate(-8.5423819,-58.465078)">
    <path
       style="opacity:1;fill:#000000;fill-opacity:1;stroke:#000000;stroke-width:0.7;stroke-linecap:butt;stroke-linejoin:miter;stroke-miterlimit:4;stroke-dasharray:none;stroke-opacity:1"
       d="m 107.14796,110.87697 c -6.0549,-6.59916 -7.855194,-11.199162 -17.443077,-10.68963 -9.958247,1.19184 -17.746765,12.36187 -14.419499,22.05368 0.928117,4.56579 3.248272,9.53806 0.833321,14.0456 -3.036258,3.54129 -8.874226,4.23028 -10.494781,9.05039 -2.413207,3.97419 -4.556988,8.95712 -2.670604,13.576 5.098723,4.98027 13.181643,3.90468 19.107491,1.13051 9.00663,-3.60777 18.411669,-8.69288 28.434759,-6.78284 7.85899,1.66446 15.29464,7.06835 23.62977,5.14262 9.78276,-0.52212 19.00822,-8.12299 20.1834,-18.06411 0.71146,-4.44422 -1.53654,-9.5976 -6.17146,-10.78963 -4.42575,-1.7676 -8.91557,-6.60478 -6.36428,-11.57591 1.16013,-3.98113 0.52598,-9.45124 -3.82815,-11.17473 -5.51924,-2.63306 -12.58674,-0.22898 -15.88879,4.77785 -2.31264,2.20315 -11.9852,1.03141 -14.9081,-0.6998 z"
       id="path4108"
       sodipodi:nodetypes="ccccccccccccccc" />
    <rect
       style="fill:none;stroke:#000000;stroke-width:2.07565;stroke-linecap:round;stroke-linejoin:round;stroke-miterlimit:4;stroke-dasharray:none;stroke-opacity:1"
       id="rect1151"
       width="173.60895"
       height="127.31699"
       x="10.580207"
       y="60.85104"
       ry="12.731698" />
    <text
       xml:space="preserve"
       style="font-size:19.7556px;line-height:1.25;font-family:Chalkboard;-inkscape-font-specification:Chalkboard;letter-spacing:0.264583px;word-spacing:0.264583px;stroke-width:0.264583"
       x="157.87413"
       y="82.681984"
       id="text1067"><tspan
         sodipodi:role="line"
         id="tspan1065"
         style="font-size:19.7556px;stroke-width:0.264583"
         x="157.87413"
         y="82.681984">10</tspan></text>
    <circle
       style="fill:#0066ff;fill-rule:evenodd;stroke-width:0.264583"
       id="path848-7-7"
       cx="62.183815"
       cy="99.044289"
       r="7.9375" />
    <circle
       style="fill:#0066ff;fill-rule:evenodd;stroke-width:0.264583"
       id="path848-7-7-8"
       cx="114.64198"
       cy="95.494492"
       r="7.9375" />
    <circle
       style="fill:#0066ff;fill-rule:evenodd;stroke-width:0.264583"
       id="path848-7-7-1"
       cx="169.96648"
       cy="108.116"
       r="7.9375" />
    <circle
       style="fill:#0066ff;fill-rule:evenodd;stroke-width:0.264583"
       id="path848-7-7-9"
       cx="152.78578"
       cy="119.93887"
       r="7.9375" />
    <circle
       style="fill:#0066ff;fill-rule:evenodd;stroke-width:0.264583"
       id="path848-7-7-6"
       cx="170.64995"
       cy="128.62596"
       r="7.9375" />
    <circle
       style="fill:#0066ff;fill-rule:evenodd;stroke-width:0.264583"
       id="path848-7-7-97"
       cx="102.41489"
       cy="163.88387"
       r="7.9375" />
    <circle
       style="fill:#0066ff;fill-rule:evenodd;stroke-width:0.264583"
       id="path848-7-7-5"
       cx="79.028854"
       cy="174.49411"
       r="7.9375" />
    <circle
       style="fill:#0066ff;fill-rule:evenodd;stroke-width:0.264583"
       id="path848-7-7-13"
       cx="123.31927"
       cy="173.98453"
       r="7.9375" />
    <circle
       style="fill:#0066ff;fill-rule:evenodd;stroke-width:0.264583"
       id="path848-7-7-7"
       cx="40.490589"
       cy="138.48653"
       r="7.9375" />
    <circle
       style="fill:#0066ff;fill-rule:evenodd;stroke-width:0.264583"
       id="path848-7-7-80"
       cx="43.645966"
       cy="160.57417"
       r="7.9375" />
    <path
       style="fill:none;stroke:#ee0000;stroke-width:3;stroke-linecap:butt;stroke-linejoin:miter;stroke-miterlimit:4;stroke-dasharray:9, 9;stroke-dashoffset:0;stroke-opacity:1;marker-end:url(#Arrow2Mend)"
       d="m 199.2684,124.57625 h 47.625"
       id="path1124" />
    <path
       style="opacity:0.139806;fill:#000000;fill-opacity:1;stroke:#000000;stroke-width:0.7;stroke-linecap:butt;stroke-linejoin:miter;stroke-miterlimit:4;stroke-dasharray:none;stroke-opacity:1"
       d="m 358.57687,110.52882 c -6.0549,-6.59916 -7.85519,-11.199154 -17.44308,-10.689627 -9.95824,1.191837 -17.74676,12.361867 -14.4195,22.053677 0.92812,4.56579 3.24828,9.53806 0.83332,14.0456 -3.03625,3.54129 -8.87422,4.23028 -10.49478,9.05039 -2.4132,3.97419 -4.55698,8.95712 -2.6706,13.576 5.09872,4.98027 13.18164,3.90468 19.10749,1.13051 9.00663,-3.60777 18.41167,-8.69288 28.43476,-6.78284 7.85899,1.66446 15.29464,7.06835 23.62977,5.14262 9.78276,-0.52212 19.00822,-8.12299 20.1834,-18.06411 0.71146,-4.44422 -1.53654,-9.5976 -6.17146,-10.78963 -4.42575,-1.7676 -8.91557,-6.60478 -6.36428,-11.57591 1.16013,-3.98113 0.52598,-9.45124 -3.82815,-11.17473 -5.51924,-2.63306 -12.58674,-0.22898 -15.88879,4.77785 -2.31264,2.20315 -11.9852,1.03141 -14.9081,-0.6998 z"
       id="path4108-4"
       sodipodi:nodetypes="ccccccccccccccc" />
    <rect
       style="fill:none;stroke:#000000;stroke-width:2.07565;stroke-linecap:round;stroke-linejoin:round;stroke-miterlimit:4;stroke-dasharray:none;stroke-opacity:1"
       id="rect1151-5"
       width="173.60895"
       height="127.31699"
       x="262.00916"
       y="60.502903"
       ry="12.731698" />
    <text
       xml:space="preserve"
       style="font-size:19.7556px;line-height:1.25;font-family:Chalkboard;-inkscape-font-specification:Chalkboard;letter-spacing:0.264583px;word-spacing:0.264583px;stroke-width:0.264583"
       x="409.30307"
       y="82.333847"
       id="text1067-1"><tspan
         sodipodi:role="line"
         id="tspan1065-2"
         style="font-size:19.7556px;stroke-width:0.264583"
         x="409.30307"
         y="82.333847">10</tspan></text>
    <circle
       style="fill:#0066ff;fill-rule:evenodd;stroke-width:0.264583"
       id="path848-7-7-3"
       cx="313.61276"
       cy="98.696152"
       r="7.9375" />
    <circle
       style="fill:#0066ff;fill-rule:evenodd;stroke-width:0.264583"
       id="path848-7-7-8-7"
       cx="366.07092"
       cy="95.146355"
       r="7.9375" />
    <circle
       style="fill:#0066ff;fill-rule:evenodd;stroke-width:0.264583"
       id="path848-7-7-1-2"
       cx="421.39542"
       cy="107.76786"
       r="7.9375" />
    <circle
       style="fill:#0066ff;fill-rule:evenodd;stroke-width:0.264583"
       id="path848-7-7-9-4"
       cx="404.21472"
       cy="119.59074"
       r="7.9375" />
    <circle
       style="fill:#0066ff;fill-rule:evenodd;stroke-width:0.264583"
       id="path848-7-7-6-1"
       cx="422.07889"
       cy="128.27785"
       r="7.9375" />
    <circle
       style="fill:#0066ff;fill-rule:evenodd;stroke-width:0.264583"
       id="path848-7-7-97-8"
       cx="353.84381"
       cy="163.53575"
       r="7.9375" />
    <circle
       style="fill:#0066ff;fill-rule:evenodd;stroke-width:0.264583"
       id="path848-7-7-5-2"
       cx="330.45779"
       cy="174.146"
       r="7.9375" />
    <circle
       style="fill:#0066ff;fill-rule:evenodd;stroke-width:0.264583"
       id="path848-7-7-13-6"
       cx="374.7482"
       cy="173.63641"
       r="7.9375" />
    <circle
       style="fill:#0066ff;fill-rule:evenodd;stroke-width:0.264583"
       id="path848-7-7-7-0"
       cx="291.91953"
       cy="138.13841"
       r="7.9375" />
    <circle
       style="fill:#0066ff;fill-rule:evenodd;stroke-width:0.264583"
       id="path848-7-7-80-3"
       cx="295.07489"
       cy="160.22606"
       r="7.9375" />
  </g>
</svg>
