<?xml version="1.0" encoding="UTF-8" standalone="no"?>
<!-- Created with Inkscape (http://www.inkscape.org/) -->

<svg
   width="430.67236mm"
   height="131.57367mm"
   viewBox="0 0 430.67236 131.57367"
   version="1.1"
   id="svg5"
   inkscape:version="1.1 (c4e8f9e, 2021-05-24)"
   sodipodi:docname="ESMSplats2Color2-3Splat6-3.svg"
   xmlns:inkscape="http://www.inkscape.org/namespaces/inkscape"
   xmlns:sodipodi="http://sodipodi.sourceforge.net/DTD/sodipodi-0.dtd"
   xmlns="http://www.w3.org/2000/svg"
   xmlns:svg="http://www.w3.org/2000/svg">
  <sodipodi:namedview
     id="namedview7"
     pagecolor="#ffffff"
     bordercolor="#666666"
     borderopacity="1.0"
     inkscape:pageshadow="2"
     inkscape:pageopacity="1"
     inkscape:pagecheckerboard="0"
     inkscape:document-units="mm"
     showgrid="true"
     inkscape:zoom="0.47433592"
     inkscape:cx="873.85328"
     inkscape:cy="313.06927"
     inkscape:window-width="1716"
     inkscape:window-height="997"
     inkscape:window-x="0"
     inkscape:window-y="25"
     inkscape:window-maximized="0"
     inkscape:current-layer="layer1"
     fit-margin-left="1"
     fit-margin-top="1"
     fit-margin-right="1"
     fit-margin-bottom="1"
     inkscape:snap-global="false">
    <inkscape:grid
       type="xygrid"
       id="grid824"
       originx="-8.5423815"
       originy="-58.813214" />
  </sodipodi:namedview>
  <defs
     id="defs2">
    <marker
       style="overflow:visible"
       id="Arrow2Mend"
       refX="0"
       refY="0"
       orient="auto"
       inkscape:stockid="Arrow2Mend"
       inkscape:isstock="true">
      <path
         transform="scale(-0.6)"
         d="M 8.7185878,4.0337352 -2.2072895,0.01601326 8.7185884,-4.0017078 c -1.7454984,2.3720609 -1.7354408,5.6174519 -6e-7,8.035443 z"
         style="fill:context-stroke;fill-rule:evenodd;stroke-width:0.625;stroke-linejoin:round"
         id="path1251" />
    </marker>
  </defs>
  <g
     inkscape:label="Layer 1"
     inkscape:groupmode="layer"
     id="layer1"
     transform="translate(-8.5423819,-58.813215)">
    <circle
       style="fill:#0066ff;fill-rule:evenodd;stroke-width:0.264583"
       id="path848-7-6"
       cx="89.004532"
       cy="149.92477"
       r="7.9375" />
    <rect
       style="fill:none;stroke:#000000;stroke-width:2.07565;stroke-linecap:round;stroke-linejoin:round;stroke-miterlimit:4;stroke-dasharray:none;stroke-opacity:1"
       id="rect1151"
       width="173.60895"
       height="127.31699"
       x="10.580207"
       y="60.85104"
       ry="12.731698" />
    <circle
       style="fill:#0066ff;fill-rule:evenodd;stroke-width:0.264583"
       id="path848-7"
       cx="48.154163"
       cy="95.25"
       r="7.9375" />
    <text
       xml:space="preserve"
       style="font-size:19.7556px;line-height:1.25;font-family:Chalkboard;-inkscape-font-specification:Chalkboard;letter-spacing:0.264583px;word-spacing:0.264583px;stroke-width:0.264583"
       x="161.57825"
       y="82.681984"
       id="text1067"><tspan
         sodipodi:role="line"
         id="tspan1065"
         style="font-size:19.7556px;stroke-width:0.264583"
         x="161.57825"
         y="82.681984">6</tspan></text>
    <circle
       style="fill:#0066ff;fill-rule:evenodd;stroke-width:0.264583"
       id="path848-7-7-6"
       cx="120.3611"
       cy="100.42478"
       r="7.9375" />
    <circle
       style="fill:#0066ff;fill-rule:evenodd;stroke-width:0.264583"
       id="path848-7-1-8"
       cx="59.389835"
       cy="160.77136"
       r="7.9375" />
    <circle
       style="fill:#0066ff;fill-rule:evenodd;stroke-width:0.264583"
       id="path848-7-1"
       cx="158.42285"
       cy="136.90883"
       r="7.9375" />
    <circle
       style="fill:#0066ff;fill-rule:evenodd;stroke-width:0.264583"
       id="path848-7-1-2"
       cx="139.01045"
       cy="164.12398"
       r="7.9375" />
    <path
       style="fill:none;stroke:#ee0000;stroke-width:3;stroke-linecap:butt;stroke-linejoin:miter;stroke-miterlimit:4;stroke-dasharray:9, 9;stroke-dashoffset:0;stroke-opacity:1;marker-end:url(#Arrow2Mend)"
       d="m 199.54089,124.73417 h 47.625"
       id="path1124" />
    <path
       style="opacity:0.139806;fill:#000000;fill-opacity:1;stroke:#000000;stroke-width:0.7;stroke-linecap:butt;stroke-linejoin:miter;stroke-miterlimit:4;stroke-dasharray:none;stroke-opacity:1"
       d="m 375.5182,75.55999 c -6.0549,-6.59916 -7.8552,-11.19916 -17.44308,-10.68963 -9.95825,1.19184 -17.74676,12.36187 -14.4195,22.05368 0.92812,4.56579 3.24827,9.538061 0.83332,14.04559 -3.03625,3.54129 -8.87422,4.23028 -10.49478,9.05039 -2.4132,3.97419 -4.55698,8.95712 -2.6706,13.576 5.09872,4.98027 13.18164,3.90468 19.10749,1.13051 9.00663,-3.60777 18.41167,-8.69288 28.43476,-6.78284 7.85899,1.66446 15.29464,7.06835 23.62977,5.14262 9.78276,-0.52212 19.00822,-8.12299 20.1834,-18.06411 0.71146,-4.44422 -1.53654,-9.597589 -6.17146,-10.789619 -4.42575,-1.767601 -8.91557,-6.604781 -6.36428,-11.575911 1.16013,-3.98113 0.52598,-9.45124 -3.82815,-11.17473 -5.51924,-2.63306 -12.58674,-0.22898 -15.88879,4.77785 -2.31264,2.20315 -11.9852,1.03141 -14.9081,-0.6998 z"
       id="path4108-7"
       sodipodi:nodetypes="ccccccccccccccc" />
    <path
       style="opacity:0.139806;fill:#008000;fill-opacity:1;stroke:#000000;stroke-width:0.7;stroke-linecap:butt;stroke-linejoin:miter;stroke-miterlimit:4;stroke-dasharray:none;stroke-opacity:1"
       d="m 327.2608,132.23584 c -6.0549,-6.59916 -7.8552,-11.19916 -17.44308,-10.68963 -9.95825,1.19184 -17.74677,12.36187 -14.4195,22.05368 0.92811,4.56579 3.24827,9.53806 0.83332,14.0456 -3.03626,3.54129 -8.87423,4.23028 -10.49478,9.05039 -2.41321,3.97419 -4.55699,8.95712 -2.67061,13.576 5.09873,4.98027 13.18165,3.90468 19.1075,1.13051 9.00663,-3.60777 18.41167,-8.69288 28.43476,-6.78284 7.85899,1.66446 15.29464,7.06835 23.62976,5.14262 9.78277,-0.52212 19.00823,-8.12299 20.18341,-18.06411 0.71146,-4.44422 -1.53654,-9.5976 -6.17146,-10.78963 -4.42575,-1.7676 -8.91557,-6.60478 -6.36428,-11.57591 1.16013,-3.98113 0.52598,-9.45124 -3.82815,-11.17473 -5.51926,-2.63306 -12.58674,-0.22898 -15.88879,4.77785 -2.31264,2.20315 -11.9852,1.03141 -14.9081,-0.6998 z"
       id="path4108-9-7"
       sodipodi:nodetypes="ccccccccccccccc" />
    <circle
       style="fill:#0066ff;fill-rule:evenodd;stroke-width:0.264583"
       id="path848-7-6-0"
       cx="341.99228"
       cy="150.10582"
       r="7.9375" />
    <rect
       style="fill:none;stroke:#000000;stroke-width:2.07565;stroke-linecap:round;stroke-linejoin:round;stroke-miterlimit:4;stroke-dasharray:none;stroke-opacity:1"
       id="rect1151-9"
       width="173.60895"
       height="127.31699"
       x="263.56796"
       y="61.03207"
       ry="12.731698" />
    <circle
       style="fill:#0066ff;fill-rule:evenodd;stroke-width:0.264583"
       id="path848-7-5"
       cx="301.14191"
       cy="95.43103"
       r="7.9375" />
    <text
       xml:space="preserve"
       style="font-size:19.7556px;line-height:1.25;font-family:Chalkboard;-inkscape-font-specification:Chalkboard;letter-spacing:0.264583px;word-spacing:0.264583px;stroke-width:0.264583"
       x="414.56601"
       y="82.863014"
       id="text1067-7"><tspan
         sodipodi:role="line"
         id="tspan1065-2"
         style="font-size:19.7556px;stroke-width:0.264583"
         x="414.56601"
         y="82.863014">6</tspan></text>
    <circle
       style="fill:#0066ff;fill-rule:evenodd;stroke-width:0.264583"
       id="path848-7-7-6-9"
       cx="373.34885"
       cy="100.60581"
       r="7.9375" />
    <circle
       style="fill:#0066ff;fill-rule:evenodd;stroke-width:0.264583"
       id="path848-7-1-8-7"
       cx="312.37759"
       cy="160.95241"
       r="7.9375" />
    <circle
       style="fill:#0066ff;fill-rule:evenodd;stroke-width:0.264583"
       id="path848-7-1-6"
       cx="411.41061"
       cy="137.08987"
       r="7.9375" />
    <circle
       style="fill:#0066ff;fill-rule:evenodd;stroke-width:0.264583"
       id="path848-7-1-2-8"
       cx="391.9982"
       cy="164.30502"
       r="7.9375" />
    <path
       style="opacity:0.996117;fill:#000000;fill-opacity:1;stroke:#000000;stroke-width:0.7;stroke-linecap:butt;stroke-linejoin:miter;stroke-miterlimit:4;stroke-dasharray:none;stroke-opacity:1"
       d="m 122.53043,75.37896 c -6.0549,-6.59916 -7.8552,-11.19916 -17.44308,-10.68963 -9.958247,1.19184 -17.746762,12.36187 -14.419496,22.05368 0.928117,4.56579 3.248269,9.538061 0.833321,14.0456 -3.036258,3.54129 -8.874226,4.23028 -10.494781,9.05039 -2.413207,3.97419 -4.556988,8.95712 -2.670604,13.576 5.098723,4.98027 13.181643,3.90468 19.107494,1.13051 9.006626,-3.60777 18.411666,-8.69288 28.434756,-6.78284 7.85899,1.66446 15.29464,7.06835 23.62977,5.14262 9.78276,-0.52212 19.00822,-8.12299 20.1834,-18.06411 0.71146,-4.44422 -1.53654,-9.597599 -6.17146,-10.789629 -4.42575,-1.767601 -8.91557,-6.604781 -6.36428,-11.575911 1.16013,-3.98113 0.52598,-9.45124 -3.82815,-11.17473 -5.51924,-2.63306 -12.58674,-0.22898 -15.88879,4.77785 -2.31264,2.20315 -11.9852,1.03141 -14.9081,-0.6998 z"
       id="path4108"
       sodipodi:nodetypes="ccccccccccccccc" />
    <path
       style="opacity:0.996117;fill:#008000;fill-opacity:1;stroke:#000000;stroke-width:0.7;stroke-linecap:butt;stroke-linejoin:miter;stroke-miterlimit:4;stroke-dasharray:none;stroke-opacity:1"
       d="m 74.273029,132.05482 c -6.0549,-6.59916 -7.8552,-11.19916 -17.44308,-10.68963 -9.95825,1.19184 -17.746767,12.36187 -14.419501,22.05368 0.928117,4.56579 3.248271,9.53806 0.833321,14.0456 -3.036258,3.54129 -8.874226,4.23028 -10.494781,9.05039 -2.413207,3.97419 -4.556988,8.95712 -2.670604,13.576 5.098723,4.98027 13.181643,3.90468 19.107495,1.13051 9.00663,-3.60777 18.41167,-8.69288 28.43476,-6.78284 7.85899,1.66446 15.29464,7.06835 23.629761,5.14262 9.78277,-0.52212 19.00823,-8.12299 20.18341,-18.06411 0.71146,-4.44422 -1.53654,-9.5976 -6.17146,-10.78963 -4.42575,-1.7676 -8.91557,-6.60478 -6.36428,-11.57591 1.16013,-3.98113 0.52598,-9.45124 -3.82815,-11.17473 -5.519256,-2.63306 -12.586741,-0.22898 -15.888791,4.77785 -2.31264,2.20315 -11.9852,1.03141 -14.9081,-0.6998 z"
       id="path4108-9"
       sodipodi:nodetypes="ccccccccccccccc" />
  </g>
</svg>
