<?xml version="1.0" encoding="UTF-8" standalone="no"?>
<!-- Created with Inkscape (http://www.inkscape.org/) -->

<svg
   width="177.6846mm"
   height="131.39264mm"
   viewBox="0 0 177.6846 131.39264"
   version="1.1"
   id="svg5"
   inkscape:version="1.1 (c4e8f9e, 2021-05-24)"
   sodipodi:docname="ESMSplats1Color2-3Splat14-5.svg"
   xmlns:inkscape="http://www.inkscape.org/namespaces/inkscape"
   xmlns:sodipodi="http://sodipodi.sourceforge.net/DTD/sodipodi-0.dtd"
   xmlns="http://www.w3.org/2000/svg"
   xmlns:svg="http://www.w3.org/2000/svg">
  <sodipodi:namedview
     id="namedview7"
     pagecolor="#ffffff"
     bordercolor="#666666"
     borderopacity="1.0"
     inkscape:pageshadow="2"
     inkscape:pageopacity="1"
     inkscape:pagecheckerboard="0"
     inkscape:document-units="mm"
     showgrid="true"
     inkscape:zoom="0.67081229"
     inkscape:cx="267.58603"
     inkscape:cy="467.34385"
     inkscape:window-width="1716"
     inkscape:window-height="997"
     inkscape:window-x="5"
     inkscape:window-y="40"
     inkscape:window-maximized="0"
     inkscape:current-layer="layer1"
     fit-margin-left="1"
     fit-margin-top="1"
     fit-margin-right="1"
     fit-margin-bottom="1"
     inkscape:snap-global="false">
    <inkscape:grid
       type="xygrid"
       id="grid824"
       originx="-8.5423814"
       originy="-58.813215" />
  </sodipodi:namedview>
  <defs
     id="defs2" />
  <g
     inkscape:label="Layer 1"
     inkscape:groupmode="layer"
     id="layer1"
     transform="translate(-8.5423819,-58.813215)">
    <circle
       style="fill:#0066ff;fill-rule:evenodd;stroke-width:0.211666"
       id="path848-7-4"
       cx="121.82636"
       cy="163.01566"
       r="6.3499999" />
    <circle
       style="fill:#0066ff;fill-rule:evenodd;stroke-width:0.211666"
       id="path848-7-7-4"
       cx="143.74446"
       cy="152.61076"
       r="6.3499999" />
    <circle
       style="fill:#0066ff;fill-rule:evenodd;stroke-width:0.211666"
       id="path848-7-76"
       cx="114.03601"
       cy="104.08257"
       r="6.3499999" />
    <circle
       style="fill:#0066ff;fill-rule:evenodd;stroke-width:0.211666"
       id="path848-7-7-1"
       cx="133.83748"
       cy="92.619339"
       r="6.3499999" />
    <rect
       style="fill:none;stroke:#000000;stroke-width:2.07565;stroke-linecap:round;stroke-linejoin:round;stroke-miterlimit:4;stroke-dasharray:none;stroke-opacity:1"
       id="rect1151"
       width="173.60895"
       height="127.31699"
       x="10.580207"
       y="60.85104"
       ry="12.731698" />
    <circle
       style="fill:#0066ff;fill-rule:evenodd;stroke-width:0.211666"
       id="path848-7"
       cx="52.387501"
       cy="100.0125"
       r="6.3499999" />
    <text
       xml:space="preserve"
       style="font-size:19.7556px;line-height:1.25;font-family:Chalkboard;-inkscape-font-specification:Chalkboard;letter-spacing:0.264583px;word-spacing:0.264583px;stroke-width:0.264583"
       x="158.93245"
       y="82.681984"
       id="text1067"><tspan
         sodipodi:role="line"
         id="tspan1065"
         style="font-size:19.7556px;stroke-width:0.264583"
         x="158.93245"
         y="82.681984">14</tspan></text>
    <circle
       style="fill:#0066ff;fill-rule:evenodd;stroke-width:0.211666"
       id="path848-7-7"
       cx="74.305595"
       cy="89.607613"
       r="6.3499999" />
    <circle
       style="fill:#0066ff;fill-rule:evenodd;stroke-width:0.211666"
       id="path848-7-9"
       cx="40.969788"
       cy="150.39415"
       r="6.3499999" />
    <circle
       style="fill:#0066ff;fill-rule:evenodd;stroke-width:0.211666"
       id="path848-7-7-8"
       cx="62.887882"
       cy="139.98926"
       r="6.3499999" />
    <circle
       style="fill:#0066ff;fill-rule:evenodd;stroke-width:0.211666"
       id="path848-7-6-4"
       cx="154.47864"
       cy="165.30724"
       r="6.3499999" />
    <circle
       style="fill:#0066ff;fill-rule:evenodd;stroke-width:0.211666"
       id="path848-7-6-9"
       cx="143.04039"
       cy="107.32716"
       r="6.3499999" />
    <circle
       style="fill:#0066ff;fill-rule:evenodd;stroke-width:0.211666"
       id="path848-7-6-7"
       cx="75.988594"
       cy="153.86899"
       r="6.3499999" />
    <circle
       style="fill:#0066ff;fill-rule:evenodd;stroke-width:0.211666"
       id="path848-7-6"
       cx="97.681824"
       cy="134.93672"
       r="6.3499999" />
    <path
       style="opacity:0.254369;fill:#000000;fill-opacity:1;stroke:#000000;stroke-width:0.56;stroke-linecap:butt;stroke-linejoin:miter;stroke-miterlimit:4;stroke-dasharray:none;stroke-opacity:1"
       d="m 135.15588,138.62446 c -4.84392,-5.27933 -6.28416,-8.95933 -13.95447,-8.55171 -7.9666,0.95347 -14.19743,9.8895 -11.53561,17.64295 0.7425,3.65263 2.59863,7.63044 0.66666,11.23648 -2.42902,2.83303 -7.09939,3.38422 -8.39583,7.24031 -1.93058,3.17935 -3.645601,7.16569 -2.136494,10.8608 4.078984,3.98421 10.545334,3.12374 15.286024,0.90441 7.2053,-2.88622 14.72933,-6.95431 22.74781,-5.42628 6.28719,1.33157 12.23571,5.65468 18.90381,4.1141 7.82621,-0.4177 15.20658,-6.49839 16.14672,-14.45129 0.56917,-3.55537 -1.22923,-7.67808 -4.93717,-8.6317 -3.5406,-1.41408 -7.13245,-5.28383 -5.09142,-9.26073 0.9281,-3.1849 0.42078,-7.56099 -3.06252,-8.93978 -4.41539,-2.10645 -10.06939,-0.18319 -12.71103,3.82228 -1.85011,1.76252 -9.58816,0.82512 -11.92648,-0.55984 z"
       id="path4108-9"
       sodipodi:nodetypes="ccccccccccccccc" />
    <path
       style="opacity:0.254369;fill:#000000;fill-opacity:1;stroke:#000000;stroke-width:0.56;stroke-linecap:butt;stroke-linejoin:miter;stroke-miterlimit:4;stroke-dasharray:none;stroke-opacity:1"
       d="m 54.262647,127.15675 c -4.84392,-5.27933 -6.28416,-8.95933 -13.954464,-8.55171 -7.966602,0.95347 -14.197418,9.8895 -11.535605,17.64295 0.742494,3.65263 2.598618,7.63044 0.666657,11.23648 -2.429006,2.83303 -7.099381,3.38422 -8.395826,7.24031 -1.930565,3.17935 -3.645591,7.16569 -2.136483,10.8608 4.078979,3.98421 10.545316,3.12374 15.286,0.90441 7.205305,-2.88622 14.729337,-6.95431 22.747809,-5.42628 6.287192,1.33157 12.235712,5.65468 18.903816,4.1141 7.826208,-0.4177 15.206576,-6.49839 16.14672,-14.45129 0.569168,-3.55537 -1.229232,-7.67808 -4.937168,-8.6317 -3.5406,-1.41408 -7.132456,-5.28383 -5.091424,-9.26073 0.928104,-3.1849 0.420784,-7.56099 -3.06252,-8.93978 -4.415392,-2.10645 -10.069392,-0.18319 -12.711032,3.82228 -1.850112,1.76252 -9.58816,0.82512 -11.92648,-0.55984 z"
       id="path4108-9-0"
       sodipodi:nodetypes="ccccccccccccccc" />
    <circle
       style="fill:#0066ff;fill-rule:evenodd;stroke-width:0.211666"
       id="path848-7-6-0"
       cx="163.55035"
       cy="121.92078"
       r="6.3499999" />
    <circle
       style="fill:#0066ff;fill-rule:evenodd;stroke-width:0.211666"
       id="path848-7-6-90"
       cx="54.295368"
       cy="174.37895"
       r="6.3499999" />
    <path
       style="opacity:0.254369;fill:#000000;fill-opacity:1;stroke:#000000;stroke-width:0.56;stroke-linecap:butt;stroke-linejoin:miter;stroke-miterlimit:4;stroke-dasharray:none;stroke-opacity:1"
       d="m 122.76771,79.457135 c -4.84392,-5.279328 -6.28416,-8.959328 -13.95446,-8.551704 -7.9666,0.953472 -14.197413,9.889496 -11.5356,17.642944 0.742493,3.652632 2.598615,7.630449 0.666656,11.23648 -2.429006,2.833035 -7.09938,3.384225 -8.395824,7.240315 -1.930566,3.17935 -3.645591,7.16569 -2.136484,10.8608 4.078979,3.98421 10.545315,3.12374 15.285992,0.90441 7.2053,-2.88622 14.72934,-6.95431 22.74781,-5.42628 6.28719,1.33157 12.23571,5.65468 18.90381,4.1141 7.82621,-0.4177 15.20658,-6.49839 16.14672,-14.45129 0.56917,-3.555375 -1.22923,-7.678078 -4.93716,-8.631702 -3.5406,-1.414081 -7.13246,-5.283825 -5.09143,-9.260729 0.92811,-3.184904 0.42079,-7.560992 -3.06252,-8.939784 -4.41539,-2.106448 -10.06939,-0.183184 -12.71103,3.82228 -1.85011,1.76252 -9.58816,0.825128 -11.92648,-0.55984 z"
       id="path4108"
       sodipodi:nodetypes="ccccccccccccccc" />
  </g>
</svg>
