<?xml version="1.0" encoding="UTF-8" standalone="no"?>
<!-- Created with Inkscape (http://www.inkscape.org/) -->

<svg
   width="632.84711mm"
   height="252.25496mm"
   viewBox="0 0 632.84712 252.25496"
   version="1.1"
   id="svg5"
   inkscape:version="1.1 (c4e8f9e, 2021-05-24)"
   sodipodi:docname="ESMPOWCBagsOfCoins.svg"
   inkscape:export-filename="/Users/chriswright/desktop/bitmap.png"
   inkscape:export-xdpi="96"
   inkscape:export-ydpi="96"
   xmlns:inkscape="http://www.inkscape.org/namespaces/inkscape"
   xmlns:sodipodi="http://sodipodi.sourceforge.net/DTD/sodipodi-0.dtd"
   xmlns="http://www.w3.org/2000/svg"
   xmlns:svg="http://www.w3.org/2000/svg">
  <sodipodi:namedview
     id="namedview7"
     pagecolor="#ffffff"
     bordercolor="#666666"
     borderopacity="1.0"
     inkscape:pageshadow="2"
     inkscape:pageopacity="1"
     inkscape:pagecheckerboard="0"
     inkscape:document-units="mm"
     showgrid="false"
     inkscape:zoom="0.23716796"
     inkscape:cx="1958.5276"
     inkscape:cy="912.85518"
     inkscape:window-width="1738"
     inkscape:window-height="997"
     inkscape:window-x="103"
     inkscape:window-y="146"
     inkscape:window-maximized="0"
     inkscape:current-layer="layer1"
     fit-margin-left="0.2"
     fit-margin-top="0.2"
     fit-margin-right="0.2"
     fit-margin-bottom="0.2" />
  <defs
     id="defs2" />
  <g
     inkscape:label="Layer 1"
     inkscape:groupmode="layer"
     id="layer1"
     transform="translate(-224.30111,-61.288749)">
    <g
       id="g6976"
       transform="translate(0,25.96618)"
       inkscape:export-filename="/Users/chriswright/desktop/bitmap.png"
       inkscape:export-xdpi="96"
       inkscape:export-ydpi="96"
       style="stroke:#000000;stroke-width:3.175;stroke-miterlimit:4;stroke-dasharray:none;stroke-opacity:1">
      <path
         style="fill:none;stroke:#000000;stroke-width:3.175;stroke-linecap:butt;stroke-linejoin:miter;stroke-miterlimit:4;stroke-dasharray:none;stroke-opacity:1"
         d="m 259.55605,88.350597 c 61.76594,32.264143 -49.16262,70.767993 -31.55381,141.203183 20.29769,81.19069 201.39738,75.23518 192.47814,-22.87649 -5.52526,-60.77789 -54.3718,-55.10218 -75.72908,-97.81673 -10.94536,-21.89072 31.46798,-36.196895 18.14342,-52.852592 -6.73718,-8.421473 -18.74029,3.130341 -28.93425,-3.325983 -6.29531,-3.764944 2.04157,-14.310537 -8.71284,-15.54119 -5.48053,1.895734 -10.86146,10.244309 -20.34103,9.509802 -9.21279,-0.713836 -5.97624,-11.118807 -17.82356,-6.082131 -11.99009,5.097372 -7.29061,12.757105 -12.45043,20.272088 -17.83704,3.435839 -31.02224,6.865429 -15.07656,27.510043 z"
         id="path1430"
         sodipodi:nodetypes="cssssccsscc" />
      <path
         style="fill:none;stroke:#000000;stroke-width:3.175;stroke-linecap:butt;stroke-linejoin:miter;stroke-miterlimit:4;stroke-dasharray:none;stroke-opacity:1"
         d="m 275.5519,111.00168 c 23.77334,-5.71459 48.11072,-4.67152 71.95587,-3.34679"
         id="path2782" />
      <text
         xml:space="preserve"
         style="font-size:50.8px;line-height:1.25;font-family:Chalkboard;-inkscape-font-specification:Chalkboard;letter-spacing:0px;word-spacing:0px;stroke:#000000;stroke-width:3.175;stroke-miterlimit:4;stroke-dasharray:none;stroke-opacity:1"
         x="307.96161"
         y="204.13904"
         id="text3118"><tspan
           sodipodi:role="line"
           id="tspan3116"
           style="font-size:50.8px;stroke:#000000;stroke-width:3.175;stroke-miterlimit:4;stroke-dasharray:none;stroke-opacity:1"
           x="307.96161"
           y="204.13904">4</tspan></text>
    </g>
    <g
       id="g6982"
       transform="translate(-25.997929,-26.77427)"
       inkscape:export-filename="/Users/chriswright/desktop/bitmap.png"
       inkscape:export-xdpi="96"
       inkscape:export-ydpi="96"
       style="stroke:#000000;stroke-width:3.175;stroke-miterlimit:4;stroke-dasharray:none;stroke-opacity:1">
      <path
         style="fill:none;stroke:#000000;stroke-width:3.175;stroke-linecap:butt;stroke-linejoin:miter;stroke-miterlimit:4;stroke-dasharray:none;stroke-opacity:1"
         d="m 502.83617,141.09105 c 61.76594,32.26414 -49.16262,70.76799 -31.55381,141.20318 20.29769,81.19069 201.39738,75.23518 192.47814,-22.87649 -5.52526,-60.77789 -54.3718,-55.10218 -75.72908,-97.81673 -10.94536,-21.89072 31.46798,-36.1969 18.14342,-52.85259 -6.73718,-8.42148 -18.74029,3.13034 -28.93425,-3.32599 -6.29531,-3.76494 2.04157,-14.310532 -8.71284,-15.541185 -5.48053,1.895734 -10.86146,10.244305 -20.34103,9.509802 -9.21279,-0.713836 -5.97624,-11.118807 -17.82356,-6.082131 -11.99009,5.097372 -7.29061,12.757104 -12.45043,20.272084 -17.83704,3.43584 -31.02224,6.86543 -15.07656,27.51005 z"
         id="path1430-5"
         sodipodi:nodetypes="cssssccsscc" />
      <path
         style="fill:none;stroke:#000000;stroke-width:3.175;stroke-linecap:butt;stroke-linejoin:miter;stroke-miterlimit:4;stroke-dasharray:none;stroke-opacity:1"
         d="m 518.83202,163.74213 c 23.77334,-5.71459 48.11072,-4.67152 71.95587,-3.34679"
         id="path2782-7" />
      <text
         xml:space="preserve"
         style="font-size:50.8px;line-height:1.25;font-family:Chalkboard;-inkscape-font-specification:Chalkboard;letter-spacing:0px;word-spacing:0px;stroke:#000000;stroke-width:3.175;stroke-miterlimit:4;stroke-dasharray:none;stroke-opacity:1"
         x="547.53748"
         y="256.87949"
         id="text3118-5"><tspan
           sodipodi:role="line"
           id="tspan3116-4"
           style="font-size:50.8px;stroke:#000000;stroke-width:3.175;stroke-miterlimit:4;stroke-dasharray:none;stroke-opacity:1"
           x="547.53748"
           y="256.87949">4</tspan></text>
    </g>
    <g
       id="g6988"
       transform="translate(9.4423177,16.73393)"
       inkscape:export-filename="/Users/chriswright/desktop/bitmap.png"
       inkscape:export-xdpi="96"
       inkscape:export-ydpi="96"
       style="stroke:#000000;stroke-width:3.175;stroke-miterlimit:4;stroke-dasharray:none;stroke-opacity:1">
      <path
         style="fill:none;stroke:#000000;stroke-width:3.175;stroke-linecap:butt;stroke-linejoin:miter;stroke-miterlimit:4;stroke-dasharray:none;stroke-opacity:1"
         d="m 684.67812,97.582852 c 61.76594,32.264138 -49.16262,70.767988 -31.55381,141.203178 20.29769,81.19069 201.39738,75.23518 192.47814,-22.87649 -5.52526,-60.77789 -54.3718,-55.10218 -75.72908,-97.81673 -10.94536,-21.890715 31.46798,-36.19689 18.14342,-52.852587 -6.73718,-8.421473 -18.74029,3.130341 -28.93425,-3.325983 -6.29531,-3.764944 2.04157,-14.310537 -8.71284,-15.54119 -5.48053,1.895734 -10.86146,10.244309 -20.34103,9.509802 -9.21279,-0.713836 -5.97624,-11.118807 -17.82356,-6.082131 -11.99009,5.097372 -7.29061,12.757105 -12.45043,20.272088 -17.83704,3.435839 -31.02224,6.865429 -15.07656,27.510043 z"
         id="path1430-56"
         sodipodi:nodetypes="cssssccsscc" />
      <path
         style="fill:none;stroke:#000000;stroke-width:3.175;stroke-linecap:butt;stroke-linejoin:miter;stroke-miterlimit:4;stroke-dasharray:none;stroke-opacity:1"
         d="m 700.67397,120.23393 c 23.77334,-5.71459 48.11072,-4.67152 71.95587,-3.34679"
         id="path2782-3" />
      <text
         xml:space="preserve"
         style="font-size:50.8px;line-height:1.25;font-family:Chalkboard;-inkscape-font-specification:Chalkboard;letter-spacing:0px;word-spacing:0px;stroke:#000000;stroke-width:3.175;stroke-miterlimit:4;stroke-dasharray:none;stroke-opacity:1"
         x="728.32111"
         y="213.37129"
         id="text3118-9"><tspan
           sodipodi:role="line"
           id="tspan3116-5"
           style="font-size:50.8px;stroke:#000000;stroke-width:3.175;stroke-miterlimit:4;stroke-dasharray:none;stroke-opacity:1"
           x="728.32111"
           y="213.37129">4</tspan></text>
    </g>
  </g>
</svg>
