<svg width="723.727" height="397.993" viewBox="0 0 191.486 105.302" xmlns="http://www.w3.org/2000/svg"><defs><marker id="a" orient="auto" overflow="visible"><path d="M-4 0l-2 2 7-2-7-2z" fill="context-stroke" fill-rule="evenodd" stroke="context-stroke" stroke-width=".4pt"/></marker><marker id="b" orient="auto" overflow="visible"><path d="M-4 0l-2 2 7-2-7-2z" fill="context-stroke" fill-rule="evenodd" stroke="context-stroke" stroke-width=".4pt"/></marker><marker id="c" orient="auto" overflow="visible"><path d="M-4 0l-2 2 7-2-7-2z" fill="context-stroke" fill-rule="evenodd" stroke="context-stroke" stroke-width=".4pt"/></marker><marker id="d" orient="auto" overflow="visible"><path d="M-4 0l-2 2 7-2-7-2z" fill="context-stroke" fill-rule="evenodd" stroke="context-stroke" stroke-width=".4pt"/></marker><marker id="g" orient="auto" overflow="visible"><path d="M-4 0l-2 2 7-2-7-2z" fill="context-stroke" fill-rule="evenodd" stroke="context-stroke" stroke-width=".4pt"/></marker><marker id="e" orient="auto" overflow="visible"><path d="M-4 0l-2 2 7-2-7-2z" fill="context-stroke" fill-rule="evenodd" stroke="context-stroke" stroke-width=".4pt"/></marker><marker id="f" orient="auto" overflow="visible"><path d="M-4 0l-2 2 7-2-7-2z" fill="context-stroke" fill-rule="evenodd" stroke="context-stroke" stroke-width=".4pt"/></marker><marker id="h" orient="auto" overflow="visible"><path d="M-4 0l-2 2 7-2-7-2z" fill="context-stroke" fill-rule="evenodd" stroke="context-stroke" stroke-width=".4pt"/></marker><marker id="i" orient="auto" overflow="visible"><path d="M-4 0l-2 2 7-2-7-2z" fill="context-stroke" fill-rule="evenodd" stroke="context-stroke" stroke-width=".4pt"/></marker><marker id="j" orient="auto" overflow="visible"><path d="M-4 0l-2 2 7-2-7-2z" fill="context-stroke" fill-rule="evenodd" stroke="context-stroke" stroke-width=".4pt"/></marker><marker id="k" orient="auto" overflow="visible"><path d="M-4 0l-2 2 7-2-7-2z" fill="context-stroke" fill-rule="evenodd" stroke="context-stroke" stroke-width=".4pt"/></marker><marker id="l" orient="auto" overflow="visible"><path d="M-4 0l-2 2 7-2-7-2z" fill="context-stroke" fill-rule="evenodd" stroke="context-stroke" stroke-width=".4pt"/></marker><marker id="n" orient="auto" overflow="visible"><path d="M-4 0l-2 2 7-2-7-2z" fill="context-stroke" fill-rule="evenodd" stroke="context-stroke" stroke-width=".4pt"/></marker><marker id="m" orient="auto" overflow="visible"><path d="M-4 0l-2 2 7-2-7-2z" fill="context-stroke" fill-rule="evenodd" stroke="context-stroke" stroke-width=".4pt"/></marker></defs><g transform="translate(-31.418 -134.991)"><text style="line-height:1.25;-inkscape-font-specification:Chalkboard" x="44.585" y="142.875" font-size="11.2889px" font-family="Chalkboard" letter-spacing="0.264583px" word-spacing="0.264583px" stroke-width="0.264583"><tspan x="44.585" y="142.875">27 + 27</tspan></text><text style="line-height:1.25;-inkscape-font-specification:Chalkboard" x="34.001" y="173.038" font-size="11.2889px" font-family="Chalkboard" letter-spacing="0.264583px" word-spacing="0.264583px" stroke-width="0.264583"><tspan x="34.001" y="173.038">20</tspan></text><text style="line-height:1.25;-inkscape-font-specification:Chalkboard" x="53.051" y="173.038" font-size="11.2889px" font-family="Chalkboard" letter-spacing="0.264583px" word-spacing="0.264583px" stroke-width="0.264583"><tspan x="53.051" y="173.038">20</tspan></text><text style="line-height:1.25;-inkscape-font-specification:Chalkboard" x="101.735" y="173.567" font-size="11.2889px" font-family="Chalkboard" letter-spacing="0.264583px" word-spacing="0.264583px" stroke-width="0.264583"><tspan x="101.735" y="173.567">7</tspan></text><path d="M90.553 144.04l-25.665 18.903" fill="#000000" fill-rule="evenodd" stroke="#db0000" stroke-width="0.973283" marker-end="url(#a)"/><path d="M90.705 143.684l11.83 19.223" fill="#000000" fill-rule="evenodd" stroke="#db0000" marker-end="url(#b)"/><path d="M31.618 176.914H65.79m9.275.18c37.29-.215 38.54-.063 38.54-.063" fill="none" stroke="#000000"/><text style="line-height:1.25;-inkscape-font-specification:Chalkboard" x="40.35" y="189.28" font-size="11.2889px" font-family="Chalkboard" letter-spacing="0.264583px" word-spacing="0.264583px" stroke-width="0.264583"><tspan x="40.35" y="189.28">40 + 14</tspan></text><path d="M50.789 143.227L39.23 162.735" fill="#000000" fill-rule="evenodd" stroke="#db0000" marker-end="url(#c)"/><path d="M50.944 143.728l27.412 19.322" fill="#000000" fill-rule="evenodd" stroke="#db0000" marker-end="url(#d)"/><text style="line-height:1.25;-inkscape-font-specification:Chalkboard" x="79.928" y="173.164" font-size="11.2889px" font-family="Chalkboard" letter-spacing="0.264583px" word-spacing="0.264583px" stroke-width="0.264583"><tspan x="79.928" y="173.164">7</tspan></text><path d="M94.185 192.214l-24.046 20.294" fill="#000000" fill-rule="evenodd" stroke="#db0000" stroke-width="1.00459" marker-end="url(#e)"/><path d="M94.113 191.706l.368 20.58" fill="#000000" fill-rule="evenodd" stroke="#db0000" marker-end="url(#f)"/><path d="M47.309 192.142l-.052 20.422" fill="#ff0000" fill-rule="evenodd" stroke="#eb0000" stroke-width="0.985145" marker-end="url(#g)"/><path d="M38.708 227.965h34.171m11.56-.46c20.664-.23 21.356-.068 21.356-.068" fill="none" stroke="#000000"/><text style="line-height:1.25;-inkscape-font-specification:Chalkboard" x="40.891" y="223.257" font-size="11.2889px" font-family="Chalkboard" letter-spacing="0.264583px" word-spacing="0.264583px" stroke-width="0.264583"><tspan x="40.891" y="223.257">40</tspan></text><text style="line-height:1.25;-inkscape-font-specification:Chalkboard" x="60.612" y="223.589" font-size="11.2889px" font-family="Chalkboard" letter-spacing="0.264583px" word-spacing="0.264583px" stroke-width="0.264583"><tspan x="60.612" y="223.589">10</tspan></text><text style="line-height:1.25;-inkscape-font-specification:Chalkboard" x="90.618" y="223.616" font-size="11.2889px" font-family="Chalkboard" letter-spacing="0.264583px" word-spacing="0.264583px" stroke-width="0.264583"><tspan x="90.618" y="223.616">4</tspan></text><text style="line-height:1.25;-inkscape-font-specification:Chalkboard" x="49.417" y="239.517" font-size="11.2889px" font-family="Chalkboard" letter-spacing="0.264583px" word-spacing="0.264583px" stroke-width="0.264583"><tspan x="49.417" y="239.517">50</tspan></text><text style="line-height:1.25;-inkscape-font-specification:Chalkboard" x="91.042" y="239.524" font-size="11.2889px" font-family="Chalkboard" letter-spacing="0.264583px" word-spacing="0.264583px" stroke-width="0.264583"><tspan x="91.042" y="239.524">4</tspan></text><text style="line-height:1.25;-inkscape-font-specification:Chalkboard" x="153.624" y="143.131" font-size="11.2889px" font-family="Chalkboard" letter-spacing="0.264583px" word-spacing="0.264583px" stroke-width="0.264583"><tspan x="153.624" y="143.131">63 + 63</tspan></text><text style="line-height:1.25;-inkscape-font-specification:Chalkboard" x="143.041" y="173.294" font-size="11.2889px" font-family="Chalkboard" letter-spacing="0.264583px" word-spacing="0.264583px" stroke-width="0.264583"><tspan x="143.041" y="173.294">60</tspan></text><text style="line-height:1.25;-inkscape-font-specification:Chalkboard" x="162.091" y="173.294" font-size="11.2889px" font-family="Chalkboard" letter-spacing="0.264583px" word-spacing="0.264583px" stroke-width="0.264583"><tspan x="162.091" y="173.294">60</tspan></text><text style="line-height:1.25;-inkscape-font-specification:Chalkboard" x="210.774" y="173.823" font-size="11.2889px" font-family="Chalkboard" letter-spacing="0.264583px" word-spacing="0.264583px" stroke-width="0.264583"><tspan x="210.774" y="173.823">3</tspan></text><path d="M199.592 144.297L173.928 163.2" fill="#000000" fill-rule="evenodd" stroke="#db0000" stroke-width="0.973283" marker-end="url(#h)"/><path d="M199.744 143.94l11.831 19.224" fill="#000000" fill-rule="evenodd" stroke="#db0000" marker-end="url(#i)"/><path d="M140.657 177.17h34.172m9.275.18c37.291-.215 38.54-.062 38.54-.062" fill="none" stroke="#000000"/><text style="line-height:1.25;-inkscape-font-specification:Chalkboard" x="149.389" y="189.536" font-size="11.2889px" font-family="Chalkboard" letter-spacing="0.264583px" word-spacing="0.264583px" stroke-width="0.264583"><tspan x="149.389" y="189.536">120 + 6</tspan></text><path d="M159.828 143.484l-11.557 19.507" fill="#000000" fill-rule="evenodd" stroke="#db0000" marker-end="url(#j)"/><path d="M159.983 143.984l27.412 19.323" fill="#000000" fill-rule="evenodd" stroke="#db0000" marker-end="url(#k)"/><text style="line-height:1.25;-inkscape-font-specification:Chalkboard" x="188.968" y="173.421" font-size="11.2889px" font-family="Chalkboard" letter-spacing="0.264583px" word-spacing="0.264583px" stroke-width="0.264583"><tspan x="188.968" y="173.421">3</tspan></text><path d="M206.09 192.399l-.052 20.421" fill="#ff0000" fill-rule="evenodd" stroke="#eb0000" stroke-width="0.985145" marker-end="url(#l)"/><path d="M196.124 228.04c20.665-.23 21.356-.067 21.356-.067" fill="none" stroke="#000000"/><text style="line-height:1.25;-inkscape-font-specification:Chalkboard" x="171.626" y="224.572" font-size="11.2889px" font-family="Chalkboard" letter-spacing="0.264583px" word-spacing="0.264583px" stroke-width="0.264583"><tspan x="171.626" y="224.572">20</tspan></text><text style="line-height:1.25;-inkscape-font-specification:Chalkboard" x="178.648" y="223.845" font-size="11.2889px" font-family="Chalkboard" letter-spacing="0.264583px" word-spacing="0.264583px" stroke-width="0.264583"/><text style="line-height:1.25;-inkscape-font-specification:Chalkboard" x="202.304" y="224.93" font-size="11.2889px" font-family="Chalkboard" letter-spacing="0.264583px" word-spacing="0.264583px" stroke-width="0.264583"><tspan x="202.304" y="224.93">6</tspan></text><text style="line-height:1.25;-inkscape-font-specification:Chalkboard" x="171.657" y="239.773" font-size="11.2889px" font-family="Chalkboard" letter-spacing="0.264583px" word-spacing="0.264583px" stroke-width="0.264583"><tspan x="171.657" y="239.773">20</tspan></text><text style="line-height:1.25;-inkscape-font-specification:Chalkboard" x="202.727" y="239.781" font-size="11.2889px" font-family="Chalkboard" letter-spacing="0.264583px" word-spacing="0.264583px" stroke-width="0.264583"><tspan x="202.727" y="239.781">6</tspan></text><path d="M137.715 228.512c20.664-.23 21.356-.067 21.356-.067" fill="none" stroke="#000000"/><text style="line-height:1.25;-inkscape-font-specification:Chalkboard" x="140.122" y="224.239" font-size="11.2889px" font-family="Chalkboard" letter-spacing="0.264583px" word-spacing="0.264583px" stroke-width="0.264583"><tspan x="140.122" y="224.239">100</tspan></text><path d="M167.729 228.205c20.664-.23 21.356-.068 21.356-.068" fill="none" stroke="#000000"/><text style="line-height:1.25;-inkscape-font-specification:Chalkboard" x="140.26" y="239.593" font-size="11.2889px" font-family="Chalkboard" letter-spacing="0.264583px" word-spacing="0.264583px" stroke-width="0.264583"><tspan x="140.26" y="239.593">100</tspan></text><path d="M158.229 192.166l-8.886 20.507" fill="#000000" fill-rule="evenodd" stroke="#db0000" marker-end="url(#m)"/><path d="M157.9 191.792l18.514 20.977" fill="#000000" fill-rule="evenodd" stroke="#db0000" marker-end="url(#n)"/></g></svg>