<svg width="341.648" height="345.291" viewBox="0 0 90.394 91.358" xmlns="http://www.w3.org/2000/svg"><defs><marker id="a" orient="auto" overflow="visible"><path d="M-4 0l-2 2 7-2-7-2z" fill="context-stroke" fill-rule="evenodd" stroke="context-stroke" stroke-width=".4pt"/></marker></defs><g transform="translate(-30.321 -52.217)"><path d="M47.625 111.125v5.292h5.292v-5.292zm0-5.292v5.292h5.292v-5.292zm0-5.291v5.291h5.292v-5.291zm0 37.041v5.292h5.292v-5.292z" fill="none" stroke="#000000"/><path d="M47.625 132.292v5.291h5.292v-5.291z" fill="none" stroke="#000000"/><path d="M47.625 127v5.292h5.292V127zm0-5.292V127h5.292v-5.292zm0-5.291v5.291h5.292v-5.291zm48.154-26.459v52.917h5.292V89.958z" fill="none" stroke="#000000"/><path d="M95.78 89.958v5.292h5.29v-5.292z" fill="#ff0000" stroke="#000000"/><path d="M95.78 95.25v5.292h5.29V95.25z" fill="#ff0000" stroke="#000000"/><path d="M95.78 74.083v5.292h5.29v-5.292zm0-5.291v5.291h5.29v-5.291z" fill="none" stroke="#000000"/><path d="M95.78 63.5v5.292h5.29V63.5zm0-5.292V63.5h5.29v-5.292zm0-5.291v5.291h5.29v-5.291zm-48.155 5.291V63.5h5.292v-5.292zm0-5.291v5.291h5.292v-5.291z" fill="none" stroke="#000000"/><path d="M47.625 84.667v5.291h5.292v-5.291zm0-5.292v5.292h5.292v-5.292z" fill="#ff0000" stroke="#000000"/><path d="M47.625 74.083v5.292h5.292v-5.292zm0-5.291v5.291h5.292v-5.291zm0-5.292v5.292h5.292V63.5z" fill="none" stroke="#000000"/><text style="line-height:1.25;-inkscape-font-specification:Chalkboard" x="29.768" y="121.179" font-size="14.1111px" font-family="Chalkboard" letter-spacing="0.264583px" word-spacing="0.264583px" stroke-width="0.264583"><tspan x="29.768" y="121.179">8</tspan></text><text style="line-height:1.25;-inkscape-font-specification:Chalkboard" x="107.421" y="121.708" font-size="14.1111px" font-family="Chalkboard" letter-spacing="0.264583px" word-spacing="0.264583px" stroke-width="0.264583"><tspan x="107.421" y="121.708">10</tspan></text><text style="line-height:1.25;-inkscape-font-specification:Chalkboard" x="110.096" y="73.361" font-size="14.1111px" font-family="Chalkboard" letter-spacing="0.264583px" word-spacing="0.264583px" fill="#ff0000" stroke-width="0.264583"><tspan x="110.096" y="73.361" fill="#000000">5</tspan></text><text style="line-height:1.25;-inkscape-font-specification:Chalkboard" x="30.162" y="73.554" font-size="14.1111px" font-family="Chalkboard" letter-spacing="0.264583px" word-spacing="0.264583px" stroke-width="0.264583"><tspan x="30.162" y="73.554">7</tspan></text><path d="M60.274 95.63h23.864" fill="none" stroke="#008400" stroke-width="1.5875" stroke-dasharray="4.7625, 1.5875" marker-end="url(#a)"/></g></svg>